<?xml version="1.0" encoding="UTF-8"?>
<svg id="Layer_2" data-name="Layer 2" xmlns="http://www.w3.org/2000/svg" viewBox="0 0 1933.21 1185.1">
  <defs>
    <style>
      .cls-1 {
        fill: #250020;
        stroke-width: 0px;
      }
    </style>
  </defs>
  <g id="BackmostTreesBackgroud">
    <g>
      <path class="cls-1" d="M366.12,203.7c-18.82,49.8-57.5,91.77-105.6,114.58,27.24-.79,54.49-1.58,81.73-2.37-18.71,22.27-40.78,41.71-65.23,57.47,11.24.33,22.48.65,33.71.98-42.36,38.22-84.72,76.43-127.08,114.65,49.37.16,98.73.31,148.1.47-8.88.3-17.72,1.71-26.25,4.19,14.04-13.02,30.65-23.25,48.6-29.93,4.37,12.04,19.44,15.64,32.2,16.71,26.34,2.2,52.95,1.23,79.06-2.89-6.99-16.32-19.88-30.03-35.73-38.02,10.08,3.15,20.16,6.3,30.24,9.45-30.35-20.33-60.32-41.23-89.88-62.69,31.4-3.37,62.81-6.74,94.21-10.12-25.02-15.87-50.05-31.74-75.07-47.6,6.43-1.46,12.87-2.93,19.3-4.39-11.02-7.4-21.34-15.81-30.81-25.11,14.38-1.71,28.75-3.41,43.13-5.12-36.77-9.77-62.97-49.37-57.58-87.04"/>
      <path class="cls-1" d="M364.67,203.3c-7.31,19.29-17.63,37.46-30.35,53.71-12.71,16.23-27.79,30.65-44.65,42.51-9.46,6.65-19.47,12.5-29.91,17.46-1.36.65-.67,2.84.76,2.8,21.25-.62,42.51-1.23,63.76-1.85,5.99-.17,11.98-.35,17.97-.52l-1.06-2.56c-14.51,17.24-30.99,32.83-49.08,46.26-5.16,3.83-10.45,7.49-15.85,10.97-1.25.81-.76,2.75.76,2.8,11.24.33,22.48.65,33.71.98l-1.06-2.56c-16.53,14.91-33.06,29.82-49.59,44.74-16.53,14.91-33.06,29.82-49.59,44.74-9.3,8.39-18.6,16.78-27.91,25.18-.99.89-.19,2.56,1.06,2.56,38.57.12,77.13.24,115.7.37,10.8.03,21.6.07,32.4.1v-3c-9.02.32-17.97,1.74-26.65,4.25l1.46,2.51c13.89-12.83,30.23-22.91,47.93-29.54l-1.85-1.05c4.57,12.22,18.43,16.05,30.15,17.46,8.45,1.02,17.05,1.32,25.55,1.46,9.06.15,18.13-.07,27.17-.67,10.12-.67,20.21-1.81,30.23-3.38,1.06-.17,1.23-1.42.9-2.2-7.16-16.56-20.19-30.39-36.27-38.56l-1.16,2.74c10.08,3.15,20.16,6.3,30.24,9.45,1.69.53,2.52-1.83,1.16-2.74-23.67-15.85-47.1-32.05-70.29-48.59-6.55-4.67-13.08-9.37-19.59-14.1l-.76,2.8c24.51-2.63,49.02-5.26,73.53-7.9,6.89-.74,13.79-1.48,20.68-2.22,1.44-.15,2.09-1.95.76-2.8-19.5-12.36-39-24.73-58.49-37.09-5.52-3.5-11.05-7.01-16.57-10.51l-.36,2.74c6.43-1.46,12.87-2.93,19.3-4.39,1.34-.3,1.37-2.06.36-2.74-10.91-7.34-21.11-15.67-30.5-24.88l-1.06,2.56c14.38-1.71,28.75-3.41,43.13-5.12,1.58-.19,2.16-2.47.4-2.95-14.04-3.78-26.54-11.94-36.23-22.71s-16.49-23.99-19.42-38.12c-1.66-7.98-2.01-16.28-.88-24.36.26-1.89-2.63-2.7-2.89-.8-2.1,15.01.54,30.25,6.89,43.96s16.33,25.67,28.73,34.23c6.99,4.83,14.79,8.48,23,10.69l.4-2.95c-14.38,1.71-28.75,3.41-43.13,5.12-1.22.14-2.07,1.57-1.06,2.56,9.57,9.38,19.99,17.86,31.11,25.35l.36-2.74c-6.43,1.46-12.87,2.93-19.3,4.39-1.31.3-1.4,2.08-.36,2.74,19.5,12.36,39,24.73,58.49,37.09,5.52,3.5,11.05,7.01,16.57,10.51l.76-2.8c-24.51,2.63-49.02,5.26-73.53,7.9-6.89.74-13.79,1.48-20.68,2.22-1.51.16-2,1.89-.76,2.8,23.05,16.73,46.35,33.13,69.88,49.18,6.65,4.53,13.31,9.03,19.99,13.51l1.16-2.74c-10.08-3.15-20.16-6.3-30.24-9.45-1.6-.5-2.68,1.97-1.16,2.74,15.69,7.97,28.22,21.34,35.2,37.49l.9-2.2c-17.12,2.69-34.45,4.02-51.79,3.98-8.59-.02-17.18-.37-25.75-1.05-6.1-.49-12.22-1.37-17.99-3.49s-11.58-6.04-13.89-12.21c-.26-.71-1.03-1.35-1.85-1.05-18.21,6.82-34.97,17.12-49.26,30.31-1.11,1.02.05,2.91,1.46,2.51,8.43-2.43,17.08-3.82,25.85-4.14,1.92-.07,1.94-2.99,0-3-38.57-.12-77.13-.24-115.7-.37-10.8-.03-21.6-.07-32.4-.1l1.06,2.56c16.53-14.91,33.06-29.82,49.59-44.74s33.06-29.82,49.59-44.74c9.3-8.39,18.6-16.78,27.91-25.18,1-.91.18-2.52-1.06-2.56-11.24-.33-22.48-.65-33.71-.98l.76,2.8c19.15-12.36,36.86-26.93,52.65-43.37,4.45-4.64,8.74-9.42,12.88-14.34.79-.94.33-2.6-1.06-2.56-21.25.62-42.51,1.23-63.76,1.85-5.99.17-11.98.35-17.97.52l.76,2.8c18.86-8.97,36.29-20.85,51.66-34.99s28.76-30.65,39.39-48.7c5.97-10.14,11.06-20.78,15.24-31.78.69-1.81-2.21-2.59-2.89-.8h0Z"/>
    </g>
    <g>
      <path class="cls-1" d="M611.75,218.43c-14.13,14.93-30.02,28.48-47.32,40.34,5.38,5.3,14.57,4.52,22.49,5.13s17.44,5.77,15.39,12.73c-1.44,4.89-7.67,6.92-12.94,8.57-27.84,8.71-51.65,27.57-64.91,51.43,19.1.67,38.29-.83,56.98-4.45-35.03,35.16-71.82,68.88-110.23,101,20.61-2.16,41.21-4.32,61.82-6.48-28.85,17.09-54.91,38.06-77.05,62.01-2.81,3.04-5.66,7.35-3.25,10.66,1.93,2.63,6.03,2.84,9.51,2.76,65.21-1.39,183.42,15.21,248.63,13.82-21.95-18.23-40.71-39.62-55.34-63.12,50.19,3.72,75.34-4.28,97.92-16.83-23.53-33.72-78.28-16.39-94.58-53.45,8.54-4.89,43.21,5.76,53,8-16.16-6.06-64.58-42.82-75.07-55.52,16.91-1.69,34.13-.81,50.73,2.58-5.21-14.49-39.94-32.27-53.66-41.07,9.89-2.63,44.03-.38,53.93-3.01-30.04-22.83-55.52-50.57-74.83-81.5"/>
      <path class="cls-1" d="M610.69,217.37c-14.21,14.99-30,28.41-47.02,40.1-.77.53-1.05,1.65-.3,2.36,7.34,6.99,17.91,3.96,26.84,6.1,3.77.9,8.53,2.82,10.34,6.54,2,4.1-1.8,7.33-5.14,8.93-4.36,2.1-9.22,3.15-13.73,4.89-4.74,1.83-9.36,3.95-13.83,6.36-8.82,4.75-17.05,10.63-24.37,17.46-8.03,7.48-14.96,16.17-20.32,25.76-.57,1.01.15,2.22,1.3,2.26,19.23.65,38.49-.87,57.37-4.51l-1.46-2.51c-13.67,13.72-27.58,27.2-41.73,40.42s-28.63,26.29-43.28,39.06c-8.33,7.26-16.74,14.43-25.22,21.52-.96.8-.21,2.69,1.06,2.56,20.61-2.16,41.21-4.32,61.82-6.48l-.76-2.8c-25.08,14.88-48.38,32.82-68.96,53.5-2.48,2.49-4.92,5.02-7.32,7.59-2.2,2.36-4.58,4.92-5.4,8.13-.74,2.87.27,5.72,2.78,7.35,2.32,1.51,5.34,1.68,8.03,1.67,10.02-.04,20.01-.04,30.03.32,23.69.86,47.33,2.68,70.95,4.59,25.15,2.03,50.29,4.25,75.46,6.06,22.03,1.58,44.13,2.99,66.23,2.92,2.27,0,4.54-.03,6.81-.08,1.2-.03,2.11-1.69,1.06-2.56-16.8-13.98-31.98-29.94-44.85-47.61-3.6-4.94-7.02-10.02-10.26-15.2l-1.3,2.26c16.26,1.19,32.69,1.48,48.89-.6,11.67-1.5,23.12-4.28,34.01-8.77,5.41-2.23,10.66-4.82,15.78-7.66.67-.37,1-1.4.54-2.05-4.39-6.24-10.15-11.25-16.81-14.93s-13.57-5.95-20.69-7.89c-13.86-3.77-28.9-5.71-41.45-13.14-6.98-4.13-12.33-10.07-15.63-17.49l-.54,2.05c2.02-1.12,4.88-1.11,7.24-1.05,3.74.09,7.46.62,11.13,1.26,8.13,1.42,16.15,3.46,24.13,5.54,3.11.81,6.21,1.67,9.35,2.4,1.91.44,2.58-2.22.8-2.89-4.36-1.65-8.49-4.18-12.47-6.62-5.69-3.49-11.22-7.25-16.68-11.1-11.59-8.2-22.91-16.85-33.64-26.16-4.05-3.52-8.19-7.11-11.63-11.25l-1.06,2.56c16.8-1.65,33.79-.83,50.33,2.53,1.02.21,2.27-.69,1.85-1.85-2.86-7.73-10.32-13.44-16.69-18.2-8.23-6.15-17.08-11.44-25.91-16.67-3.93-2.33-7.89-4.62-11.74-7.08l-.36,2.74c2.62-.68,5.37-.85,8.06-1.02,3.85-.23,7.71-.31,11.57-.36,8.22-.11,16.45-.01,24.65-.46,3.21-.18,6.52-.36,9.64-1.17,1.37-.36,1.32-2.01.36-2.74-22.93-17.46-43.56-38.05-60.78-61.18-4.77-6.41-9.28-13.01-13.52-19.78-1.02-1.63-3.62-.13-2.59,1.51,15.44,24.67,34.51,47.02,56.26,66.35,6.16,5.48,12.55,10.7,19.11,15.69l.36-2.74c-2.62.68-5.37.85-8.06,1.02-3.85.23-7.71.31-11.57.36-8.22.11-16.45.01-24.65.46-3.21.18-6.52.36-9.64,1.17-1.29.34-1.42,2.06-.36,2.74,7.28,4.66,14.85,8.84,22.2,13.39,8.23,5.1,16.57,10.44,23.59,17.16,2.85,2.72,5.79,5.86,7.18,9.62l1.85-1.85c-16.81-3.41-34.06-4.32-51.13-2.64-1.34.13-1.92,1.52-1.06,2.56,2.98,3.59,6.52,6.74,10.01,9.83,5.05,4.47,10.28,8.73,15.58,12.9,11.38,8.95,23.09,17.58,35.37,25.27,4.71,2.95,9.56,5.93,14.77,7.91l.8-2.89c-6.79-1.56-13.47-3.53-20.25-5.15-8.03-1.92-16.3-3.83-24.59-4.14-3.08-.12-6.56-.09-9.32,1.44-.76.42-.86,1.33-.54,2.05,2.95,6.64,7.57,12.26,13.48,16.47s12.28,6.67,18.91,8.72c14.17,4.37,29.24,6.18,42.77,12.53,7.68,3.61,14.51,8.75,19.42,15.73l.54-2.05c-9.09,5.04-18.6,9.22-28.62,12.05-12.68,3.58-25.83,5.07-38.97,5.41-9.87.26-19.74-.11-29.58-.83-1.14-.08-1.87,1.34-1.3,2.26,11.59,18.56,25.55,35.63,41.36,50.75,4.59,4.39,9.33,8.61,14.21,12.67l1.06-2.56c-20.89.44-41.8-.74-62.63-2.12-24.31-1.61-48.59-3.71-72.87-5.72-23.71-1.95-47.43-3.89-71.2-5.09-10.28-.52-20.58-.9-30.87-.97-2.34-.01-4.68-.01-7.02.01-2.49.02-5.01.21-7.49-.02-2.75-.26-6.06-1.53-5.38-4.91s3.59-5.86,5.77-8.17c19.42-20.6,41.48-38.66,65.38-53.82,3.04-1.93,6.11-3.81,9.21-5.65,1.19-.71.79-2.96-.76-2.8-20.61,2.16-41.21,4.32-61.82,6.48l1.06,2.56c14.93-12.5,29.65-25.25,44.14-38.26,14.44-12.97,28.65-26.19,42.62-39.65,7.9-7.62,15.73-15.32,23.47-23.09,1.12-1.12-.04-2.78-1.46-2.51-18.63,3.59-37.62,5.04-56.58,4.4l1.3,2.26c10.04-17.95,25.58-32.42,43.62-42.14,4.67-2.51,9.5-4.71,14.47-6.57,4.58-1.71,9.5-2.77,13.84-5.06,3.63-1.91,6.85-5.32,6.37-9.72-.46-4.14-4.01-7.11-7.52-8.87-4.88-2.43-10.01-2.7-15.35-2.94s-11.56-.47-15.68-4.39l-.3,2.36c17.23-11.83,33.25-25.4,47.63-40.57,1.33-1.4-.79-3.53-2.12-2.12h0Z"/>
    </g>
    <g>
      <path class="cls-1" d="M785.89,337.5c-13.13,20.45-29.77,38.64-48.99,53.51,12.65,2.99,26.46.72,37.49-6.16-7.65,9.01-16.3,17.17-25.74,24.28,12.45-.18,24.86-3.14,36.05-8.59-25.39,23.09-48.66,48.51-69.43,75.82,23.52,10.67,49.27-8.32,74.87-11.75,3.53,4.58-2.09,12.43-7.57,10.57,18.31-10.95,39.18-17.61,60.45-19.28-13.84-16.41-28.29-32.3-43.32-47.62,10.46,4.26,22.19,5.31,33.24,2.97-10.37-5-19.88-11.76-28-19.91,9.36-1.54,19.06-1.06,28.22,1.41-12.27-10.24-24.54-20.48-36.81-30.73,3.12-5.8,11.35-8.12,17.04-4.8-13.16-10.58-23.31-24.86-28.99-40.76"/>
      <path class="cls-1" d="M784.6,336.74c-10.21,15.86-22.5,30.34-36.51,42.97-3.95,3.56-8.04,6.98-12.24,10.24-.9.7-.35,2.27.66,2.51,13.11,3.04,27.19.77,38.65-6.31l-1.82-2.36c-7.58,8.9-16.1,17-25.43,24.05-1.1.83-.87,2.82.76,2.8,12.76-.22,25.33-3.24,36.81-8.8l-1.82-2.36c-19.88,18.1-38.48,37.61-55.59,58.35-4.81,5.83-9.5,11.76-14.07,17.78-.46.6-.14,1.75.54,2.05,19.47,8.7,40.15-1.52,58.83-7.46,5.62-1.79,11.34-3.33,17.19-4.14l-1.69-.69c2.66,3.65-1.48,9.73-5.87,8.37l.36,2.74c14.1-8.4,29.63-14.25,45.77-17.24,4.61-.85,9.25-1.46,13.92-1.83,1.34-.11,1.92-1.54,1.06-2.56-10.79-12.79-21.95-25.28-33.47-37.42-3.25-3.43-6.53-6.83-9.84-10.2l-1.46,2.51c10.77,4.33,22.68,5.32,34.03,2.97,1.22-.25,1.5-2.19.36-2.74-10.27-4.97-19.63-11.61-27.7-19.67l-.66,2.51c9.13-1.47,18.49-.96,27.42,1.41,1.36.36,2.66-1.51,1.46-2.51-12.27-10.24-24.54-20.48-36.81-30.73l.23,1.82c2.85-5.1,9.87-7.14,14.99-4.26,1.43.8,3.19-1.25,1.82-2.36-12.96-10.47-22.96-24.41-28.6-40.1-.65-1.8-3.55-1.03-2.89.8,5.81,16.17,16,30.62,29.37,41.43l1.82-2.36c-6.51-3.66-15.44-1.2-19.09,5.34-.3.54-.28,1.39.23,1.82,12.27,10.24,24.54,20.48,36.81,30.73l1.46-2.51c-9.48-2.52-19.34-2.97-29.02-1.41-1.15.19-1.39,1.78-.66,2.51,8.24,8.23,17.82,15.06,28.3,20.14l.36-2.74c-10.85,2.25-22.17,1.16-32.44-2.97-1.46-.59-2.43,1.52-1.46,2.51,11.72,11.95,23.09,24.24,34.09,36.86,3.11,3.56,6.18,7.15,9.23,10.76l1.06-2.56c-16.76,1.34-33.19,5.65-48.44,12.73-4.37,2.03-8.63,4.29-12.76,6.75-1.13.67-.87,2.36.36,2.74,6.77,2.09,13.48-6.97,9.26-12.78-.44-.61-.97-.79-1.69-.69-10.18,1.39-19.86,4.99-29.53,8.31s-18.66,6.37-28.45,6.59c-5.4.12-10.78-.79-15.73-3l.54,2.05c16.16-21.23,33.84-41.31,52.84-60.04,5.35-5.27,10.8-10.43,16.35-15.48,1.33-1.21-.36-3.06-1.82-2.36-10.99,5.32-23.08,8.18-35.29,8.39l.76,2.8c9.54-7.21,18.28-15.41,26.04-24.52,1.05-1.23-.28-3.3-1.82-2.36-10.77,6.65-23.99,8.87-36.34,6.01l.66,2.51c15.05-11.68,28.49-25.35,39.97-40.55,3.25-4.3,6.33-8.73,9.25-13.27,1.05-1.63-1.55-3.13-2.59-1.51h0Z"/>
    </g>
    <g>
      <path class="cls-1" d="M1075.64,307.23c-13.3,11.72-26.36,23.71-39.16,35.97,13.02,4.06,27.53,3.1,39.9-2.63-27.71,28.02-60.11,51.41-95.43,68.89,29.12-4.08,57.59-12.71,84.06-25.51-28.13,27.11-56.27,54.21-84.4,81.32,12.52-7.28,27.32-10.55,41.74-9.22-1.97,3.07-3.94,6.14-5.91,9.22,4.88-1.35,9.38-4.01,12.92-7.64-27.64,25.35-55.27,50.71-82.91,76.06,19.77,2.37,39.99.9,59.22-4.3-12.98,12.18-25.96,24.35-38.94,36.53,56.03,4.14,113.37-12.53,158.45-46.07,2.2-1.63,4.52-3.55,5.03-6.23.54-2.83-1.09-5.57-2.66-7.99-10.83-16.75-21.66-33.49-32.49-50.24,24.51.31,49.02.62,73.54.94,2.06.03,4.26.02,6-1.09,5.53-3.53.72-12.02-4.36-16.18-17.09-14-35.94-25.86-55.96-35.21,14.97-.21,29.95-.42,44.92-.62-12.95-9.7-27.7-17-43.26-21.41,10.34-7.83,24.77-9.9,36.89-5.3-13.58-7.46-27.16-14.93-40.73-22.39-2.2-1.21-4.67-2.81-4.89-5.31s3.99-4.32,4.72-1.92c-9.43-.45-18.23-7.3-20.99-16.33,4.54,4.13,11.35,5.58,17.18,3.67,1.98-12.44-5.81-25.75-17.63-30.1,6.75-4.38,17.11-1.24,20.29,6.15-13.14-1.25-25.46-9.27-31.92-20.77"/>
      <path class="cls-1" d="M1074.58,306.17c-13.3,11.72-26.36,23.71-39.16,35.97-.84.8-.39,2.18.66,2.51,13.5,4.15,28.23,3.09,41.05-2.79l-1.82-2.36c-21.54,21.75-45.85,40.7-72.22,56.25-7.48,4.41-15.13,8.55-22.91,12.41-1.66.82-.38,2.96,1.16,2.74,22.81-3.21,45.21-9.18,66.58-17.78,6.03-2.43,11.98-5.06,17.84-7.88l-1.82-2.36c-21.93,21.13-43.85,42.25-65.78,63.38-6.21,5.98-12.42,11.96-18.62,17.94-1.23,1.19.35,3.21,1.82,2.36,12.38-7.14,26.75-10.28,40.98-9.02l-1.3-2.26c-1.97,3.07-3.94,6.14-5.91,9.22-.71,1.11.47,2.55,1.69,2.2,5.15-1.47,9.81-4.22,13.58-8.02,1.37-1.38-.7-3.42-2.12-2.12-21.54,19.76-43.08,39.52-64.62,59.28l-18.29,16.78c-1.06.97-.13,2.42,1.06,2.56,19.93,2.36,40.23.86,59.61-4.35l-1.46-2.51c-12.98,12.18-25.96,24.35-38.94,36.53-1.01.95-.17,2.47,1.06,2.56,15.6,1.14,31.3.69,46.81-1.29,15.57-2,30.94-5.48,45.84-10.44,14.81-4.93,29.15-11.29,42.73-19,6.83-3.88,13.47-8.1,19.87-12.65,2.87-2.04,6.2-4.04,8.29-6.93,2.36-3.27,1.6-7.06-.27-10.36-2.25-3.97-4.94-7.73-7.41-11.55s-4.97-7.68-7.45-11.52c-5.02-7.76-10.03-15.52-15.05-23.28-1.24-1.92-2.48-3.84-3.73-5.76l-1.3,2.26c24.66.31,49.32.84,73.98.94,2.41.01,4.89-.19,6.87-1.71,1.52-1.16,2.41-2.8,2.6-4.7.41-4.02-2.14-8.04-4.66-10.94-1.61-1.85-3.55-3.32-5.46-4.84-2.11-1.68-4.25-3.34-6.42-4.96-4.52-3.39-9.15-6.63-13.87-9.72-10.57-6.91-21.62-13.06-33.06-18.41l-.76,2.8c14.97-.21,29.95-.42,44.92-.62,1.6-.02,1.89-1.95.76-2.8-13.09-9.77-27.92-17.08-43.62-21.56l.36,2.74c10.17-7.61,23.83-9.59,35.74-5.15,1.6.6,2.63-1.93,1.16-2.74-9.34-5.14-18.69-10.27-28.03-15.41-4.51-2.48-9.11-4.84-13.53-7.45-1.16-.68-3.58-2.12-3.32-3.81.07-.45,1.6-1.74,1.78-1.25l1.45-1.9c-8.83-.51-16.88-6.8-19.54-15.23l-2.51,1.46c5.05,4.47,12.18,6.08,18.64,4.05.46-.14.97-.54,1.05-1.05,2.03-13.42-5.97-27.15-18.68-31.95l.36,2.74c6.25-3.93,15.24-1.09,18.24,5.61l1.3-2.26c-12.68-1.28-24.34-8.98-30.63-20.03-.96-1.68-3.55-.17-2.59,1.51,6.85,12.03,19.47,20.13,33.22,21.52,1.25.13,1.71-1.34,1.3-2.26-3.65-8.15-14.82-11.42-22.34-6.69-1.16.73-.83,2.29.36,2.74,11.04,4.17,18.35,16.57,16.59,28.26l1.05-1.05c-5.41,1.7-11.46.49-15.72-3.28-1.06-.94-2.98-.05-2.51,1.46,3.08,9.75,12.23,16.85,22.43,17.43.91.05,1.79-1.01,1.45-1.9-1.18-3.07-4.96-2.61-6.77-.33-2.43,3.06.48,6.55,3.07,8.27,1.97,1.31,4.14,2.35,6.21,3.49,2.32,1.27,4.63,2.55,6.95,3.82,4.55,2.5,9.11,5,13.66,7.51,5.19,2.85,10.38,5.71,15.57,8.56l1.16-2.74c-12.56-4.68-27.31-2.58-38.05,5.45-.99.74-.98,2.36.36,2.74,15.47,4.41,30.02,11.63,42.91,21.26l.76-2.8c-14.97.21-29.95.42-44.92.62-1.39.02-2.17,2.14-.76,2.8,19.14,8.96,37.24,20.16,53.72,33.4,3.28,2.63,6.54,5.6,7.88,9.73.48,1.47.76,3.27-.19,4.62-1.31,1.88-3.82,1.93-5.89,1.93-11.58-.05-23.16-.29-34.74-.44-13.08-.17-26.16-.33-39.24-.5-1.1-.01-1.92,1.3-1.3,2.26,9.74,15.06,19.47,30.11,29.21,45.17,1.18,1.83,2.38,3.64,3.54,5.48,1.03,1.63,2.19,3.44,2.29,5.42.19,3.73-4.05,6.12-6.65,8-6.05,4.38-12.31,8.47-18.75,12.25-26.21,15.37-55.38,25.56-85.42,30.04-16.95,2.53-34.18,3.16-51.26,1.91l1.06,2.56c12.98-12.18,25.96-24.35,38.94-36.53,1.11-1.04-.05-2.89-1.46-2.51-19.14,5.14-39.14,6.57-58.82,4.24l1.06,2.56c21.54-19.76,43.08-39.52,64.62-59.28,6.1-5.59,12.19-11.19,18.29-16.78l-2.12-2.12c-3.42,3.45-7.59,5.92-12.26,7.25l1.69,2.2,5.91-9.22c.66-1.03-.23-2.16-1.3-2.26-14.73-1.31-29.69,2.04-42.5,9.43l1.82,2.36c21.93-21.13,43.85-42.25,65.78-63.38,6.21-5.98,12.42-11.96,18.62-17.94,1.28-1.24-.34-3.07-1.82-2.36-20.55,9.91-42.29,17.31-64.62,22.01-6.32,1.33-12.68,2.44-19.08,3.34l1.16,2.74c27.65-13.71,53.5-30.99,76.75-51.28,6.54-5.71,12.88-11.67,18.99-17.84,1.26-1.27-.33-3.04-1.82-2.36-12.09,5.54-26.04,6.38-38.74,2.48l.66,2.51c12.8-12.26,25.86-24.25,39.16-35.97,1.45-1.28-.68-3.39-2.12-2.12h0Z"/>
    </g>
    <g>
      <path class="cls-1" d="M1292.74,297.61c16.05-2.49,30.73-12.63,38.75-26.76-8.13.05-16.27.1-24.4.14,13.85-2.13,26.51-10.97,33.27-23.25,9.87,6.07,20.39,11.08,31.32,14.91-6.85.26-13.69.51-20.54.77,4.98,9.06,15.36,14.86,25.69,14.36-11.88,7.07-23.76,14.13-35.63,21.2,17.45,0,33.3,15.93,33.21,33.38-.04,8.19-3.08,16.53-.81,24.4"/>
      <path class="cls-1" d="M1293.14,299.06c12.74-2.03,24.67-8.72,33.18-18.4,2.45-2.79,4.62-5.82,6.47-9.04.56-.98-.15-2.26-1.3-2.26-8.13.05-16.27.1-24.4.14l.4,2.95c14.27-2.25,27.15-11.33,34.17-23.94l-2.05.54c10,6.13,20.62,11.17,31.68,15.06l.4-2.95c-6.85.26-13.69.51-20.54.77-1.14.04-1.86,1.24-1.3,2.26,5.33,9.53,16.07,15.56,26.99,15.1l-.76-2.8c-11.88,7.07-23.76,14.13-35.63,21.2-1.28.76-.74,2.79.76,2.8,9.02.05,17.48,4.45,23.44,11.11,3,3.35,5.37,7.32,6.78,11.59,1.54,4.66,1.7,9.35,1.16,14.2-.73,6.59-2.24,13.22-.42,19.78.51,1.86,3.41,1.07,2.89-.8-1.69-6.09-.24-12.4.48-18.52.6-5.12.46-10.18-1.11-15.12-2.86-9.01-9.47-16.78-17.8-21.23-4.75-2.54-10.03-3.97-15.43-4l.76,2.8c11.88-7.07,23.76-14.13,35.63-21.2,1.24-.74.77-2.86-.76-2.8-9.9.42-19.56-4.96-24.4-13.61l-1.3,2.26c6.85-.26,13.69-.51,20.54-.77,1.73-.06,1.99-2.39.4-2.95-10.82-3.81-21.19-8.77-30.96-14.76-.68-.42-1.66-.16-2.05.54-6.68,12-18.82,20.42-32.37,22.56-1.7.27-1.25,2.96.4,2.95,8.13-.05,16.27-.1,24.4-.14l-1.3-2.26c-7.93,13.85-22.1,23.56-37.85,26.07-1.9.3-1.09,3.19.8,2.89h0Z"/>
    </g>
    <g>
      <path class="cls-1" d="M1508.63,344.6c25.64-3.59,49.26-19.55,62.16-42,.5,15.45,12.94,29.68,28.18,32.24-7.94-6.16-19.12-7.85-28.53-4.33,14.67,8.44,29.34,16.89,44.01,25.33-10.51.02-21.02.05-31.52.07-1.88,0-3.91.06-5.4,1.2-4.46,3.43.82,10.15,5.67,12.99,15.48,9.08,30.95,18.16,46.43,27.24,2.87,1.68,6.12,4.01,6.01,7.33-.06,1.98-1.36,3.7-2.72,5.14-6.68,7.03-16.58,10.85-26.24,10.14-6-.44-14.08-1.39-16.07,4.29-1.68,4.79,3.16,9.13,7.25,12.15,9.11,6.73,17.29,14.72,24.22,23.68,1.43,1.85,2.88,4.09,2.29,6.35-.47,1.8-2.13,3.03-3.79,3.86-7.13,3.54-15.57,2.24-23.53,2.54s-17.18,3.51-19.25,11.2"/>
      <path class="cls-1" d="M1509.03,346.05c20.26-2.88,39.28-13.33,52.87-28.6,3.86-4.34,7.28-9.06,10.18-14.09l-2.8-.76c.48,12.58,8.25,24.34,19.31,30.23,3.12,1.66,6.48,2.85,9.97,3.46,1.73.3,2.51-1.7,1.16-2.74-8.32-6.36-19.85-8.08-29.68-4.48-1.17.43-1.54,2.06-.36,2.74,14.67,8.44,29.34,16.89,44.01,25.33l.76-2.8c-5.58.01-11.16.02-16.75.04s-10.9-.25-16.3.07c-2.08.12-4.17.64-5.62,2.24-1.18,1.31-1.61,3-1.35,4.73.56,3.81,3.75,7.03,6.75,9.17,2.09,1.49,4.43,2.68,6.64,3.97,2.44,1.43,4.87,2.86,7.31,4.29,4.87,2.86,9.74,5.72,14.62,8.58s9.74,5.72,14.62,8.58c2.18,1.28,4.46,2.47,6.53,3.93,1.51,1.06,3.23,2.58,3.26,4.58.03,2.23-2.06,4.11-3.56,5.52-1.65,1.55-3.47,2.9-5.42,4.05-3.93,2.32-8.39,3.85-12.93,4.31-4,.41-7.95-.28-11.95-.27-3.27,0-7.09.43-9.46,2.94-2.84,3.01-2.43,7.33-.16,10.54,2.68,3.79,6.77,6.23,10.32,9.1,3.89,3.14,7.59,6.52,11.07,10.11s7,7.27,9.71,11.39c1.34,2.04,1.81,4.18-.33,5.83-1.84,1.41-4.28,2.13-6.51,2.6-4.85,1.03-9.89.65-14.82.65-7.45,0-16.3,1.27-21.26,7.5-1.15,1.45-1.99,3.07-2.49,4.85s2.36,2.65,2.89.8c2.06-7.26,10.77-9.77,17.47-10.09,4.93-.23,9.86.22,14.78-.21,4.28-.38,9.64-1.34,12.74-4.61,3.75-3.95.51-8.49-2.2-11.9-3.07-3.85-6.38-7.52-9.89-10.98s-7.23-6.7-11.13-9.72c-3.18-2.46-7.73-5.09-9.01-9.18-1.13-3.62,1.72-5.83,4.92-6.4,3.6-.64,7.31.04,10.93.17,8.89.32,17.82-3.03,24.4-8.97,3.14-2.83,6.3-6.73,4.1-11.09-2-3.96-7.1-6.06-10.71-8.18-9.6-5.63-19.2-11.27-28.8-16.9-2.44-1.43-4.87-2.86-7.31-4.29-2.23-1.31-4.59-2.52-6.71-4-1.55-1.08-2.99-2.47-4.05-4.03-.81-1.18-1.72-2.76-1.37-4.25.44-1.93,2.71-2.32,4.38-2.38,2.67-.1,5.36-.03,8.04-.03,5.5-.01,11-.02,16.5-.04,2.71,0,5.42-.01,8.13-.02,1.48,0,2.05-2.05.76-2.8-14.67-8.44-29.34-16.89-44.01-25.33l-.36,2.74c9.18-3.36,19.61-1.75,27.37,4.18l1.16-2.74c-14.65-2.56-26.5-15.88-27.08-30.8-.06-1.45-2.03-2.08-2.8-.76-9.95,17.23-26.21,30.61-44.94,37.29-5.29,1.89-10.76,3.23-16.32,4.03-1.9.27-1.09,3.16.8,2.89h0Z"/>
    </g>
    <g>
      <path class="cls-1" d="M1931.37,392.55c-8.03-11.7-17.19-22.06-28.48-29.26-23.64-15.08-53.24-13.99-76.29-30.23-9.27-6.53-17.06-15.61-26.45-21.91-4.14-2.78-8.81-4.95-13.55-5.98,9.51-2,18.88-4.83,27.99-8.49-12.56-21.27-34.01-35.29-56.26-36.76,7.28-3.65,15.3-5.39,23.27-5.04,1.71-6.88,1.16-14.49-1.51-21-26.64,12.66-60.57.65-76.65-27.13l.06,1.73c4.13,36.17-8.8,90.3-27.51,119.53,11.52-6.58,23.05-13.17,34.57-19.75,3.54-2.02,7.93-4.01,11.24-1.47,4.68,3.58,2.52,11.85-.12,17.5-12.07,25.77-24.15,51.54-36.22,77.31,9.91-2.6,19.81-5.19,29.72-7.79-17.04,34.61-34.09,69.23-51.13,103.84l87.48-15.33c-16.66,23.45-30.9,49.17-42.33,76.47,27.81-7.25,55.06-17.01,82.27-26.75,46.63-16.7,93.26-33.4,139.89-50.09v-89.4Z"/>
      <path class="cls-1" d="M1932.66,391.79c-6.42-9.32-13.71-18.19-22.64-25.24s-18.68-11.4-29.18-14.79c-10.51-3.39-21.33-5.76-31.79-9.35-5.27-1.81-10.44-3.95-15.32-6.66s-9.63-6.27-13.98-10.07c-9.92-8.67-19.42-18.94-32.77-21.98v2.89c9.56-2.03,18.91-4.87,27.99-8.49.88-.35,1.44-1.3.9-2.2-9.59-16.11-24.67-29.09-42.69-34.72-4.83-1.51-9.82-2.43-14.86-2.78l.76,2.8c7.01-3.46,14.69-5.12,22.51-4.83.64.02,1.3-.48,1.45-1.1,1.72-7.23,1.25-14.88-1.51-21.8-.38-.95-1.26-1.34-2.2-.9-20.63,9.69-45.38,3.94-61.95-10.99-5.01-4.52-9.25-9.78-12.65-15.6-.73-1.25-2.85-.75-2.8.76.11,3.17.53,6.33.68,9.5.18,3.89.2,7.8.08,11.69-.27,8.6-1.16,17.18-2.52,25.67-2.77,17.26-7.3,34.34-13.84,50.56-3.22,7.99-7,15.8-11.64,23.08-.82,1.3.79,2.77,2.05,2.05,9.2-5.25,18.4-10.51,27.6-15.76,2.12-1.21,4.24-2.43,6.37-3.64,2.01-1.15,4.15-2.42,6.49-2.74,4.54-.63,6.1,3.63,5.81,7.37s-1.89,7.45-3.51,10.9c-2.28,4.86-4.55,9.72-6.83,14.58-4.45,9.51-8.91,19.01-13.36,28.52-5.05,10.77-10.09,21.55-15.14,32.32-.54,1.15.35,2.56,1.69,2.2,9.91-2.6,19.81-5.19,29.72-7.79l-1.69-2.2c-13.27,26.96-26.55,53.91-39.82,80.87-3.77,7.66-7.54,15.31-11.31,22.97-.61,1.23.39,2.43,1.69,2.2,29.16-5.11,58.32-10.22,87.48-15.33l-1.69-2.2c-13.21,18.63-24.76,38.43-34.56,59.06-2.78,5.86-5.41,11.79-7.92,17.77-.46,1.11.85,2.1,1.85,1.85,29.28-7.66,57.76-17.98,86.23-28.17,29.03-10.4,58.07-20.79,87.1-31.19,16.28-5.83,32.55-11.66,48.83-17.49.63-.23,1.1-.75,1.1-1.45v-89.4c0-1.93-3-1.93-3,0v89.4l1.1-1.45c-29.03,10.4-58.07,20.79-87.1,31.19s-57.56,20.91-86.54,30.8c-16.01,5.46-32.15,10.58-48.52,14.86l1.85,1.85c8.8-20.97,19.35-41.22,31.59-60.39,3.4-5.33,6.93-10.57,10.59-15.72.84-1.18-.54-2.41-1.69-2.2-29.16,5.11-58.32,10.22-87.48,15.33l1.69,2.2c13.27-26.96,26.55-53.91,39.82-80.87,3.77-7.66,7.54-15.31,11.31-22.97.57-1.15-.37-2.55-1.69-2.2-9.91,2.6-19.81,5.19-29.72,7.79l1.69,2.2c9.8-20.91,19.59-41.82,29.39-62.74,2.34-5,4.75-9.96,7.02-14.99,1.61-3.57,2.96-7.52,2.88-11.49-.06-3.48-1.53-6.99-4.9-8.44-4.3-1.85-8.9.87-12.56,2.96-11.12,6.35-22.24,12.7-33.36,19.06l2.05,2.05c8.8-13.82,14.74-29.49,19.25-45.17,4.88-16.94,8.11-34.5,9.01-52.12.23-4.6.3-9.21.13-13.81-.13-3.65-.61-7.27-.74-10.92l-2.8.76c12.11,20.73,35.54,34.75,59.87,32.71,6.55-.55,12.89-2.26,18.84-5.05l-2.2-.9c2.57,6.43,3.11,13.46,1.51,20.2l1.45-1.1c-8.35-.31-16.54,1.55-24.02,5.24-1.44.71-.61,2.7.76,2.8,23.07,1.62,43.35,16.5,54.96,36.02l.9-2.2c-9.08,3.62-18.43,6.46-27.99,8.49-1.44.31-1.42,2.57,0,2.89,11.89,2.7,20.59,11.51,29.37,19.36,4.16,3.73,8.45,7.33,13.18,10.32s9.43,5.19,14.44,7.15c20.14,7.92,42.64,9.94,60.85,22.4,10.5,7.18,18.86,17.05,26.03,27.46,1.09,1.58,3.69.08,2.59-1.51Z"/>
    </g>
    <g>
      <g>
        <path class="cls-1" d="M1931.37,268.94c-.16.28-.32.55-.48.83-23.2,41.1-32.2,88.89-54.34,130.56-14.22,26.75-37.1,51.66-63.96,63.92l118.79-16.94v-178.37Z"/>
        <path class="cls-1" d="M1930.07,268.18c-7.89,13.69-14.11,28.33-19.74,43.08-5.63,14.75-10.66,29.72-16.12,44.53s-11.37,29.44-18.75,43.39c-6.8,12.85-15.26,24.83-25.23,35.42-9.76,10.37-21.01,19.46-33.67,26.05-1.56.81-3.13,1.58-4.73,2.31-1.69.77-.37,2.96,1.16,2.74,3.96-.56,7.92-1.13,11.88-1.69l28.27-4.03,34.43-4.91c9.85-1.4,19.7-2.81,29.55-4.21l9.81-1.4c1.53-.22,3.12-.33,4.63-.66.07-.01.14-.02.21-.03.64-.09,1.1-.85,1.1-1.45v-171.13c0-2.31.07-4.64,0-6.95,0-.1,0-.2,0-.3,0-1.93-3-1.93-3,0v171.13c0,2.28-.21,4.67,0,6.95,0,.1,0,.2,0,.3l1.1-1.45c-3.96.56-7.92,1.13-11.88,1.69l-28.27,4.03-34.43,4.91c-9.85,1.4-19.7,2.81-29.55,4.21l-9.81,1.4c-1.5.21-3.16.26-4.63.66-.07.02-.14.02-.21.03l1.16,2.74c13-5.96,24.68-14.6,34.86-24.59,10.42-10.23,19.4-21.98,26.72-34.61,7.85-13.54,13.95-28.08,19.53-42.68s10.75-30.01,16.28-44.95c5.51-14.91,11.5-29.68,19-43.71.95-1.78,1.92-3.55,2.93-5.3s-1.63-3.19-2.59-1.51Z"/>
      </g>
      <g>
        <path class="cls-1" d="M1931.37,1143.08V449.78c-41.35,10.28-83.35,15.37-125.77,17.33-12.99,4.73-26.78,6.43-40.87,3.97l23.36-3.33c-118.73,3.19-240.46-15.71-359.99-11.66-86.01,2.92-171.96,17.85-257.7,10.34-52.28-4.58-103.7-17.45-156.14-19.76-38.76-1.7-77.51,2.4-116.19,5.41-125.4,9.75-251.38,8.03-377.15,6.3-21.45-.3-42.9-.59-64.36-.89-92.74-1.28-185.48-2.55-278.22-3.83-23.05-.32-46.26-.65-68.83-5.35-36.62-7.62-69.17-26.57-96.14-52.31v787.03h1866.98c17.51-12.59,34.54-25.89,51.02-39.96Z"/>
        <path class="cls-1" d="M1932.87,1143.08V460.25c0-2.69.76-6.69,0-9.3-.1-.33,0-.82,0-1.17,0-1-.96-1.68-1.9-1.45-27.54,6.74-55.49,11.41-83.7,14.26-13.2,1.33-26.73,1.22-39.85,2.94-5.24.68-10.21,2.81-15.45,3.82-8.95,1.72-17.85,1.64-26.83.29v2.89c7.79-1.11,15.57-2.22,23.36-3.33,1.69-.24,1.26-2.99-.4-2.95-116.5,2.91-232.41-14.58-348.9-11.97-58.66,1.32-116.95,8.74-175.53,11.62-29.2,1.43-58.5,1.72-87.67-.51s-59.17-7.41-88.64-11.98c-26.71-4.14-53.54-7.79-80.6-8.49-30.05-.78-60.05,1.7-89.97,4.15-59.43,4.87-118.95,7.62-178.58,8.6-118.63,1.96-237.35-1.07-355.97-2.7-66.7-.92-133.39-1.83-200.09-2.75-31.39-.43-63.08-.86-93.13-11.05-28.1-9.52-53.08-25.96-74.59-46.22-.93-.88-2.56-.27-2.56,1.06v775.04c0,3.2-.76,7.48,0,10.61.1.41,0,.95,0,1.38,0,.81.69,1.5,1.5,1.5h1848.12c5.58,0,12.87,1.26,18.35,0,1.62-.37,2.68-1.25,4.18-2.31,16.75-11.83,32.79-24.82,48.41-38.09,1.47-1.25-.66-3.37-2.12-2.12-12.72,10.81-25.74,21.25-39.11,31.23-3.05,2.27-7.57,7.23-11.08,8.3-.85.26-2.04-.08-2.93,0-5.07.45-10.39,0-15.48,0h-173.44c-46.59,0-93.17,0-139.76,0-55.01,0-110.01,0-165.02,0-61.19,0-122.39,0-183.58,0-64.23,0-128.47,0-192.7,0s-130.04,0-195.06,0-126.53,0-189.79,0c-58.97,0-117.93,0-176.9,0H160.29c-30.76,0-61.52,0-92.28,0H19.16c-1.36,0-3.27-.35-4.59,0-2.26.6.16-1.12.3,1.35-.33-6.02,0-12.15,0-18.18,0-36.81,0-73.63,0-110.44,0-57.83,0-115.66,0-173.5,0-64.56,0-129.12,0-193.67s0-114.46,0-171.69c0-34.99,0-69.98,0-104.97v-14.43l-2.56,1.06c36.23,34.13,79.93,53.59,129.62,56.95,29.82,2.02,59.9,1.47,89.77,1.88,29.22.4,58.44.8,87.66,1.21,120.54,1.66,241.13,4.42,361.68,4.09,60.97-.17,121.95-1.47,182.81-5.24s117.21-11.8,175.94-5.91c58.76,5.9,116.04,19.41,175.35,19.93,58.7.51,117.07-6.63,175.56-10.48,132.74-8.75,264.69,13.05,397.39,9.73l-.4-2.95c-7.79,1.11-15.57,2.22-23.36,3.33-1.44.2-1.43,2.68,0,2.89,7.08,1.07,14.1,1.51,21.25.77,8.67-.9,16.84-4.09,25.47-4.95,17.47-1.74,34.99-2.39,52.44-4.58,16.34-2.05,32.61-4.69,48.74-8.07,4.06-.85,8.53-1.41,12.45-2.75.13-.04,6.6-2.05,5.2-3.13.1.08-.07.56,0,.67,1.04,1.56,0,7.45,0,9.27v19.51c0,50.94,0,101.88,0,152.83v498.64c0,3.29-.77,7.67,0,10.9.1.43,0,1.01,0,1.46,0,1.93,3,1.93,3,0Z"/>
      </g>
      <g>
        <path class="cls-1" d="M1812.58,464.25l-24.5,3.49c5.85-.16,11.68-.37,17.51-.63,2.35-.86,4.68-1.81,6.98-2.86Z"/>
        <path class="cls-1" d="M1812.18,462.8c-7.15,1.02-14.3,2.04-21.45,3.06-1.02.14-2.03.29-3.05.43-1.68.24-1.27,2.99.4,2.95,4.38-.12,8.76-.26,13.14-.44,2.08-.09,4.14,0,6.09-.74s4.04-1.62,6.02-2.52c1.76-.8.23-3.38-1.51-2.59s-3.66,1.59-5.52,2.3-4.08.51-6.05.59c-4.05.16-8.11.29-12.17.4l.4,2.95c7.15-1.02,14.3-2.04,21.45-3.06,1.02-.14,2.03-.29,3.05-.43.81-.12,1.24-1.13,1.05-1.85-.23-.86-1.05-1.16-1.85-1.05Z"/>
      </g>
    </g>
    <g>
      <g>
        <path class="cls-1" d="M198.96,77.01c6.03,5.71-7.82,11.02-15.56,8.01-16.98-6.61-33.97-13.21-50.95-19.82,10.13,13.87,20.26,27.74,30.39,41.6-40.83,5.61-83.43-2.54-119.3-22.83,1.37,15.86,17.15,25.66,29.97,35.1,12.82,9.43,25.1,26.21,17.05,39.94-27.65-8.05-53.88-20.96-77.18-37.89v5.48c12.1,14.17,24.19,28.34,36.29,42.51-12.1.97-24.27.6-36.29-1.02v282.34c15.15,27.58,32.98,53.42,54.76,76.43,11.01-29.78,16.79-61.48,17-93.23l45.65,31.32c3.47,2.38,7.27,4.86,11.47,4.7,9.14-.34,12.95-11.91,12.99-21.06.29-65.86-65.18-122.27-53.71-187.12,17.75,36.81,50.98,65.85,89.85,78.49-29.74-41.79-48.37-91.4-53.5-142.43,12.64,17.11,27.72,32.41,44.64,45.29-14.38-38.26-14.79-81.61-1.13-120.13,9.5,21.11,22.53,40.64,38.37,57.52-6.61-30.31-4.88-62.4,4.95-91.83l8.55-2.54c-11.99,1.86-24.8-1.24-34.31-8.83Z"/>
        <path class="cls-1" d="M197.89,78.07c3.46,3.5-3.76,5.64-6.27,6.07-6,1.03-11.31-1.91-16.75-4.03-14.01-5.45-28.03-10.9-42.04-16.35-1.18-.46-2.45,1.18-1.69,2.2,10.13,13.87,20.26,27.74,30.39,41.6l.9-2.2c-31.45,4.25-63.86.34-93.48-11.04-8.5-3.26-16.73-7.17-24.67-11.64-.91-.51-2.37.12-2.26,1.3,1.18,11.94,9.72,20.56,18.75,27.58,10.18,7.92,21.38,14.53,27.61,26.32,3.4,6.43,4.56,13.81.86,20.37l1.69-.69c-27.56-8.07-53.56-20.89-76.82-37.73-.95-.69-2.26.24-2.26,1.3,0,1.84-.6,4.75.32,6.39.64,1.15,1.94,2.29,2.79,3.29.99,1.16,1.98,2.32,2.97,3.48,2.08,2.44,4.16,4.88,6.25,7.32,8.13,9.52,16.26,19.05,24.39,28.57l1.06-2.56c-12.11.94-24.25.57-36.29-1.02-.81-.11-1.5.77-1.5,1.5v279.04c0,1.04-.15,2.2,0,3.23s.87,2.03,1.4,2.98c1.66,2.99,3.36,5.95,5.08,8.9,3.45,5.88,7.04,11.69,10.78,17.39,7.48,11.4,15.56,22.41,24.28,32.9,4.39,5.28,8.95,10.41,13.66,15.4.83.88,2.14.35,2.51-.66,11.02-29.96,16.79-61.72,17.06-93.63l-2.26,1.3c10.78,7.39,21.56,14.79,32.34,22.18,5.3,3.64,10.51,7.52,15.98,10.9,3.93,2.43,8.58,4.13,13.14,2.47,7.44-2.71,10.14-11.84,10.77-18.95.78-8.74-.59-17.96-2.37-26.5-7.72-36.95-29.99-68.56-43.22-103.47-7.21-19.03-11.55-39.35-8.03-59.67l-2.74.36c14.07,28.99,37.49,53.19,65.83,68.49,7.96,4.3,16.31,7.87,24.91,10.69,1.19.39,2.45-1.13,1.69-2.2-22.98-32.38-39.34-69.29-47.9-108.07-2.45-11.09-4.25-22.31-5.4-33.6l-2.8.76c12.85,17.33,28.04,32.73,45.18,45.83,1.02.78,2.64-.52,2.2-1.69-11.09-29.72-13.91-62.35-8.06-93.54,1.64-8.77,3.97-17.38,6.93-25.8l-2.74.36c9.61,21.24,22.68,40.79,38.6,57.83,1.08,1.15,2.81-.07,2.51-1.46-6.5-30.16-4.75-61.76,4.95-91.03l-1.05,1.05,8.55-2.54c1.9-.57,1.07-3.17-.8-2.89-11.53,1.69-23.64-1.24-32.86-8.44-1.5-1.18-3.64.93-2.12,2.12,10.16,7.94,23.06,11.07,35.77,9.21l-.8-2.89c-2.75.82-5.93,1.32-8.52,2.54-1.11.52-1.24,1.55-1.61,2.66-.65,2.01-1.26,4.04-1.84,6.07-1.07,3.8-2.01,7.64-2.82,11.5-3.24,15.45-4.41,31.34-3.42,47.1.55,8.86,1.79,17.67,3.66,26.35l2.51-1.46c-15.75-16.85-28.62-36.21-38.13-57.22-.58-1.28-2.36-.74-2.74.36-10.62,30.18-12.79,63.12-6.45,94.47,1.82,9.01,4.37,17.85,7.58,26.47l2.2-1.69c-16.7-12.76-31.59-27.87-44.11-44.75-.78-1.05-2.96-.9-2.8.76,4.06,39.89,16.15,78.83,35.42,114,5.52,10.07,11.63,19.81,18.28,29.18l1.69-2.2c-29.99-9.84-56.63-29.38-75.21-54.88-5.25-7.21-9.85-14.89-13.74-22.92-.54-1.11-2.52-.9-2.74.36-6.18,35.72,10.46,69.26,25.79,100.39,8,16.25,16.13,32.57,21.63,49.88,2.71,8.53,4.77,17.3,5.69,26.22.85,8.24,1.52,17.67-2.88,25.1-2.65,4.48-7.15,6.63-12.23,4.75-2.94-1.09-5.52-3.05-8.07-4.81l-9.13-6.26c-11.67-8-23.33-16.01-35-24.01-.96-.66-2.25.22-2.26,1.3-.26,31.67-6.02,63.11-16.95,92.83l2.51-.66c-18.98-20.1-35.19-42.62-49.08-66.49-.82-1.42-1.64-2.84-2.45-4.27s-2.05-3.06-2.6-4.65c-.02-.05-.14.06-.19-.13-.09-.36,0-.87,0-1.24V173.44c0-1.53.21-3.23,0-4.75-.03-.19,0-.4,0-.59l-1.5,1.5c12.04,1.59,24.18,1.96,36.29,1.02,1.34-.1,1.93-1.55,1.06-2.56-7.73-9.06-15.47-18.12-23.2-27.18-3.77-4.41-7.53-8.83-11.3-13.24-.02-.02-1.41-1.47-1.27-1.24.08.14-.02.03-.08-.2-.14-.53,0-1.33,0-1.88v-3.2l-2.26,1.3c23.46,16.99,49.74,29.9,77.54,38.04.63.18,1.37-.12,1.69-.69,6.46-11.46.22-24.15-7.71-33.06-8.58-9.64-20.51-15.36-29.55-24.53-4.94-5.01-8.84-11.06-9.55-18.2l-2.26,1.3c28.24,15.9,60.44,24.45,92.85,24.76,9.24.09,18.46-.54,27.61-1.78.91-.12,1.42-1.49.9-2.2-10.13-13.87-20.26-27.74-30.39-41.6l-1.69,2.2c16.84,6.55,33.64,13.23,50.53,19.65,4.8,1.82,10.64,1.34,15.18-1.04,3.84-2.01,5.64-5.9,2.26-9.31-1.36-1.38-3.48.75-2.12,2.12Z"/>
      </g>
      <g>
        <path class="cls-1" d="M233.27,85.84c3.83-.59,7.58-1.68,11.11-3.3l-11.11,3.3Z"/>
        <path class="cls-1" d="M233.67,87.28c3.97-.62,7.81-1.79,11.47-3.46.67-.31.89-1.25.61-1.87-.29-.67-1.04-1.09-1.77-.87-3.23.96-6.47,1.92-9.7,2.89l-1.41.42c-.78.23-1.27,1.05-1.05,1.85s1.07,1.28,1.85,1.05c3.23-.96,6.47-1.92,9.7-2.89l1.41-.42-1.16-2.74c-3.41,1.56-7.05,2.57-10.75,3.15-.8.13-1.24,1.13-1.05,1.85.23.85,1.04,1.17,1.85,1.05Z"/>
      </g>
    </g>
    <g>
      <path class="cls-1" d="M285.02,181.3c-.75,13.94,21.05,55.78,27.77,69.25-11.17,4.51-25.26,4.07-37.41-1.17,2.31,35.78,17.54,72.25,42.9,102.75-20.98-4.39-23.56-5.1-40.43-16.6-.25,9.84,31.37,63.91,34,74l-47-18c16.11,72.78,7.78,30.19,38.34,61.42-10.86,3.81-36.34-3.87-47.59-9.38,7.01,35.03,51.72,85.08,84.15,99.26-34.49,9.22-45.55,7.93-84.54-3.76,43.42,35.16,17.79,34.49,63.69,66.96-15.71-5.36-91.44-29.59-105.42-38.41-7.84-4.95,39.49,16.31,31.73,19.67-7.76,3.35-70.47-15.46-62.23-11.13-39.21,2.95-83.95,4.34-116.11-20.24-18.14-13.86-28.71-33.6-38.63-52.57l-24.97-47.74c-.95-1.81-1.62-3.72-1.76-5.63-.67-8.88,8.12-10.14,15.54-10.63,31.56-2.11,63.12-4.21,94.68-6.32-22.77-18.15-47.49-34.32-73.57-48.12l84.37-10.14c2.96-.36,5.53-1.83,6.72-4.18,2.22-4.36-1.66-7.85-5.16-10.69-8.69-7.05-17.37-14.1-26.06-21.16,6-4.18,13.68-6.53,21.74-6.67l-41.45-32.49c38.56,3.11,76.73-3.05,109.31-17.64-19.53-6.64-37.88-17.07-53.26-30.26,16.14.88,32.23,1.06,48.2.54,9.21-.3,19.39-1.29,24.48-7.61,5.09-6.32-.83-19.09-9.89-18.16,10.95.05,21.5-2.74,30.04-7.93-7.27-8.83-16.15-16.7-26.11-23.14,34.09,8.61,56.03.39,84.65-13.47"/>
      <path class="cls-1" d="M283.52,181.3c-.16,3.73.82,7.53,1.84,11.09,1.47,5.09,3.36,10.05,5.37,14.95,4.37,10.68,9.36,21.11,14.49,31.45,2.08,4.18,4.19,8.34,6.28,12.52l.9-2.2c-11.6,4.57-24.85,3.8-36.25-1.01-.95-.4-2.34.03-2.26,1.3,1.96,29.38,12.18,57.81,27.88,82.61,4.69,7.4,9.87,14.46,15.46,21.21l1.46-2.51c-7.23-1.51-14.68-2.81-21.57-5.56s-12.62-6.89-18.5-10.89c-.97-.66-2.25.22-2.26,1.3-.04,3.55,1.73,7.26,3.05,10.45,2.27,5.47,4.84,10.8,7.47,16.11,5.92,11.97,12.26,23.73,18.19,35.69,1.93,3.89,4.21,7.92,5.34,12.15l1.85-1.85c-13.74-5.26-27.48-10.52-41.22-15.79-1.93-.74-3.85-1.48-5.78-2.21-1.14-.44-2.07.83-1.85,1.85,2.3,10.36,4.51,20.76,7.17,31.04,1.12,4.34,2.15,9.09,4.42,13.01,2.64,4.57,7.73,4.25,11.96,6.22,5.84,2.71,10.71,7.27,15.18,11.81l.66-2.51c-7.22,2.42-15.98.43-23.14-1.26-7.95-1.88-15.93-4.39-23.29-7.97-1.2-.59-2.47.37-2.2,1.69,3.38,16.56,12.73,31.85,22.65,45.27,11.23,15.19,24.44,29.16,39.39,40.75,7.07,5.48,14.59,10.51,22.8,14.13l.36-2.74c-10.62,2.83-21.45,5.49-32.48,5.95-9.87.41-19.58-1.2-29.14-3.53-7.44-1.81-14.78-3.98-22.11-6.17-1.36-.41-2.65,1.54-1.46,2.51,10.37,8.42,20.62,17.48,27.65,28.97,1.99,3.25,3.75,6.64,5.83,9.84,2.62,4.05,5.73,7.75,9.16,11.14,6.51,6.44,13.91,11.96,21.36,17.24l1.16-2.74c-16.71-5.7-33.52-11.08-50.22-16.82-10.4-3.57-20.77-7.22-31.06-11.1-7.3-2.75-14.76-5.46-21.67-9.13-.76-.41-1.77-1.33-2.6-1.53.2.05.05-.03,0-.01.42-.14-1.01,2.66-1.16,2.36,0,.01-.13-.13.12.04.12.09.38.12.52.16,2.39.83,4.69,1.91,6.98,2.97,6.88,3.19,13.84,6.61,20.11,10.91,1.08.74,2.16,1.51,3.11,2.42.27.25.73.75.83.87.1.13.18.36.29.47.06.06-.07-.03.02-.07-.01,0,.1-.34.22-.32-.09-.01-.4.2-.83.27-.61.1-1.98.12-2.9.08-7.71-.34-15.46-2.32-22.96-4.01-8.53-1.92-17-4.07-25.5-6.1-2.64-.63-5.28-1.3-7.96-1.78-1.3-.23-4.5-.73-3.85,1.75.18.7.83,1.11,1.43,1.43l.76-2.8c-26.84,2.01-54.6,3.42-80.88-3.58-13.06-3.48-25.61-9.21-36.15-17.77s-19.46-20.53-26.61-32.72c-7.66-13.07-14.39-26.75-21.41-40.17l-10.6-20.27c-2.49-4.77-7.55-12.41-1.67-16.55,4.46-3.14,11.3-2.73,16.46-3.08,8.59-.57,17.19-1.15,25.78-1.72,17.05-1.14,34.09-2.27,51.14-3.41,4.23-.28,8.45-.56,12.68-.85,1.15-.08,2.17-1.68,1.06-2.56-23.07-18.37-47.82-34.54-73.87-48.35l-.76,2.8c13.99-1.68,27.98-3.36,41.98-5.05,14.13-1.7,28.28-3.25,42.39-5.1,3.69-.48,7.37-2.43,8.54-6.2,1.29-4.16-1.72-7.66-4.67-10.19-8.88-7.64-18.21-14.81-27.31-22.2l-.3,2.36c6.22-4.24,13.49-6.28,20.98-6.47,1.17-.03,2.15-1.71,1.06-2.56-12.1-9.48-24.2-18.97-36.29-28.45l-5.15-4.04-1.06,2.56c29.4,2.33,59.34-.52,87.54-9.32,7.67-2.4,15.19-5.25,22.54-8.52,1.28-.57.74-2.37-.36-2.74-19.2-6.58-37.16-16.69-52.6-29.87l-1.06,2.56c9.16.49,18.32.77,27.49.82,8.62.04,17.31.11,25.91-.55,6.36-.49,13.31-1.56,18.36-5.78,4.08-3.42,5.23-8.57,3.46-13.55-1.88-5.27-6.58-9.62-12.44-9.16-1.9.15-1.96,3,0,3,10.78-.02,21.51-2.58,30.8-8.14.89-.53.92-1.62.3-2.36-7.55-9.1-16.51-16.92-26.41-23.37l-1.16,2.74c11.77,2.94,23.93,4.36,36.05,3.09,10.84-1.14,21.28-4.28,31.34-8.38,6.24-2.55,12.35-5.4,18.42-8.34,1.74-.84.22-3.43-1.51-2.59-12.71,6.15-25.71,12.07-39.61,14.95-14.63,3.03-29.46,1.97-43.88-1.63-1.67-.42-2.58,1.82-1.16,2.74,9.7,6.32,18.41,13.99,25.8,22.9l.3-2.36c-8.86,5.29-19.01,7.71-29.29,7.73v3c4.67-.36,8.33,3.13,9.69,7.4,1.62,5.08-.55,9.18-5.11,11.7-5.25,2.91-11.68,3.35-17.55,3.6-7.71.33-15.44.39-23.15.34-8.89-.06-17.78-.34-26.66-.81-1.25-.07-2.04,1.72-1.06,2.56,15.86,13.53,34.21,23.89,53.93,30.65l-.36-2.74c-26.15,11.66-54.74,17.47-83.31,18.16-8.42.2-16.85-.06-25.24-.72-1.23-.1-2.08,1.76-1.06,2.56,12.1,9.48,24.2,18.97,36.29,28.45l5.15,4.04,1.06-2.56c-7.99.21-15.86,2.36-22.5,6.88-.72.49-1.11,1.7-.3,2.36,7.82,6.35,15.63,12.69,23.45,19.04,2.65,2.15,8.13,5.39,7.98,9.35-.12,3.07-3.33,4.68-5.97,5.09-4.52.69-9.1,1.09-13.64,1.64-18.59,2.23-37.17,4.47-55.76,6.7-4.96.6-9.92,1.19-14.88,1.79-1.34.16-2.21,2.03-.76,2.8,25.82,13.69,50.4,29.68,73.27,47.89l1.06-2.56c-17.75,1.18-35.5,2.37-53.26,3.55-8.88.59-17.75,1.18-26.63,1.78-7.16.48-14.65.36-21.7,1.83-4.5.93-9.03,3.29-9.96,8.21-.7,3.69.59,7.15,2.27,10.37,2.91,5.56,5.81,11.11,8.72,16.67,6.62,12.67,13.15,25.39,19.91,37.99,6.8,12.66,14.27,25.12,24.22,35.59s21.63,17.84,34.76,22.85c26.19,9.97,55.19,9.74,82.75,8.01,3.4-.21,6.79-.45,10.18-.71,1.39-.1,2.16-2.05.76-2.8-.12-.06-.27-.19-.4-.23-.4-.11.23-.07.04.04.41-.25-.72,2.87-.94,2.33,0,.02.28-.02.3,0,.34.21.27.02.65.08.49.08.98.18,1.48.28,3.07.62,6.12,1.38,9.16,2.12,9.02,2.19,18.03,4.45,27.11,6.42,4.23.92,8.47,1.78,12.74,2.45,3,.47,6.11.99,9.16.83,1.85-.1,4.49-.59,4.52-2.94s-2.6-4.08-4.18-5.27c-6.14-4.61-13.3-8.06-20.21-11.34-2.75-1.3-5.53-2.61-8.38-3.68-.62-.23-1.37-.59-2.05-.57-1.36.04-2.06,1.43-1.27,2.53,1.12,1.58,3.95,2.54,5.62,3.34,3.52,1.69,7.13,3.19,10.75,4.65,9.84,3.97,19.83,7.55,29.84,11.06,19.03,6.69,38.21,12.95,57.34,19.34,1.16.39,2.32.78,3.48,1.17,1.71.58,2.46-1.82,1.16-2.74-10.7-7.59-21.89-15.81-29.2-26.93-2.04-3.1-3.77-6.39-5.68-9.57-2.45-4.08-5.27-7.93-8.4-11.52-6.03-6.9-13-12.94-20.1-18.7l-1.46,2.51c11.93,3.57,23.99,7.27,36.36,8.98,9.57,1.33,19.09,1.02,28.62-.59,6.87-1.16,13.64-2.84,20.36-4.64,1.15-.31,1.58-2.2.36-2.74-15.32-6.75-28.63-18.03-40.36-29.78-12.99-13.01-24.71-27.68-33.52-43.86-4.23-7.77-7.81-16.01-9.59-24.72l-2.2,1.69c7.77,3.78,16.18,6.47,24.59,8.41,7.52,1.73,16.6,3.66,24.15,1.13,1.06-.36,1.48-1.67.66-2.51-6.35-6.46-13.2-12.2-22.12-14.39-.46-.11-.92-.23-1.38-.36-.67-.2-.61-.18-.94-.35-.78-.42-1.28-.88-1.69-1.46-2.23-3.14-3.11-7.35-4.1-11.02-2.95-10.96-5.27-22.1-7.73-33.17l-1.85,1.85c13.74,5.26,27.48,10.52,41.22,15.79,1.93.74,3.85,1.48,5.78,2.21,1.11.42,2.12-.83,1.85-1.85-.95-3.54-2.75-6.93-4.34-10.21-2.63-5.42-5.4-10.77-8.16-16.13-6.02-11.66-12.24-23.28-17.51-35.3-1.55-3.55-3.97-8.17-3.93-11.96l-2.26,1.3c6.01,4.09,12.07,8.29,18.84,11.04s14.58,4.17,21.95,5.71c1.52.32,2.42-1.35,1.46-2.51-18.74-22.61-32.7-49.38-39.08-78.13-1.72-7.76-2.86-15.63-3.39-23.56l-2.26,1.3c12.12,5.12,26.18,6.2,38.56,1.32.94-.37,1.36-1.27.9-2.2-9.09-18.21-18.98-36.45-25.14-55.92-1.27-4.01-2.61-8.33-2.42-12.58.08-1.93-2.92-1.93-3,0h0Z"/>
    </g>
    <g>
      <path class="cls-1" d="M1900.02,23.5c-22.54,15.38-49.45,24.29-76.72,25.4,17.34-9.48,29.55-27.79,31.64-47.45-28.49,14.66-59.97,23.49-91.93,25.78,6.02-6.57,9.48-15.42,9.53-24.32-18.68,10.45-41.02,14.19-62.09,10.4,4.13,12.72,11.8,24.27,21.9,33.02,7.17,15.98,11.81,33.11,13.62,50.53,16.17-6.24,26.69-24.57,23.92-41.67,18.1,38.7,27.71,81.35,27.97,124.07,10.07-13.96,20.13-27.92,30.2-41.88,16.94,24.74,23.85,56.14,18.86,85.71,18.79-14.23,35.47-27.4,39.93-50.55,1.03,46.78-2.05,85.4-2.4,132.19,28.49-4.81,40.33-38.47,46.9-66.63V33.25c-9.2,6.81-19.57,12.03-30.55,15.27-.26-8.34-.53-16.68-.79-25.02ZM1721.25,25.66c3.96,6.25,7.48,12.77,10.56,19.49l-10.56-19.49Z"/>
      <g>
        <path class="cls-1" d="M1899.27,22.21c-17.39,11.82-37.25,19.8-57.99,23.32-5.95,1.01-11.95,1.62-17.97,1.88l.76,2.8c13.89-7.66,24.5-20.68,29.55-35.69,1.42-4.24,2.35-8.61,2.84-13.05.13-1.21-1.35-1.76-2.26-1.3-22.01,11.29-45.77,19.11-70.18,23.11-6.96,1.14-13.96,1.95-20.99,2.47l1.06,2.56c6.29-6.96,9.86-16,9.97-25.38.01-1.16-1.28-1.84-2.26-1.3-18.4,10.22-40.19,13.92-60.93,10.25-1.05-.19-2.23.67-1.85,1.85,3.49,10.62,9.27,20.4,16.93,28.54.9.96,1.84,1.9,2.79,2.81,1.2,1.15,2.33,2.01,3.01,3.56,1.29,2.96,2.48,5.95,3.59,8.98,2.15,5.86,3.96,11.85,5.44,17.91,1.71,7.03,2.95,14.16,3.71,21.35.09.86.9,1.84,1.9,1.45,17.05-6.7,27.78-25.42,24.96-43.52l-2.74,1.16c14.02,30.06,22.95,62.5,26.28,95.5.93,9.24,1.42,18.52,1.49,27.81.01,1.58,1.96,1.91,2.8.76,10.07-13.96,20.13-27.92,30.2-41.88h-2.59c12.99,19.06,20.07,41.91,20.24,64.98.05,6.56-.45,13.11-1.53,19.58-.19,1.11,1.04,2.58,2.2,1.69,13.69-10.37,28.2-21.32,35.87-37.17,2.2-4.54,3.77-9.33,4.75-14.28l-2.95-.4c.74,34.14-.9,68.23-1.84,102.35-.28,9.95-.48,19.9-.56,29.85,0,1.05.96,1.61,1.9,1.45,15.75-2.74,26.97-14.63,34.23-28.22,3.92-7.33,6.89-15.16,9.34-23.09,1.22-3.93,2.3-7.9,3.3-11.89.41-1.64,1.04-3.38,1.13-5.07.18-3.39,0-6.84,0-10.23V45.45c0-3.89.07-7.8,0-11.69,0-.17,0-.34,0-.51,0-1.05-1.31-1.99-2.26-1.3-9.14,6.72-19.31,11.87-30.19,15.12l1.9,1.45c-.26-8.34-.53-16.68-.79-25.02-.06-1.93-3.06-1.93-3,0,.26,8.34.53,16.68.79,25.02.03.95.94,1.73,1.9,1.45,11.11-3.31,21.57-8.55,30.91-15.42l-2.26-1.3v203.11c0,1.45-.15,2.21-.5,3.67-1.94,8.02-4.2,15.98-7.14,23.69-5.39,14.19-13.6,29.14-27.72,36.2-3.29,1.65-6.82,2.73-10.44,3.36l1.9,1.45c.27-34.13,2.21-68.22,2.55-102.35.1-9.95.06-19.9-.16-29.84-.04-1.63-2.61-2.12-2.95-.4-1.63,8.27-5.02,15.94-9.98,22.75s-11.04,12.4-17.41,17.65c-3.86,3.19-7.85,6.23-11.84,9.25l2.2,1.69c3.89-23.35.64-47.59-9.09-69.17-2.78-6.18-6.11-12.1-9.93-17.7-.67-.98-1.91-.94-2.59,0-10.07,13.96-20.13,27.92-30.2,41.88l2.8.76c-.24-33.57-6.14-67.09-17.43-98.71-3.17-8.87-6.76-17.58-10.74-26.12-.78-1.67-2.98-.38-2.74,1.16,2.54,16.36-7.47,33.78-22.87,39.83l1.9,1.45c-1.35-12.75-4.11-25.31-8.31-37.42-1.04-2.99-2.17-5.96-3.37-8.89-.55-1.33-1.11-2.65-1.69-3.96-.64-1.45-1.75-2.24-2.89-3.32-4.12-3.87-7.78-8.22-10.89-12.94-3.57-5.42-6.4-11.27-8.42-17.43l-1.85,1.85c21.56,3.82,44.1.09,63.24-10.55l-2.26-1.3c-.11,8.57-3.34,16.9-9.09,23.26-.8.89-.32,2.66,1.06,2.56,25.12-1.83,49.93-7.57,73.26-17.07,6.6-2.69,13.08-5.66,19.43-8.91l-2.26-1.3c-2.12,19.21-14.01,36.83-30.9,46.15-1.28.71-.73,2.86.76,2.8,21.4-.91,42.5-6.46,61.58-16.19,5.49-2.8,10.79-5.95,15.89-9.42,1.59-1.08.09-3.68-1.51-2.59Z"/>
        <path class="cls-1" d="M1719.96,26.41c3.95,6.25,7.47,12.77,10.56,19.49l2.59-1.51c-3.08-5.68-6.15-11.36-9.23-17.03-.44-.82-.89-1.64-1.33-2.46-.92-1.7-3.51-.19-2.59,1.51,3.08,5.68,6.15,11.36,9.23,17.03.44.82.89,1.64,1.33,2.46.93,1.72,3.38.21,2.59-1.51-3.09-6.72-6.6-13.24-10.56-19.49-1.03-1.63-3.63-.12-2.59,1.51Z"/>
      </g>
    </g>
  </g>
</svg>