<?xml version="1.0" encoding="UTF-8"?>
<svg id="Layer_2" data-name="Layer 2" xmlns="http://www.w3.org/2000/svg" viewBox="0 0 1837.56 1761.22">
  <defs>
    <style>
      .cls-1 {
        fill: #fff;
        stroke-width: 0px;
      }
    </style>
  </defs>
  <g id="Stars">
    <path class="cls-1" d="M1231.67,1304.89h-3.56c-.38,0-.79.17-1.06.44s-.46.69-.44,1.06c.04.81.66,1.5,1.5,1.5h3.56c.38,0,.79-.17,1.06-.44s.46-.69.44-1.06c-.04-.81-.66-1.5-1.5-1.5h0Z"/>
    <path class="cls-1" d="M1334.78,1204.78c1.93,0,1.93-3,0-3s-1.93,3,0,3h0Z"/>
    <path class="cls-1" d="M1366.78,1322.11c1.93,0,1.93-3,0-3s-1.93,3,0,3h0Z"/>
    <path class="cls-1" d="M1229.18,1166.66c-1.19-1.19-2.37-2.37-3.56-3.56-.27-.27-.68-.44-1.06-.44s-.81.16-1.06.44c-.55.6-.59,1.53,0,2.12,1.19,1.19,2.37,2.37,3.56,3.56.27.27.68.44,1.06.44s.81-.16,1.06-.44c.55-.6.59-1.53,0-2.12h0Z"/>
    <path class="cls-1" d="M1448.56,1222.56c1.93,0,1.93-3,0-3s-1.93,3,0,3h0Z"/>
    <path class="cls-1" d="M1544.56,1428.78c1.93,0,1.93-3,0-3s-1.93,3,0,3h0Z"/>
    <path class="cls-1" d="M1061,1240.33c1.93,0,1.93-3,0-3s-1.93,3,0,3h0Z"/>
    <path class="cls-1" d="M287.58,1273.43l-3.61-7.08c-.36-.7-1.4-.96-2.05-.54-.72.46-.92,1.3-.54,2.05l3.61,7.08c.36.7,1.4.96,2.05.54.72-.46.92-1.3.54-2.05h0Z"/>
    <path class="cls-1" d="M534.78,1446.56c1.93,0,1.93-3,0-3s-1.93,3,0,3h0Z"/>
    <path class="cls-1" d="M680.56,1187c1.93,0,1.93-3,0-3s-1.93,3,0,3h0Z"/>
    <path class="cls-1" d="M364.12,1471.44c1.93,0,1.93-3,0-3s-1.93,3,0,3h0Z"/>
    <path class="cls-1" d="M723.23,1457.22c1.93,0,1.93-3,0-3s-1.93,3,0,3h0Z"/>
    <path class="cls-1" d="M488.56,1144.33c1.93,0,1.93-3,0-3s-1.93,3,0,3h0Z"/>
    <path class="cls-1" d="M314.34,1012.78c1.93,0,1.93-3,0-3s-1.93,3,0,3h0Z"/>
    <path class="cls-1" d="M197,1208.33c1.93,0,1.93-3,0-3s-1.93,3,0,3h0Z"/>
    <path class="cls-1" d="M22.78,938.67h-3.56c-.38,0-.79.17-1.06.44s-.46.69-.44,1.06c.04.81.66,1.5,1.5,1.5h3.56c.38,0,.79-.17,1.06-.44s.46-.69.44-1.06c-.04-.81-.66-1.5-1.5-1.5h0Z"/>
    <path class="cls-1" d="M719.67,906.11c1.93,0,1.93-3,0-3s-1.93,3,0,3h0Z"/>
    <path class="cls-1" d="M1153.45,899.56h-3.56c-.38,0-.79.17-1.06.44s-.46.69-.44,1.06c.04.81.66,1.5,1.5,1.5h3.56c.38,0,.79-.17,1.06-.44s.46-.69.44-1.06c-.04-.81-.66-1.5-1.5-1.5h0Z"/>
    <path class="cls-1" d="M680.56,838.56c1.93,0,1.93-3,0-3s-1.93,3,0,3h0Z"/>
    <path class="cls-1" d="M1649.45,883c1.93,0,1.93-3,0-3s-1.93,3,0,3h0Z"/>
    <path class="cls-1" d="M1384.28,726.83v-1.78c0-.38-.17-.79-.44-1.06-.14-.15-.3-.25-.48-.31-.18-.09-.37-.14-.58-.13-.39.02-.79.14-1.06.44s-.44.65-.44,1.06v1.78c0,.38.17.79.44,1.06.14.15.3.25.48.31.18.09.37.14.58.13.39-.02.79-.14,1.06-.44s.44-.65.44-1.06h0Z"/>
    <path class="cls-1" d="M1601.45,653.67c1.93,0,1.93-3,0-3s-1.93,3,0,3h0Z"/>
    <path class="cls-1" d="M354.95,401.5v-1.78c0-.38-.17-.79-.44-1.06-.14-.15-.3-.25-.48-.31-.18-.09-.37-.14-.58-.13-.39.02-.79.14-1.06.44s-.44.65-.44,1.06v1.78c0,.38.17.79.44,1.06.14.15.3.25.48.31.18.09.37.14.58.13.39-.02.79-.14,1.06-.44s.44-.65.44-1.06h0Z"/>
    <path class="cls-1" d="M245,468.78c1.93,0,1.93-3,0-3s-1.93,3,0,3h0Z"/>
    <path class="cls-1" d="M399.39,499.28v-1.78c0-.38-.17-.79-.44-1.06-.14-.15-.3-.25-.48-.31-.18-.09-.37-.14-.58-.13-.39.02-.79.14-1.06.44s-.44.65-.44,1.06v1.78c0,.38.17.79.44,1.06.14.15.3.25.48.31.18.09.37.14.58.13.39-.02.79-.14,1.06-.44s.44-.65.44-1.06h0Z"/>
    <path class="cls-1" d="M346.34,468.78c1.93,0,1.93-3,0-3s-1.93,3,0,3h0Z"/>
    <path class="cls-1" d="M300.12,531c1.93,0,1.93-3,0-3s-1.93,3,0,3h0Z"/>
    <g>
      <path class="cls-1" d="M901,653.94c-.03-5.19-.05-10.37-.08-15.56.9,4.11,2.72,8.02,5.28,11.35-3.83-2.04-7.66-4.09-11.49-6.13,3.71-.73,7.42-1.46,11.13-2.19-2.04,4.1-4.91,7.78-8.39,10.75"/>
      <path class="cls-1" d="M902.5,653.94c-.03-5.19-.05-10.37-.08-15.56l-2.95.4c.95,4.24,2.8,8.26,5.43,11.71l2.05-2.05c-3.83-2.04-7.66-4.09-11.49-6.13l-.36,2.74c3.71-.73,7.42-1.46,11.13-2.19l-1.69-2.2c-2.01,4.01-4.76,7.53-8.16,10.45-.61.53-.54,1.58,0,2.12.61.61,1.51.53,2.12,0,3.57-3.07,6.52-6.85,8.63-11.05.61-1.21-.39-2.46-1.69-2.2-3.71.73-7.42,1.46-11.13,2.19-1.26.25-1.46,2.16-.36,2.74,3.83,2.04,7.66,4.09,11.49,6.13.59.32,1.33.25,1.82-.23.43-.43.63-1.3.23-1.82-2.49-3.27-4.24-6.98-5.13-10.99-.37-1.67-2.95-1.28-2.95.4.03,5.19.05,10.37.08,15.56,0,1.93,3.01,1.93,3,0h0Z"/>
    </g>
    <g>
      <path class="cls-1" d="M1356.05,796.16l2.42-14.06c1.23,5.02,3.21,9.85,5.87,14.28-3.1-4.55-7.87-7.95-13.18-9.4,3.11-4.04,9.88-4.48,13.48-.87-4.69,3.24-9.39,6.49-14.08,9.73"/>
      <path class="cls-1" d="M1357.5,796.55c.81-4.69,1.61-9.37,2.42-14.06h-2.89c1.27,5.14,3.31,10.09,6.02,14.64l2.59-1.51c-3.37-4.89-8.35-8.5-14.08-10.09l.66,2.51c2.71-3.44,8.23-3.93,11.36-.87l.3-2.36c-4.69,3.24-9.39,6.49-14.08,9.73-.67.46-.97,1.32-.54,2.05.39.66,1.38,1,2.05.54,4.69-3.24,9.39-6.49,14.08-9.73.78-.54,1.04-1.64.3-2.36-4.21-4.12-11.91-3.81-15.61.87-.68.86-.52,2.18.66,2.51,4.95,1.37,9.37,4.47,12.29,8.71,1.08,1.57,3.59.17,2.59-1.51-2.59-4.34-4.5-9.02-5.72-13.92-.34-1.37-2.64-1.49-2.89,0-.81,4.69-1.61,9.37-2.42,14.06-.14.8.21,1.62,1.05,1.85.72.2,1.71-.24,1.85-1.05h0Z"/>
    </g>
    <g>
      <path class="cls-1" d="M367.55,1123.27l.47-22.64c2.31,6.02,5.6,11.67,9.71,16.64-5.07-.66-10.09-1.76-14.97-3.29,3.86-3.96,9.68-5.9,15.15-5.05-5.43,2.41-9.82,7.05-11.93,12.6"/>
      <path class="cls-1" d="M369.05,1123.27c.16-7.55.31-15.1.47-22.64l-2.95.4c2.43,6.29,5.82,12.09,10.09,17.3l1.06-2.56c-4.94-.66-9.82-1.76-14.58-3.24l.66,2.51c3.54-3.55,8.7-5.38,13.69-4.66l-.36-2.74c-5.83,2.64-10.31,7.56-12.62,13.5-.7,1.8,2.2,2.58,2.89.8,2.03-5.23,6.15-9.4,11.24-11.71,1.12-.51.89-2.56-.36-2.74-6.08-.88-12.25,1.06-16.61,5.44-.82.82-.41,2.18.66,2.51,5.03,1.56,10.16,2.65,15.37,3.34,1.44.19,1.77-1.69,1.06-2.56-3.93-4.78-7.09-10.2-9.32-15.98-.59-1.52-2.91-1.39-2.95.4-.16,7.55-.31,15.1-.47,22.64-.04,1.93,2.96,1.93,3,0h0Z"/>
    </g>
    <g>
      <path class="cls-1" d="M515.28,367.44c1-4,.83-12.64,1.81-15.7,1.34,3.85,6.68,7.7,8.02,11.55-4.67.24-10.84-2.85-13.84-4.85,4-2,9.43-4.61,13.51-6.76-3.1,5.49-6.2,10.99-9.29,16.48"/>
      <path class="cls-1" d="M516.73,367.84c.66-2.72.76-5.59.95-8.37.17-2.48.15-5.01.86-7.33h-2.89c.85,2.32,2.47,4.21,4.06,6.05,1.44,1.66,3.19,3.39,3.96,5.5l1.45-1.9c-2.46.1-4.88-.63-7.15-1.53-2.07-.82-4.07-1.89-5.93-3.12v2.59c4.5-2.25,9.05-4.41,13.51-6.76l-2.05-2.05c-3.1,5.49-6.2,10.99-9.29,16.48-.95,1.68,1.64,3.2,2.59,1.51,3.1-5.49,6.2-10.99,9.29-16.48.75-1.34-.74-2.74-2.05-2.05-4.46,2.34-9,4.51-13.51,6.76-1.07.53-.88,2.01,0,2.59,2.08,1.38,4.33,2.5,6.65,3.42,2.5.99,5.23,1.75,7.94,1.64.9-.04,1.8-.94,1.45-1.9-.85-2.32-2.47-4.21-4.06-6.05-1.44-1.66-3.19-3.39-3.96-5.5-.5-1.36-2.44-1.48-2.89,0-.75,2.43-.77,5.15-.94,7.67-.18,2.68-.24,5.43-.88,8.03-.46,1.88,2.44,2.68,2.89.8h0Z"/>
    </g>
    <path class="cls-1" d="M517.72,358.97c48.87-30.9,112.06-43.03,166.34-32.84,0,0-84.28-13.19-163.78,35.31"/>
    <path class="cls-1" d="M1260.12,461.67c1.19,0,2.37,0,3.56,0,.38,0,.79-.17,1.06-.44s.46-.69.44-1.06c-.04-.81-.66-1.5-1.5-1.5-1.19,0-2.37,0-3.56,0-.38,0-.79.17-1.06.44s-.46.69-.44,1.06c.04.81.66,1.5,1.5,1.5h0Z"/>
    <path class="cls-1" d="M1519.67,344.33c1.93,0,1.93-3,0-3s-1.93,3,0,3h0Z"/>
    <path class="cls-1" d="M1430.78,422.56c1.93,0,1.93-3,0-3s-1.93,3,0,3h0Z"/>
    <path class="cls-1" d="M1247.39,261.06v-3.56c0-.38-.17-.79-.44-1.06s-.69-.46-1.06-.44c-.81.04-1.5.66-1.5,1.5v3.56c0,.38.17.79.44,1.06s.69.46,1.06.44c.81-.04,1.5-.66,1.5-1.5h0Z"/>
    <path class="cls-1" d="M1427.23,266.11c1.93,0,1.93-3,0-3s-1.93,3,0,3h0Z"/>
    <path class="cls-1" d="M1076.12,378.11c1.93,0,1.93-3,0-3s-1.93,3,0,3h0Z"/>
    <path class="cls-1" d="M974.78,276.78c1.93,0,1.93-3,0-3s-1.93,3,0,3h0Z"/>
    <path class="cls-1" d="M898.51,442.22l-2.67-2.67c-.27-.27-.68-.44-1.06-.44s-.81.16-1.06.44-.46.66-.44,1.06.15.77.44,1.06l2.67,2.67c.27.27.68.44,1.06.44s.81-.16,1.06-.44.46-.66.44-1.06-.15-.77-.44-1.06h0Z"/>
    <path class="cls-1" d="M1681.45,695.44c1.93,0,1.93-3,0-3s-1.93,3,0,3h0Z"/>
    <path class="cls-1" d="M1616.28,885.94v-5.33c0-.78-.69-1.54-1.5-1.5s-1.5.66-1.5,1.5v5.33c0,.78.69,1.54,1.5,1.5s1.5-.66,1.5-1.5h0Z"/>
    <path class="cls-1" d="M464.28,1216.61v-2.67c0-.38-.17-.79-.44-1.06s-.69-.46-1.06-.44-.79.14-1.06.44-.44.65-.44,1.06v2.67c0,.38.17.79.44,1.06s.69.46,1.06.44.79-.14,1.06-.44.44-.65.44-1.06h0Z"/>
    <path class="cls-1" d="M120.39,663.01l2.67,2.67c.27.27.68.44,1.06.44s.81-.16,1.06-.44.46-.66.44-1.06-.15-.77-.44-1.06l-2.67-2.67c-.27-.27-.68-.44-1.06-.44s-.81.16-1.06.44-.46.66-.44,1.06.15.77.44,1.06h0Z"/>
    <path class="cls-1" d="M1061,1405.67c1.93,0,1.93-3,0-3s-1.93,3,0,3h0Z"/>
    <path class="cls-1" d="M1087.67,847.44c1.93,0,1.93-3,0-3s-1.93,3,0,3h0Z"/>
    <path class="cls-1" d="M472.56,568.33c1.93,0,1.93-3,0-3s-1.93,3,0,3h0Z"/>
    <path class="cls-1" d="M273.45,771c1.93,0,1.93-3,0-3s-1.93,3,0,3h0Z"/>
    <path class="cls-1" d="M1.45,477.67c1.93,0,1.93-3,0-3s-1.93,3,0,3h0Z"/>
    <path class="cls-1" d="M95.67,335.44c1.93,0,1.93-3,0-3s-1.93,3,0,3h0Z"/>
    <path class="cls-1" d="M1206.78,1519.44c1.93,0,1.93-3,0-3s-1.93,3,0,3h0Z"/>
    <path class="cls-1" d="M1507.23,1647.44c1.93,0,1.93-3,0-3s-1.93,3,0,3h0Z"/>
    <path class="cls-1" d="M323.23,1761.22c1.93,0,1.93-3,0-3s-1.93,3,0,3h0Z"/>
    <path class="cls-1" d="M933,1599.44c1.93,0,1.93-3,0-3s-1.93,3,0,3h0Z"/>
    <path class="cls-1" d="M1615.67,1163.89c1.93,0,1.93-3,0-3s-1.93,3,0,3h0Z"/>
    <path class="cls-1" d="M1836.12,939.89c1.93,0,1.93-3,0-3s-1.93,3,0,3h0Z"/>
    <path class="cls-1" d="M1797,831.44c1.93,0,1.93-3,0-3s-1.93,3,0,3h0Z"/>
    <path class="cls-1" d="M1661.89,340.78c1.93,0,1.93-3,0-3s-1.93,3,0,3h0Z"/>
    <path class="cls-1" d="M1658.34,675c1.93,0,1.93-3,0-3s-1.93,3,0,3h0Z"/>
    <path class="cls-1" d="M918.78,49.22c1.93,0,1.93-3,0-3s-1.93,3,0,3h0Z"/>
    <path class="cls-1" d="M257.45,3c1.93,0,1.93-3,0-3s-1.93,3,0,3h0Z"/>
    <path class="cls-1" d="M538.34,650.11c1.93,0,1.93-3,0-3s-1.93,3,0,3h0Z"/>
    <path class="cls-1" d="M620.12,643c1.93,0,1.93-3,0-3s-1.93,3,0,3h0Z"/>
    <path class="cls-1" d="M595.23,852.78c1.93,0,1.93-3,0-3s-1.93,3,0,3h0Z"/>
    <path class="cls-1" d="M403.23,760.33c1.93,0,1.93-3,0-3s-1.93,3,0,3h0Z"/>
    <path class="cls-1" d="M474.34,721.22c1.93,0,1.93-3,0-3s-1.93,3,0,3h0Z"/>
  </g>
</svg>