<?xml version="1.0" encoding="UTF-8"?>
<svg id="Layer_2" data-name="Layer 2" xmlns="http://www.w3.org/2000/svg" viewBox="0 0 1090.52 473.12">
  <defs>
    <style>
      .cls-1 {
        fill: #7a0034;
      }

      .cls-1, .cls-2, .cls-3, .cls-4, .cls-5, .cls-6, .cls-7, .cls-8, .cls-9, .cls-10, .cls-11, .cls-12, .cls-13, .cls-14, .cls-15, .cls-16, .cls-17, .cls-18 {
        stroke-width: 0px;
      }

      .cls-2 {
        fill: #610037;
      }

      .cls-3 {
        fill: #ae0fb9;
      }

      .cls-4 {
        fill: #ce124b;
      }

      .cls-5 {
        fill: #ff0086;
      }

      .cls-6 {
        fill: #ff82b3;
      }

      .cls-7 {
        fill: #d60e39;
      }

      .cls-8 {
        fill: #8b0093;
      }

      .cls-9 {
        fill: #d60086;
      }

      .cls-10 {
        fill: #af0078;
      }

      .cls-11 {
        fill: #ff19b4;
      }

      .cls-12 {
        fill: #e81a50;
      }

      .cls-13 {
        fill: #a80d36;
      }

      .cls-14 {
        fill: #bd0b41;
      }

      .cls-15 {
        fill: #de0098;
      }

      .cls-16 {
        fill: #9c0644;
      }

      .cls-17 {
        fill: #870033;
      }

      .cls-18 {
        fill: #9c062c;
      }
    </style>
  </defs>
  <g id="StargazingAnteaters">
    <g id="BuffAnteater">
      <g>
        <path class="cls-18" d="M805.82,259.88c-5.96-1.01-10.21-6.49-12.31-12.16-2.1-5.67-13.93-12.28-18.01-16.74-5.91-6.47-13.17-13.02-17.26-20.77-4.09-7.75-11.92-11.33-10.31-19.94.37-1.97,1.12-3.93,2.54-5.35,2.9-2.91,7.59-2.76,11.65-2.12,16.29,2.58,63.86,15.26,72.12,29.54,1.5,2.6,2.95,5.37,5.4,7.09,2.06,1.45,4.6,1.98,7,2.74,14.01,4.44,28.22,23.12,28.86,37.8.36,8.23-7.59,25.04-12,32-8.64,13.65-17.33,18.31-30.45,27.74-13.11,9.43-34.38,9.2-43.02-4.45"/>
        <path class="cls-18" d="M806.22,258.43c-3.35-.62-6.08-2.65-8.12-5.33-1.04-1.37-1.9-2.89-2.61-4.46-.55-1.23-.95-2.47-1.71-3.59-3.41-4.96-8.96-8.25-13.6-11.93-2.39-1.89-4.38-4.06-6.47-6.26-2.76-2.89-5.57-5.75-8.16-8.8s-4.56-6.21-6.56-9.6c-1.66-2.81-3.89-5.22-5.97-7.72-1.77-2.13-3.52-4.55-3.77-7.4-.29-3.28.94-7.2,4.13-8.65,2.79-1.27,6.17-.83,9.1-.34,1.87.31,3.74.68,5.6,1.07,10.61,2.23,21.11,5.17,31.36,8.72,5.45,1.88,10.84,3.95,16.05,6.4,4.34,2.04,8.7,4.31,12.5,7.27,1.48,1.15,2.91,2.44,4.06,3.93,1.66,2.15,2.79,4.93,4.67,7.05,2.62,2.95,6.24,3.73,9.82,4.91,2.94.97,5.67,2.54,8.18,4.34,5.6,4.02,10.25,9.47,13.74,15.39,3.06,5.2,5.78,11.52,5.53,17.68-.1,2.65-.81,5.28-1.59,7.8-.94,3.08-2.1,6.09-3.38,9.04-2.36,5.43-5.06,10.78-8.42,15.66-3.75,5.45-8.35,10.13-13.55,14.2-2.58,2.02-5.26,3.89-7.94,5.77-2.88,2.02-5.69,4.21-8.69,6.06-9.7,5.99-23.57,7.34-33.34.76-2.31-1.55-4.26-3.58-5.77-5.92-1.04-1.62-3.64-.12-2.59,1.51,7.01,10.9,21.15,13.56,33.04,10.51,3.1-.79,6.12-1.99,8.92-3.55,3.16-1.77,6.04-4.07,9.01-6.14,5.53-3.87,11.11-7.75,15.91-12.53s8.54-10.09,11.67-15.89,5.89-11.93,7.87-18.23c.88-2.78,1.62-5.66,1.81-8.58s-.37-5.99-1.17-8.81c-1.95-6.89-5.72-13.24-10.31-18.7-4.44-5.28-9.94-9.97-16.37-12.62-3.55-1.46-7.6-1.79-10.29-4.81-1.95-2.19-2.99-5-4.84-7.27-2.8-3.43-6.73-5.96-10.53-8.13-4.99-2.84-10.29-5.15-15.64-7.24-11.05-4.32-22.5-7.71-34.05-10.41-4.38-1.03-8.82-2.07-13.3-2.56-3.51-.39-7.38-.17-10.26,2.08s-4.16,6.32-3.98,9.88c.34,6.75,6.31,10.9,9.69,16.18,1.08,1.67,1.94,3.47,3.04,5.13s2.36,3.31,3.64,4.87c2.63,3.2,5.53,6.18,8.4,9.18,2.25,2.36,4.38,4.74,6.94,6.78s5.3,3.99,7.86,6.09c2.16,1.77,4.55,3.7,5.93,6.18.78,1.4,1.23,2.97,2,4.39.85,1.57,1.88,3.05,3.06,4.38,2.27,2.56,5.25,4.5,8.63,5.13,1.89.35,2.7-2.54.8-2.89h0Z"/>
      </g>
      <g>
        <path class="cls-16" d="M908.54,327.23c35.32,25.14,137.26,40.89,180.4,45.21-20.45,11.85-56.37,30.74-78.32,21.98,6.82,1.84,13.8,6.76,19.55,10.85,5.75,4.1-29.88.89-30.68,7.91-1.14,10.04-11.91,16.19-21.9,17.73-22.2,3.41-65.81-3.52-85.61-14.11-6.94-3.71-14.74-8.66-15.43-16.5,16.79,11.84,29.31,26.89,17.48,43.69-6.04,8.58-11.24,11.38-20.58,16.17-8.47,4.35-17.33,8.09-26.66,10.02-22.53,4.64-47.12-2.24-63.96-17.91-16.84-15.66-25.49-39.69-22.49-62.49.41-3.1,1.16-6.43,3.56-8.45s6.88-1.6,7.82,1.39c.63,2.02-.56,4.12-1.79,5.85-10.7,14.96-28.07,24.43-46.19,27.64-18.12,3.22-36.92.58-54.38-5.2-6.54-2.16-13.04-4.82-18.44-9.11-5.61-4.46-9.78-10.5-13.13-16.83-16.99-32.07-13-74.08,9.72-102.39,6.63-8.26,14.89-15.52,24.8-19.28,23.56-8.96,49.39,3.37,71.42,15.62,22.03,12.25,47.34,25.15,71.28,17.27"/>
        <path class="cls-18" d="M907.78,328.53c8.39,5.94,18,10.1,27.57,13.73,12.1,4.59,24.55,8.22,37.07,11.43,26.55,6.82,53.6,11.77,80.71,15.75,11.9,1.75,23.83,3.3,35.8,4.5l-.76-2.8c-9.26,5.36-18.7,10.44-28.52,14.71-10.21,4.44-21.18,8.35-32.36,9.17-5.53.4-11.08-.03-16.28-2.05l-.8,2.89c4.64,1.32,8.84,3.71,12.86,6.33,1.94,1.27,3.86,2.58,5.73,3.94.1.07.73.58.73.57-.44.21.03-1.72.15-1.46.1.22-8.94,1.14-9.78,1.19-4.77.32-9.6.57-14.29,1.54-2.86.59-6.78,1.55-7.58,4.8-.95,3.87-2.11,6.85-5.11,9.64s-6.5,4.53-10.22,5.73c-6.22,2.01-13.01,2.18-19.5,2.13-15.25-.11-30.59-2.33-45.39-5.95-7.39-1.81-14.8-3.98-21.73-7.16-7.03-3.22-17.07-8.23-18.05-16.86l-2.26,1.3c8.48,6.02,18.22,13.89,20.83,24.49,2.5,10.14-4.39,20.07-12.19,25.95-3.83,2.89-8.21,5.04-12.48,7.21-5.71,2.9-11.58,5.5-17.69,7.43-10.98,3.47-22.56,4.37-33.92,2.38-22.06-3.87-41.18-17.66-51.3-37.7-4.95-9.8-7.67-20.76-7.79-31.75-.03-2.58.08-5.16.34-7.72.28-2.75.57-6.02,2.27-8.33,1.21-1.64,4.41-3.03,6.05-1.05,1.92,2.32-2.22,6.64-3.61,8.32-14.76,17.85-38.2,25.73-60.84,25.26-12.91-.27-25.74-2.98-37.89-7.25-5.74-2.02-11.44-4.55-16.17-8.45s-7.99-8.44-10.89-13.46c-10.67-18.5-13.95-40.9-10.26-61.84,3.69-20.94,14.6-42.51,32.43-54.85,9.98-6.9,21.72-9.38,33.71-7.97s24.21,6.45,35.26,12.04c21.1,10.66,42.03,25.31,66.54,25.91,5.83.14,11.64-.67,17.19-2.45,1.83-.59,1.05-3.48-.8-2.89-26.97,8.63-53.19-8.15-76.06-20.36-22.05-11.77-49.46-22.87-73.32-9.4-20.1,11.35-32.83,34.46-37.35,56.5-4.57,22.29-1.55,46.28,9.68,66.2,2.96,5.25,6.57,10.28,11.16,14.23s10.41,6.87,16.25,9.05c12.76,4.76,26.45,7.66,40.08,8,24.07.6,49.27-8.04,64.47-27.48,2.57-3.28,6.45-9.2,1.26-12.17-4.31-2.46-8.93.65-10.61,4.72-2.09,5.08-2.05,11.47-1.89,16.88.18,5.75,1.03,11.5,2.52,17.06,6.13,22.96,22.82,41.67,45.06,50.12,10.95,4.16,22.96,5.79,34.61,4.5,13.02-1.44,25.03-6.65,36.53-12.67,9.14-4.79,17.68-11.36,21.59-21.29,4.06-10.3-.64-20.42-7.67-28.1-4.04-4.41-8.76-8.16-13.63-11.61-.88-.62-2.38.2-2.26,1.3.96,8.5,8.38,13.54,15.32,17.33,6.15,3.36,12.81,5.72,19.53,7.68,15.82,4.6,32.46,7.25,48.93,7.87,13.63.51,32.59.15,40.14-13.59.82-1.49,1.45-3.13,1.78-4.8.19-1,.05-1.55.75-2.16,1.26-1.09,3.36-1.43,4.92-1.75,5.12-1.05,10.42-1.21,15.62-1.57,2.18-.15,9.75.28,10.22-2.96.11-.76-.23-1.36-.73-1.89-1.4-1.49-3.61-2.62-5.29-3.75-4.72-3.19-9.7-6.16-15.22-7.73-1.89-.54-2.56,2.21-.8,2.89,9.77,3.79,20.81,2.38,30.7-.2,11.44-2.98,22.39-7.85,32.89-13.22,5.38-2.75,10.66-5.68,15.89-8.71,1.38-.8.65-2.65-.76-2.8-23.38-2.35-46.66-5.87-69.76-10.15-26.43-4.89-52.97-10.68-78.33-19.71-10.94-3.89-22.01-8.4-31.54-15.15-1.58-1.12-3.08,1.48-1.51,2.59h0Z"/>
      </g>
      <g>
        <path class="cls-13" d="M725.24,214.21c-32.56-2.69-65.22-4.17-97.89-4.44-19.27-.16-61.98-2.89-80.71,1.25-8.24,1.82-11.06,12.29-4.8,17.94,15.99,14.42,75.15,27.99,138.41,38.29"/>
        <path class="cls-13" d="M725.24,212.71c-30.25-2.49-60.58-3.95-90.93-4.37-20.55-.28-41.12-1.41-61.68-1.05-4.86.09-9.71.26-14.56.65-4.04.33-8.2.69-12.14,1.69-4.42,1.12-7.92,4.83-8.76,9.32s.75,8.62,4.12,11.5c5.4,4.61,12.17,7.56,18.69,10.19,9.49,3.81,19.32,6.77,29.19,9.44,26.31,7.14,53.17,12.26,80.03,16.83,3.55.6,7.1,1.19,10.66,1.77,1.89.31,2.7-2.58.8-2.89-27.07-4.41-54.12-9.37-80.74-16.02-10.5-2.62-20.96-5.5-31.19-9.07-7.33-2.55-14.73-5.4-21.34-9.53-2.61-1.63-5.56-3.52-6.79-6.49-1.52-3.68-.31-8.17,2.84-10.6,1.62-1.25,3.56-1.66,5.53-2.02s3.76-.6,5.66-.8c4.52-.49,9.06-.73,13.6-.87,19.49-.62,38.96.64,58.44.85,29.26.32,58.48,1.43,87.66,3.59,3.64.27,7.28.56,10.91.85,1.92.16,1.91-2.84,0-3h0Z"/>
      </g>
      <g>
        <path class="cls-14" d="M879.4,345.8c-81.38,28.4-173.82,23.57-251.79-13.18-4.75-2.24-9.66-4.77-12.64-9.09-6.67-9.69-.76-22.91,6.13-32.46,11.5-15.93,25.57-29.8,39.82-43.32,14.34-13.62,29.52-27.32,48.24-33.71,29.11-9.94,61.05-.44,89.56,11.12,42.71,17.31,85.65,41.32,108.62,81.28"/>
        <path class="cls-14" d="M879,344.35c-20.38,7.1-41.46,12.14-62.84,15.11-21.41,2.97-43.12,3.82-64.7,2.64-21.59-1.18-43.05-4.42-64.02-9.71-20.85-5.25-41.44-12.41-60.77-21.87-4.44-2.17-8.94-4.79-11.36-9.29-2.29-4.26-2.1-9.27-.87-13.81,2.8-10.32,10.19-19.07,16.94-27.08,7.38-8.74,15.4-16.9,23.61-24.86,7.78-7.53,15.6-15.09,23.99-21.96,8.15-6.68,17.04-12.73,26.86-16.67,10.3-4.14,21.36-5.76,32.43-5.44,22.47.65,44.18,8.55,64.71,17.11,18.27,7.62,36.15,16.41,52.67,27.36,16.2,10.73,31.15,23.71,42.66,39.46,2.78,3.81,5.35,7.76,7.71,11.85.97,1.67,3.56.16,2.59-1.51-9.99-17.29-23.88-31.87-39.67-43.99-16.11-12.36-34.05-22.17-52.5-30.55-20.15-9.15-41.24-17.76-63.2-21.26-11.14-1.78-22.52-2.13-33.65-.1s-20.9,6.37-30.08,12.31-17.38,13.11-25.33,20.52c-8.44,7.87-16.78,15.88-24.72,24.26s-15.62,16.95-21.77,26.54c-5.15,8.04-9.69,18.75-5.54,28.16,2.06,4.67,6.14,7.88,10.51,10.27,4.69,2.55,9.66,4.66,14.56,6.76,10.11,4.33,20.44,8.17,30.93,11.47,21.12,6.64,42.89,11.14,64.9,13.54,22.04,2.4,44.32,2.66,66.42.74s43.75-5.94,64.91-12.14c5.18-1.52,10.32-3.17,15.41-4.95,1.81-.63,1.03-3.53-.8-2.89h0Z"/>
      </g>
      <g>
        <path class="cls-14" d="M664.72,343.7c-25.73-7.85-51.36-16.03-76.88-24.52-15.8-5.26-31.68-10.7-46.01-19.18-14.32-8.49-27.14-20.34-34.03-35.49,5.16-4.1,12.12-4.91,18.68-5.57,20.83-2.09,41.65-4.18,62.48-6.27,24.74-2.48,50.11-4.92,74.14,1.48"/>
        <path class="cls-14" d="M665.12,342.26c-24.31-7.42-48.53-15.12-72.65-23.12-21.58-7.15-44.05-14.3-62-28.8-8.94-7.22-16.56-16.09-21.37-26.6l-.23,1.82c3.42-2.65,7.74-3.78,11.94-4.45,4.83-.77,9.74-1.09,14.6-1.58,10.66-1.07,21.32-2.14,31.98-3.21,10.41-1.04,20.81-2.14,31.23-3.11,10.06-.94,20.16-1.69,30.28-1.65,11.39.04,22.77,1.11,33.8,4.02,1.87.49,2.67-2.4.8-2.89-20.09-5.3-41.06-4.59-61.57-2.78-21.53,1.9-43.03,4.26-64.53,6.42-5.65.57-11.36.97-16.98,1.82-4.93.75-9.68,2.19-13.67,5.28-.56.43-.49,1.26-.23,1.82,9.01,19.67,27.18,33.23,46.3,42.21,10.78,5.06,22.05,8.96,33.33,12.72,12.18,4.06,24.38,8.04,36.6,11.96,13.83,4.43,27.69,8.76,41.58,13,1.85.56,2.64-2.33.8-2.89h0Z"/>
      </g>
      <g>
        <path class="cls-12" d="M1021.31,326.23c-10.71,24.05-32.66,42.8-58.09,49.62-25.43,6.82-53.81,1.58-75.12-13.88-5.13-3.72-9.87-8.01-13.76-13.01-6.12-7.88-9.96-17.33-12.56-26.96-7.51-27.87-4.82-58.52,8.23-84.27,6.46-12.75,15.31-24.2,21.38-37.14,12.32-26.25,12.33-56.75,7.38-85.33-4.95-28.58-14.56-56.14-20.81-84.46-2.37-10.72-2.18-25.33,8.26-28.71,9.84-3.19,18.46,7.1,23.63,16.06,40.91,70.95,67.41,131.23,104.31,204.34,10.96,21.71,18.45,62.26,7.25,104.5"/>
        <path class="cls-12" d="M1020.01,325.47c-10.7,23.8-32.21,42.32-57.48,49.01-27.45,7.26-58.86.26-79.99-18.93-11.49-10.43-17.44-24.69-20.68-39.6s-3.6-30.21-1.08-45.13c2.55-15.09,8.16-29.05,16.01-42.13,4.03-6.71,8.36-13.24,12.17-20.09,3.71-6.67,6.78-13.66,9.03-20.96,9.04-29.39,5.46-60.94-1.35-90.37-3.76-16.24-8.49-32.22-12.71-48.34-1.91-7.29-4.07-14.69-5.18-22.16-.78-5.25-.93-11.02.94-16.07,1.86-5.01,6.58-8.52,12.08-7.53,6.31,1.13,11.1,6.99,14.47,12.01,4.34,6.46,7.93,13.51,11.72,20.3,3.91,6.99,7.76,14.01,11.55,21.07,14.54,27.02,28.23,54.48,41.71,82.04,13.88,28.39,27.78,56.76,41.85,85.05,5.22,10.5,8.31,22.09,10.23,33.62,2.46,14.8,2.8,29.98,1.21,44.89-.88,8.26-2.42,16.43-4.53,24.47-.49,1.87,2.4,2.67,2.89.8,7.68-29.23,7.87-61.3-1.24-90.25-4.21-13.36-11.31-25.62-17.5-38.12-7.21-14.57-14.33-29.19-21.45-43.81-13.81-28.35-27.65-56.68-42.29-84.61-7.66-14.62-15.54-29.13-23.67-43.5-3.63-6.42-7.02-13.16-11.9-18.74-3.89-4.45-9.32-8.72-15.56-8.36-12.28.72-14.73,14.43-13.8,24.29.69,7.3,2.79,14.49,4.6,21.57,2.14,8.37,4.44,16.69,6.72,25.02,8.54,31.31,16.64,63.66,12.52,96.34-.97,7.7-2.67,15.33-5.18,22.68s-6.29,14.89-10.44,21.87-8.72,13.82-12.69,20.97c-3.7,6.68-6.78,13.69-9.11,20.97-4.68,14.57-6.47,30.09-5.4,45.35s4.53,30.72,12.09,43.89c7.48,13.02,19.96,22.63,33.46,28.84,12.93,5.94,27.23,8.87,41.46,8.43,27.29-.85,52.86-14.69,69.22-36.43,3.93-5.22,7.26-10.87,9.94-16.83.79-1.75-1.8-3.27-2.59-1.51h0Z"/>
      </g>
      <g>
        <path class="cls-12" d="M1018.35,306.04c3.6-1.86,7.27-3.75,11.27-4.47s8.43-.1,11.47,2.59c1.6,1.41,2.72,3.29,3.52,5.27,2.42,5.97,1.92,13.21-1.91,18.39-3.83,5.18-11.08,7.79-17.14,5.59-6.05-2.2-10-9.42-7.97-15.54.29-.89.72-1.77,1.46-2.34"/>
        <path class="cls-12" d="M1019.1,307.34c5.26-2.72,11.24-5.79,17.31-4.03,5.63,1.63,8.05,7.89,8.17,13.29s-2.15,10.84-6.82,13.79c-4.18,2.65-9.74,3.26-13.99.42-2.2-1.46-3.88-3.77-4.68-6.28-.75-2.37-1.04-6.12,1.02-7.94,1.45-1.28-.68-3.4-2.12-2.12-2.33,2.06-2.7,5.84-2.27,8.75s1.82,5.68,3.8,7.86c4.22,4.63,10.97,5.71,16.68,3.44,6.22-2.47,10.3-8.04,11.18-14.63.86-6.38-1.12-14.43-6.9-18.03-7.37-4.59-16.04-.65-22.89,2.89-1.72.89-.2,3.48,1.51,2.59h0Z"/>
      </g>
      <g>
        <path class="cls-2" d="M1013.27,240.47c-.09-3.94-2.38-7.77-5.82-9.7,4.13-3.31,9.99,1.43,12.26,6.21,1.98,4.16,2.27,10.55-2.11,11.95-4.64,1.48-8.11-4.93-7.25-9.72"/>
        <path class="cls-2" d="M1014.77,240.47c-.16-4.52-2.64-8.73-6.56-11v2.59c2.16-1.65,4.68-.63,6.58.98,2.08,1.76,3.64,4.08,4.35,6.72.55,2.01.84,4.56-.3,6.43-1.02,1.67-3.18,1.87-4.62.63-1.93-1.66-2.82-4.74-2.41-7.2.13-.8-.21-1.61-1.05-1.85-.72-.2-1.71.24-1.85,1.05-.56,3.35.33,6.96,2.6,9.53s5.89,3.08,8.57.92c2.53-2.04,2.78-5.67,2.31-8.64-.54-3.49-2.33-6.74-4.89-9.17-2.84-2.69-7.29-4.67-10.81-1.98-.86.66-1.07,1.97,0,2.59,3,1.74,4.95,4.94,5.07,8.41.07,1.93,3.07,1.93,3,0h0Z"/>
      </g>
      <g>
        <path class="cls-2" d="M925.01,254.47c-.26,2.3,2.23,4.3,1.55,6.51-.76,2.45-4.5,1.35-6.39-.38-1.89-1.73-4.94-3.67-6.61-1.72-3.91,9.86,5.42,22.24,15.97,21.2,1.7-.17,3.46-.66,4.69-1.85.93-.9,1.49-2.12,1.96-3.33,2.72-6.93,6.34-16.7.93-21.82-9.61-9.09-11.58-3.09-12.09,1.41Z"/>
        <path class="cls-2" d="M923.51,254.47c-.06,1.06.23,2.02.64,2.97.35.81.97,1.7,1.02,2.6.09,1.7-2.47.48-3.18.05-1.78-1.08-3.07-2.67-5.15-3.3s-4.23.13-4.96,2.28c-2.52,7.43,1.57,15.8,7.88,19.93,3.22,2.11,7.13,3.06,10.95,2.41,2.38-.4,4.46-1.57,5.75-3.65,1.1-1.77,1.74-3.92,2.45-5.86,1.41-3.9,2.72-8.14,2.47-12.33-.11-1.89-.55-3.76-1.51-5.4-1.11-1.91-2.93-3.37-4.67-4.68-2.38-1.81-5.97-3.85-8.8-1.78-2.09,1.53-2.6,4.36-2.89,6.77-.23,1.91,2.78,1.9,3,0,.16-1.34.53-3.34,1.48-4.22.01-.01.52-.33.47-.32.39-.15.62-.16,1.09-.08,1.27.2,2.51,1.03,3.54,1.77,1.48,1.06,3.15,2.34,4.11,3.92.83,1.36,1.15,2.94,1.2,4.52.1,3.66-1.04,7.29-2.26,10.7-.61,1.71-1.18,3.55-2.07,5.15-1.02,1.83-2.85,2.54-4.87,2.69-3.22.24-6.38-.91-8.91-2.88s-4.55-4.83-5.51-7.94c-.46-1.49-.69-3.02-.63-4.57.03-.76.13-1.51.31-2.25.09-.35.17-.74.31-1.07.13-.3.05-.28.55-.31,1.92-.13,3.56,2.11,5.02,3.04s3.33,1.57,5.03,1.19,2.85-1.97,2.79-3.75c-.06-2-1.78-3.6-1.66-5.57s-2.88-1.92-3,0Z"/>
      </g>
      <g id="HatAndEar">
        <g>
          <path class="cls-3" d="M1030.98,300.56c13.78-16.31,25.07-34.71,33.39-54.38.99-2.35,1.9-5.22.41-7.29-.79-1.11-2.12-1.71-3.43-2.1-9.04-2.65-18.27,2.87-26.02,8.24-41.65,28.82-81.47,60.2-121.26,91.55-8.31,6.54-16.94,13.5-21.11,23.22"/>
          <path class="cls-8" d="M1032.04,301.62c11.95-14.18,22.09-29.85,30.01-46.62,1.01-2.13,1.98-4.28,2.91-6.44.83-1.92,1.73-3.84,2.01-5.93.25-1.94-.17-3.95-1.62-5.36s-3.69-2.07-5.7-2.4c-9.22-1.5-17.84,3.85-25.09,8.86-16.78,11.58-33.24,23.62-49.53,35.88-16.2,12.19-32.22,24.63-48.18,37.14-8.01,6.28-16.02,12.58-24.01,18.89-6.69,5.27-13.46,10.73-18.2,17.91-1.15,1.74-2.14,3.57-2.98,5.48-.76,1.75,1.82,3.28,2.59,1.51,3.32-7.61,9.3-13.46,15.6-18.68,7.21-5.98,14.69-11.66,22.06-17.45,15.36-12.07,30.76-24.09,46.32-35.92,15.59-11.85,31.33-23.5,47.31-34.81,3.92-2.77,7.83-5.55,11.81-8.24,3.73-2.53,7.65-4.98,11.92-6.49,3.91-1.37,8.42-2.04,12.39-.5,4.54,1.76,1.34,7.18,0,10.19-7.21,16.3-16.48,31.73-27.55,45.7-1.37,1.73-2.77,3.44-4.2,5.13-1.24,1.47.87,3.6,2.12,2.12h0Z"/>
        </g>
        <g>
          <path class="cls-3" d="M887.49,367.97c16.18,16.89,34.93,27.2,58.38,26.45,23.45-.74,45.1-4.51,64.99-16.88,4.15-2.58,9.24-10.36,12.55-13.95,6.54-7.11,9.48-24.91,9.99-34.53.51-9.62-1.2-19.21-2.91-28.69-46.36,9.13-89.45,30.18-130.66,53.2-5.87,3.28-12.53,8.06-11.98,14.73"/>
          <path class="cls-8" d="M886.43,369.03c9.81,10.21,21.43,18.87,34.97,23.4,14.33,4.79,29.69,3.9,44.46,1.94,15.63-2.07,30.88-6.58,44.45-14.73,5.68-3.41,9.12-9.1,13.33-14.04,1.76-2.07,3.32-4.1,4.53-6.56,1.35-2.76,2.38-5.68,3.22-8.64,1.73-6.06,2.78-12.35,3.32-18.63.73-8.4-.21-16.75-1.58-25.03-.37-2.26-.78-4.51-1.18-6.77-.15-.84-1.11-1.19-1.85-1.05-21.73,4.3-42.85,11.21-63.28,19.71-20.35,8.46-40.04,18.43-59.37,29.01-4.91,2.69-10.1,5.18-14.51,8.66-3.72,2.94-6.9,7.01-6.58,11.99.12,1.92,3.12,1.93,3,0-.27-4.26,2.65-7.54,5.85-9.98,3.85-2.94,8.33-5.1,12.57-7.43,9.47-5.2,19.02-10.26,28.7-15.07,19.19-9.54,38.89-18.11,59.28-24.76,11.53-3.76,23.26-6.89,35.15-9.24l-1.85-1.05c1.56,8.7,3.13,17.46,2.93,26.34-.14,5.94-.98,11.9-2.27,17.69-1.25,5.63-2.88,11.62-6.27,16.39-1.57,2.21-3.51,4.23-5.19,6.37-1.99,2.54-3.99,5.14-6.38,7.32-2.53,2.31-5.9,3.88-8.92,5.43-3.4,1.74-6.89,3.28-10.47,4.61-7.05,2.63-14.38,4.48-21.8,5.73s-15.19,1.91-22.84,2.21c-7.04.28-14-.18-20.86-1.91-13.22-3.35-24.84-10.88-34.62-20.22-1.3-1.24-2.57-2.51-3.81-3.81-1.34-1.39-3.46.73-2.12,2.12h0Z"/>
        </g>
        <g>
          <path class="cls-8" d="M927.59,378.01l-1.92.19c2.12.87,4.43,1.23,6.69,1.06,1.11-.09,2.22-.3,3.22-.81,3.21-1.6,4.65-6.01,3.69-9.65s-3.87-6.43-7.15-7.86-6.91-1.66-10.46-1.56c-2.21.06-4.45.26-6.51,1.11-2.84,1.17-5.12,3.48-7.1,5.94-.53.65-1.05,1.34-1.28,2.17-.68,2.4,1.31,4.7,3.31,6,6.64,4.29,14.91,4.06,22.67,3.71"/>
          <path class="cls-8" d="M927.59,376.51l-1.92.19c-1.71.17-2,2.32-.4,2.95,3.27,1.28,7.39,1.75,10.69.27,2.64-1.18,4.36-3.83,4.88-6.62,1.19-6.25-3.12-11.75-8.73-13.97-3.44-1.36-7.23-1.57-10.89-1.42s-6.99.9-9.92,3.13c-1.3.99-2.46,2.14-3.52,3.38s-2.21,2.52-2.54,4.16c-.69,3.4,2.14,6.19,4.81,7.76,6.83,4.02,15.06,3.82,22.71,3.47,1.92-.09,1.93-3.09,0-3-5.53.25-11.25.51-16.62-1.09-2.48-.74-5.39-1.9-7.06-3.97-.74-.92-1.21-2.02-.68-3.17.6-1.32,1.91-2.54,2.92-3.55,1.98-1.99,4.23-3.37,7.02-3.86s5.91-.46,8.72-.07c4.87.68,10.32,3.66,10.99,9.05.28,2.3-.46,5.04-2.36,6.5-2.6,2-6.81,1.19-9.59.1l-.4,2.95,1.92-.19c1.9-.19,1.92-3.19,0-3h0Z"/>
        </g>
        <g>
          <path class="cls-12" d="M916.04,365.49c-7.02,5.48-10.03,14.73-10.76,23.6-.35,4.32-.2,8.88,1.9,12.67,2.6,4.7,7.86,7.46,13.17,8.27s10.72-.06,15.98-1.1c3.21-.64,6.54-1.4,9.08-3.47,3.07-2.51,4.47-6.56,4.93-10.5,1.54-13.09-6.69-26.72-19-31.44-2.26-.87-5.48-1.1-6.48,1.11"/>
          <path class="cls-4" d="M914.98,364.43c-7.83,6.22-10.88,16.7-11.31,26.34-.23,5.17.63,10.46,4.15,14.47,3.22,3.66,8.03,5.69,12.79,6.33,5.9.79,11.96-.26,17.72-1.53,5.08-1.12,9.49-3.44,11.73-8.36,3.87-8.51,1.8-19.11-3.02-26.79-2.68-4.27-6.32-7.96-10.65-10.56-3.3-1.98-10.32-5.33-12.83-.45-.88,1.71,1.71,3.23,2.59,1.51.76-1.48,2.9-1.03,4.2-.63,1.81.56,3.54,1.51,5.13,2.53,3.32,2.11,6.2,4.96,8.39,8.22,4.41,6.54,6.54,15.13,4.25,22.84-.6,2.01-1.56,3.93-3.07,5.41-1.62,1.59-3.75,2.42-5.91,3-4.97,1.33-10.36,2.25-15.51,2.07-4.29-.14-8.76-1.34-12.1-4.16-3.61-3.05-4.86-7.4-4.9-11.99-.07-9.46,2.8-20.03,10.47-26.12,1.51-1.2-.62-3.31-2.12-2.12h0Z"/>
        </g>
        <g id="BuffAnt">
          <path class="cls-9" d="M1005.78,346.69c3.3,4.92,2.22,11.93-2.35,15.67-.63.51-.53,1.59,0,2.12.62.62,1.49.51,2.12,0,5.55-4.54,6.81-13.36,2.82-19.3-1.07-1.59-3.67-.09-2.59,1.51h0Z"/>
          <path class="cls-9" d="M1013.21,343.12c1,3.32,2.41,6.54,4.23,9.5,1.56,2.54,3.73,5.25,6.87,5.69.8.11,1.61-.2,1.85-1.05.19-.7-.24-1.73-1.05-1.85-2.58-.36-4.11-2.68-5.34-4.75-1.56-2.63-2.78-5.42-3.66-8.35-.55-1.84-3.45-1.06-2.89.8h0Z"/>
          <g id="Body">
            <g>
              <path class="cls-5" d="M1016.5,338.14c-2.64-2.64-6.65-3.13-9.55-1.18s-4.44,6.22-3.69,10.13c.24,1.22.73,2.47,1.64,3.17.61.46,1.34.63,2.05.71,4.96.6,10.27-.2,12.58-5.23,1.26-2.75,1.64-6.46-.12-8.95-1.08-1.53-3.06-4.56-4.72-4.88-3.89-.73-10.26.22-12.8,3.48-1.99,2.55-2.16,7.03-.69,10.61,1.82,4.42,7.13,4.95,10.99,3.4,2.07-.83,4.1-2.18,5.11-4.44,1.52-3.42-.04-8.19-3.02-10.14-2.98-1.95-6.86-1.19-9.31,1.37-2.45,2.56-3.52,6.64-3.24,10.56.05.67,2.43,1.1,2.84,1.58.79.91-.18.66.74.03,2.97-2.04,5.71-4.53,8.13-7.4-3.44-.42-6.87-.83-10.31-1.25-.6-.07-1.34-.08-1.64.52-.21.42-.11.98.07,1.45,1.01,2.71,3.81,3.86,6.31,4.14,1.5.17,3.09.11,4.34-.8,1.25-.91,2-2.91,1.29-4.49-.71-1.58-3.06-1.82-3.57-.2"/>
              <path class="cls-11" d="M1019.68,334.96c-2.55-2.47-6.14-4.01-9.73-3.62-3.93.42-7.23,2.54-9.27,5.95-1.91,3.2-2.41,6.95-1.83,10.58.3,1.89,1.11,3.85,2.48,5.23,1.74,1.76,3.9,2.23,6.26,2.46,6.07.58,12.81-1.45,15.7-7.27,1.61-3.26,2.35-7.11,1.38-10.68-.42-1.53-1.18-2.81-2.08-4.08s-1.82-2.58-2.94-3.66c-1.19-1.16-2.62-2.1-4.29-2.36-1.46-.23-2.91-.36-4.39-.28-3.11.17-6.24.85-8.98,2.36-6.42,3.53-7.56,11.85-4.9,18.16s9.84,8.3,15.87,6.17c3.28-1.16,6.49-3.21,8.1-6.4s1.75-6.74.54-9.97c-1.33-3.58-3.77-6.33-7.38-7.69-3.27-1.23-7.37-.59-10.23,1.37-3.11,2.13-5.18,5.37-6.13,9-.45,1.71-.68,3.54-.68,5.31,0,1.23.07,2.51.68,3.61.5.89,1.34,1.63,2.23,2.1.69.37,1.47.64,2.21.91.84.3-.86-.46-.31-.13.38.23.06.18-.61-.49-.36-.36-.74-.94-.82-1.41v-2.39.02c2.5-.66,5-1.32,7.51-1.99l-.02-.02,1.32,3.18-1.1,2.79-.43.35c.12,0,.54-.39.67-.48.47-.34.92-.69,1.38-1.05.9-.69,1.78-1.4,2.62-2.16,1.47-1.31,2.83-2.73,4.1-4.23,1.2-1.41,1.68-3.14.93-4.92s-2.27-2.54-4.11-2.77-3.8-.46-5.71-.69c-.92-.11-1.84-.22-2.76-.34-.83-.1-1.7-.3-2.54-.25-3.77.21-6.11,3.43-5.37,7.1.38,1.87,1.62,3.77,3.08,4.98,3.09,2.58,7.24,3.56,11.19,2.89,4.61-.78,7.98-5.73,6.69-10.32-.68-2.41-2.57-4.44-5.08-4.95-1.58-.32-3.14-.13-4.56.65s-2.22,2.11-2.78,3.59c-.84,2.2.93,5.03,3.14,5.54,2.57.59,4.63-.78,5.54-3.14-.29.76-.67,1.34-1.35,1.79-.48.29-1,.42-1.56.41.33,0,.26-.02-.21-.06-.47-.08-.54-.08-.21,0-.72-.34-.93-.42-.61-.25.3.18.13.04-.49-.4.31.33.21.19-.31-.41l-.25-.62c.12.48.12.34,0-.41v.27c-.01.49.01.36.09-.4-.03.13-.06.26-.1.39-.11.33-.04.18.21-.45-.06.12-.12.23-.19.35-.18.29-.08.16.32-.39-.11.13-.23.24-.36.35l.46-.38c-.72.51.78-.12-.02.03-1.14.2.02.07.02.04,0,.02-.97.01-1.06,0-.18,0-1.29-.14-.4-.01s-.21-.05-.38-.09c-.49-.11-.97-.36-1.45-.45.96.19.61.27.15.02-.22-.12-.43-.3-.65-.41.99.49.44.36.13.05-.69-.69.08-.13.04.12,0,.04-.57-1.29-.29-.4.15.38.16.38.02,0,.25.92-.14,1.66-1.17,2.23-.3,1.18-.96,1.76-1.97,1.75.12,0,.24,0,.35.02.4.07.82.1,1.22.15,3.07.37,6.13.75,9.2,1.12l-3.18-7.68c-1.63,1.92-3.42,3.71-5.36,5.31-.21.17-.41.38-.64.52.95-.57.05-.04-.14.1-.68.5-1.49.96-2.09,1.55-1.88,1.85-2.3,4.87-.31,6.85,1.14,1.13,2.83,1.58,4.38,1.16,1.66-.46,2.51-1.64,3.14-3.14.87-2.07-.79-4.82-2.58-5.82-.53-.3-1.12-.51-1.68-.74-.19-.07-.38-.14-.57-.22-1.06-.4.74.42.15.06l-.15-.08c1.07.68,1.67,1.71,1.8,3.12.03-.3-.02-.63-.02-.93,0-.52.05-1.03.07-1.55.06-1.07-.21,1.02,0-.03.06-.3.11-.6.18-.9.05-.21.43-2,.62-2.01.02,0-.43.88-.1.26.13-.26.26-.52.4-.77s.31-.49.45-.73c.5-.85-.69.72-.02,0,.19-.21.37-.42.58-.62.3-.3.9-.53-.05-.03.16-.08.31-.22.46-.32.2-.13.87-.35.98-.53l-.57.24c.17-.06.34-.12.52-.17.18-.05.66-.08.79-.19l-.66.08c.18-.02.36-.03.54-.04.23,0,.45.02.67.01.61,0-1.15-.29-.26-.03.26.07.53.15.79.22.9.24-.85-.53-.06,0,.17.09.33.19.49.29.38.26.27.17-.33-.28.22.3.6.58.87.86.62.65-.56-.9-.1-.11.13.22.27.43.4.65.11.21.2.51.34.69l-.26-.6c.06.16.12.32.17.49.08.25.15.5.21.75.11.48-.02.92.02-.18-.02.5.05,1.03.05,1.54,0,.93.26-1.09.03-.19-.06.24-.11.49-.18.73-.29.94-.09-.11.06-.11,0,0-.3.54-.28.51l-.15.24c-.28.39-.21.31.2-.23-.04-.01-.7.72-.78.79-.67.69.86-.53.04-.02-.23.15-.46.3-.69.44-.35.2-.94.35-1.21.62.52-.5.74-.29.15-.08-.22.08-.44.15-.66.21s-.45.12-.68.17c-.15.03-.3.06-.46.09-.47.08-.31.05.5-.06-.38-.01-.78.06-1.17.06-.23,0-.47,0-.7-.03-.52-.04-.79-.33.28.05-.42-.15-.9-.21-1.33-.34-.37-.11-.4-.36.45.2-.25-.16-.54-.27-.79-.43-.49-.3-.38-.57.18.17-.13-.17-.35-.31-.5-.47-.46-.48-.09-.52.11.18-.03-.11-.2-.29-.26-.41-.1-.18-.21-.53-.35-.67l.24.56c-.07-.19-.14-.37-.2-.56-.06-.17-.5-2.04-.49-2.04l.08.6c-.02-.2-.04-.4-.05-.59-.01-.2-.02-.4-.03-.59-.01-.5.21-1.28.08-1.75l-.08.63c.03-.18.07-.37.11-.55.06-.27.13-.53.22-.79l.09-.26c.17-.45.12-.34-.15.34.15-.13.26-.51.36-.68.3-.49.63-.47-.14.12.16-.13.3-.34.45-.48.16-.16.35-.29.51-.44-.84.86-.52.4-.16.17.34-.22.7-.39,1.05-.58.81-.43-1.04.37-.16.06.32-.11.63-.23.96-.33.49-.15.99-.28,1.5-.38.44-.09,1.8-.11.34-.09,1.04-.02,2.06-.17,3.11-.12.46.02,1.85.34.27-.02.16.04.43.12.59.11-.55.02-1.05-.48-.37-.11.72.39-.79-.77-.19-.14.11.12.24.23.36.35.18.19.36.38.53.58.12.14.23.27.34.41.29.37.23.28-.21-.27.38.77,1.08,1.44,1.54,2.18.08.12.28.66.39.73l-.25-.56c.06.17.12.35.17.53.06.21.06.64.17.82-.09-.73-.12-.85-.07-.35.01.19.01.38.01.57,0,.24-.01.48-.03.72-.07.87-.19-.04.04-.19-.18.11-.33,1.42-.41,1.68-.06.18-.31.62-.29.8l.23-.57c-.08.17-.16.34-.25.51-.09.16-.18.32-.27.48-.09.15-.19.3-.29.45-.28.38-.2.29.23-.29-.26.14-.89.81-1.06,1.06l.53-.4c-.13.1-.26.19-.4.28-.2.13-.41.26-.62.37-.14.08-.29.14-.43.22-.79.42,1.04-.35.18-.08-.55.17-1.09.35-1.66.46-.24.05-.5.07-.74.13,1.3-.33.58-.08.19-.05-.6.05-1.19.06-1.79.05s-1.2-.07-1.81-.11c-.91-.07.87.21.22.03-.37-.1-1.21-.55-.25,0l.44.35c-.32-.34-.26-.24.18.3-.1-.15-.2-.31-.28-.48.25.65.29.74.12.29-.08-.28-.17-.55-.24-.84-.04-.19-.08-.38-.11-.57l.08.62c.06-.07-.05-.76-.06-.87,0-.39.02-.77.03-1.15.03-1.01-.24,1.04-.01.06.09-.37.16-.74.26-1.11.07-.23.15-.44.22-.67.12-.32.06-.18-.19.43.07-.17.15-.34.24-.5.12-.24.26-.48.4-.71.09-.15.19-.3.3-.45.28-.38.21-.29-.22.28.14-.04.42-.47.54-.58.12-.12.25-.24.38-.35-.55.4-.68.51-.4.31.19-.12.37-.25.57-.36.16-.09.32-.17.48-.25-.67.27-.77.32-.33.16.26-.06.52-.14.77-.21.48-.09.35-.07-.4.04.18-.02.36-.03.53-.03.22,0,.45.02.67.02.36.03.18,0-.53-.09.18.03.36.06.53.1.27.06.52.15.79.23.45.17.35.12-.31-.14.17.08.33.16.5.25.05.03.72.45.72.45-.53-.42-.6-.48-.23-.17.15.13.29.26.43.4,1.69,1.64,4.7,1.81,6.36,0s1.81-4.62,0-6.36h0Z"/>
            </g>
            <g>
              <path class="cls-5" d="M982.44,349.45c-1.75-.55-3.15,1.9-2.96,4.03.38,4.34,5.08,7.05,8.41,5.45,3.33-1.6,5.03-6.24,4.77-10.6-.13-2.23-.76-4.57-2.18-6.09-1.8-1.91-4.54-2.1-6.66-1-2.12,1.11-3.69,3.3-4.84,5.69-1.02,2.12-1.78,4.54-1.57,7.03s1.6,5.02,3.64,5.7c.95.32,1.94.22,2.9.08,2.72-.42,5.47-1.32,7.48-3.46,2.01-2.14,3.09-5.75,1.98-8.82-.62-1.72-1.82-3.07-3.11-4.17-2.54-2.17-6.11-3.52-8.55-1.45-2.09,1.77-2.47,5.3-2.33,8.43.07,1.6.3,3.35,1.3,4.47,1.02,1.12,2.53,1.24,3.87,1.07,2.71-.34,5.29-1.61,7.37-3.62,1.2-1.16,2.12-3.64.76-4.66-.51-.38-1.14-.34-1.72-.28-3.36.33-6.71.82-10.03,1.46"/>
              <path class="cls-11" d="M983.64,345.11c-4.96-1.22-8.42,3.18-8.67,7.72-.19,3.4,1.7,6.72,4.33,8.75s6.06,2.93,9.2,1.92,5.63-3.48,6.96-6.45c2.77-6.19,2.67-15.74-3.86-19.63-3.26-1.94-7.63-1.75-10.76.36s-5.15,5.35-6.6,8.84-1.95,7.39-.63,10.84c1.52,3.99,4.81,7.21,9.38,6.89,3.33-.23,6.92-1.17,9.62-3.19,3.14-2.35,5.09-5.56,5.61-9.46s-.89-7.64-3.58-10.51c-2.52-2.68-5.97-4.67-9.7-4.87-4.31-.23-7.55,2.75-9.05,6.52-1.16,2.91-1.17,6.39-.76,9.46.28,2.06.93,4.09,2.42,5.62,1.57,1.61,3.68,2.36,5.89,2.45,3.36.13,7-1.28,9.64-3.28,1.51-1.14,2.94-2.34,3.79-4.08.91-1.86,1.38-3.99.72-6.02-.92-2.81-3.66-4.48-6.57-4.23-2.02.17-4.04.46-6.05.75-1.73.25-3.46.54-5.18.87-2.32.44-3.85,3.35-3.14,5.54.8,2.47,3.05,3.61,5.54,3.14,1.3-.25,2.61-.48,3.92-.68.58-.09,1.2-.23,1.79-.26-1.16.06.03,0,.24-.03.36-.05.72-.09,1.08-.13.68-.08,1.42-.08,2.09-.22s-.08-.04-.31-.11c-1.06-.3-1.7-1.07-2.02-2.05.25.77,0-1.18-.08-.34,0-.1.29-1.14.04-.5l-.07.23c-.16.44-.1.31.17-.39-.08.06-.35.51-.37.64.09-.56.64-.73.11-.2-.22.22-.46.41-.69.62-.63.58.18-.11.19-.14-.07.16-.6.42-.75.51-.42.27-.86.5-1.3.73-.91.48.96-.31-.01.02-.33.11-.65.23-.98.33-.46.13-1.16.13-1.57.34.64-.34.87-.07.4-.07-.16,0-.65-.06-.78,0l.68.1c-.17-.03-.34-.06-.5-.11-.68-.12.25.11.36.16-.8-.39.69.74.07.04.42.58.5.66.24.27-.17-.33-.17-.32,0,.05.27.76-.02-.14-.05-.24-.04-.15-.08-.74-.18-.84.25.24.09.95.06.34-.02-.29-.04-.57-.06-.86-.05-1.08,0-2.15.08-3.23.05-.64-.23,1.17-.02.24.06-.27.1-.53.17-.8.05-.21.12-.43.18-.64.17-.52.4-.4-.13.23.19-.23.52-.79.62-1.08l-.4.53c.11-.12.22-.24.33-.35.52-.58-.83.6.06.01.49-.33-1.09.35-.23.12s-1.11-.03-.18,0c.22,0,.44.01.66.01.59,0-1.15-.3-.26-.02.26.08.54.16.8.23.8.23-.3-.06-.28-.13,0-.02,1.64.94,1.78,1.03.58.38-.22-.16-.2-.16.05-.02.59.51.65.57.36.33.67.68,1.01,1.03.7.72-.53-.84.01.01.11.17.22.33.32.5.06.1.46.68.41.79-.25-.61-.29-.69-.13-.24.06.18.11.37.15.55.04.18.06.38.11.56-.32-1.15-.07-.48-.07-.07,0,.24-.02.47-.02.71,0,.63.25-1.15.04-.21-.12.51-.26,1-.4,1.5-.17.6.52-1.01.08-.17-.17.32-.33.65-.53.96-.09.15-.23.3-.3.45.48-.95.34-.43.03-.1-.17.18-.35.36-.54.52-.67.61.13.01.11-.05.03.13-1.21.76-1.36.83-.09.04-.64.25-.65.31.63-.26.73-.31.27-.13-.18.07-.36.13-.54.18-.92.29-1.88.37-2.79.64,1.09-.31.28-.04-.09-.03h-.32c-.42-.03-.43-.02-.05.01l.28.03c-.53-.17-.43-.11.32.18-.14-.07-.28-.15-.42-.24.57.47.68.56.33.25-.12-.12-.24-.24-.36-.36-.65-.61.5.88.07.08-.13-.24-.27-.47-.4-.71-.31-.55.26.09.13.31.07-.13-.35-1.27-.4-1.48-.13-.61.02,1.27.05.17.01-.45,0-.9.02-1.35.03-.9-.05.15-.04.2-.06-.22.15-.76.2-.98.13-.54.3-1.06.48-1.58l.12-.31c.19-.46.16-.41-.08.17.04-.27.28-.62.41-.86.27-.54.57-1.08.89-1.59.11-.17.22-.34.33-.5l.17-.25c.29-.39.23-.32-.17.2-.05-.13.83-.92.98-1.06l.21-.19c.37-.31.28-.25-.26.17.07.02.61-.41.7-.45.15-.08.33-.15.47-.25-.69.28-.81.33-.36.17.16-.05.33-.1.49-.14.67-.22-.33.07-.44.04.17.05.58-.01.76-.02.91-.05-1.07-.27-.19-.03.16.04.33.1.49.13.86.2-.86-.55-.13-.04l.23.13c.39.26.3.19-.27-.22,0,.02.42.41.4.38.31.36.25.27-.19-.28.11.15.21.31.3.46.1.16.17.33.27.49.49.84-.28-.97-.01-.02.13.47.29.93.39,1.41l.06.29c.08.49.07.39-.03-.32-.07.11.07.74.08.88.03.56.03,1.12,0,1.67-.01.23-.04.46-.05.7-.04.35-.01.19.08-.51-.03.18-.06.36-.09.55-.1.54-.23,1.07-.4,1.59-.06.19-.27.56-.27.76.27-.62.34-.78.2-.47-.05.12-.11.24-.17.35-.25.5-.54.96-.85,1.42-.33.49.78-.84.16-.24-.17.17-.59.47-.69.67.03-.07.94-.63.35-.27-.25.15-.59.29-.82.47.75-.61.89-.29.38-.19-.1.03-.2.06-.3.08-.46.09-.27.07.58-.06-.21-.01-.42.03-.63.02-.5-.01-.76-.33.35.07-.2-.07-.43-.09-.63-.15-.77-.23-.05-.07.26.15-.17-.12-.41-.2-.59-.3-.15-.09-.95-.67-.29-.15s.05.02-.06-.08c-.21-.2-.39-.49-.62-.67.07.05.62.94.3.35-.14-.25-.28-.59-.45-.81.6.8.26.78.16.3-.06-.25-.1-.59-.2-.83l.1.7c-.01-.17-.02-.34-.01-.52-.05-.81-.3.99-.02.17l.07-.25c.15-.45.09-.33-.18.37.07-.15.15-.29.23-.42l-.43.54.15-.17c.34-.31.2-.21-.42.31-.78.28-.96.36-.52.24-.52.16-1.05.17-1.58.05,2.28.56,4.99-.73,5.54-3.14s-.7-4.93-3.14-5.54h0Z"/>
            </g>
            <g>
              <path class="cls-5" d="M960.07,359.83c-1.86-2.27-5.11-.63-5.25,2.65-.1,2.37,1.21,4.73,2.81,5.76,1.6,1.03,3.4.94,5.02.37,2.72-.96,5.12-3.25,6.72-6.4.48-.94.89-2.01.9-3.21.02-1.83-.95-3.61-2.15-4.51-1.2-.9-2.58-1.05-3.87-.89-4.2.51-7.93,4.24-9.56,9.56-.22.72-.4,1.52-.25,2.31.23,1.2,1.12,1.95,1.94,2.44,3.96,2.36,8.5,2.23,12.07-.37,1.35-.98,2.68-2.62,2.6-4.85-.1-2.88-2.39-4.75-4.35-5.83-2.93-1.63-6.13-3-9.01-1.93-2.89,1.07-5.13,5.49-3.91,9.58.81,2.72,2.89,4.48,4.92,4.94,2.64.61,5.34-.72,6.97-3.41"/>
              <path class="cls-11" d="M963.25,356.65c-2.22-2.55-6.18-3.09-9.03-1.28-3.02,1.91-4.23,5.4-3.77,8.84s2.48,6.87,5.68,8.32c3.41,1.55,7.07,1.07,10.29-.73,2.57-1.44,4.69-3.72,6.21-6.22,1.76-2.89,2.84-6.47,1.62-9.78-1.42-3.87-4.5-6.48-8.69-6.75-2.61-.17-5.48.76-7.63,2.22-2.36,1.6-4.31,3.73-5.7,6.23-1.81,3.25-3.2,7.19-1.53,10.76,1.37,2.93,4.93,4.7,7.95,5.39,3.4.78,6.71.4,9.88-.99s5.41-3.69,6.54-6.79c1.27-3.5.01-7.25-2.31-9.96-1.91-2.22-4.74-3.56-7.38-4.66-3.29-1.37-6.97-1.69-10.24-.1-2.73,1.33-4.52,4.03-5.52,6.81-1.15,3.21-.78,6.8.66,9.84,2.72,5.76,10.4,8.28,15.68,4.35,1.47-1.09,2.62-2.3,3.6-3.86,1.25-2,.49-5.05-1.61-6.16-2.21-1.17-4.82-.52-6.16,1.61-.11.17-.41.49-.46.68.14-.58.55-.64.2-.3-.18.18-.37.36-.54.55-.48.5.23-.19.33-.23-.3.11-.75.43-1.03.63.86-.6.69-.26.2-.11-.21.07-.48.08-.67.17.78-.35.97-.09.39-.07-.19,0-.39,0-.58,0-.84,0,.91.25.38.05-.16-.06-.35-.08-.52-.13-.15-.05-.84-.32-.07,0s.09.01-.06-.07c-.17-.1-.32-.21-.48-.31-.28-.2-.13-.08.44.35-.12-.1-.24-.21-.36-.32-.12-.11-.23-.23-.34-.35-.63-.64.55.91.08.12-.16-.26-.42-1-.65-1.14.1.06.34,1.04.15.31-.07-.27-.16-.53-.23-.8-.04-.18-.06-.36-.1-.54.33,1.25.07.42.06,0,0-.22.02-.44.02-.66,0-.92-.18.88-.05.29.08-.38.16-.76.27-1.13.11-.35.5-1.01-.1.13.08-.15.14-.3.21-.45.11-.22.23-.43.36-.64.26-.42.62-.56-.16.14.27-.25.52-.56.78-.82.59-.59-.94.57-.23.18.12-.06.25-.14.36-.21.68-.43-1.22.32-.25.11.18-.04.37-.1.55-.14.92-.24-.84.01-.22.03.33.01.66,0,.99.01.83.03-.32.02-.34-.05.02.05.78.17.86.19.49.13.96.3,1.43.48.79.29-.17-.1-.22-.09.19-.02.67.32.85.4.53.26,1.06.54,1.58.84.29.17.56.35.84.53.33.2.57.59-.26-.23.14.14.3.25.45.38.3.27.56.56.82.85.38.42-.61-.98-.21-.24.09.17.21.5.36.63l-.26-.63c.06.15.11.31.16.47.02.09.06.4.11.49l-.09-.68c.02.18.02.37.02.55.06.75-.03-.26.08-.38-.03.03-.21.73-.2.76-.03-.09.53-1,.15-.38-.08.13-.37.49-.38.63.03-.32.7-.81.1-.16-.13.14-.28.27-.42.41-.43.4-.42.02.3-.21-.38.12-.84.56-1.2.76-.2.11-.42.21-.62.31-.55.29,1.08-.36.19-.09-.53.16-1.04.3-1.57.43-.47.11-.32-.18.39-.04-.23-.04-.57.05-.81.06-.35.01-1.07-.18-1.36-.05.07-.03,1.14.21.38.05-.27-.06-.55-.11-.82-.18-.18-.05-.36-.1-.54-.15-.18-.06-.36-.12-.54-.18-.36-.14-.36-.13,0,.01.54.43-.09-.05-.26-.14-.22-.11-.44-.23-.65-.36-.16-.09-.34-.26-.51-.32.76.27.65.58.35.26-.6-.65.49.96.08.15-.33-.65.12.3.14.36-.33-.86.01,1,.05.03-.05,1.17-.05.42.06.05.12-.45.28-.89.44-1.33l.1-.26c.18-.45.13-.34-.14.32.08-.08.18-.4.23-.49.19-.4.4-.78.62-1.16.24-.42.65-.84.84-1.28-.31.73-.52.64-.25.32.16-.19.31-.37.48-.56.27-.29.55-.58.84-.84.12-.1.24-.2.35-.31.65-.59-.91.62-.18.14.35-.23.69-.46,1.05-.66.16-.09.33-.17.49-.25.73-.38-.92.3-.37.16.35-.09.68-.23,1.03-.32.17-.04.35-.07.53-.11.8-.17-1,.06-.38.06.22,0,.44,0,.66-.02.87-.05-.93-.28-.14-.03l.26.07c.45.15.35.1-.31-.16-.03-.03.49.29.5.28l-.49-.39c.12.1.23.21.34.32.32.27.06.43-.23-.35.07.2.3.47.41.65.27.41-.14.3-.12-.36,0,.18.18.59.24.77.27.78.04-1,0-.12v.27c-.02.4-.01.4.04-.01l.05-.31c-.03.19-.07.37-.12.56-.06.23-.15.44-.21.66-.18.59.52-1.01.08-.2-.22.41-.42.83-.66,1.23-.26.43-.76.91-.92,1.37.03-.09.7-.82.21-.29-.21.22-.4.46-.61.68-.3.31-.79.6-1.03.95l.52-.4c-.13.1-.26.19-.4.29-.2.14-.41.27-.61.39s-.42.24-.63.34c-.36.18-1.01.24.21-.07-.16.04-.32.12-.48.17-.28.09-.81.1-1.05.25.12-.08,1.11-.03.39-.08-.18,0-.36,0-.54,0,.7.12.88.14.53.07-.08-.02-.64-.2-.66-.18.63.29.73.32.3.1l-.25-.15c-.75-.36.76.74.17.11-.17-.18-.34-.39-.51-.56.82.81.31.4.11.04s-.29-1.02-.02.09c-.04-.17-.13-.35-.19-.53-.06-.18-.1-.36-.14-.54-.09-.49-.08-.37.03.36.03-.04-.03-.57-.03-.57,0-.17,0-.35.02-.52-.12.77-.15.98-.07.63.06-.13.13-.39.15-.53-.34.74-.4.91-.21.5l.1-.18c.32-.7-.79.8-.24.29.43-.4.42-.15-.36.22.07-.03.43-.21.46-.26-.08.15-1.24.44-.43.24-1.19.29-1.09.12-.7.11.46.02.23-.01-.69-.1.11.02.22.06.33.1.03.01-1.15-.54-.6-.22-1.13-.67-.52-.44-.18-.04,1.55,1.78,4.8,1.71,6.36,0,1.74-1.9,1.65-4.46,0-6.36h0Z"/>
            </g>
            <g>
              <path class="cls-5" d="M977.98,344.93c-2.24-.3-4.27-1.89-5.1-3.99-.84-2.1-.45-4.65.97-6.41-.94-.6-2.14-.64-3.12-1.17-1.79-.95-2.4-3.58-1.21-5.22s3.87-1.89,5.34-.5c1.47,1.39,1.36,4.09-.22,5.36,1.83-.27,3.79.05,5.3,1.12s2.48,2.96,2.2,4.79c-.27,1.83-1.93,3.43-3.78,3.41-.9-1.56-1.59-3.25-2.04-5-.14-.55-.21-1.24.24-1.58.46-.35,1.19-.03,1.45.49s.21,1.13.15,1.71c-1.06.45-2.45.16-3.05-.83-.59-.98-.01-2.53,1.12-2.69.99-.14,1.84.67,2.45,1.45.36.46.72.96.79,1.54.18,1.34-1.36,2.45-2.69,2.22-1.33-.23-2.33-1.4-2.84-2.65-.51-1.25-.63-2.62-.93-3.94-.3-1.32-.82-2.67-1.9-3.49.33.1.72.18.98-.03s.09-.8-.23-.67c.28.25.56.51.84.76"/>
              <path class="cls-11" d="M979.17,340.59c-.5-.08-.96-.27-1.45-.38.31.07.92.43.28.07-.14-.08-.37-.31-.53-.33.57.46.68.54.32.24l-.19-.17c-.16-.15-.34-.42-.52-.55.24.17.58.83.19.2-.13-.2-.38-.96-.18-.24s0-.01-.05-.18c-.07-.24-.09-.54-.18-.76l.1.68c-.01-.17-.02-.35-.02-.52,0-.22.02-.43.03-.65.02-.55-.23,1.06-.02.29.06-.22.19-.52.22-.75-.28.63-.35.79-.2.47.05-.12.11-.23.18-.35.15-.28.67-.98-.12.05.91-1.18,1.44-2.25,1.24-3.78-.18-1.37-.92-2.58-2.15-3.29-1.04-.6-2.16-.9-3.29-1.26-.66-.21-.19-.09.17.09-.64-.32.66.63.3.27s-.09-.36.21.36c-.05-.12-.16-.26-.23-.36-.15-.3-.13-.25.05.15.15.38.19.45.11.24,0-.08-.19-.45-.13-.52-.07.08.2,1.28.1.45-.06-.55.41-.32-.07.45.05-.08.11-.32.12-.41-.32.7-.4.9-.23.59.12-.19.06-.13-.17.19-.61.76,0-.05.07-.03.05.01-1.11.58-.31.27.48-.18-1,.28-.49.19.05,0,.48-.19.52-.15,0,.01-1.34.06-.45.08.56.01.29.23-.45-.1.11.05.29.08.42.1.78.15-.82-.32-.39-.16.09.05.18.11.27.17l-.58-.43c.56.43-.49-.75-.23-.33.29.46-.05.37-.12-.41.01.12.08.29.12.41.23.64,0-.78-.06-.45-.02.08.07.48-.01.54-.02.02.36-1.27.02-.46-.18.42.62-1.03.17-.38-.07.1-.18.25-.22.36.29-.74.59-.7.12-.29-1.35,1.17-1.58,3.37-.93,4.92s2.37,2.99,4.11,2.77c.32-.04.64-.07.97-.08.18,0,.86.11.98.03l-.64-.09c.18.03.36.07.54.11.24.06.55.21.79.24-.65-.29-.75-.33-.32-.12l.24.13c.16.09.31.19.47.3-.52-.42-.65-.51-.4-.29.1.09.19.18.28.28.31.36.24.26-.2-.29,0,.07.39.67.41.68-.25-.64-.31-.79-.2-.47.05.12.09.25.12.38.28.83.04-.98,0-.16,0,.17,0,.35-.01.52.12-.73.14-.93.06-.58-.36.98.54-.75.05-.07l-.13.21c-.26.38-.18.27.26-.34-.08.09-.17.18-.26.26-.26.23-.11.12.44-.33-.13.09-.27.17-.41.24l.64-.26c-.15.05-.3.1-.46.13.81-.08.97-.11.48-.09l3.89,2.23c-.32-.57-.6-1.15-.89-1.74-.14-.31-.09-.18.16.38-.08-.19-.15-.37-.22-.56-.1-.28-.2-.57-.3-.85s-.18-.58-.26-.87c-.05-.17-.09-.33-.13-.5l.1.76c-.15,2.3-1.96,3.29-5.43,2.97l-1.5-1.95c-.06-.73-.08-.84-.07-.34,0,.2-.02.39-.05.59l3.3-4.34c-.46.17-.86.09.3.04-.75.03.9.25.4.08-.43-.15,1,.6.35.14.52.36.89.73,1.14,1.33.09.22.2,1.63.23.95-.15.82-.18,1.05-.08.7.1-.34.02-.14-.26.61-.7,1.09-2.02,1.66-3.29,1.36l-.63-.26c.3.19.28.17-.05-.06-.61-.42-.03.04.11.17.23.27.23.26-.01-.05-.24-.32-.24-.32-.01,0l.15.25c-.17-.28-.26-.57-.27-.89-.08-.62.02-1.26.35-1.8l.45-.56c-.24.24-.2.22.13-.05.35-.25.38-.28.08-.1l.66-.27c-.34.09-.29.09.15.01.45-.04.5-.06.15-.05l.73.08c-.34-.11-.32-.1.07.05.38.17.41.17.1,0l.51.4s-.65-.79-.17-.1c.44.62,0-.03-.09-.18-.07-.11-.12-.22-.18-.34-.14-.3-.08-.15.19.43-.04,0-.21-.7-.23-.74-.13-.5-.23-1.02-.32-1.53-.47-2.51-1.28-5.17-3.32-6.86l-4.38,7.52c2.76.72,5.84-.44,6.64-3.38s-1.48-6.32-4.68-6.16c-1.82.09-3.39,1.06-4.11,2.77-.67,1.59-.4,3.71.93,4.92.28.25.56.51.84.76,1.75,1.58,4.66,1.85,6.36,0,1.58-1.72,1.86-4.68,0-6.36-.28-.25-.56-.51-.84-.76l-3.18,7.68h.15c-.76-.21-1.51-.42-2.27-.62l.11.08-1.61-1.61-.35-.77v-2.39l.32-.78,1.61-1.61-.22.11,2.27-.61c.77.18.91.2.43.08-1.86-.48-4.15.3-5.08,2.07-.88,1.66-.86,4.16.7,5.45.15.12.86.89.39.31s.04.18.14.34c.25.38-.18-.43-.18-.45.02.15.13.36.18.52.1.31.17.63.24.94.38,1.74.65,3.34,1.4,4.98,1.67,3.65,5.93,5.81,9.74,4.2,1.91-.8,3.51-2.45,3.97-4.52.56-2.59-.56-4.87-2.27-6.74-1.51-1.65-3.67-2.6-5.91-2.3-2.38.32-4.29,2.06-4.99,4.35s0,4.8,1.72,6.44,4.68,2.34,6.98,1.48c2.04-.76,3.1-2.2,3.3-4.34.23-2.45-.78-4.99-3.04-6.17-2.89-1.51-6.76-.21-7.66,3.08s.95,7,2.5,9.74c.76,1.35,2.33,2.27,3.89,2.23,5.58-.14,9.67-5.82,7.93-11.17-1.59-4.87-6.61-7.8-11.65-7.15l3.18,7.68c2.81-2.43,3.33-7.01,1.46-10.14s-6.04-4.61-9.53-3.34c-3.97,1.45-6.02,5.41-5.07,9.51.36,1.54,1.3,3.1,2.51,4.11.97.81,1.91,1.3,3.12,1.71.35.12.72.2,1.08.31.18.05.36.11.53.17-.64-.29-.75-.32-.33-.09l-.91-7.07c-1.19,1.54-2.15,3.11-2.49,5.06s-.33,3.98.41,5.84c1.38,3.48,4.38,6.42,8.2,7.02,1.24.19,2.35.2,3.47-.45.93-.55,1.82-1.62,2.07-2.69.49-2.16-.66-5.14-3.14-5.54h0Z"/>
            </g>
            <g>
              <path class="cls-5" d="M986.37,339.96c-1.26-1.96-2.11-4.18-2.5-6.48-.23-1.35-.28-2.81.4-3.99s2.33-1.88,3.48-1.15c.42.28.36,1.04-.1,1.25-1.65-1.4-3.05-3.1-4.11-4.99-.14-.26-.28-.54-.24-.83.05-.29.27-.51.48-.72.92-.89,2.05-1.86,3.31-1.61.97.19,1.65,1.06,2.14,1.91.72,1.26,1.09,3.15-.14,3.92-.9.57-2.17.06-2.79-.81-.62-.87-.76-1.98-.88-3.04.81,1.68,1.06,3.62.71,5.45,1.29-.69,2.87.44,3.51,1.75,1.3,2.66.48,5.84-.51,8.63-.11.31-.23.63-.45.87-.52.56-1.49.51-2.1.04s-.92-1.22-1.1-1.97c-.5-2.09-.08-4.39,1.13-6.17.88,1.52,1.31,3.3,1.2,5.05-1.4-1.81-2.18-4.1-2.16-6.39,0-.31.04-.67.29-.86.51-.39,1.15.29,1.41.88,1.16,2.65,1.83,5.53,1.94,8.42.02.41,0,.86-.27,1.16-.4.43-1.16.28-1.56-.15-.4-.43-.53-1.04-.64-1.62-.13-.68-.23-1.47.24-1.97.58-.62,1.65-.36,2.28.2.9.8,1.28,2.18.8,3.29-.48,1.1-1.85,1.77-2.98,1.36-1.13-.42-1.72-1.94-1.08-2.96.22-.34.59-.63,1-.59.69.07.96.94.91,1.63-.04.51-.29,1.11-.79,1.15-.78.07-.91-1.1-.72-1.87.16-.63.38-1.35.97-1.63.65-.31,1.46.07,1.86.67.4.6.49,1.34.57,2.06.06.53.07,1.16-.36,1.47-.44.31-1.08.05-1.37-.4s-.32-1.01-.33-1.54c.24.28.48.56.72.83.6.69,1.22,1.46,1.27,2.37.04.91-.84,1.89-1.7,1.57-.93-.35-.72-1.95.22-2.28s1.99.41,2.32,1.35c.16.47.18,1.01-.06,1.44-.65,1.16-2.77.38-2.75-.95.03-1.32,1.72-2.17,2.94-1.66,1.22.51,1.84,1.96,1.74,3.28-.06.77-.35,1.56-.98,2-1.16.82-2.9,0-3.53-1.28-.63-1.27-.49-2.78-.33-4.19.08-.72.23-1.55.85-1.92.62-.38,1.47-.1,1.96.43.49.53.72,1.25.93,1.94.09.3.18.63.03.9-.32.59-1.24.25-1.71-.23-.93-.97-1.49-2.3-1.53-3.64-.01-.36.02-.76.27-1.03.51-.56,1.45-.18,2.02.32,1.87,1.62,2.86,4.19,2.57,6.64-.04.33-.1.68-.28.96-.29.46-.83.71-1.37.78-2.16.28-3.87-1.92-4.35-4.05-.39-1.76.09-4.11,1.86-4.49,1.76-.37,3.15,1.54,3.64,3.27.5,1.74.32,4.1-1.38,4.7-1.28.45-2.72-.5-3.29-1.74s-.49-2.66-.41-4.02c.61-.52,1.73,0,1.73.81"/>
              <path class="cls-11" d="M990.26,337.69c-.31-.5-.6-1-.87-1.52-.07-.13-.53-1.23-.26-.52-.4-1.03-.61-2.08-.89-3.15-.06-.34-.06-.29,0,.16-.03-.28-.04-.55-.04-.83.03-.54.02-.55-.03-.02.13-.44.15-.52.04-.22-.07.23-.2.42-.39.57.36-.34.3-.3-.16.12-.92.58-2.24.14-2.94-.58l-1.16-1.99.38-2.54,1.61-1.61-.2.15,5.45.7c-.82-.71-1.57-1.48-2.28-2.31.59.7-.4-.58-.5-.73-.3-.47-.58-.94-.82-1.44l.61,2.27c-1.18,1.99-1.39,2.58-.61,1.77.39-.34.39-.35,0-.05.46-.26.44-.28-.06-.06-.58.12-1.15.03-1.7-.27-.37-.31-.44-.35-.21-.12.21.24.17.18-.13-.16.12.19.24.39.34.6-.23-.58-.26-.64-.1-.16.11.5.11.42,0-.25-.01.51,0,.41.05-.31l1.38-1.8c.63-.35,1.29-.45,1.97-.32.11.03,1.69.95,1.34,1.13-.09.04-.34-2.01-.2-.78l-8.39,2.27c-.39-.87.35,1.66.2.61.04.28.05.58.05.86,0,.11-.14,1.41,0,.51-.3,1.84.06,3.53,1.61,4.73s3.27,1.09,5,.35c-.67.46-1.34.53-2.02.23-.76-.26-.89-.27-.38-.01l-.37-.28c.29.31.32.34.1.08-.3-.52.11.55-.12-.18.05.18.23,1.34.16.42.03.42.02.83.02,1.25,0,.83.1-.2-.02.28-.19.77-.34,1.54-.58,2.3-.11.34-.24.67-.34,1.02-.13.36-.09.27.13-.27l3.39-1.47c.51.13.93.38,1.25.75.15.13.25.3.3.5-.15-.01-.18-1.54-.12-.37-.02-.33.02-.68,0-1.01-.04-.47-.19.59.04-.2.03-.1.45-1.3.07-.45.16-.37.38-.71.59-1.05h-7.77c.05.1.49,1.09.34.65s.19.74.18.71c.09.32.09.59.05.1.04.44.04.87.02,1.31l8.39-2.27c-.32-.43-.62-.88-.88-1.35-.13-.24-.25-.48-.36-.72.2.45.2.43.02-.06-.04-.19-.4-1.83-.26-.78-.03-.27-.05-.54-.06-.81.02-.88-.09-.55-.33,1.01l-1.61,1.61.26-.11-2.27.61.27.03-2.27-.61c-.84-1.06-1.11-1.33-.82-.81.12.22.11.2-.02-.08.12.28.22.57.32.86.28.79.51,1.6.7,2.42.09.37.15.75.23,1.12l.08.45c-.04-.37-.05-.39,0-.06.03.38.08.76.1,1.14l.02.46c-.02.8.1.42.34-1.11l1.61-1.61c2.48-.57,4.01-.03,4.57,1.61l-.09-.35c-.32-.84-.13.62-.02-.2-1.17,2.77-2.64,3.76-4.4,2.97l-.89-.87c.25.44.25.41-.01-.09-.08-.24-.09-.49-.03-.73.18-1.36,1.39-1.87,2.59-1.55.77.2,1.25.46,1.61,1.2.48,1,.09,2.85-1.03,3.36l-2.27.61c-3.04.28-4.18-3.51-2.5-5.02l1.99-1.16.69-.09,2.27.61c1.18,3.11,1.74,3.97,1.67,2.59l-.09.65c.15-.47.1-.43-.13.13-1.48,1.58-2.87,1.92-4.16.99-.66-.24-1.07-.72-1.25-1.44.06.17.1.34.13.52.06.34.05.23-.03-.3.05,1.32.58.56,1.59-2.3l2.27-.61c2.23,3.38,3.25,4.19,3.08,2.43l-7.68,3.18c.16.19.32.37.48.56.08.09.67.9.38.44-.15-.19-.15-.18-.01.03.13.23.13.22.01-.01-.28-.48-.2-1,.26-1.55-.04-1.09.45-1.8,1.47-2.15h2.39c2.88.57,2.76,3.84,1.48,5.43-1.13,1.41-3.59,1.29-4.48-.13-.68-1.11-.4-2.04.85-2.79.5-1.48,1.47-2,2.91-1.56.65.33.82.4.51.23-.55-.33-.22.02,1.01,1.05,1.09,1.86-.28,4.9-2.62,4.18-.56-.17-.86-.47-1.2-.92.56.76-.22-.76.02.16l-.09-.53c-.02.51,0,.44.04-.21.21-.75,1.01-1.33,1.7-1.53.52-.16,1.15-.16,1.63.11.33.19.72,1.12.49.41.1.29.15,1.13.15.23,0-.36,0-.72.03-1.08.01-.22.03-.43.06-.65.06-.52.06-.57.01-.14-.06.39-.04.38.04-.03-.9,1.17-1.06,1.5-.48,1l-1.99,1.16c-1.15.48-2.16-.58-2.79-1.26-.12-.32-.11-.27.04.14.22.83.26.45.14-1.14l1.16-1.99.51-.4,2.27-.61c.8-.04,1.38.61,1.97.93.13.2.13.19-.01-.03-.11-.17-.22-.34-.31-.52.22.38.11.33.02-.06-.1-.46-.11-.53-.05-.2.12.49.02.97-.31,1.44l-1.61,1.61c-3-.56-3.98-.55-2.94.03.28.17.2.11-.22-.16.06.09.75.87.38.38s.26.46.27.47c.45.68-.05-.36.08.1.08.3.18.59.26.89.3,1,.06-.77.04.27v.37c-.03.45-.02.49.03.12.05-.53.3-.98.76-1.35l1.14-.69c.23-.08,1.33.09.93-.02-.55-.15.86.25.05-.03.42.33.51.38.27.15-.22-.24-.17-.16.15.24-.16-.25-.29-.52-.45-.76-.27-.43.2.72,0-.08-.22-.87-.07.62-.03.1,0-.07-.08-.76,0-.79-.1.62-.12.76-.05.42.03-.15.07-.3.12-.44l-.22.53c.21-.33.2-.33-.02,0-.58.54-1.16.99-2.03,1-.54.01-.84-.25-1.26-.49-.27-.24-.26-.22.05.06l-.26-.38c.21.29.37.6.54.92-.26-.48-.18-.46-.05.05.24.94.11-.08.02-.12.1.04-.02.68.01.79.11.45.25-.86-.01-.14.28-.57.33-.71.17-.42-.18.29-.08.17.28-.37.94-1.02,2.19-.91,3.17-.2-.82-.59.5.27.19.51.02-.01-.19-.71-.2-.78.2.94.05-.25.05-.43,0-.41.03-.82.06-1.23l-2.23,3.89c-2.31.83-3.94.2-4.88-1.88.35,2.34,3.41,3.83,5.54,3.14,2.55-.82,3.52-3.03,3.14-5.54s-2.98-4.25-5.35-4.31c-1.06-.02-2.09.26-2.99.81-1.72,1.07-2.21,2.77-2.27,4.71-.14,4.03,1.61,8.07,5.74,9.3,4.57,1.36,8.26-2.45,8.58-6.74.25-3.37-1.34-7.24-4.28-9.06-3.92-2.43-8.47-.36-10.04,3.72-1.29,3.36-.13,7.31,2.13,9.96,2.6,3.05,7.64,4.03,10.68.98,2.87-2.87,2.04-7.9.32-11.14-1.97-3.73-7.09-7.1-10.8-3.4-3.29,3.29-1.1,9.67,2.4,11.94,2.13,1.38,5.03,1.28,6.85-.57,2.08-2.11,1.6-5.09.4-7.49-.92-1.84-2.53-3.15-4.55-3.58-2.99-.64-5.81,1.16-6.78,4-1.17,3.42-.83,8.15,1.93,10.71,3.63,3.37,9.53,2.23,11.1-2.64,1.22-3.79-.67-8.6-4.67-9.79-4.51-1.34-9.69,2.51-8.45,7.43,1.19,4.73,8.47,6.47,10.95,1.78,1.35-2.55.86-5.69-1.18-7.73-1.87-1.86-5.13-2.61-7.45-1.1-2.14,1.38-3.27,3.96-2.65,6.46.72,2.88,3.67,4.73,6.59,3.98s4.84-3.62,4.44-6.55c-.32-2.41-1.69-4-3.22-5.79-2.52-2.94-7.86-.59-7.68,3.18.16,3.31,1.98,6.41,5.62,6.57,3.25.14,5.64-2.83,5.46-5.92-.15-2.6-1.02-5.24-3.38-6.63-2.74-1.63-6.39-.78-8.01,2.02-1.21,2.09-1.51,4.82-.37,6.99,1.57,3.02,5.9,3.63,8.24,1.13,1.98-2.1,2.18-5.67.42-7.96-2.05-2.65-5.94-2.97-8.28-.44-1.91,2.07-2.19,5.28-.72,7.68s4.25,3.56,7.04,3.03c5.61-1.05,7.3-8.55,3.21-12.28-2.15-1.96-5.53-2.61-7.95-.75s-2.7,4.69-1.97,7.41c.79,2.95,3.39,5.15,6.53,4.72s4.82-3.28,4.64-6.28c-.14-2.44-.56-4.92-1.34-7.24-.97-2.88-2.58-6.35-6.23-6.21-2.22.08-4.11,1.56-4.79,3.65-.35,1.1-.29,2.3-.14,3.42.32,2.53,1.12,4.98,2.66,7.05,1.16,1.56,3.05,2.73,5.08,2.07s3.23-2.29,3.3-4.34c.09-2.58-.58-5.07-1.82-7.32-1.68-3.07-6.01-2.76-7.77,0-2.12,3.34-2.63,7.84-.9,11.45,1.05,2.19,3.22,3.74,5.68,3.81,2.83.08,4.89-1.75,5.85-4.26,1.26-3.28,2.03-7.13.94-10.56-.63-2.01-1.84-3.75-3.61-4.91-2.22-1.45-4.5-1.3-6.83-.31l6.61,5.08c.53-3.19.17-5.97-1.16-8.92-.78-1.73-3.34-2.63-5.08-2.07s-3.54,2.35-3.3,4.34c.28,2.41.68,4.8,2.52,6.59s4.67,2.55,7.1,1.52c5.13-2.16,4.41-8.36,1.46-11.99-3.5-4.31-9.46-2.66-12.32,1.45s1.83,9.21,4.78,11.78c1.38,1.2,3.8,1.93,5.45.7s2.66-2.64,2.59-4.73c-.07-2.3-1.66-4.23-3.84-4.89-2.91-.87-5.94.29-7.76,2.64-3.46,4.48-1.1,11.44,1.57,15.73,1.24,2,4.07,2.96,6.16,1.61s2.95-4.02,1.61-6.16h0Z"/>
            </g>
          </g>
          <path class="cls-9" d="M953.79,353.38c-1.58-2.7-3.56-5.17-5.87-7.28-.58-.53-1.56-.62-2.12,0-.53.58-.62,1.56,0,2.12,1.09,1,2.12,2.07,3.05,3.22.11.14.24.28.34.43-.07-.11-.11-.14-.01-.01.06.08.12.16.18.24.22.29.43.59.64.89.43.62.83,1.25,1.2,1.9s1.37.98,2.05.54.96-1.33.54-2.05h0Z"/>
          <g id="Face">
            <path class="cls-10" d="M1019.57,342.53c-.47,0-.95-.03-1.42-.09l.3.04c-.59-.08-1.16-.21-1.73-.38s-1.25.21-1.38.79.18,1.2.79,1.38c1.11.34,2.28.51,3.44.51.59,0,1.15-.52,1.12-1.12s-.49-1.12-1.12-1.12h0Z"/>
            <path class="cls-10" d="M1005.05,347.79c.54-.19,1.07-.43,1.54-.77.26-.19.51-.38.74-.6s.43-.48.63-.75c.16-.22.18-.61.11-.87s-.27-.54-.52-.67c-.26-.14-.58-.21-.87-.11l-.27.11c-.17.1-.3.23-.4.4-.02.03-.04.05-.06.08l.18-.23c-.23.29-.49.55-.78.78l.23-.18c-.32.25-.67.45-1.05.61l.27-.11c-.11.05-.22.09-.34.13-.28.09-.52.26-.67.52-.14.24-.2.6-.11.87s.26.53.52.67.58.21.87.11h0Z"/>
            <path class="cls-10" d="M1004.93,341.2l-.21.04c-.15.03-.27.1-.38.2-.12.08-.22.18-.29.32-.08.13-.13.27-.13.42-.03.15-.03.3.02.45l.11.27c.1.17.23.3.4.4l.27.11c.2.05.4.05.6,0l.21-.04c.15-.03.27-.1.38-.2.12-.08.22-.18.29-.32.08-.13.13-.27.13-.42.03-.15.03-.3-.02-.45l-.11-.27c-.1-.17-.23-.3-.4-.4l-.27-.11c-.2-.05-.4-.05-.6,0h0Z"/>
            <path class="cls-10" d="M1016.91,338.09l-.42.07c-.15.03-.27.1-.38.2-.12.08-.22.18-.29.32-.08.13-.13.27-.13.42-.03.15-.03.3.02.45l.11.27c.1.17.23.3.4.4l.27.11c.2.05.4.05.6,0l.42-.07c.15-.03.27-.1.38-.2.12-.08.22-.18.29-.32.08-.13.13-.27.13-.42.03-.15.03-.3-.02-.45l-.11-.27c-.1-.17-.23-.3-.4-.4l-.27-.11c-.2-.05-.4-.05-.6,0h0Z"/>
            <path class="cls-10" d="M1013.47,336.69c-1.21-.82-2.83-.89-4.14-.29-1.24.56-2.12,1.9-2.08,3.27.01.59.51,1.15,1.12,1.12s1.14-.49,1.12-1.12c0-.1.02-.21.01-.31.02.25-.03.18,0,.05,0-.04.02-.08.03-.12.02-.06.05-.12.06-.18-.01.08-.11.23-.02.06.05-.1.1-.19.16-.28.1-.16.02,0-.04.04.04-.03.07-.09.11-.12.07-.08.16-.15.24-.23.1-.09-.21.14-.04.03.06-.04.11-.08.17-.11.1-.06.21-.1.3-.16-.08.05-.21.08-.04.03.05-.02.11-.04.17-.05.09-.03.26-.02.34-.07-.07.04-.26.03-.05.01.06,0,.12,0,.18,0,.12,0,.24,0,.35.01.25.01-.26-.05-.02,0,.05,0,.09.02.14.03.13.03.25.06.37.1.02,0,.04.02.07.02.08.03.04.01-.11-.05.03.03.12.05.16.07.11.06.22.12.33.2.49.33,1.27.11,1.54-.4.3-.57.12-1.18-.4-1.54h0Z"/>
          </g>
          <path class="cls-9" d="M966.47,348.54c-.09-.19-.18-.38-.27-.57-.04-.1-.09-.19-.13-.29-.07-.17-.08-.19-.03-.08-.14-.34-.28-.68-.4-1.03-.26-.71-.49-1.44-.68-2.18-.4-1.51-.7-3.02-1.45-4.4-.38-.69-1.38-.97-2.05-.54s-.94,1.32-.54,2.05c.1.17.19.35.27.53-.1-.23.11.28.12.33.12.33.21.66.3,1,.19.71.34,1.42.54,2.13.43,1.57,1.03,3.09,1.74,4.55.34.71,1.41.95,2.05.54.73-.47.9-1.29.54-2.05h0Z"/>
          <path class="cls-9" d="M959.35,349.67c-.3-.57-.59-1.15-.87-1.74-.14-.29-.27-.59-.4-.88-.04-.08-.07-.17-.11-.25.06.15.06.14,0-.02-.06-.15-.12-.3-.18-.45-.49-1.22-.9-2.47-1.26-3.74-.21-.76-1.07-1.3-1.85-1.05s-1.27,1.04-1.05,1.85c.76,2.7,1.81,5.32,3.13,7.8.37.69,1.39.96,2.05.54.71-.46.93-1.31.54-2.05h0Z"/>
          <path class="cls-9" d="M950.39,357.72c-.35-.16-.71-.32-1.05-.52-.17-.1-.33-.2-.49-.32.22.17-.2-.19-.24-.22-.62-.55-1.28-1.04-2.01-1.45-1.48-.84-2.99-1.63-4.48-2.44-.69-.37-1.67-.19-2.05.54s-.2,1.65.54,2.05c1.49.81,3,1.6,4.48,2.44.32.18.62.37.93.58.14.1.16.11.04.03.07.06.15.12.22.18.14.12.28.25.43.38.67.57,1.38.98,2.17,1.34.71.33,1.65.23,2.05-.54.35-.66.22-1.7-.54-2.05h0Z"/>
          <path class="cls-15" d="M982.77,345.97l1.12-.03c.63-.02,1.31-.45,1.45-1.1.74-3.44.93-7.08-.53-10.36-1.17-2.63-3.49-4.84-6.35-5.48-1.88-.42-2.68,2.47-.8,2.89,2.1.47,3.69,2.07,4.52,4.02,1.09,2.55.83,5.5.27,8.14l1.45-1.1-1.12.03c-1.93.05-1.93,3.05,0,3h0Z"/>
          <path class="cls-15" d="M980.11,330.39c.33-2.04.53-4.4-1.12-5.96-.8-.76-1.82-1.15-2.85-1.5s-2.13-.71-3.19-1.07c-.74-.25-1.67.29-1.85,1.05-.19.83.25,1.58,1.05,1.85.94.32,1.88.63,2.82.95.39.13.78.26,1.17.41.34.13-.29-.15.03.02.09.05.19.09.28.14.08.04.15.09.22.13.06.04.28.25.14.09-.15-.17.05.05.08.09.07.07.13.17.21.23-.23-.19-.1-.12-.01.02.04.07.07.14.11.21.05.1.03.06-.06-.14.02.04.03.09.05.14.03.08.05.15.07.23.02.09.04.19.06.29.07.33-.02-.35,0,0,.02.37.03.74,0,1.12,0,.1-.02.21-.03.31-.01.13.03.38,0,.01.01.19-.06.42-.09.6-.13.77.2,1.65,1.05,1.85.72.16,1.71-.22,1.85-1.05h0Z"/>
          <path class="cls-15" d="M975.22,347.9c-.88-.08-1.73-1.03-2.32-1.7-.73-.83-1.32-1.8-1.79-2.8-.96-2.03-1.24-4.28-.98-6.5.09-.81-.76-1.5-1.5-1.5-.89,0-1.41.69-1.5,1.5-.33,2.87.27,5.79,1.56,8.36s3.52,5.35,6.53,5.63c.81.08,1.5-.74,1.5-1.5,0-.87-.69-1.42-1.5-1.5h0Z"/>
          <path class="cls-15" d="M995.63,339.04c1.24-3.84.03-8.3-3.01-10.97l.23,1.82c1.44-2.37,2.85-5.55.9-8.08-.49-.64-1.29-.98-2.05-.54-.63.37-1.04,1.41-.54,2.05,1.26,1.63,0,3.57-.9,5.05-.33.54-.25,1.39.23,1.82,2.28,2.01,3.17,5.15,2.24,8.05-.59,1.84,2.3,2.63,2.89.8h0Z"/>
          <path class="cls-15" d="M975.9,343.66c-.02-.08-.01.03,0-.04,0-.03.02-.1,0-.04,0-.03.02-.07.03-.1-.02.07.01-.03.02-.04.02-.03.04-.06.06-.09.06-.09-.04.04.03-.04.05-.06.11-.11.16-.16.05-.05-.02,0,.05-.04.03-.02.06-.04.09-.06.06-.04.12-.07.19-.11.15-.08.24-.12.41-.16.1-.02.26-.04.34-.02.04,0,.07.02.11.03-.07-.02,0,0,.02.01.03.02.05.03.08.05-.07-.04.01.01.02.02.02.02.04.05.06.07-.04-.05,0,0,.01.03.02.03.03.05.04.08-.03-.06,0,0,0,.02,0,.02.01.11,0,.02,0,.02,0,.05,0,.07,0,.03,0,.02,0-.03,0,.01,0,.03,0,.04-.03.09.02-.03-.01.04-.09.17-.05.42.13.51s.41.05.51-.13c.22-.4.11-.85-.17-1.19-.31-.37-.79-.46-1.25-.39-.83.13-1.88.87-1.68,1.83.04.19.28.32.46.26.2-.07.3-.26.26-.46h0Z"/>
          <path class="cls-15" d="M987.08,322.5s.11-.08.13-.07c0,0-.07.02-.03.01.01,0,.02,0,.04-.01.03,0,.06-.02.08-.02.02,0,.05,0,.07-.02.04-.01-.04,0-.04,0,0,0,.03,0,.04,0,.06,0,.12,0,.18,0,.01,0,.03,0,.04,0,.04,0,.02,0,0,0-.02.01-.03,0,0,0,.01,0,.02,0,.04,0,.05.01.11.03.16.04.01,0,.02,0,.04.01.04.01-.03-.01-.03-.01.02,0,.05.02.07.03.05.02.09.06.14.08.04.02-.03-.02-.03-.02,0,0,.02.02.03.02.02.02.04.03.06.05s.03.04.05.05c0,0,.03.02.02.03,0,0-.04-.06-.01-.02s.06.09.08.14c0,0,.02.03.02.03,0,0-.02-.07-.01-.03,0,.03.02.06.03.08,0,.02.01.05.02.07,0,.01,0,.03,0,.04.01.04,0-.04,0-.04,0,0,0,.15,0,.16,0,.03,0,.05,0,.08,0,0,0,.04,0,.04,0,0,.01-.08,0-.04-.01.05-.02.11-.04.16,0,.03-.02.06-.03.08-.01.04.01-.03.01-.03,0,.01-.02.05-.03.06-.03.05-.06.1-.09.15-.02.04.02-.03.02-.03,0,.01-.02.03-.03.04-.02.02-.04.04-.06.06,0,0-.05.06-.07.06,0,0,.06-.04.03-.02-.02,0-.04.02-.05.04-.16.11-.25.34-.13.51.11.16.34.25.51.13.54-.35.79-1,.67-1.63s-.65-1.06-1.24-1.14c-.36-.05-.72,0-1.04.19-.17.1-.25.34-.13.51s.33.24.51.13h0Z"/>
          <path class="cls-15" d="M977.96,339.26l-.52-.05c-.09,0-.21.05-.27.11-.07.08-.1.16-.11.27-.04.51-.05,1.05.22,1.5.23.39.7.66,1.15.61.3-.03.55-.17.72-.43.11-.16.04-.42-.13-.51-.19-.1-.4-.04-.51.13-.05.08.05-.05,0,0-.02.02-.03.03-.05.05.05-.04.07-.05.04-.03,0,0-.02.01-.03.02-.03.02-.1.03.02,0-.04.01-.09.02-.13.03.12-.03.05,0,.01,0-.02,0-.05,0-.07,0-.1,0,.08.02.01,0-.02,0-.05,0-.07-.01s-.05-.01-.07-.02c-.04-.01-.09-.05,0,0-.04-.03-.09-.04-.13-.07-.08-.05.05.05,0,0-.02-.01-.03-.03-.05-.04s-.03-.03-.04-.05c-.04-.05.06.08,0,0-.01-.02-.08-.17-.09-.17.02.05.03.06.01.02,0-.01-.01-.03-.02-.05-.01-.03-.02-.06-.03-.09s-.02-.06-.02-.09c0-.02,0-.07-.02-.1,0,.06,0,.07,0,.03,0-.02,0-.03,0-.05,0-.03,0-.07,0-.1,0-.07,0-.13,0-.2,0-.13.01-.26.02-.4l-.38.38.52.05c.2.02.38-.19.38-.38,0-.22-.17-.35-.38-.38h0Z"/>
          <path class="cls-15" d="M974.62,342.28c.64-.36,1.29-.92,1.32-1.71.03-.68-.52-1.45-1.26-1.38-.19.02-.38.16-.38.38,0,.19.17.4.38.38.03,0,.06,0,.09,0,.04,0,.08.02.01,0,.02,0,.06.02.08.02.07.02-.05-.04.01,0,.02.02.05.03.07.05-.04-.03-.03-.02,0,0,.02.02.04.04.06.06.03.03.04.05,0,0,.04.05.07.1.09.16.05.08-.02-.07.01.02,0,.03.02.06.03.09s.01.06.02.09c.02.07,0-.03,0,0,0,.03,0,.06,0,.09,0,.01,0,.11,0,.06s0,.03,0,.04c0,.03-.02.07-.03.1,0,0-.04.11-.01.04-.01.03-.03.06-.05.09-.03.06-.07.12-.12.18.03-.04,0,0-.02.02-.02.03-.05.05-.07.08-.05.05-.09.09-.15.14-.03.02-.06.05-.08.07.05-.04-.04.03-.04.03-.12.09-.24.16-.37.23-.17.1-.24.35-.13.51s.33.24.51.13h0Z"/>
          <path class="cls-15" d="M977.24,333.55s.08,0,.08,0c0,0-.09-.03,0,0,.04.02-.06-.04,0,0,.01,0,.02.01.03.02.02.02.01,0-.02-.02.01,0,.06.05.06.06,0-.03-.03-.05,0,0,0,.01.03.04.03.06-.02-.04-.02-.05-.01-.02,0,.01,0,.03.01.04,0,.01.02.09,0,.03s0,.02,0,.03c0,.03-.02.09,0,.02,0,.02-.01.05-.02.08s-.02.05-.03.07c.03-.08-.01.02-.02.03-.01.02-.03.05-.04.07,0,0-.06.09-.04.05.03-.04-.03.03-.03.04-.02.02-.04.05-.07.07-.04.04-.08.08-.12.11-.05.04-.1.08-.15.12-.02.02-.06.05-.02.02-.03.02-.06.04-.08.06-.1.07-.21.14-.32.2-.05.03-.1.05-.15.08-.03.02-.06.03-.09.04-.01,0-.11.05-.04.02-.18.07-.33.25-.26.46.06.17.27.34.46.26.31-.13.6-.28.87-.48s.55-.44.72-.74c.19-.33.23-.7.07-1.04-.14-.3-.47-.55-.82-.51-.19.02-.38.16-.38.38,0,.18.17.4.38.38h0Z"/>
          <path class="cls-15" d="M979.24,334.64c.48,0,.48-.75,0-.75s-.48.75,0,.75h0Z"/>
          <path class="cls-15" d="M978.52,336.18s.01-.05.02-.08c.02-.07-.02.04,0,0s.04-.08.06-.12c.01-.02.02-.04.04-.06-.07.06,0,.01,0,0,.03-.03.06-.06.1-.09.05-.05-.04.02,0,0,.02-.01.04-.03.06-.04.02-.01.05-.03.07-.04.01,0,.08-.03.03-.01s.02,0,.03,0c.02,0,.04-.01.06-.02.01,0,.05-.02.07-.01-.05,0-.06,0-.03,0,.01,0,.03,0,.04,0,.02,0,.11-.01.13,0-.05,0-.06,0-.03,0,0,0,.02,0,.03,0,.02,0,.04,0,.06.02.03,0,.05.02.08.02.07.02-.04-.02,0,0s.08.04.12.07c.02.01.04.02.06.04-.05-.06-.01-.01,0,0,.03.03.06.06.09.1.06.07-.04-.07,0,0,0,.02.02.03.03.05.01.02.03.05.04.07.04.07-.03-.07,0,0,.07.18.26.33.46.26.18-.06.33-.26.26-.46-.2-.55-.74-.97-1.34-.94s-1.12.45-1.27,1.02c-.05.19.06.42.26.46s.41-.06.46-.26h0Z"/>
          <path class="cls-15" d="M978.75,332.57c-.33.44-.3,1.13.02,1.57.18.24.42.43.72.5.27.07.57.05.83-.05.31-.12.58-.33.74-.62.09-.17.05-.42-.13-.51-.17-.09-.42-.05-.51.13-.02.04-.05.08-.07.12s.05-.06.02-.03c0,0-.01.02-.02.02-.02.02-.04.04-.06.06-.01.01-.04.03-.05.04.03-.05.06-.04.03-.02,0,0-.02.01-.03.02-.04.03-.08.05-.13.07-.08.04.06-.02,0,0-.02,0-.05.02-.07.02-.05.01-.1.02-.14.03-.04,0,.05,0,.05,0-.01,0-.03,0-.04,0-.02,0-.04,0-.06,0-.02,0-.05,0-.07,0-.01,0-.02,0-.03,0-.07,0,.07.01.03,0s-.09-.02-.13-.03c-.02,0-.04-.02-.06-.02.08.02.06.03.03.01-.01,0-.02-.01-.04-.02-.02-.01-.04-.03-.06-.04-.07-.04.04.04,0,0-.04-.03-.07-.07-.1-.1-.04-.05.04.06,0,0-.01-.02-.03-.04-.04-.06s-.02-.04-.04-.06c0,0,0-.02-.01-.03-.02-.04.03.09,0,.02-.01-.04-.03-.09-.04-.13,0-.02,0-.04-.01-.06-.02-.08,0,.08,0,0,0-.06,0-.11,0-.17,0-.08-.01.07,0,0,0-.03.01-.05.02-.08s.01-.05.02-.08c0,0,0-.02.01-.03.01-.04-.04.09,0,.02.03-.05.05-.1.09-.14.12-.16.03-.43-.13-.51-.2-.1-.39-.03-.51.13h0Z"/>
          <path class="cls-15" d="M968.54,329.33s.05,0,.07,0c.07,0-.06-.02-.02,0,.02,0,.04.01.06.02.07.02-.07-.04,0,0,.02.01.03.02.05.03.07.04-.01,0-.01,0,0,0,.05.05.05.05l.02.02s.02.02,0,0c-.02-.03-.02-.03,0,0v.02s.04.04.05.06c0,.01.05.07.01.02-.03-.04,0,0,0,.02,0,.02.01.05.02.07v.02s.01.03,0,0c0-.03,0-.03,0,0v.02s0,.05,0,.07c0,.02-.02.08,0,.03.02-.06,0,.02,0,.03,0,.03-.01.06-.02.08,0,.01-.03.09-.01.04s-.01.02-.02.03c-.01.03-.03.05-.04.08-.02.04-.05.08-.08.12-.06.08.05-.06-.01.02-.02.02-.03.04-.05.06-.04.04-.08.08-.12.12-.08.08-.16.15-.25.22-.15.12-.14.4,0,.53.16.15.37.13.53,0,.43-.34.86-.84.83-1.43-.03-.55-.46-1.14-1.07-1.1-.2.01-.38.16-.38.38,0,.19.17.39.38.38h0Z"/>
          <path class="cls-15" d="M970.99,331.61s-.05-.07-.07-.11c0-.02-.02-.04-.03-.05-.04-.07.03.07,0,0-.01-.04-.03-.08-.04-.13,0-.02,0-.04-.01-.06-.01-.06,0,.09,0,0,0-.04,0-.09,0-.13,0-.02,0-.05,0-.07,0-.08-.01.07,0,0,0-.04.02-.09.03-.13,0-.02.01-.04.02-.06.03-.08-.03.07,0,0,.02-.04.04-.08.06-.11.01-.02.02-.03.03-.05,0,0-.05.06-.03.04,0,0,.02-.02.03-.03.03-.03.07-.06.1-.09,0,0-.07.05-.04.03,0,0,.02-.01.02-.02.02-.02.05-.03.07-.04.02-.01.04-.02.05-.03.01,0,.03-.01.04-.02,0,0-.08.03-.04.02.04-.02.09-.03.14-.04.02,0,.04,0,.06-.01.02,0,.09-.01.02,0s.01,0,.03,0c.02,0,.05,0,.07,0,.03,0,.05,0,.08,0,.08,0-.07-.01,0,0,.05,0,.1.02.15.04.02,0,.1.04.04.01s.01,0,.03.02c.02.01.05.03.07.04.02.02.1.07,0,0,.08.06.16.11.27.11.09,0,.2-.04.27-.11.12-.13.17-.4,0-.53-.13-.1-.25-.17-.4-.23-.12-.05-.25-.07-.38-.08-.26-.03-.53.03-.77.14-.48.22-.77.75-.77,1.27,0,.28.08.59.26.81.06.08.12.14.22.17.09.02.21.01.29-.04.15-.1.26-.35.13-.51h0Z"/>
          <path class="cls-15" d="M969.82,327.4c-.28.49-.17,1.13.23,1.53s1.08.45,1.55.11c.26-.19.48-.46.53-.79.02-.1.02-.2-.04-.29-.05-.08-.13-.15-.22-.17-.18-.04-.43.05-.46.26,0,.05-.02.09-.03.13,0,0-.01.02-.01.03,0,0,.04-.07.02-.04-.01.02-.02.04-.03.06s-.03.04-.04.06c0,0-.01.02-.02.03,0,0,.05-.06.03-.04-.03.03-.07.07-.1.1,0,0-.02.01-.02.02,0,0,.07-.05.03-.03-.02.01-.04.03-.06.04-.02.01-.04.02-.05.03-.01,0-.09.04-.03.02.06-.02-.02,0-.03.01-.02,0-.04.01-.06.02s-.04,0-.06.01c-.06.01.03,0,.04,0-.01,0-.03,0-.04,0-.05,0-.09,0-.13,0-.04,0,.05,0,.05,0,0,0-.02,0-.03,0-.02,0-.05-.01-.07-.02-.01,0-.03-.01-.04-.01,0,0,.08.04.04.02-.02,0-.04-.02-.05-.03s-.03-.02-.05-.03c-.07-.04.06.05,0,0-.03-.03-.06-.06-.09-.09-.04-.05.04.07,0,.01-.01-.02-.03-.04-.04-.06-.02-.04-.04-.08-.06-.12,0,0,.03.08.02.04,0,0,0-.02-.01-.03,0-.03-.02-.05-.02-.08,0-.02-.01-.05-.02-.07-.02-.08,0,.09,0,0,0-.05,0-.09,0-.14,0-.08-.02.08,0,0,0-.02.01-.05.02-.07,0,0,0-.02,0-.03.02-.06,0,0-.01.02.01-.02.02-.05.04-.07.1-.17.05-.42-.13-.51s-.41-.05-.51.13h0Z"/>
          <path class="cls-15" d="M990.88,335.33c-.36-.37-.92-.37-1.35-.15s-.7.71-.79,1.19c-.05.3-.06.59-.06.89,0,.2.17.38.38.38s.38-.16.38-.38c0-.14,0-.28,0-.42,0-.07,0-.13.01-.19,0-.03,0-.06,0-.08-.02.11,0-.02,0-.04.01-.06.03-.12.04-.19,0-.03.02-.07.03-.1,0-.02.03-.1,0-.01.02-.06.06-.12.09-.17.02-.03.04-.05.05-.08-.04.09-.02.03,0,0,.02-.02.04-.04.05-.05.01,0,.02-.02.03-.03.03-.02.02-.02-.02.02.04-.01.09-.06.13-.08.01,0,.05-.02.06-.03-.06.02-.07.03-.03.01.01,0,.03,0,.04-.01.05-.02.1-.03.14-.04.07-.01-.1,0,0,0,.02,0,.05,0,.07,0,.01,0,.03,0,.04,0,.04,0,.03,0-.04,0,.02,0,.04,0,.06.01.03,0,.05.02.08.02-.09-.02-.05-.02-.02,0,.01,0,.02.01.03.02.03.02.02.01-.03-.02.02.02.04.04.06.06.14.14.4.15.53,0s.15-.38,0-.53h0Z"/>
          <path class="cls-15" d="M986.4,335.87c.04-.05-.06.07,0,0,.02-.02.04-.04.06-.05.05-.05-.08.05,0,0,.02-.01.04-.02.06-.04.01,0,.02-.01.04-.02.04-.02.02-.01-.04.01.02,0,.05-.02.08-.02.02,0,.04,0,.06-.01.1-.02-.07,0,0,0,.05,0,.09,0,.14,0,.07,0-.1-.02,0,0,.03,0,.05.01.08.02.01,0,.02,0,.04.01l-.05-.02s.05.02.07.04c.01,0,.02.01.03.02.03.02.02.02-.03-.02.01.02.04.03.05.05s.03.03.05.05c.04.05-.05-.08,0,0,.03.04.05.08.07.12.04.09-.02-.06,0,0,0,.03.02.05.03.08.02.05.03.09.04.14s.02.1.03.15c.01.07-.01-.1,0,0,0,.03,0,.06,0,.09,0,.11.01.21.01.32l.11-.27c.25-.2.52-.03.47.28.01-.1.02-.19-.04-.29-.05-.08-.13-.15-.22-.17-.18-.04-.43.05-.46.26-.02.16,0,.3.11.43.07.07.15.12.25.14.15.03.31,0,.42-.12s.11-.24.11-.38c0-.26-.03-.52-.11-.77s-.21-.5-.42-.67c-.23-.18-.52-.29-.82-.26-.36.04-.65.2-.87.5-.12.16-.03.42.13.51.19.1.39.04.51-.13h0Z"/>
          <path class="cls-15" d="M987.21,333.69c.3.59.98.91,1.62.82.6-.09,1.13-.59,1.26-1.19.04-.19-.06-.41-.26-.46-.19-.04-.42.06-.46.26-.01.06-.03.11-.05.16-.01.05.04-.07,0,0-.01.02-.02.05-.04.07s-.03.04-.04.07c0,.01-.07.09-.01.02-.03.04-.07.08-.1.11-.02.02-.04.03-.06.05-.03.03.05-.03,0,0-.05.03-.09.06-.14.09-.03.02-.06.03,0,0-.02,0-.05.02-.07.03-.05.02-.11.03-.16.04.05,0,.03,0,0,0-.03,0-.05,0-.08,0s-.05,0-.08,0c-.05,0,.06.01,0,0-.06-.01-.11-.03-.17-.04-.03-.01-.06-.02-.01,0-.02-.01-.05-.02-.07-.03-.05-.03-.1-.06-.15-.09.04.03.02.01-.01,0-.02-.02-.04-.03-.06-.05-.02-.02-.04-.05-.06-.07-.02-.03-.02-.03,0,0-.04-.05-.07-.1-.1-.16-.09-.18-.35-.24-.51-.13-.18.12-.23.33-.13.51h0Z"/>
        </g>
        <path class="cls-8" d="M924.59,339.54c7.02,10.86,14.46,21.56,22.63,31.59,3.76,4.61,8.26,8.34,13.49,11.18s10.72,4.16,16.52,4.83c6.75.79,13.66.54,20.29-.95,1.88-.42,1.09-3.32-.8-2.89-5.65,1.28-11.5,1.54-17.27,1.07s-11.13-1.55-16.14-4.07-9.49-5.95-13.12-10.25c-3.95-4.68-7.57-9.68-11.15-14.65-4.1-5.68-8.05-11.47-11.86-17.36-1.04-1.62-3.64-.11-2.59,1.51h0Z"/>
        <g>
          <path class="cls-3" d="M991.24,386.97c-.3-1.42-2.64-1.36-3.37-.11-.73,1.25-.28,2.86.4,4.14.81,1.52,2.04,2.96,3.7,3.42,2.72.76,5.7-1.75,5.77-4.57.07-2.83-2.38-5.36-5.18-5.79-1.43-.22-3.09.16-3.82,1.4"/>
          <path class="cls-8" d="M992.69,386.57c-.37-1.43-1.81-2.27-3.24-2.14-1.61.15-2.95,1.17-3.32,2.79-.39,1.72.21,3.48,1.09,4.95.79,1.34,1.91,2.64,3.35,3.3s3.02.78,4.5.17,2.65-1.61,3.39-2.97c1.53-2.76.64-6.17-1.69-8.2-1.33-1.16-2.99-1.9-4.76-1.97s-3.59.65-4.56,2.2c-.43.69-.15,1.65.54,2.05s1.62.15,2.05-.54c.22-.35-.2.14.09-.14.07-.06.13-.13.19-.19-.23.21.09-.06.13-.08.08-.05.16-.09.24-.13-.28.14.12-.04.16-.05.09-.03.18-.05.27-.07.04,0,.49-.07.16-.04.14-.01.28-.02.43-.02.82-.01,1.6.22,2.4.72.12.08.25.16.37.25-.05-.04-.18-.16.04.04.19.16.37.32.54.5.1.11.2.22.29.33.03.03.17.23.03.04.17.23.32.48.46.74,0,.02.2.45.09.16.04.09.07.18.1.27.08.23.13.46.18.69.09.43.01-.26.02.17,0,.1,0,.19.01.29,0,.14,0,.29-.02.43.02-.27-.02.07-.03.16-.05.23-.12.45-.21.67.1-.25-.02.03-.05.09-.05.1-.11.21-.17.31-.25.41-.39.55-.86.98-.32.3.13-.08-.08.07-.1.07-.19.13-.29.19s-.2.12-.3.17c-.06.03-.34.15-.08.05-.21.09-.43.15-.66.2,0,0-.43.07-.2.04.17-.02-.3,0-.35,0-.09,0-.18,0-.27-.01.33.02-.1-.02-.15-.03-.1-.02-.19-.05-.29-.08,0,0-.45-.19-.22-.08-.57-.28-.79-.45-1.19-.86s-.53-.58-.84-1.06-.58-.99-.73-1.42c-.08-.24-.2-.65-.22-.79.03.17-.02-.35-.02-.3,0-.01.02-.49,0-.25.02-.15.06-.33.12-.47-.07.16.1-.16.11-.18-.18.3-.02.06.05-.02-.15.16-.11.1.05-.01.27-.19-.28.05.04-.02.11-.02.21-.05.32-.08-.35.08-.14,0-.02.02.05,0,.11,0,.16,0,.17.01.14.01-.09-.01.01.01.16.05.2.05-.2-.09-.23-.11-.08-.03.14.09.11.06-.06-.07.01.02.14.14.14.14-.13-.18-.16-.2-.07-.06-.08-.2-.1-.23-.05-.06.2.79,1.07,1.26,1.85,1.05s1.25-1.06,1.05-1.85h0Z"/>
        </g>
      </g>
      <g>
        <path class="cls-17" d="M798.7,225.16c-12.15-4.92-24.92-9.47-37.82-12.3-2.19,1.34-3.92,2.6-5.14,3.52-43.71,33.01-65.33,111.58-70.16,137.07,16.58,4.26,33.49,7.27,50.53,8.97.24-2.48.65-5.26,1.38-8.45,3.71-16.1,12.24-27.86,17.92-35.7,8.55-11.79,10.74-11.05,14.74-17.87,7.65-13.05,6.09-29.74.65-43.86,6.31.72,19.99,1.4,34.34-5.81,2.63-1.32,13.51-6.79,19.45-14.11-8.52-4.15-17.2-7.94-25.88-11.46Z"/>
        <path class="cls-1" d="M799.1,223.71c-9.34-3.78-18.81-7.26-28.52-9.97-2.46-.69-4.94-1.33-7.44-1.91-1.09-.25-2.18-.72-3.22-.14s-1.95,1.25-2.89,1.9c-2.72,1.9-5.32,3.99-7.82,6.18-10.19,8.94-18.61,19.8-25.84,31.22-7.47,11.81-13.7,24.37-19.12,37.23-4.9,11.63-9.13,23.54-12.77,35.62-2.66,8.85-5.05,17.81-6.89,26.87-.16.77-.31,1.55-.46,2.32s.21,1.63,1.05,1.85c16.72,4.28,33.76,7.3,50.93,9.03.86.09,1.43-.76,1.5-1.5.89-9.01,3.76-17.77,7.88-25.81,3.26-6.35,7.3-12.22,11.5-17.98,2.17-2.97,4.47-5.84,7.01-8.51,1.47-1.55,3.04-3.01,4.42-4.65,4.73-5.64,7.27-12.87,8.14-20.11,1.18-9.87-.79-20-4.31-29.22l-1.45,1.9c7.55.85,15.26.42,22.64-1.4s14.71-5.35,21.22-9.6c4.02-2.62,7.91-5.63,10.98-9.35.56-.68.64-1.9-.3-2.36-8.61-4.18-17.37-8.01-26.24-11.61-1.79-.73-2.57,2.17-.8,2.89,8.62,3.5,17.15,7.24,25.52,11.31l-.3-2.36c-4.69,5.69-11.21,9.77-17.69,13.13-7.66,3.98-15.99,6.3-24.63,6.7-3.47.16-6.95.03-10.41-.36-.92-.1-1.77,1.05-1.45,1.9,3.13,8.2,4.99,17,4.44,25.8-.45,7.23-2.69,14.8-7.37,20.47-1.35,1.64-2.91,3.09-4.38,4.62-2.45,2.56-4.68,5.32-6.8,8.16-4.27,5.72-8.37,11.62-11.72,17.93-4.71,8.87-7.91,18.49-8.91,28.51l1.5-1.5c-16.91-1.7-33.67-4.7-50.13-8.92l1.05,1.85c1.33-7.03,3.06-13.98,4.95-20.87,2.68-9.75,5.76-19.39,9.24-28.88,4.01-10.93,8.55-21.68,13.78-32.09,5.35-10.64,11.41-20.95,18.52-30.52,6.72-9.04,14.5-17.55,23.59-24.27,1.47-1.09,2.98-2.1,4.53-3.07l-1.16.15c12.97,2.87,25.53,7.32,37.82,12.3,1.79.72,2.57-2.18.8-2.89Z"/>
      </g>
      <g>
        <path class="cls-6" d="M823.99,236.33c-4.51,6.47-11.44,11.43-18.86,14.39-10.83,4.33-22.7,5.09-34.34,5.81,5.44,14.12,7,30.81-.65,43.86-3.91,6.67-9.89,11.85-14.74,17.87-8.39,10.41-16.68,22.34-18.01,35.65-.31,3.12-.98,5.83-1.68,8.46,5.26.53,10.52.94,15.8,1.22,4.71-12.4,9.57-25,17.89-35.33,4.85-6.02,10.83-11.2,14.74-17.87,7.65-13.05,6.09-29.74.65-43.86,11.64-.72,23.51-1.48,34.34-5.81,8.19-3.27,15.79-8.98,20.18-16.47-5.03-2.78-10.14-5.42-15.32-7.93Z"/>
        <path class="cls-6" d="M822.7,235.57c-8.72,12.38-23.98,16.82-38.31,18.4-4.52.5-9.05.78-13.58,1.06-.88.05-1.82.93-1.45,1.9,5.17,13.55,7.12,29.88-.61,42.89-3.97,6.68-9.96,11.85-14.79,17.88s-9.53,12.39-12.98,19.39c-1.86,3.77-3.39,7.74-4.29,11.86-.48,2.19-.66,4.4-.99,6.61s-.86,4.3-1.42,6.41c-.27,1.02.49,1.8,1.45,1.9,5.26.53,10.52.93,15.8,1.22.7.04,1.22-.5,1.45-1.1,2.63-6.91,5.27-13.83,8.59-20.44s7.25-12.55,12.14-17.98c4.77-5.31,9.95-10.43,13.09-16.93,2.94-6.08,4.18-12.84,4.1-19.57-.09-7.84-1.85-15.63-4.64-22.93l-1.45,1.9c16.54-1.02,34.23-2.36,47.53-13.4,3.27-2.72,6.11-5.96,8.28-9.62.41-.68.17-1.66-.54-2.05-5.03-2.78-10.15-5.42-15.32-7.93-1.73-.84-3.25,1.75-1.51,2.59,5.18,2.51,10.29,5.14,15.32,7.93l-.54-2.05c-8.1,13.62-24.08,18.68-38.95,20.39-4.74.55-9.51.85-14.27,1.14-.88.05-1.82.93-1.45,1.9,4.72,12.35,6.84,27.04,1.19,39.46-2.98,6.56-8.07,11.62-12.82,16.9-4.77,5.29-8.77,11.07-12.05,17.39-3.77,7.25-6.69,14.89-9.59,22.52l1.45-1.1c-5.28-.29-10.54-.7-15.8-1.22l1.45,1.9c.5-1.9.98-3.81,1.31-5.75s.46-3.9.81-5.83c.7-3.81,1.93-7.52,3.55-11.04,3.3-7.18,7.94-13.67,12.84-19.83,4.88-6.13,10.88-11.42,15.1-18.07,4-6.31,5.88-13.72,6.09-21.14.24-8.52-1.59-17.05-4.62-24.97l-1.45,1.9c15.82-.97,32.85-2.15,45.93-12.14,3.29-2.51,6.17-5.43,8.55-8.81,1.11-1.58-1.49-3.08-2.59-1.51Z"/>
      </g>
      <g id="BuffAnteaterPointingArm">
        <path class="cls-12" d="M812.51,369.15c-5.09,1.16-13.78-3.61-17.47-7.3-3.69-3.7-5.99-8.52-8.21-13.25-9.88-20.97-19.98-42.97-19.14-66.14.38-10.61,2.81-22.31-3.23-31.03-3.21-4.63-8.7-8.23-9.22-13.84-.59-6.37,5.56-11.23,7.59-17.29,1.28-3.83.87-7.98.76-12.01-.69-25.19,11.08-48.98,24.23-70.48,4.19-6.84,8.67-13.72,15.06-18.57,6.38-4.85,15.09-7.37,22.58-4.51,11.75,4.49,15.4,19.24,15.8,31.8.77,24.12-4.37,48.4-14.84,70.14,5.4,3.82,5.48,11.58,5.91,18.18,1.98,30.08,23.59,59.47,14.57,88.24-3.6,11.47-7.64,39.95-34.39,46.07Z"/>
        <path class="cls-7" d="M802.27,336.75c-3.58-1.96-4.42-6.31-4.66-10.07-.14-2.24-.11-4.5,0-6.74.13-2.51.49-5.11,1.75-7.33s3.11-3.92,4.21-6.21c.99-2.06,1.56-4.26,1.89-6.51.68-4.6.46-9.34,1.6-13.87.66-2.61,2.02-4.69,3.29-7.02s2.09-4.94.76-7.48c-.9-1.71-3.49-.2-2.59,1.51,1.13,2.15-.94,4.78-1.99,6.56-1.17,2-2.04,4.1-2.53,6.37-1.03,4.69-.74,9.55-1.61,14.26-.44,2.38-1.19,4.65-2.56,6.66s-3.09,3.85-4,6.26-1.16,5.07-1.25,7.64c-.08,2.24-.1,4.51.1,6.75.4,4.57,1.78,9.44,6.08,11.8,1.69.93,3.21-1.66,1.51-2.59h0Z"/>
        <path class="cls-7" d="M792.93,297.45c-.56-2.39-2.18-4.18-3.86-5.88s-3.15-3.37-3.91-5.66c-1.44-4.32-.61-9.35,2.49-12.76,1.3-1.42-.82-3.55-2.12-2.12-3.52,3.85-4.79,9.28-3.64,14.35.57,2.52,1.81,4.82,3.54,6.74s3.99,3.53,4.6,6.13c.44,1.88,3.33,1.08,2.89-.8h0Z"/>
        <path class="cls-7" d="M828.04,336.82c3.45-3.89,4.34-9.02,4.49-14.06.18-6.2-.07-12.46-.36-18.65-.56-12.11-2.11-24.37-6.78-35.65-2.41-5.81-5.57-11.23-9.66-16.02-1.25-1.47-3.37.66-2.12,2.12,15.15,17.78,15.68,42.6,15.93,64.74.06,5.22.05,11.26-3.62,15.4-1.28,1.44.84,3.57,2.12,2.12h0Z"/>
        <path class="cls-7" d="M790.37,214.09c-1.82-4.67-3.66-9.43-4.37-14.41s.21-9.77,2.26-14.37c1.93-4.32,4.26-8.44,5.65-12.98.72-2.33,1.21-4.72,1.53-7.13s.11-4.85.47-7.22c.31-2.06,1.87-3.33,3.42-4.54s3.18-2.46,4.26-4.22c1.01-1.65-1.58-3.16-2.59-1.51-1.89,3.08-5.82,4.25-7.4,7.62-1.01,2.16-.73,4.59-.87,6.91-.16,2.63-.59,5.22-1.26,7.76-1.27,4.82-3.67,9.1-5.7,13.61s-3.32,9.18-2.96,14.18c.42,5.96,2.53,11.6,4.68,17.12.69,1.78,3.6,1.01,2.89-.8h0Z"/>
        <path class="cls-7" d="M804.55,195.43c5.54-2.04,8.6-7.1,10.64-12.36,2.6-6.71,4.34-13.83,6.24-20.77.51-1.86-2.38-2.66-2.89-.8-1.77,6.49-3.48,13.08-5.74,19.42-1.64,4.61-4.14,9.81-9.05,11.61-1.8.66-1.02,3.56.8,2.89h0Z"/>
        <path class="cls-7" d="M777.63,194.34c-2.71.2-2.77-4.34-2.7-6.11.17-3.89,1.26-7.71,3.1-11.13.92-1.7-1.67-3.22-2.59-1.51-2.31,4.3-3.6,9.15-3.54,14.05.04,3.27,1.69,8,5.72,7.71,1.91-.14,1.93-3.14,0-3h0Z"/>
        <path class="cls-12" d="M831.5,119.98c1.5-2.51,2.69-9.32.5-11.51-2-2-5.73-2.64-8.82-2.85-2.18-.15-3.45,2.11-4.06,3.01-1.17,1.71-1.45,3.29-2.09,5.26.39-1.74.67-3.86-.66-5.04-.62-.55-1.45-.75-2.26-.94-2.69-.64-5.9-1.13-7.86.81-.78.77-1.21,1.82-1.57,2.85-.98,2.9-1.47,5.96-1.43,9.02.13-1.42-.06-2.86-.55-4.2-2.15-.33-4.65-.56-6.21.95-.67.65-1.06,1.53-1.41,2.4-2.13,5.37-3.16,11.17-3.03,16.95"/>
        <path class="cls-12" d="M828.43,123.73c3.75-4.5,4.69-10.6,6.11-16.28s5.9-19.74,11.17-22.29c1.43-.69,3.06-1.08,4.61-.74,3.31.74,5.09,4.63,4.75,8.01-.33,3.38-4.18,14.39-5.79,17.37-4.86,9.01-8.74,29-9.79,39.18"/>
      </g>
    </g>
    <g id="TinyAnteater">
      <g>
        <path class="cls-16" d="M57.74,387.83c-1.31,18.65-4.86,29.35-5.12,48.05,18.84-.72,37.21,4.59,55.05-1.51-6.73-3.08-8.57-8.91-15.5-11.48,29.07-1.08,67.95,13,95.1,2.58,5.07-1.95,10.26-4.17,13.95-8.16s5.49-10.23,2.86-14.99c16.24-5.13,33.41-4.25,50.41-5.34,9.36-.6,48.11-23.7,54-31,11.01-13.64,22.79-51.56,21-69-1.65-16.14-10.91-36.56-20-50"/>
        <path class="cls-18" d="M56.24,387.83c-1.15,16.1-4.87,31.87-5.12,48.05-.01.79.7,1.53,1.5,1.5,18.48-.65,37.42,4.49,55.45-1.57,1.11-.37,1.61-2.15.36-2.74-3.08-1.45-5.37-3.72-7.76-6.08s-4.93-4.33-8.1-5.55l-.4,2.95c17.38-.61,34.64,3.27,51.83,5.22,8.66.98,17.44,1.63,26.15.96,8.29-.63,16.26-2.65,23.75-6.29,4.4-2.14,8.64-5.15,10.98-9.57,2.17-4.09,2.69-8.96.49-13.15l-.9,2.2c11.14-3.47,22.8-4.18,34.39-4.61,5.34-.2,10.8-.11,16.11-.72,2.02-.23,3.97-.92,5.85-1.65,5.89-2.27,11.53-5.23,17.04-8.27,6.27-3.46,12.42-7.15,18.39-11.11,4.3-2.85,8.89-5.78,12.51-9.5,1.83-1.88,3.28-4.19,4.62-6.43,1.88-3.15,3.52-6.44,5.01-9.79,3.45-7.74,6.24-15.79,8.45-23.97,2.06-7.61,3.71-15.44,4.21-23.33s-1.25-16.41-3.78-24.23c-3.17-9.8-7.55-19.28-12.81-28.13-1.17-1.97-2.4-3.91-3.68-5.81-1.07-1.59-3.67-.09-2.59,1.51,5.51,8.18,10.09,17.05,13.69,26.23,3.2,8.18,6.1,17.1,6.28,25.96.14,7.27-1.21,14.58-2.86,21.63-1.91,8.15-4.42,16.17-7.53,23.94-2.6,6.49-5.59,13.12-9.82,18.73-2.65,3.52-6.65,6.09-10.23,8.56-10.96,7.57-22.69,14.57-34.89,19.93-2.08.91-4.2,1.78-6.39,2.37-.4.11-.8.2-1.2.28-.62.12-.32.07-1.01.12-2.86.2-5.73.31-8.6.42-11.34.43-22.77.62-33.93,2.9-2.71.55-5.39,1.24-8.03,2.07-.95.3-1.36,1.33-.9,2.2,1.85,3.53,1.01,7.74-1,11.02-2.24,3.64-6.02,6-9.8,7.79-7.22,3.42-14.9,5.25-22.86,5.75-16.76,1.07-33.5-2.19-50.04-4.38-8.91-1.18-17.91-2.19-26.91-1.87-1.76.06-1.94,2.35-.4,2.95,3.03,1.17,5.3,3.31,7.56,5.56s4.65,4.39,7.59,5.77l.36-2.74c-17.73,5.96-36.47.82-54.65,1.46l1.5,1.5c.25-16.18,3.97-31.95,5.12-48.05.14-1.93-2.86-1.92-3,0h0Z"/>
      </g>
      <g>
        <path class="cls-18" d="M134.24,341.49c-36.58-40.15-67-85.67-93.74-132.95,6.92-5.13,16.26-6.1,24.69-4.32,8.42,1.78,16.11,6.03,23.41,10.59,16.2,10.14,31.62,21.76,44.68,35.7,9.81,10.47,36.11,47.47,34.93,72.09s-8,22.08-14.69,22.67-13,3.1-19.27-3.78Z"/>
        <path class="cls-18" d="M135.3,340.42c-14.27-15.68-27.63-32.17-40.17-49.27-12.45-16.98-24.1-34.53-35.12-52.46-6.26-10.19-12.32-20.51-18.21-30.92l-.54,2.05c7.93-5.77,18.31-5.93,27.4-3.17,10,3.04,18.98,9.1,27.58,14.89s16.94,12.09,24.69,19.02c5.63,5.03,11.05,10.35,15.78,16.25,9.11,11.38,17.05,24.05,23.02,37.35,3.04,6.79,5.64,13.98,6.64,21.38.52,3.84.38,7.66.03,11.51s-.82,7.39-2.1,10.85c-.37,1.01-.86,1.98-1.47,2.87-.18.26-.35.48-.66.8s-.71.65-.81.73c-.78.54-1.03.64-1.77.86-.34.1-.68.18-1.03.25-.61.11-.33.07-.85.12-1.69.14-3.38.14-5.06.33-3.88.43-7.98,1.5-11.83.32-2.2-.67-3.98-2.09-5.52-3.75-1.32-1.41-3.44.71-2.12,2.12,3.27,3.5,7.4,5.32,12.2,5.14,3.3-.12,6.53-.88,9.83-1.02,3.49-.15,6.95-.49,9.39-3.31,1.75-2.02,2.71-4.61,3.37-7.16,1.12-4.34,1.5-8.9,1.72-13.36.37-7.49-1.51-14.99-4.03-21.99-5.42-15.04-13.95-29.1-23.51-41.86-10.56-14.09-24.08-25.67-38.36-35.85-4.47-3.19-9.04-6.23-13.68-9.15s-9.28-5.66-14.26-7.83c-9.3-4.04-20.03-5.99-29.78-2.3-2.25.85-4.37,1.97-6.32,3.38-.66.48-.97,1.29-.54,2.05,10.48,18.52,21.49,36.74,33.23,54.48,11.72,17.71,24.16,34.96,37.46,51.52,7.48,9.32,15.24,18.41,23.28,27.25,1.3,1.43,3.42-.7,2.12-2.12Z"/>
      </g>
      <g>
        <path class="cls-13" d="M188.49,215.97c24-20,41.92-29.49,65-47,8-6.07,25.81-16.39,35.73-17.97,1.69-.27,3.46-.35,5.1.15,6.71,2.06,5.91,16.04,3.86,22.75-8.54,28.01-22.49,48.52-35.12,74.94"/>
        <path class="cls-13" d="M189.56,217.03c12.78-10.63,26.41-20.04,40.15-29.36,6.68-4.53,13.33-9.1,19.83-13.88,5.38-3.95,10.68-7.83,16.46-11.19s11.98-6.65,18.43-8.81c2.82-.95,6.32-2.1,9.29-1.25,2.11.61,3.13,2.65,3.69,4.63,1.43,5.06.87,11.01-.57,16.01-2.36,8.2-5.58,16.19-9.11,23.95-6.97,15.33-15.49,29.89-23.02,44.95-1,2-1.98,4-2.94,6.01-.83,1.73,1.76,3.26,2.59,1.51,7.62-15.9,16.58-31.12,24.14-47.05,3.78-7.96,7.18-16.12,9.94-24.49,1.97-5.97,3.27-12.12,2.48-18.43-.33-2.66-1.01-5.41-2.73-7.54-2.1-2.59-5.38-3.05-8.54-2.65-6.35.81-12.5,3.84-18.14,6.73-6.03,3.09-11.93,6.56-17.43,10.53-6.68,4.82-13.25,9.75-20.05,14.42-13.84,9.5-27.83,18.73-40.96,29.21-1.89,1.51-3.77,3.05-5.63,4.6-1.49,1.24.65,3.35,2.12,2.12h0Z"/>
      </g>
      <g>
        <path class="cls-14" d="M109.8,326.49c-2.84-26.71,8.65-54.52,29.52-71.43,6.83-5.53,12.51-12.92,19.56-18.17,13.94-10.4,27.37-21.17,42.45-29.84,18.96-10.9,41.97-15.53,62.23-7.28,11.66,4.75,22.71,13.81,31.04,23.25,8.32,9.45,14.44,25.45,14.68,38.04.19,9.87-4.79,23.06-10.76,30.92-5.97,7.86-18.25,16.89-26,23-10.38,8.18-26.52,17.22-32.84,20.59-25.16,13.41-48.55,18.6-82.45,14.66-13.11-1.52-26.51-5.54-35.99-14.72s-13.88-24.48-7.57-36.07"/>
        <path class="cls-14" d="M111.3,326.49c-1.86-17.88,2.63-36.1,12.19-51.28,2.36-3.75,5.02-7.3,7.97-10.6s6.42-6.36,9.89-9.31c3.85-3.26,7.28-6.98,10.86-10.53s7.59-6.72,11.69-9.81c8.57-6.46,17.07-13.01,25.98-19s17.56-11.2,27.41-14.63c9.25-3.22,19.08-4.85,28.88-4.12s19.18,4.21,27.51,9.55c4.3,2.76,8.32,5.93,12.08,9.38,3.43,3.14,6.84,6.5,9.64,10.22,5.4,7.16,9.06,15.76,11.03,24.49.93,4.12,1.51,8.39,1.26,12.63-.27,4.5-1.4,8.95-2.9,13.18s-3.44,8.33-5.89,12.09c-2.25,3.46-5.09,6.45-8.1,9.26-6.51,6.1-13.68,11.6-20.8,16.97s-14.69,9.97-22.36,14.39c-13.96,8.04-28.5,14.91-44.37,18.17-8.69,1.79-17.56,2.51-26.42,2.44-9.89-.07-20.04-.76-29.69-3.02-9.06-2.12-17.97-5.89-24.77-12.41-6.09-5.84-10.1-14.19-10.22-22.69-.06-4.08.82-8.1,2.75-11.71.91-1.7-1.68-3.22-2.59-1.51-4.2,7.86-3.93,17.23-.6,25.35,3.58,8.74,10.32,15.47,18.57,19.93s18.34,6.83,28.04,7.91,20.32,1.54,30.47.74c17.98-1.41,34.99-6.98,50.89-15.37,6.9-3.64,13.65-7.57,20.24-11.73,7.67-4.85,14.82-10.34,21.93-15.97,7.12-5.64,14.61-11.54,19.61-19.23,5.01-7.7,8.47-17.06,9.16-26.25s-1.98-18.46-5.55-26.7c-1.83-4.23-4.06-8.31-6.79-12.03s-6.28-7.39-9.8-10.67c-7.51-7.01-16.13-13.12-25.78-16.79s-19.77-4.51-29.76-3.26c-10.16,1.27-19.98,4.57-29.04,9.31-9.75,5.09-18.81,11.53-27.65,18.04-4.54,3.35-9.03,6.77-13.53,10.16-4.25,3.2-8.41,6.36-12.21,10.1s-7.21,7.47-11.16,10.85c-3.57,3.05-7.05,6.08-10.18,9.59-12.36,13.87-19.9,31.87-21.17,50.4-.31,4.48-.22,8.99.25,13.45.2,1.9,3.2,1.92,3,0h0Z"/>
      </g>
      <g>
        <path class="cls-14" d="M290.49,299.97c21.04-19.77,43.63-42.59,65-62,7.13-6.47,18.89-19.29,25.61-26.18,3.22-3.3,6.19-7,7.62-11.38s1.09-9.55-1.82-13.12c-5.69-6.99-16.75-4.46-25.2-1.3-25.83,9.65-51.66,19.29-77.49,28.94"/>
        <path class="cls-14" d="M291.56,301.03c13.78-12.95,27.25-26.24,40.89-39.35,12.12-11.65,24.76-22.76,36.4-34.88,4.98-5.18,10.1-10.29,14.9-15.63,5.31-5.9,9.53-14.13,6.02-22.04-3.11-7.02-10.92-8.45-17.79-7.47-3.54.5-6.99,1.53-10.34,2.77-4.71,1.73-9.39,3.51-14.09,5.26-18.9,7.06-37.81,14.12-56.71,21.18-2.33.87-4.67,1.74-7,2.62-1.79.67-1.02,3.57.8,2.89,18.28-6.83,36.56-13.66,54.85-20.49,4.59-1.71,9.18-3.43,13.77-5.14,4.05-1.51,8.07-3.15,12.19-4.46,5.77-1.83,13.9-3.76,19.03.64,2.88,2.46,3.87,6.23,3.51,9.9-.4,4.03-2.57,7.72-5.11,10.79-2.14,2.59-4.59,4.94-6.91,7.37-2.5,2.63-5,5.26-7.5,7.88-4.78,5-9.57,9.99-14.69,14.65-6.71,6.11-13.32,12.34-19.88,18.62-13.28,12.71-26.36,25.62-39.69,38.27-1.59,1.51-3.17,3.01-4.77,4.5-1.41,1.32.71,3.44,2.12,2.12h0Z"/>
      </g>
      <g>
        <path class="cls-17" d="M298.49,291.97c.52-.68,1.03-1.42,1.53-2.17-.24-.75-.5-1.49-.76-2.21-14.77-40.61-34.54-53.11-56.77-66.61-6.17-3.75-18.81-6.91-25.69-9.1-5.98-1.9-12.22-2.9-18.49-3.03-13.87,8.34-26.44,18.34-39.44,28.04-1.14.85-2.24,1.78-3.33,2.73,7.15,3.13,14.8,5.54,20.16,7.28,10.91,3.54,21.46,4.5,32.92,4.13-.63,4.34,2.21,9.74,5.36,12.78s7.15,5.01,10.93,7.23c20.19,11.91,31.29,28.72,38.27,50.59,3.32-2.2,6.53-4.46,9.32-6.65,7.75-6.11,20.03-15.14,26-23Z"/>
        <path class="cls-1" d="M299.79,292.73c.51-.68,1.16-1.41,1.53-2.17.46-.96-.12-2-.45-2.93-.66-1.86-1.37-3.71-2.1-5.54-1.35-3.39-2.79-6.75-4.37-10.04-2.74-5.74-5.86-11.3-9.48-16.53-5.95-8.6-13.21-16.1-21.49-22.47-3.79-2.92-7.75-5.61-11.79-8.18s-8.37-5.5-12.95-7.44c-5.79-2.45-11.87-4.12-17.89-5.9-3.23-.96-6.43-2.02-9.74-2.72-3.88-.82-7.85-1.3-11.81-1.44-1.16-.04-1.72.19-2.7.79-.87.53-1.74,1.07-2.6,1.61-1.72,1.09-3.43,2.2-5.12,3.33-3.38,2.26-6.7,4.6-9.99,6.99-6.6,4.79-13.06,9.76-19.59,14.65-1.63,1.22-3.23,2.47-4.77,3.81-.67.58-.56,1.98.3,2.36,4.31,1.87,8.72,3.51,13.17,5.02,4.07,1.38,8.17,2.79,12.33,3.86,9.25,2.38,18.82,3.03,28.34,2.74l-1.5-1.5c-.77,6.28,3.58,12.41,8.35,15.99,2.72,2.04,5.75,3.6,8.68,5.32,2.63,1.55,5.19,3.24,7.64,5.06,9.27,6.87,16.73,15.81,22.17,25.95,3.2,5.96,5.7,12.25,7.76,18.69.28.87,1.36,1.45,2.2.9,6.73-4.46,13.07-9.48,19.36-14.53,5.9-4.72,11.87-9.64,16.49-15.67,1.17-1.53-1.43-3.03-2.59-1.51-4.44,5.79-10.36,10.52-16.02,15.06-6.1,4.88-12.24,9.74-18.76,14.06l2.2.9c-3.58-11.16-8.52-21.93-15.72-31.23-3.48-4.5-7.43-8.61-11.81-12.24-4.83-4-10.08-7.2-15.48-10.35-3.15-1.83-6.33-3.86-8.48-6.88-1.95-2.74-3.43-6.09-3.01-9.51.1-.79-.77-1.52-1.5-1.5-9.27.28-18.54-.32-27.54-2.63-4.03-1.03-7.99-2.39-11.93-3.72-4.34-1.46-8.65-3.02-12.85-4.85l.3,2.36c3-2.61,6.26-4.91,9.44-7.31s6.25-4.73,9.4-7.06c6.28-4.67,12.63-9.23,19.23-13.43.66-.42,1.32-.84,1.99-1.25s1.4-1.06,2.12-1.26c.77-.21,2.02.08,2.82.14,1.09.08,2.19.18,3.27.31,3.91.47,7.77,1.34,11.53,2.52,5.55,1.74,11.17,3.23,16.66,5.15,2.53.89,5.06,1.84,7.44,3.1,2.05,1.09,4.01,2.38,5.99,3.61,3.91,2.42,7.78,4.9,11.52,7.56,7.81,5.57,14.91,12.05,20.85,19.59,8.78,11.13,15.31,24.42,19.7,37.86l.15-1.16c-.49.74-1,1.46-1.53,2.17-1.16,1.55,1.45,3.04,2.59,1.51Z"/>
      </g>
      <g>
        <path class="cls-6" d="M244.47,305.97c1,2.02,1.1,4.62,2.91,5.96,3.51,2.61,9.12-.93,12.69,1.58-3.65-12.65-7.85-26.16-18.22-34.27-6.4-5.01-12.75-7.88-19.54-12.35s-14.69-10.79-14.39-18.91c-15.17,2.22-32.88-2.18-50.44-9.99-4.05,3.25-7.7,7.12-11.43,10.85,7.85,4.25,15.34,7.35,26.44,10.13,8,2,23,2,23,2,0,0,11.97,12.37,14,14,7.87,6.29,12.4,9.38,20,16,7.6,6.62,12,9,14.97,15Z"/>
        <path class="cls-6" d="M243.17,306.72c.75,1.61.97,3.45,1.97,4.96s2.59,2.38,4.36,2.64c3.09.45,7.04-1.33,9.81.48,1.11.72,2.56-.47,2.2-1.69-3.03-10.49-6.33-21.41-13.46-29.93-7.86-9.38-20.07-13.42-29.54-20.81-4.5-3.52-9.23-8.26-9.09-14.39.02-1.07-.97-1.58-1.9-1.45-16.78,2.39-34.11-3.12-49.28-9.83-.68-.3-1.25-.23-1.82.23-4.09,3.31-7.71,7.13-11.43,10.85-.66.66-.55,1.89.3,2.36,7.32,3.95,14.99,7.05,23.01,9.28,7.01,1.95,14.11,2.65,21.37,2.92,1.94.07,3.88.13,5.82.13l-1.06-.44c4.1,4.23,8.18,8.49,12.44,12.57,3.31,3.17,7.16,5.81,10.77,8.61,4.88,3.78,9.52,7.84,14.28,11.76,4.23,3.49,8.72,6.74,11.25,11.75.87,1.72,3.46.21,2.59-1.51-1.84-3.65-4.64-6.49-7.75-9.09-4.17-3.5-8.31-7.04-12.53-10.49-6.15-5.03-12.82-9.48-18.48-15.09-2.32-2.3-4.61-4.64-6.9-6.98-.88-.9-1.76-1.81-2.64-2.72-.41-.42-.84-1.02-1.4-1.25-.6-.25-1.45-.13-2.09-.14-1.48-.02-2.97-.06-4.45-.12-4.08-.16-8.17-.4-12.21-.98-5.44-.78-10.81-2.44-15.98-4.27s-9.85-4.01-14.53-6.54l.3,2.36c3.71-3.72,7.34-7.54,11.43-10.85l-1.82.23c16.01,7.09,33.91,12.66,51.59,10.14l-1.9-1.45c-.12,5.46,2.99,10.14,6.8,13.78,4.2,4.02,9.23,7.13,14.22,10.06,5.44,3.19,11.2,6.22,15.79,10.61,3.99,3.81,6.91,8.55,9.19,13.54,2.64,5.76,4.44,11.88,6.2,17.95l2.2-1.69c-2.86-1.87-6.18-.88-9.34-.78-1.44.05-2.98-.11-3.85-1.41-.93-1.41-1.16-3.29-1.88-4.82-.82-1.75-3.4-.23-2.59,1.51Z"/>
      </g>
      <path class="cls-12" d="M179.93,349.34c52.87,12.45,107.44,16.91,161.75,17.3,1.12-8.54-2.57-17.18-8.22-23.67s-13.1-11.15-20.64-15.31c-16.73-9.23-34.38-17.06-52.91-21.7-13.91-3.48-59.04-8.48-79.98,4.52s-15.41,17.72-12.67,23.86,3.61,12.87,12.67,15.01Z"/>
      <g>
        <path class="cls-12" d="M34.97,347.27c-4.94-10.3-20.92-12.77-28.87-4.57s-5.17,23.91,5.04,29.04,24.34-1.76,26.76-12.93"/>
        <path class="cls-12" d="M36.26,346.51c-6.42-13.05-27.9-13.89-34.33-.42-3.05,6.39-2.41,14.32,1.33,20.29,3.99,6.37,11.11,9.43,18.49,8.34,8.16-1.22,15.73-7.3,17.59-15.5.43-1.88-2.46-2.68-2.89-.8-2.86,12.58-20.82,18.6-29.44,8.08-3.79-4.63-5-11.37-3.2-17.05s7.1-9.63,13.14-10.09c6.67-.52,13.68,2.49,16.73,8.67.85,1.73,3.44.21,2.59-1.51h0Z"/>
      </g>
      <g>
        <path class="cls-12" d="M73.99,395.65c-31.43-15.5-49.3-48.72-46.09-83.62,3.14-34.17,25.98-62.86,47.85-89.3,40.94-49.5,81.88-98.99,122.82-148.49,4.32-5.22,9.41-10.86,16.16-11.32,8.41-.58,15.33,7.72,16.25,16.1s-2.54,16.57-6.19,24.16c-19.32,40.19-46.74,78.49-50.29,122.94-2.03,25.47,14.07,50.79,17.48,76.11,3.41,25.33-1.51,48.47-15.5,69.86-13.99,21.38-41.74,32.52-67.29,32.11-13.7-.22-25.71-3.86-35.21-8.54Z"/>
        <path class="cls-12" d="M74.74,394.36c-21.57-10.72-37.44-30.52-43.24-53.9-2.99-12.07-3.25-24.76-.88-36.96,2.63-13.53,8.29-26.22,15.32-38.01s15.7-23.12,24.51-33.96c9.98-12.28,20.14-24.4,30.22-36.59,21.05-25.45,42.1-50.89,63.15-76.34,10.49-12.68,20.98-25.36,31.46-38.04,4.28-5.17,8.52-11.55,14.64-14.71,5.76-2.98,11.93-.83,15.78,4.1,9.37,12,.07,28.14-5.69,39.55-6.39,12.68-13.33,25.07-19.92,37.65-12.91,24.63-24.79,50.62-27.07,78.7-1.15,14.19,3.11,28.08,7.59,41.37s9.52,27.45,10.6,42.09c1.01,13.72-.6,27.51-5.22,40.49s-11.13,24.43-20.94,33.23c-18.98,17.03-47.48,23.28-72.13,17.75-6.29-1.41-12.4-3.56-18.19-6.4-1.73-.85-3.25,1.74-1.51,2.59,24.13,11.81,52.94,11.42,76.99-.43,11.19-5.52,21.07-13.66,27.88-24.18,7.71-11.9,13.07-25.31,15.22-39.34,2.17-14.14,1.38-28.74-2.19-42.59-3.74-14.5-9.86-28.28-13.2-42.89-1.65-7.22-2.5-14.58-1.88-21.98s1.86-14.2,3.6-21.14c3.54-14.07,9.08-27.54,15.37-40.59s13.51-26.07,20.41-39.03c3.48-6.54,6.91-13.12,10.14-19.79s6.41-13.6,6.97-21.09c.49-6.42-1.44-12.85-5.99-17.52-4.16-4.27-10.22-6.19-15.95-4.1-6.36,2.32-10.68,7.97-14.84,13-5.42,6.56-10.85,13.12-16.27,19.68-21.7,26.23-43.4,52.47-65.1,78.7-10.85,13.12-21.7,26.23-32.55,39.35-9.49,11.48-19.13,22.87-27.87,34.95-16.15,22.33-29.23,48.1-27.85,76.37,1.19,24.35,12.71,47.72,31.86,62.93,4.73,3.76,9.83,7,15.24,9.69,1.72.86,3.25-1.73,1.51-2.59Z"/>
      </g>
      <g>
        <path class="cls-12" d="M118.04,399.47c-4.54,3.47-7.2,9.29-6.84,15s3.7,11.15,8.64,14.04c7.86,4.59,18.14,2.36,25.83-2.51,4.41-2.79,8.54-6.77,9.48-11.91,1.04-5.69-2.02-11.24-4.97-16.21-2.95-4.98-5.98-10.06-10.37-13.83"/>
        <path class="cls-4" d="M116.98,398.4c-5.9,4.62-8.65,12.69-6.64,19.94s8.09,12.67,15.46,13.85,15.65-1.38,21.9-5.75c3.01-2.11,5.84-4.73,7.52-8.04,1.85-3.64,2-7.72.86-11.61-1.36-4.64-4.07-8.86-6.59-12.95s-5.12-7.79-8.63-10.86c-1.45-1.27-3.58.85-2.12,2.12,2.73,2.39,4.95,5.23,6.92,8.27s4.05,6.43,5.74,9.8,3.01,7.14,2.22,10.89c-.68,3.21-2.73,5.85-5.14,7.99-4.99,4.42-11.91,7.38-18.61,7.46-6.68.08-12.74-3.27-15.67-9.36-3.29-6.83-.97-15.02,4.9-19.62,1.52-1.19-.62-3.3-2.12-2.12h0Z"/>
      </g>
      <g>
        <path class="cls-2" d="M139.07,295.37c4.01,4.9,4.67,12.28,1.59,17.81-.92,1.65-2.37,3.26-4.26,3.35-2.11.1-3.87-1.85-4.31-3.91s-.72-4.14-.25-6.2c.3-1.29,1.59-5.46,2.52-7.49s3.27-4.15,4.69-3.56Z"/>
        <path class="cls-2" d="M138.01,296.44c3.64,4.54,4.19,11.59,1.03,16.54-.68,1.06-1.85,2.36-3.26,2s-2.05-1.85-2.32-3.14c-.35-1.69-.54-3.45-.13-5.15.27-1.12.63-2.23.99-3.33.44-1.36.87-2.8,1.55-4.06.39-.72,1.77-2.81,2.79-2.47,1.84.6,2.63-2.29.8-2.89s-3.6.66-4.76,1.91c-1.27,1.37-1.97,3.01-2.6,4.74-.58,1.58-1.1,3.18-1.54,4.81-.56,2.09-.52,4.15-.18,6.27s1.06,4.01,2.81,5.32,3.88,1.37,5.69.31c3.41-2,4.83-6.71,5.14-10.4.37-4.53-1.08-9.03-3.91-12.57-.51-.64-1.59-.52-2.12,0-.63.62-.5,1.49,0,2.12Z"/>
      </g>
      <g>
        <path class="cls-2" d="M59.92,274.21c-2.52-1.76-6.15,2.09-7.96,4.57s-2.2,5.69-2.54,8.74c-.11.96-.2,2,.29,2.84,1.02,1.74,3.69,1.38,5.38.28,3.87-2.53,6.45-12.1,4.83-16.43"/>
        <path class="cls-2" d="M60.68,272.92c-3.27-2.12-6.93,1.31-8.9,3.68-1.33,1.6-2.33,3.29-2.91,5.3s-.91,4.31-1.02,6.44.85,4.01,2.93,4.58c1.69.46,3.69-.04,5.12-1.01,2.55-1.73,3.98-4.84,4.89-7.68,1.02-3.18,1.74-7.16.57-10.4-.27-.76-1.02-1.27-1.85-1.05-.74.2-1.32,1.08-1.05,1.85.75,2.07.49,4.51-.01,6.75s-1.41,4.85-2.81,6.68c-.69.91-1.3,1.48-2.36,1.82-.9.29-2.16.47-2.41-.62-.16-.71.02-1.54.11-2.26.1-.86.21-1.73.38-2.58.31-1.64.79-3.25,1.74-4.64.87-1.28,1.98-2.5,3.19-3.46.49-.39,1.06-.77,1.66-.94.51-.15.74-.15,1.21.15,1.62,1.06,3.13-1.54,1.51-2.59h0Z"/>
      </g>
    </g>
  </g>
</svg>