<?xml version="1.0" encoding="UTF-8"?>
<svg id="Layer_2" data-name="Layer 2" xmlns="http://www.w3.org/2000/svg" viewBox="0 0 1921.4 2002.57">
  <defs>
    <style>
      .cls-1 {
        fill: #3d0f4c;
      }

      .cls-1, .cls-2 {
        stroke-width: 0px;
      }

      .cls-2 {
        fill: #31053b;
      }
    </style>
  </defs>
  <g id="TreesForeground">
    <g>
      <g>
        <path class="cls-2" d="M1704.66,961.34c8.49,3.97,16.98,7.95,25.47,11.92l2.82.23c-7.05-8.05-17.73-12.63-28.3-12.15Z"/>
        <path class="cls-2" d="M1703.9,962.63c5.66,2.65,11.32,5.3,16.98,7.95,2.76,1.29,5.5,2.62,8.27,3.87,1.14.52,2.56.44,3.8.54,1.39.11,1.85-1.67,1.06-2.56-7.33-8.27-18.29-13.03-29.36-12.59-1.92.08-1.93,3.08,0,3,10.33-.41,20.39,3.99,27.24,11.71l1.06-2.56-1.54-.12c-.32-.03-.65-.03-.97-.08-.09-.01-.2,0-.29-.02.5.17,0-.12-.16-.22-2.63-1.47-5.54-2.59-8.27-3.87-5.44-2.55-10.87-5.09-16.31-7.64-1.74-.81-3.26,1.77-1.51,2.59Z"/>
      </g>
      <g>
        <path class="cls-2" d="M1919.75,1100.57c-19.93-4.47-39.99-8.32-60.15-11.54,10.35-14.33,27.59-23.18,45.01-23.1-14.39-9.63-30.01-17.36-46.33-22.96.24-2.2-.14-4.52-1.18-6.43-2.72-4.97-8.12-7.65-13.19-10.02-37.93-17.76-75.86-35.51-113.78-53.27l-5.16-.42c36.14,20.3,46,68.13,49.09,110.15,3.47,47.24,3.24,94.77-.69,141.98,18.58-25.82,30.78-56.4,35.15-88.13,26.53,52.71,12.28,111.83,7.89,143.61s-24.65,76.32-54.16,127.42c54.89,3,76.11-15.04,102.96-28.58-19.53,74.45-62.28,142.37-120.49,191.45,40.67-5.89,81.34-11.78,122.01-17.67-62.61,94.53-128.02,187.12-196.12,277.61,30.34-.16,59.35-11.9,87.51-23.47-6.87,11.07-13.74,22.14-20.61,33.21,8.23-2.53,16.47-5.06,24.7-7.6-3.93,9.98-7.85,19.96-11.78,29.94,38.16-22.88,76.33-45.76,114.49-68.64-9.42,38.71-30.35,74.42-59.3,101.2,34.19-5.5,66.69-21.63,92.06-45.7-7.8,31.86-4.58,66.41,8.96,96.18,4.34-1.44,8.71-2.76,13.11-3.98v-841.25Z"/>
        <path class="cls-2" d="M1920.14,1099.13c-19.93-4.45-39.98-8.3-60.15-11.54l.9,2.2c10.3-13.84,26.46-22.18,43.72-22.36,1.54-.02,1.97-1.99.76-2.8-14.56-9.65-30.19-17.37-46.69-23.11l1.1,1.45c.46-12.33-12.89-16.7-22.11-21.02-13.71-6.42-27.42-12.84-41.14-19.26s-27.42-12.84-41.14-19.26c-7-3.28-14-6.56-21.01-9.83-3.5-1.64-5.63-1.95-9.42-2.26-1.52-.12-1.99,2.09-.76,2.8,26.22,15.06,37.98,44.35,43.66,72.69,3.15,15.72,4.49,31.68,5.46,47.66,1.24,20.45,1.79,40.94,1.65,61.43-.16,23.05-1.22,46.09-3.11,69.06-.13,1.62,2.02,1.85,2.8.76,18.69-26.22,30.77-56.62,35.3-88.49l-2.74.36c17.82,35.99,17.52,76.44,11.91,115.31-1.96,13.62-3.58,27.57-6.86,40.94-4.12,16.8-10.57,33.01-17.67,48.75-9.98,22.12-21.54,43.5-33.65,64.51-.59,1.02.17,2.2,1.3,2.26,21.15,1.07,42.44-.65,62.39-8.14,14.49-5.44,27.57-13.67,41.33-20.64l-2.2-1.69c-15.27,57.69-44.21,111.55-84.14,155.93-11.18,12.43-23.21,24.05-35.97,34.86-1.28,1.09.16,2.7,1.46,2.51,40.67-5.89,81.34-11.78,122.01-17.67l-1.69-2.2c-48.68,73.48-99.06,145.84-151.12,216.97-14.86,20.31-29.87,40.52-45,60.63-.7.93.25,2.27,1.3,2.26,30.87-.39,59.76-11.97,87.91-23.52l-1.69-2.2c-6.87,11.07-13.74,22.14-20.61,33.21-.68,1.1.45,2.59,1.69,2.2,8.23-2.53,16.47-5.06,24.7-7.6l-1.85-1.85c-3.93,9.98-7.85,19.96-11.78,29.94-.49,1.26,1.16,2.32,2.2,1.69,38.16-22.88,76.33-45.76,114.49-68.64l-2.2-1.69c-9.51,38.42-29.96,73.53-58.92,100.54-1.19,1.11.1,2.73,1.46,2.51,34.75-5.76,67.07-21.98,92.72-46.09l-2.51-1.46c-7.75,32.52-4.55,66.82,9.11,97.33.26.57,1.12.88,1.69.69,4.34-1.43,8.71-2.75,13.11-3.98.63-.18,1.1-.78,1.1-1.45v-807.05c0-10.91.34-21.88,0-32.78-.01-.47,0-.95,0-1.42,0-1.93-3-1.93-3,0v828.63c0,3.6-.51,7.63,0,11.2.06.45,0,.96,0,1.42l1.1-1.45c-4.4,1.24-8.77,2.56-13.11,3.98l1.69.69c-13.31-29.74-16.36-63.34-8.81-95.02.35-1.46-1.4-2.5-2.51-1.46-25.3,23.78-57.13,39.63-91.4,45.31l1.46,2.51c29.31-27.34,50.06-62.97,59.69-101.86.31-1.25-1.05-2.38-2.2-1.69-38.16,22.88-76.33,45.76-114.49,68.64l2.2,1.69c3.93-9.98,7.85-19.96,11.78-29.94.42-1.08-.83-2.16-1.85-1.85-8.23,2.53-16.47,5.06-24.7,7.6l1.69,2.2c6.87-11.07,13.74-22.14,20.61-33.21.64-1.03-.45-2.71-1.69-2.2-27.89,11.45-56.52,23.03-87.11,23.41l1.3,2.26c52.98-70.42,104.33-142.06,153.97-214.88,14.19-20.82,28.24-41.73,42.15-62.73.81-1.22-.52-2.37-1.69-2.2-40.67,5.89-81.34,11.78-122.01,17.67l1.46,2.51c45.44-38.48,81.22-87.85,104.16-142.77,6.7-16.04,12.26-32.53,16.71-49.34.35-1.32-1.06-2.28-2.2-1.69-13.51,6.85-26.37,14.99-40.61,20.34-19.72,7.4-40.69,9.1-61.6,8.04l1.3,2.26c19.96-34.63,40.05-71.04,50.56-109.87,3.75-13.86,5.43-28.31,7.54-42.49,2.64-17.77,4.48-35.7,3.93-53.68-.71-23.05-5.5-45.76-15.76-66.5-.54-1.08-2.56-.92-2.74.36-4.5,31.64-16.44,61.74-35,87.77l2.8.76c3.52-42.76,4.09-85.74,1.58-128.57-1.79-30.57-4.71-62.61-18.89-90.31-7.3-14.26-17.85-26.53-31.82-34.55l-.76,2.8c4.17.34,6.65,1.26,10.53,3.08,6.13,2.87,12.25,5.74,18.38,8.6,12.25,5.74,24.51,11.47,36.76,17.21s23.92,11.2,35.89,16.8c5.97,2.79,11.97,5.52,17.9,8.39s12.65,6.69,12.35,14.55c-.03.69.49,1.23,1.1,1.45,16.25,5.65,31.63,13.3,45.97,22.81l.76-2.8c-18.39.19-35.37,9.14-46.31,23.84-.54.73,0,2.06.9,2.2,20.16,3.24,40.21,7.09,60.15,11.54,1.88.42,2.68-2.47.8-2.89Z"/>
      </g>
    </g>
    <g>
      <g>
        <path class="cls-2" d="M18.93,1919.61c-6.15-4.43-12.06-9.79-17.18-15.76v56.98c27.47,4.16,54.87,13.49,81.86,7.67-15.91-22.05-42.62-32.98-64.68-48.88Z"/>
        <path class="cls-2" d="M19.69,1918.32c-6.21-4.5-11.87-9.72-16.88-15.53-.87-1.01-2.56-.17-2.56,1.06v56.98c0,.59.46,1.35,1.1,1.45,21.49,3.28,42.72,9.74,64.62,9.58,6.06-.04,12.11-.65,18.03-1.91.89-.19,1.45-1.44.9-2.2-12.75-17.56-32-28.21-50.07-39.42-5.14-3.19-10.23-6.46-15.15-10-1.57-1.13-3.07,1.47-1.51,2.59,17.11,12.31,36.64,21.31,52.4,35.48,4.33,3.89,8.32,8.16,11.74,12.87l.9-2.2c-21.06,4.48-42.48-.32-63.18-4.43-5.94-1.18-11.89-2.32-17.88-3.23l1.1,1.45v-56.98l-2.56,1.06c5.18,6.01,11.07,11.35,17.49,16,1.57,1.13,3.06-1.47,1.51-2.59Z"/>
      </g>
      <g>
        <path class="cls-2" d="M231.87,1130.84c-14.1-34.46-24.05-70.61-29.58-107.42-12.29,24.06-30.76,44.4-52.04,61.03l33-22c-70.1,70.43-93.55,86.84-175.4,143.19,47.09-17.65,94.18-35.31,141.27-52.96-50.08,57.72-80.87,99.46-147.37,129.79v10.69c20.03,12.32,41.38,35.43,61.77,32.74-21.12,15.45-41.7,31.62-61.77,48.41v136.92c6.67.46,13.33,1.04,19.99,1.74-6.63,5.18-13.3,10.29-19.99,15.38v325.59c49.19,11.67,97.97,25.09,146.19,40.27-31.89-72.54-77.26-139.13-133.1-195.36,46.55-10.77,71.08,69.15,118.86,68.75-19.56-71.48-42.2-142.12-67.85-211.65,25.11,34.75,61.45,61.26,102.21,74.56-47.1-59.23-78.3-130.98-89.5-205.83,17.74,20.15,42.84,33.68,69.43,37.42-9.57-30.72-13.61-63.16-11.85-95.29,23.31,1.65,45.96,11.57,62.97,27.6-23.22-67.3-37.24-137.76-41.55-208.82,33.12,10.94,60.1,38.93,69.81,72.43-3.28-40.67-15.56-80.59-35.69-116.09,6.24,5.49,14.07,9.17,22.28,10.45-5.4-8.32-8.87-17.88-10.07-27.73,9.66-.75,19.53,1.43,27.98,6.19Z"/>
        <path class="cls-2" d="M233.32,1130.44c-14.05-34.52-23.98-70.58-29.58-107.42-.19-1.28-2.18-1.44-2.74-.36-12.4,23.99-30.67,44.11-51.81,60.73-1.33,1.05.41,3.3,1.82,2.36,11-7.33,22-14.67,33-22l-1.82-2.36c-21.57,21.66-43.41,43.12-66.62,63.03-19.79,16.98-40.67,32.57-61.95,47.63-15.41,10.9-30.97,21.59-46.52,32.29-1.3.9-.54,3.38,1.16,2.74,47.09-17.65,94.18-35.31,141.27-52.96l-1.46-2.51c-33.25,38.35-65.01,79.35-107.72,107.79-12.5,8.33-25.71,15.5-39.35,21.77-.47.21-.74.81-.74,1.3v5.76c0,1.39-.53,3.99.05,5.32.49,1.13,1.9,1.65,2.88,2.28,1.87,1.21,3.7,2.48,5.52,3.77,3.78,2.69,7.47,5.5,11.18,8.28,12.33,9.26,27.17,21.3,43.64,19.5l-.76-2.8c-12.23,8.96-24.29,18.14-36.17,27.56-6.11,4.84-12.17,9.74-18.19,14.69-2.34,1.93-7.4,4.64-8.15,7.64-.52,2.09,0,4.97,0,7.1v129.64c0,.85.69,1.44,1.5,1.5,6.67.47,13.34,1.05,19.99,1.74l-1.06-2.56c-3.43,2.68-6.88,5.35-10.33,8-1.33,1.02-2.67,2.05-4,3.07-1.53,1.17-4.19,2.53-5.35,4.08-.47.63-.6.93-.74,1.63-.25,1.24,0,2.8,0,4.05v307.07c0,4.38-.55,9.18,0,13.54.02.19,0,.4,0,.6,0,.64.46,1.29,1.1,1.45,49.19,11.69,97.96,25.11,146.19,40.27,1.37.43,2.18-1.1,1.69-2.2-24.96-56.59-57.96-109.51-97.8-156.82-11.31-13.43-23.18-26.37-35.53-38.85l-.66,2.51c19.2-4.22,35.13,8.03,48.14,20.64,13.78,13.34,26.03,28.9,42.35,39.32,8.44,5.39,17.88,8.83,27.97,8.85.98,0,1.7-.96,1.45-1.9-15.25-55.65-32.33-110.8-51.26-165.31-5.38-15.5-10.92-30.94-16.59-46.34l-2.74,1.16c25.58,35.13,61.83,61.62,103.1,75.25,1.57.52,2.3-1.45,1.46-2.51-36.57-46.15-63.54-99.71-78.92-156.55-4.33-16-7.71-32.23-10.19-48.62l-2.51,1.46c18.15,20.35,43.11,33.84,70.09,37.8,1.06.16,2.22-.64,1.85-1.85-9.47-30.71-13.45-62.79-11.79-94.89l-1.5,1.5c23.08,1.8,44.95,11.41,61.91,27.16,1.03.96,3.02.03,2.51-1.46-23.12-67.25-37.12-137.45-41.5-208.43l-1.9,1.45c32.78,11.06,58.92,38.23,68.76,71.39.46,1.56,3.09,1.35,2.95-.4-3.43-41.04-15.67-80.96-35.89-116.84l-2.36,1.82c6.63,5.65,14.35,9.35,22.94,10.84,1.2.21,2.45-1.01,1.69-2.2-5.21-8.23-8.58-17.31-9.87-26.97l-1.5,1.5c9.57-.59,18.79,1.41,27.22,5.98,1.7.92,3.21-1.67,1.51-2.59-8.89-4.81-18.65-7.01-28.74-6.39-.73.04-1.61.66-1.5,1.5,1.36,10.22,4.76,19.77,10.28,28.48l1.69-2.2c-8.07-1.4-15.38-4.75-21.62-10.07-1.26-1.07-3.23.27-2.36,1.82,19.95,35.41,32.1,74.82,35.48,115.33l2.95-.4c-10.15-34.2-37.07-62.08-70.86-73.48-.89-.3-1.96.51-1.9,1.45,3.41,55.23,12.53,110.07,27.35,163.39,4.28,15.42,9.06,30.7,14.26,45.84l2.51-1.46c-17.57-16.31-40.13-26.17-64.03-28.03-.84-.07-1.46.74-1.5,1.5-1.67,32.34,2.36,64.74,11.9,95.69l1.85-1.85c-26.53-3.9-50.92-17.01-68.77-37.03-1.1-1.24-2.71.13-2.51,1.46,8.91,58.84,29.93,115.71,61.43,166.21,8.71,13.96,18.23,27.39,28.45,40.28l1.46-2.51c-40.48-13.37-76.22-39.4-101.31-73.87-.92-1.26-3.38-.57-2.74,1.16,19.95,54.15,38.12,108.94,54.41,164.3,4.63,15.74,9.11,31.52,13.44,47.35l1.45-1.9c-20.08-.04-35.79-14.33-49.1-27.78s-25.68-29.1-42.77-37.43c-8.65-4.21-17.97-5.56-27.4-3.49-1.12.25-1.42,1.74-.66,2.51,43.35,43.76,80.4,93.6,109.72,147.78,8.36,15.44,16.06,31.22,23.15,47.28l1.69-2.2c-48.23-15.17-97-28.59-146.19-40.27l1.1,1.45v-323.4c0-2.57-.22-1.57,1.93-2.93,6.16-3.91,11.86-9.09,17.62-13.58,1.15-.89.06-2.44-1.06-2.56-6.65-.69-13.32-1.26-19.99-1.74l1.5,1.5v-134.89c0-.47-.21-1.58,0-2.01.08-.16.74.11.84-.03.76-1.03,2.23-1.86,3.21-2.67,1.5-1.24,3-2.48,4.51-3.72,3.44-2.83,6.9-5.64,10.37-8.42,13.79-11.08,27.83-21.84,42.09-32.29,1.05-.77.89-2.97-.76-2.8-9.55,1.04-18.35-3.07-26.29-7.97-8.67-5.35-16.57-11.82-24.79-17.81-1.83-1.33-3.67-2.64-5.54-3.91-.59-.4-3.91-2.35-3.65-1.88-.9-1.61,0-6.38,0-8.18,0-.4-.15-1.1,0-1.46.67-1.64-.88,1,.57-.02,1.84-1.3,4.38-2.05,6.4-3.05,4.5-2.21,8.95-4.53,13.34-6.97,31.62-17.6,58.19-41.72,82.37-68.42,15.11-16.68,29.52-33.99,44.26-50.99.89-1.02.06-3.08-1.46-2.51-47.09,17.65-94.18,35.31-141.27,52.96l1.16,2.74c25.49-17.55,51.14-34.96,75.82-53.64,20.55-15.55,40.14-32.24,58.95-49.85,13.92-13.03,27.48-26.43,40.93-39.94,1.17-1.18-.37-3.32-1.82-2.36-11,7.33-22,14.67-33,22l1.82,2.36c21.32-16.77,39.77-37.14,52.28-61.34l-2.74-.36c5.6,36.85,15.53,72.9,29.58,107.42.72,1.76,3.62.99,2.89-.8Z"/>
      </g>
    </g>
    <g>
      <path class="cls-2" d="M344.25,341.45c-15.37,6.04-75.24,27.68-90.61,33.72,6.92,6.74,13.83,13.49,20.75,20.23-23.56,4.13-47.12,8.26-70.68,12.39,11.23,9.73-56.68,11.93-45.46,21.66-52.35,7.84-77.09,48.61-130,47,30.17,24.01,118.64,8.4,157.12,10.8-50.73,7.61-99.59,27.36-141.35,57.14,27.13,8.71,52,24.37,71.58,45.08-37.43,7.36-75.75,10.07-113.85,8.16v45.1c20.12,14.95,43.44,25.6,68.01,30.56-21.83,11.07-44.62,20.24-68.01,27.45v780.46c9.37,29.17,17.12,54.42,22.5,74.23,30.97-78.21,9.37-269.8-16-350,56.78,55.27.28-3.47,73,28-40.19-74.65-19.65-134.67-44-215.88,7.62,6.72,15.24,13.45,22.87,20.17-8.76-13.69-11.51-31.08-7.4-46.81,15.48,24.16,48.81,40.33,62.54,65.52-34.51-95.35-29.94-188.17-28.41-289.56,7.74,52.91,21.18,104.99,40.01,155.04,14.4-69.46,23.7-139.98,27.82-210.81,14.39,75.07,31.45,155.23,86.55,208.2-18.03-154.96-7.97-233.88,9.03-362.88,15,58.81,32.31,79.64,63,132-9.33-92.04-36.03-114.17-22-224l53-123Z"/>
      <path class="cls-2" d="M343.85,340.01c-30.01,11.75-60.6,21.97-90.61,33.72-1.01.39-1.54,1.65-.66,2.51,6.92,6.74,13.83,13.49,20.75,20.23l.66-2.51c-23.56,4.13-47.12,8.26-70.68,12.39-1.12.2-1.44,1.78-.66,2.51,2.87,2.68-7.56,4.99-9.2,5.42-6.85,1.8-13.84,3.03-20.74,4.6-3.45.78-23.15,4.5-15.52,11.64l.66-2.51c-46.69,7.39-80.9,47.97-129.6,46.95-1.64-.03-1.84,1.96-.76,2.8,8.99,6.93,20.51,9.83,31.54,11.53,14.22,2.19,28.69,2.45,43.05,2.21,27.68-.45,55.61-4.33,83.29-2.73l-.4-2.95c-50.98,7.82-99.62,27.49-141.71,57.29-1.06.75-.92,2.32.36,2.74,27.01,8.84,51.27,24.16,70.91,44.7l.66-2.51c-37.38,7.25-75.42,9.92-113.45,8.11-.81-.04-1.5.72-1.5,1.5,0,14.29-.15,28.59,0,42.88.02,2.28-.09,2.5,1.58,4.13,5.68,5.51,14.26,9.64,21.19,13.34,14.57,7.78,30.17,13.39,46.33,16.76l-.36-2.74c-21.78,10.97-44.37,20.05-67.65,27.3-.63.2-1.1.77-1.1,1.45v777.62c0,.85-.1,1.77,0,2.61.13,1.05.4,1.65.79,2.92,2.87,9.45,6,18.83,8.92,28.27,4.49,14.49,8.85,29.03,12.84,43.67.42,1.54,2.38,1.31,2.89,0,7.1-18.16,10.38-37.69,12.49-56.99,2.68-24.54,3.2-49.31,2.69-73.98-1.06-51.17-6.38-102.45-15.45-152.82-4.06-22.57-8.85-45.12-15.73-67.01l-2.51,1.46c8.02,7.8,15.9,16.64,25.03,23.2,2.47,1.78,4.9,3.17,7.19.56s2.38-4.46,6.29-5.08c11.18-1.77,25.03,5.36,34.8,9.55,1.33.57,2.81-.63,2.05-2.05-17.92-33.69-24.87-69.82-27.97-107.5s-5.44-72.7-15.88-108.03l-2.51,1.46c7.62,6.72,15.24,13.45,22.87,20.17,1.23,1.08,3.29-.3,2.36-1.82-8.47-13.77-11.07-29.94-7.25-45.65l-2.74.36c16.82,25.53,47.41,38.69,62.54,65.52.81,1.44,3.33.48,2.74-1.16-25.73-71.68-29.98-147.34-29.36-222.84.18-22.11.67-44.21,1.01-66.32l-2.95.4c7.83,52.95,21.24,104.92,40.01,155.04.47,1.26,2.57,1.58,2.89,0,14.37-69.63,23.69-140.23,27.87-211.2l-2.95.4c14.19,73.97,30.73,154.29,86.94,208.86.85.82,2.72.3,2.56-1.06-5.9-50.99-9.81-102.25-9.53-153.6.23-43.48,3.64-86.81,8.57-129.99,3.02-26.46,6.51-52.87,9.99-79.28l-2.95.4c6.08,23.59,14.11,46.45,25.4,68.08s25.18,42.87,37.75,64.28c.7,1.2,2.95.78,2.8-.76-3.17-30.73-9.87-60.57-16.61-90.65s-10.23-59.02-9.15-89.31c.36-10.15,1.13-20.28,2.18-30.39.48-4.67.44-9.75,1.93-14.18,1.87-5.54,4.71-10.93,7.02-16.3,8.83-20.49,17.66-40.99,26.49-61.48,6.31-14.65,12.62-29.29,18.93-43.94.76-1.75-1.83-3.28-2.59-1.51-14.35,33.3-28.7,66.6-43.05,99.9l-8.57,19.89c-3.99,9.26-3.56,20.45-4.33,30.37-2.46,31.59-.94,62.91,5.3,93.98,6.95,34.59,15.81,68.4,19.44,103.61l2.8-.76c-12.31-20.96-25.65-41.38-37.01-62.88-11.53-21.82-19.69-44.89-25.83-68.76-.46-1.77-2.74-1.16-2.95.4-5.92,44.93-11.95,89.9-15.43,135.1-3.47,44.98-4.01,90.08-1.65,135.12,1.62,30.97,4.49,61.85,8.05,92.65l2.56-1.06c-55.82-54.19-72.07-134.1-86.17-207.54-.33-1.74-2.85-1.21-2.95.4-4.17,70.71-13.45,141.04-27.77,210.41h2.89c-18.77-50.13-32.18-102.09-40.01-155.04-.25-1.71-2.92-1.24-2.95.4-1.16,75.64-4.34,152.16,10.81,226.76,4.36,21.47,10.25,42.58,17.65,63.19l2.74-1.16c-15.15-26.89-45.72-39.99-62.54-65.52-.68-1.03-2.42-.96-2.74.36-4,16.48-1.34,33.52,7.55,47.97l2.36-1.82c-7.62-6.72-15.24-13.45-22.87-20.17-1.07-.95-2.95-.05-2.51,1.46,10.91,36.89,12.88,74.71,16.25,112.77,3.21,36.27,10.68,71.09,27.9,103.47l2.05-2.05c-10.33-4.43-22.09-9.97-33.59-10.09-3.97-.04-7.71.85-10.13,4.19-1.76,2.44-.89,3.26-3.76,1.44-9.36-5.9-17.37-15.67-25.21-23.3-1.04-1.01-2.97,0-2.51,1.46,13.36,42.52,20.13,87.42,25.09,131.6,5.64,50.28,8.57,101.53,4.21,152.02-1.91,22.15-5.16,44.76-13.3,65.58h2.89c-4.18-15.33-8.77-30.56-13.48-45.73-1.44-4.63-2.89-9.26-4.36-13.89s-3.91-9.55-4.61-14.22c-.02-.15.02-.3,0-.45-.42-3,0-6.37,0-9.39v-766.11c0-.93-.38-2.85,0-3.71.07-.15-.11-.61,0-.73-.44.46,2.39.33,2.18.34,4.73-.15,10.78-3.54,15.22-5.13,17.05-6.1,33.69-13.29,49.86-21.44,1.13-.57.88-2.48-.36-2.74-15.92-3.33-31.26-8.8-45.62-16.46-3.38-1.8-6.7-3.71-9.95-5.73-2.94-1.83-8.37-4.21-10.4-6.99-.67-.91-.55.42-.94-.95-.28-.98,0-2.5,0-3.52v-40.56l-1.5,1.5c38.29,1.82,76.61-.92,114.25-8.22,1.15-.22,1.39-1.75.66-2.51-19.99-20.9-44.75-36.47-72.24-45.47l.36,2.74c41.91-29.68,90.24-49.21,140.99-56.99,1.75-.27,1.2-2.85-.4-2.95-26.6-1.54-53.46,2.07-80.06,2.67-14.69.33-29.53.25-44.1-1.84-11.26-1.61-23.03-4.36-32.2-11.43l-.76,2.8c23.29.49,43.88-7.76,63.87-18.98,21.32-11.97,41.98-24.19,66.53-28.08,1.13-.18,1.43-1.79.66-2.51-2.87-2.68,7.56-4.99,9.2-5.42,6.85-1.8,13.84-3.03,20.74-4.6,3.45-.78,23.15-4.5,15.52-11.64l-.66,2.51c23.56-4.13,47.12-8.26,70.68-12.39,1.13-.2,1.41-1.77.66-2.51-6.92-6.74-13.83-13.49-20.75-20.23l-.66,2.51c30.01-11.75,60.6-21.97,90.61-33.72,1.78-.7,1-3.6-.8-2.89Z"/>
    </g>
    <g>
      <path class="cls-2" d="M211.28,92.88C139.64,87.71,70.39,54.61,21.37,2.12c15.38,42.61,36.45,83.16,62.48,120.23-23.59-11.36-50.35-16.07-76.4-13.44,3.74,7.66,9.52,14.31,16.57,19.09-7.31,2.71-14.75,4.96-22.27,6.92v326.79c1.65,1.15,3.17,1.76,4.5,1.73,8.46-51.14,18.92-159.35,63.03-186.57-5.36,23.06-1.69,48.1,10.06,68.65,16.03-49.51,39.94-96.45,70.55-138.54,6.67,29.16,28.58,54.38,56.53,65.05-20.6-41.18-16.94-93.44,9.2-131.35,2.12,14.11,8.39,43.11,16.64,54.75,7.69-22.51,9.41-45.15,16-68,1.38-4.77,5.37-18.52,10.09-20.07,4.72-1.55,2.91,2.07,5.91,7.07,3.79,11.83-1-18,7-26-40-14-71.19-53.16-108.96-83.11,11.21,31.68,27.86,61.42,49,87.54Z"/>
      <path class="cls-2" d="M211.28,91.38c-27.75-2.04-55.13-8.25-81.12-18.17-25.98-9.92-50.55-23.6-72.68-40.45C44.93,23.2,33.21,12.57,22.43,1.06c-.99-1.06-3.02.03-2.51,1.46,12.05,33.32,27.5,65.39,46.12,95.54,5.26,8.51,10.77,16.86,16.51,25.06l2.05-2.05c-23.94-11.44-50.74-16.23-77.16-13.64-1.16.11-1.83,1.18-1.3,2.26,3.95,7.92,9.83,14.61,17.11,19.63l.36-2.74c-7.3,2.69-14.74,4.95-22.27,6.92-.64.17-1.1.79-1.1,1.45v315.69c0,3.57-.4,7.41,0,10.96.26,2.33,4.02,3.28,6,3.37.6.03,1.34-.48,1.45-1.1,4.24-25.66,7.51-51.45,12.55-76.98,5.41-27.36,12.04-55.65,25.43-80.35,5.95-10.98,13.61-21.64,24.37-28.34l-2.2-1.69c-5.37,23.59-1.71,48.74,10.21,69.81.66,1.17,2.35.83,2.74-.36,12.48-38.44,29.66-75.31,51.09-109.58,6.1-9.75,12.54-19.29,19.3-28.6l-2.74-.36c5.39,23.16,20.01,43.76,39.77,56.92,5.58,3.72,11.55,6.76,17.81,9.18,1.33.51,2.22-1.15,1.69-2.2-15.8-31.84-17.1-70.03-4.67-103.22,3.52-9.4,8.2-18.33,13.87-26.61l-2.74-.36c1.46,9.64,3.52,19.22,6.11,28.62s5.28,18.73,10.68,26.49c.75,1.07,2.31.91,2.74-.36,8.39-24.78,9.67-51.42,18.55-76.04.78-2.17,1.65-4.33,2.73-6.38.83-1.57,1.88-3.65,3.53-4.5,1.98-1.02,2.07.17,2.57,1.84.6,1.99,1.54,3.83,2.31,5.75.57,1.43,2.34,3.41,3.6,1.22.89-1.54.53-4.26.59-5.95.12-3.91.25-7.84.82-11.71.53-3.6,1.3-7.85,3.92-10.58.82-.85.4-2.13-.66-2.51-16.1-5.7-30.46-15.31-43.69-25.96-14.13-11.38-27.2-23.98-40.63-36.16-7.81-7.08-15.73-14.04-23.99-20.6-1.04-.83-3.07-.11-2.51,1.46,11.36,31.96,28.09,61.81,49.38,88.2,1.21,1.5,3.32-.63,2.12-2.12-20.95-25.97-37.43-55.44-48.61-86.88l-2.51,1.46c28.66,22.79,53.05,51.24,84.14,70.92,8.03,5.08,16.52,9.41,25.49,12.58l-.66-2.51c-4.8,5.01-5.13,13.5-5.45,20.01-.14,2.81-.13,5.63-.34,8.44-.01.17-.19.53-.12.67-.3-.55,2.15.08,2.09-.6-.14-1.64-1.54-3.38-2.06-4.88s-.7-3.45-1.87-4.6c-1.27-1.26-3.27-.99-4.79-.37-3.46,1.41-5.31,5.7-6.68,8.88-4.38,10.15-6.74,21.26-8.95,32.03-3.32,16.14-5.92,32.44-11.21,48.09l2.74-.36c-5.39-7.74-8.11-17.42-10.55-26.41s-4.51-18.56-5.94-27.98c-.21-1.39-2.1-1.3-2.74-.36-20.53,29.98-27.33,68.47-19.47,103.84,2.23,10.05,5.7,19.8,10.27,29.02l1.69-2.2c-27.54-10.64-48.79-35.28-55.48-64-.32-1.37-2.04-1.33-2.74-.36-23.9,32.92-43.71,68.73-58.92,106.46-4.3,10.67-8.22,21.49-11.77,32.43l2.74-.36c-11.51-20.35-15.1-44.69-9.91-67.5.28-1.22-1.04-2.42-2.2-1.69-9.48,5.91-16.71,14.76-22.46,24.21-6.89,11.34-11.9,23.8-16.06,36.37-9.24,27.93-14.42,57.1-18.96,86.1-2.13,13.59-4.01,27.22-6.25,40.79l1.45-1.1c-1.42-.06-2.59-.77-3.74-1.53l.74,1.3V139.89c0-1.41.2-3,0-4.4-.03-.18,0-.38,0-.56l-1.1,1.45c7.53-1.97,14.97-4.23,22.27-6.92,1.24-.46,1.46-1.99.36-2.74-6.87-4.73-12.32-11.1-16.03-18.55l-1.3,2.26c25.88-2.53,52.18,2.02,75.64,13.23,1.22.58,2.99-.71,2.05-2.05-20.1-28.68-37.28-59.38-51.14-91.55-4.02-9.33-7.74-18.78-11.19-28.32l-2.51,1.46c19.28,20.59,41.62,38.26,66.02,52.4,24.39,14.14,50.83,24.81,78.23,31.47,15.34,3.73,30.98,6.17,46.72,7.33,1.93.14,1.92-2.86,0-3Z"/>
    </g>
    <g>
      <path class="cls-2" d="M1919.75,396.56c-46.78,1.77-93.83-3.7-138.92-16.29,33.74-.3,75.07-5.45,87.76-36.71-94.17,6.76-190.08-12.74-274.13-55.74l.63,4.48c67.23,69.03,96.98,158.35,74.6,252.07,27.1-19.38,44.9-51.2,47.24-84.43,39.37,103.61,55.62,215.93,47.24,326.44,20.24-5.42,37.03-30.4,42.02-50.75,13.39-54.57,27.52-86.15,12.07-140.18,37.38,116.19,27,151,43,267,20.81-33.69,71.82-40.33,54.06-75.73,1.62,2.62,3.09,5.3,4.44,8.03v-398.19Z"/>
      <path class="cls-2" d="M1919.75,395.06c-46.7,1.71-93.49-3.72-138.52-16.24l-.4,2.95c14.03-.14,28.18-1.01,41.91-4.04,12.7-2.8,25.47-7.62,35.24-16.47,5.3-4.81,9.32-10.7,12.06-17.3.36-.87-.56-1.96-1.45-1.9-36.68,2.6-73.62,1.31-110.02-3.89-36.19-5.17-71.84-14.12-106.18-26.68-19.55-7.15-38.64-15.5-57.18-24.96-1.26-.64-2.38.41-2.2,1.69.35,2.48.24,4.34,2.01,6.17,3.3,3.42,6.53,6.91,9.68,10.46,6.42,7.25,12.52,14.78,18.24,22.59,10.91,14.9,20.46,30.81,28.3,47.54,15.47,33,23.95,69.11,24.28,105.57.2,21.36-2.37,42.64-7.3,63.41-.28,1.16,1.08,2.51,2.2,1.69,27.61-19.92,45.45-51.77,47.98-85.73l-2.95.4c15.29,40.33,27.13,81.93,35.36,124.27,8.27,42.55,12.9,85.8,13.8,129.13.51,24.23-.17,48.48-1.98,72.64-.07.98,1.02,1.69,1.9,1.45,11.9-3.33,21.43-12.11,28.66-21.83,7.97-10.72,12.51-22.54,15.76-35.38,7.05-27.91,16.44-55.86,17.43-84.87.59-17.18-2.04-34.19-6.71-50.69l-2.89.8c11.4,35.5,20.91,71.6,26.35,108.52,4.52,30.69,6.36,61.69,9.17,92.56,2.01,22.03,4.47,44.01,7.48,65.92.19,1.36,2.13,1.34,2.74.36,8.28-13.22,21.13-22.2,33.56-31.17,9.2-6.64,20.69-14.32,23.69-26.01,1.77-6.89-.12-13.83-3.19-20.06l-2.59,1.51c1.6,2.61,3.07,5.29,4.44,8.03.68,1.36,2.8.67,2.8-.76v-381.95c0-5.17.25-10.4,0-15.56-.01-.23,0-.45,0-.68,0-1.93-3-1.93-3,0v392.2c0,1.67-.3,3.66,0,5.31.04.21,0,.46,0,.68l2.8-.76c-1.37-2.74-2.84-5.41-4.44-8.03-1.02-1.66-3.44-.21-2.59,1.51,2.7,5.49,4.44,11.66,2.88,17.75-1.36,5.29-4.86,9.66-8.73,13.38-9.7,9.33-21.68,15.99-31.91,24.72-6.26,5.34-11.92,11.37-16.3,18.36l2.74.36c-4.97-36.12-7.94-72.4-11.1-108.71-2.69-30.89-6.56-61.57-13.41-91.84-5.08-22.44-11.46-44.56-18.49-66.45-.59-1.83-3.42-1.07-2.89.8,4.07,14.38,6.61,29.14,6.69,44.11.06,13.25-1.79,26.38-4.57,39.31-2.98,13.83-6.83,27.46-10.42,41.15-1.81,6.9-3.21,13.98-5.51,20.73-2.02,5.92-4.76,11.6-8.04,16.93-7.17,11.68-17.59,23.05-31.19,26.86l1.9,1.45c3.26-43.36,2.79-86.98-1.42-130.26-4.16-42.87-11.93-85.4-23.24-126.97-6.41-23.56-13.98-46.79-22.63-69.62-.6-1.58-2.82-1.34-2.95.4-2.44,32.81-19.81,63.89-46.49,83.14l2.2,1.69c8.64-36.44,9.86-74.39,2.57-111.18-7.11-35.92-22.15-69.99-42.83-100.14-6.03-8.78-12.52-17.25-19.41-25.37-3.47-4.09-7.03-8.09-10.7-12-1.33-1.43-3.77-3.15-4.33-4.87-.37-1.15-.36-2.58-.53-3.78l-2.2,1.69c32.84,16.76,67.43,30.02,103.05,39.51s72.25,15.23,109.06,17.09c20.92,1.06,41.88.83,62.77-.65l-1.45-1.9c-10.38,24.99-39.66,32.25-64.05,34.55-7.4.7-14.83.99-22.27,1.06-1.68.02-2.05,2.49-.4,2.95,35.2,9.78,71.54,15.32,108.06,16.45,10.42.32,20.85.28,31.26-.11,1.92-.07,1.93-3.07,0-3Z"/>
    </g>
    <g>
      <path class="cls-2" d="M1639.57,1933.86c7.82-14.13,21.06-25.17,36.36-30.32-10.61-2.03-21.21-4.07-31.82-6.1,16.4-9.08,10.56-35.03-2.6-48.37-13.16-13.35-31.67-22.58-38.86-39.89,16.09,4.67,33.26,9.36,49.32,4.58-41.82-34.55-73.98-80.67-91.94-131.86,3.1,26.64,2.14,53.75-2.86,80.1,4.49-2.7,8.98-5.4,13.47-8.1-.67,7.75-1.33,15.5-2,23.25l1.66-10.59c-1.84,35.91-12.41,71.35-30.56,102.39,13.65-6.52,27.3-13.04,40.95-19.56-18.79,45.87-43.74,89.21-73.98,128.49,24.18-6.79,47.32-17.25,68.39-30.91-12.03,19.48-26.23,37.62-42.24,53.99h157.54c-3.63-.64-7.26-1.22-10.91-1.74,23.31-11.21,46.62-22.43,69.92-33.64-38.68.71-77.5-10.5-109.85-31.71Z"/>
      <path class="cls-1" d="M1640.86,1934.62c7.72-13.82,20.48-24.52,35.46-29.63,1.29-.44,1.56-2.59,0-2.89-10.61-2.03-21.21-4.07-31.82-6.1l.36,2.74c12.55-7.11,12.43-23.14,7.7-35.07-2.71-6.84-6.85-12.75-12.18-17.79-6.11-5.77-12.92-10.72-19.3-16.17-7.01-5.98-13.5-12.68-17.14-21.28l-1.69,2.2c16.13,4.68,33.44,9.42,50.11,4.58,1-.29,1.56-1.76.66-2.51-16.19-13.4-30.95-28.51-44-44.99s-24.38-34.43-33.71-53.31c-5.28-10.67-9.9-21.66-13.85-32.89-.52-1.48-3.15-1.39-2.95.4,2.38,20.6,2.37,41.46-.08,62.06-.7,5.91-1.62,11.79-2.73,17.64-.23,1.23,1.01,2.41,2.2,1.69,4.49-2.7,8.98-5.4,13.47-8.1l-2.26-1.3c-.67,7.75-1.33,15.5-2,23.25-.14,1.67,2.68,2.07,2.95.4.55-3.53,1.1-7.06,1.66-10.59l-2.95-.4c-1.46,27.8-8.11,55.32-19.56,80.7-3.23,7.16-6.84,14.14-10.79,20.93-.8,1.37.75,2.67,2.05,2.05,13.65-6.52,27.3-13.04,40.95-19.56l-2.2-1.69c-7.32,17.85-15.59,35.32-24.73,52.31-9.11,16.94-19.1,33.41-29.91,49.31-6.13,9.02-12.53,17.86-19.18,26.51-.83,1.08.54,2.53,1.69,2.2,18.85-5.32,37.09-12.81,54.21-22.32,4.94-2.75,9.79-5.67,14.54-8.74l-2.05-2.05c-11.99,19.38-26.08,37.38-42,53.68-.9.93-.25,2.56,1.06,2.56h138.14c6.36,0,12.78.26,19.13,0,.09,0,.18,0,.27,0,1.64,0,2.11-2.65.4-2.95-3.63-.64-7.26-1.22-10.91-1.74l.36,2.74c23.31-11.21,46.62-22.43,69.92-33.64,1.37-.66.67-2.82-.76-2.8-30.06.51-60.17-6.11-87.25-19.16-7.54-3.63-14.83-7.76-21.84-12.34-1.62-1.06-3.13,1.54-1.51,2.59,25.47,16.65,54.78,27.14,85,30.66,8.5.99,17.06,1.4,25.61,1.26l-.76-2.8c-23.31,11.21-46.62,22.43-69.92,33.64-1.1.53-.91,2.56.36,2.74,3.65.52,7.28,1.11,10.91,1.74l.4-2.95h-151.14c-1.95,0-4.2-.32-6.13,0-.09.01-.19,0-.27,0l1.06,2.56c16.09-16.48,30.36-34.7,42.47-54.29.78-1.25-.79-2.87-2.05-2.05-16.32,10.55-33.82,19.22-52.14,25.72-5.24,1.86-10.54,3.53-15.89,5.04l1.69,2.2c11.84-15.4,22.88-31.41,33.06-47.96,10.12-16.47,19.39-33.46,27.75-50.89,4.73-9.87,9.17-19.88,13.32-30,.55-1.34-1.17-2.19-2.2-1.69-13.65,6.52-27.3,13.04-40.95,19.56l2.05,2.05c14.27-24.48,23.93-51.61,28.31-79.61,1.22-7.8,2.04-15.66,2.45-23.54.09-1.66-2.68-2.09-2.95-.4-.55,3.53-1.1,7.06-1.66,10.59l2.95.4c.67-7.75,1.33-15.5,2-23.25.1-1.15-1.34-1.85-2.26-1.3-4.49,2.7-8.98,5.4-13.47,8.1l2.2,1.69c3.88-20.61,5.39-41.66,4.39-62.61-.29-5.98-.78-11.94-1.47-17.88l-2.95.4c7.05,20.03,16.21,39.31,27.3,57.42s24.07,35.06,38.67,50.46c8.28,8.74,17.09,16.96,26.36,24.63l.66-2.51c-16.14,4.69-32.92-.05-48.52-4.58-1.39-.4-2.17,1.08-1.69,2.2,6.27,14.82,20.35,23.77,32.15,33.8,5.57,4.74,10.63,9.75,14.1,16.26,3.12,5.86,5.13,12.54,5.01,19.22s-3.04,13.41-9.25,16.93c-1.06.6-.93,2.49.36,2.74,10.61,2.03,21.21,4.07,31.82,6.1v-2.89c-15.72,5.36-29.15,16.51-37.25,31.01-.94,1.69,1.65,3.2,2.59,1.51Z"/>
    </g>
    <g>
      <path class="cls-2" d="M1919.75,1900.86c-16.94-5.44-34.14-10.06-51.53-13.8,17.18-5.62,34.35-11.24,51.53-16.86v-42.99c-43.76-33.04-87.51-66.08-131.27-99.12,33.05-8.91,64.62-23.5,92.96-42.94-44.52-16.83-89.04-33.66-133.56-50.48,29.25-.22,58.43-7.6,84.38-21.33-58.82-10.3-122.24-23.07-162.21-67.99-5.63,40.06-24.34,78.15-52.5,106.86,30.93-1.96,61.87-3.91,92.8-5.87-1.39,62.47-25.85,124.19-67.5,170.3l60.02-2.9c-20.5,29.98-36.52,63.11-47.34,97.9,21.7-.79,43.19-7.15,61.94-18.31-14.46,35.88-28.92,71.76-43.38,107.64h245.66v-100.09Z"/>
      <path class="cls-1" d="M1920.14,1899.41c-16.95-5.43-34.14-10.04-51.53-13.8v2.89c17.18-5.62,34.35-11.24,51.53-16.86.63-.21,1.1-.76,1.1-1.45v-41.74c0-.56.11-1.31-.13-1.83-.61-1.37-3.08-2.58-4.24-3.46-2.05-1.55-4.11-3.1-6.16-4.65-7.74-5.84-15.47-11.68-23.21-17.52-15.35-11.59-30.7-23.18-46.05-34.77-17.41-13.14-34.81-26.29-52.22-39.43l-.36,2.74c33.26-9.02,64.88-23.64,93.32-43.09,1.11-.76.87-2.28-.36-2.74-34.6-13.08-69.19-26.15-103.79-39.23-9.92-3.75-19.85-7.5-29.77-11.25l-.4,2.95c29.63-.29,58.92-7.74,85.14-21.53,1.08-.57.92-2.52-.36-2.74-45.29-7.94-92.84-16.68-131.98-42.29-10.91-7.14-20.88-15.6-29.58-25.32-.69-.78-2.35-.45-2.51.66-4.41,30.89-16.42,60.52-34.79,85.75-5.27,7.23-11.07,14.05-17.32,20.44-.86.88-.28,2.65,1.06,2.56,30.93-1.96,61.87-3.91,92.8-5.87l-1.5-1.5c-1.14,48.34-15.98,96.1-42.18,136.72-7.41,11.49-15.73,22.36-24.88,32.52-.82.91-.31,2.63,1.06,2.56,20.01-.97,40.02-1.93,60.02-2.9l-1.3-2.26c-16.03,23.5-29.31,48.82-39.53,75.37-2.91,7.54-5.55,15.17-7.96,22.89-.28.91.49,1.94,1.45,1.9,22.08-.88,43.68-7.27,62.7-18.52l-2.2-1.69c-14.46,35.88-28.92,71.76-43.38,107.64-.37.92.56,1.9,1.45,1.9h235.72c3.15,0,6.37.19,9.52,0,.14,0,.28,0,.42,0,.81,0,1.5-.69,1.5-1.5v-100.09c0-1.93-3-1.93-3,0v100.09l1.5-1.5h-241.93c-1.03,0-2.29-.2-3.31,0-.13.03-.29,0-.42,0l1.45,1.9c14.46-35.88,28.92-71.76,43.38-107.64.51-1.26-1.16-2.31-2.2-1.69-18.56,10.98-39.63,17.25-61.18,18.11l1.45,1.9c8.41-26.92,19.88-52.85,34.22-77.14,4.1-6.94,8.43-13.74,12.97-20.4.63-.93-.2-2.31-1.3-2.26-20.01.97-40.02,1.93-60.02,2.9l1.06,2.56c32.83-36.45,55-82.17,63.76-130.42,2.45-13.52,3.86-27.21,4.18-40.95.02-.77-.7-1.55-1.5-1.5-30.93,1.96-61.87,3.91-92.8,5.87l1.06,2.56c22.12-22.65,38.41-50.79,47.23-81.18,2.51-8.63,4.38-17.44,5.65-26.33l-2.51.66c15.44,17.26,34.88,30.28,55.89,39.78s44.32,16.04,67.32,21.02c13.16,2.85,26.41,5.25,39.66,7.57l-.36-2.74c-25.75,13.55-54.53,20.84-83.63,21.12-1.77.02-1.93,2.37-.4,2.95,34.6,13.08,69.19,26.15,103.79,39.23,9.92,3.75,19.85,7.5,29.77,11.25l-.36-2.74c-28.24,19.32-59.58,33.84-92.61,42.79-1.36.37-1.34,2-.36,2.74,34.09,25.74,68.17,51.48,102.26,77.22,9.67,7.3,19.34,14.6,29.01,21.91l-.74-1.3v42.99l1.1-1.45c-17.18,5.62-34.35,11.24-51.53,16.86-1.32.43-1.53,2.56,0,2.89,17.39,3.76,34.58,8.38,51.53,13.8,1.84.59,2.63-2.31.8-2.89Z"/>
    </g>
    <g>
      <path class="cls-2" d="M966.91,1952.28c-32.38-17.33-59.47-44.38-76.83-76.74-20.39,15.99-37.18,36.56-48.74,59.74-2.13,4.27-4.1,8.65-6.9,12.51-6.23,8.57-15.97,13.77-25.36,18.69l34.01-3.44c-4.47,14.58-13.97,26.56-24.61,37.92h124.01c10.94-4.35,21.89-8.69,32.83-13.04-16.19-11.43-33.34-21.51-51.2-30.09,14.44.78,29.02-1.11,42.79-5.54Z"/>
      <path class="cls-1" d="M967.66,1950.98c-12.54-6.73-24.29-14.88-34.98-24.28-10.68-9.39-20.32-19.99-28.61-31.54-4.67-6.51-8.91-13.32-12.71-20.37-.5-.93-1.63-.87-2.36-.3-12.6,9.9-23.79,21.51-33.29,34.41-4.75,6.45-9.06,13.22-12.88,20.26s-6.84,15.25-12.58,21.31c-6.12,6.46-14.16,10.65-21.95,14.72-1.27.66-.74,2.95.76,2.8,11.34-1.15,22.68-2.3,34.01-3.44l-1.45-1.9c-4.48,14.43-14.05,26.38-24.22,37.25-.88.94-.27,2.56,1.06,2.56h117.07c2.15,0,4.31.03,6.46,0,.14,0,.3.01.44,0,.34-.03.56-.12.9-.24,1.64-.57,3.24-1.29,4.86-1.93,6.09-2.42,12.18-4.84,18.27-7.25,3.08-1.22,6.17-2.45,9.25-3.67,1.23-.49,1.46-1.96.36-2.74-16.2-11.42-33.34-21.49-51.2-30.09l-.76,2.8c14.59.76,29.27-1.15,43.19-5.59,1.83-.59,1.05-3.48-.8-2.89-13.69,4.37-28.04,6.23-42.39,5.49-1.45-.08-2.1,2.15-.76,2.8,17.86,8.6,35,18.67,51.2,30.09l.36-2.74c-6.17,2.45-12.33,4.9-18.5,7.35-3.08,1.22-6.17,2.45-9.25,3.67-1.46.58-2.96,1.11-4.39,1.74-.21.09-.2.19-.36.22-.46.1-1.04,0-1.5,0h-116.46c-1.87,0-3.87-.2-5.74,0-.08,0-.17,0-.25,0l1.06,2.56c10.54-11.26,20.36-23.64,24.99-38.58.27-.86-.48-2-1.45-1.9-11.34,1.15-22.68,2.3-34.01,3.44l.76,2.8c6.98-3.65,14.02-7.4,19.94-12.67,2.99-2.67,5.59-5.74,7.69-9.15,2.24-3.66,3.98-7.59,5.93-11.4,7.33-14.34,16.65-27.65,27.62-39.44,6.22-6.68,12.96-12.87,20.13-18.51l-2.36-.3c6.83,12.69,15.14,24.58,24.66,35.4s20.29,20.54,31.99,28.95c6.61,4.75,13.54,9.07,20.72,12.92,1.7.91,3.22-1.68,1.51-2.59Z"/>
    </g>
    <g>
      <path class="cls-2" d="M622.71,1969.65c-4.72-3.68-6.41-10.96-3.3-16.06-15.21,10.69-23.57,28.34-33.24,44.21-.64,1.05-1.3,2.11-1.98,3.16h101.16c-18.09-7.13-35.42-16.2-51.57-27.03,1.93-1.19,3.86-2.38,5.8-3.57-5.14,3.05-12.16,2.98-16.87-.7Z"/>
      <path class="cls-1" d="M623.78,1968.59c-4.16-3.34-5.85-9.5-3.07-14.25.72-1.23-.79-2.95-2.05-2.05-12.83,9.09-20.9,22.8-28.67,36.13-2.31,3.96-4.6,7.92-7.08,11.78-.62.97.19,2.26,1.3,2.26h88.72c4.07,0,8.19.17,12.26,0,.06,0,.12,0,.18,0,1.79,0,1.9-2.35.4-2.95-17.97-7.1-35.16-16.13-51.21-26.88v2.59c1.93-1.19,3.86-2.38,5.8-3.57,1.64-1.01.17-3.56-1.51-2.59-4.79,2.76-10.9,2.67-15.36-.7-1.54-1.17-3.04,1.44-1.51,2.59,5.28,4,12.76,3.95,18.39.7l-1.51-2.59c-1.93,1.19-3.86,2.38-5.8,3.57-1,.61-.94,1.96,0,2.59,16.28,10.9,33.71,19.99,51.93,27.18l.4-2.95h-97.01c-1.28,0-2.69-.17-3.96,0-.06,0-.12,0-.18,0l1.3,2.26c8.23-12.84,14.73-26.98,25.13-38.32,2.89-3.15,6.06-6.04,9.55-8.52l-2.05-2.05c-3.41,5.81-1.66,13.71,3.53,17.88,1.49,1.2,3.63-.91,2.12-2.12Z"/>
    </g>
    <g>
      <path class="cls-2" d="M1082.18,1980.64c-7.81-1.97-17.82-6.92-15.8-14.72,2.75.06,5.49.12,8.24.18-16.14-10.1-30.76-22.63-43.21-37.03,9.02,22.68,11.83,47.73,8.43,71.89h21.23l3.21-3.26c-.62,1.1-1.26,2.19-1.93,3.26h53.52c-1.07-2.14-2.42-4.14-4.01-5.86-7.59-8.19-18.86-11.72-29.68-14.45Z"/>
      <path class="cls-1" d="M1082.58,1979.19c-3.77-.97-7.53-2.37-10.71-4.65-2.7-1.93-4.87-4.76-4.03-8.23l-1.45,1.1c2.75.06,5.49.12,8.24.18,1.53.03,1.98-2.03.76-2.8-12.49-7.84-24.05-17.1-34.41-27.6-2.93-2.97-5.76-6.04-8.5-9.2-.95-1.09-3.06.07-2.51,1.46,6.92,17.49,10.2,36.29,9.73,55.08-.13,5.35-.56,10.7-1.3,16.01-.13.94.37,1.9,1.45,1.9h17.33c1.26,0,2.58.11,3.83,0,.95-.09,1.43-.75,2.06-1.39.76-.77,1.52-1.54,2.27-2.31l-2.36-1.82c-.62,1.1-1.27,2.18-1.93,3.26-.61.97.18,2.26,1.3,2.26h53.52c1.19,0,1.8-1.26,1.3-2.26-6.53-12.88-21.55-17.71-34.59-21-1.87-.47-2.67,2.42-.8,2.89,12.28,3.11,26.63,7.46,32.8,19.62l1.3-2.26h-53.52l1.3,2.26c.67-1.07,1.31-2.16,1.93-3.26.83-1.47-1.14-3.05-2.36-1.82-1.07,1.09-2.14,2.17-3.21,3.26l1.06-.44h-21.23l1.45,1.9c2.65-19.01,1.62-38.48-3.29-57.05-1.4-5.31-3.12-10.53-5.14-15.63l-2.51,1.46c9.78,11.28,20.85,21.4,32.95,30.15,3.44,2.49,6.97,4.86,10.57,7.12l.76-2.8c-2.75-.06-5.49-.12-8.24-.18-.64-.01-1.3.47-1.45,1.1-2.32,9.63,9.44,14.67,16.84,16.57,1.87.48,2.67-2.41.8-2.89Z"/>
    </g>
    <g>
      <path class="cls-2" d="M214.31,1812.04c-4.45-7.04-8.78-14.97-7.66-23.22s10.48-15.6,17.79-11.61c-9.16-9.14-12.44-24.71-5.18-35.42,7.26-10.71,25.71-12.31,32.86-1.52-4.5-16.49-9-32.98-13.5-49.47,3.54,9.02,18.52,10.72,25.74,3.38,7.81-7.94,7.67-20.92,3.95-31.42-3.72-10.49-10.35-19.74-14.31-30.15-9.16-24.09-1.87-53.5,17.49-70.52l-9.62-2.4c-29.85,42.57-78.3,71.58-129.92,77.81,33.41-1.15,66.82-2.3,100.23-3.45-69.74,55.33-147.68,100.29-230.46,133.04v20.8c38.22,7.74,76.44,15.48,114.66,23.22-29.44,15.86-58.88,31.71-88.32,47.57,16.92,2.82,33.85,5.64,50.77,8.46-27.02,19.94-48.09,21.35-77.1,27.61v65.46c.17.08.33.17.5.25-.17,0-.33,0-.5,0v40.49h171.95c-12.64-18.08-24.2-36.93-34.54-56.42,36.39,10.18,72.79,20.36,109.18,30.53-31.05-31.14-63.72-65.4-70.23-108.88,34.14,14.24,70.71,22.62,107.64,24.67-28.1-21.91-52.38-48.7-71.43-78.82Z"/>
      <path class="cls-1" d="M215.61,1811.28c-4.29-6.82-9.58-15.67-7.07-24.06,1.78-5.95,8.8-11.94,15.15-8.73,1.49.75,3.05-1.1,1.82-2.36-8.7-8.86-12.75-25.34-3.54-35.37,7.21-7.84,22.35-9.22,28.86.25.93,1.35,3.21.56,2.74-1.16-4.5-16.49-9-32.98-13.5-49.47l-2.89.8c3.63,8.67,14.85,10.96,22.95,7.56,10.63-4.46,13.18-17.59,11.73-27.86-1.95-13.77-10.89-24.98-15.97-37.61-4.5-11.17-5.4-23.6-3.01-35.37,2.71-13.35,9.48-25.7,19.69-34.77.84-.75.39-2.24-.66-2.51-3.21-.8-6.42-1.6-9.62-2.4-.69-.17-1.3.13-1.69.69-23.16,32.89-57.39,57.62-95.68,69.84-10.73,3.42-21.76,5.86-32.94,7.24-1.86.23-1.98,3.07,0,3,33.41-1.15,66.82-2.3,100.23-3.45l-1.06-2.56c-27.17,21.53-55.57,41.5-85.03,59.78s-59.72,34.75-90.93,49.51c-17.69,8.37-35.64,16.15-53.84,23.36-.62.25-1.1.73-1.1,1.45v20.8c0,.62.46,1.32,1.1,1.45,29.74,6.02,59.48,12.04,89.23,18.07,8.48,1.72,16.95,3.43,25.43,5.15l-.36-2.74c-29.44,15.86-58.88,31.71-88.32,47.57-1.07.57-.93,2.53.36,2.74,16.92,2.82,33.85,5.64,50.77,8.46l-.36-2.74c-11.5,8.44-24.06,14.86-37.75,18.88-12.78,3.75-25.99,5.79-38.99,8.59-.64.14-1.1.82-1.1,1.45v65.46c0,.5.28,1.06.74,1.3l.5.25.76-2.8h-.5c-.81.02-1.5.69-1.5,1.51v40.49c0,.81.69,1.5,1.5,1.5h164.96c2.2,0,4.5.19,6.69,0,.1,0,.19,0,.29,0,1.07,0,1.96-1.3,1.3-2.26-12.63-18.1-24.18-36.93-34.54-56.42l-1.69,2.2c28.35,7.93,56.71,15.86,85.06,23.79,8.04,2.25,16.08,4.5,24.12,6.75,1.45.4,2.51-1.45,1.46-2.51-23.86-23.94-48.7-49.15-62.04-80.78-3.71-8.79-6.36-18-7.81-27.44l-1.85,1.85c26.71,11.1,54.82,18.64,83.5,22.42,8.15,1.07,16.34,1.83,24.54,2.3,1.22.07,2.09-1.75,1.06-2.56-21.8-17.04-41.36-36.95-57.89-59.15-4.68-6.28-9.11-12.75-13.31-19.37-1.03-1.63-3.63-.12-2.59,1.51,14.89,23.48,32.87,44.98,53.42,63.72,5.88,5.37,11.97,10.49,18.25,15.4l1.06-2.56c-28.74-1.63-57.21-7.06-84.54-16.13-7.67-2.55-15.24-5.39-22.71-8.49-1.18-.49-1.99.87-1.85,1.85,5.29,34.53,26.89,63.33,50.04,88.32,6.7,7.23,13.62,14.25,20.58,21.23l1.46-2.51c-28.35-7.93-56.71-15.86-85.06-23.79-8.04-2.25-16.08-4.5-24.12-6.75-1.3-.36-2.3,1.07-1.69,2.2,10.36,19.49,21.91,38.32,34.54,56.42l1.3-2.26H4.4c-.71,0-1.67-.17-2.36,0-.09.02-.2,0-.29,0l1.5,1.5v-40.49l-1.5,1.5h.5c1.42-.03,2.13-2.11.76-2.8l-.5-.25.74,1.3v-65.46l-1.1,1.45c13.21-2.84,26.64-4.9,39.6-8.77,13.7-4.08,26.34-10.54,37.86-19,.91-.67,1.05-2.51-.36-2.74-16.92-2.82-33.85-5.64-50.77-8.46l.36,2.74c29.44-15.86,58.88-31.71,88.32-47.57,1.09-.59.91-2.48-.36-2.74-29.74-6.02-59.48-12.04-89.23-18.07-8.48-1.72-16.95-3.43-25.43-5.15l1.1,1.45v-20.8l-1.1,1.45c32.35-12.81,63.97-27.44,94.65-43.85,30.8-16.47,60.65-34.71,89.35-54.61,16.08-11.14,31.78-22.82,47.11-34.97,1.04-.82.16-2.6-1.06-2.56-33.41,1.15-66.82,2.3-100.23,3.45v3c40.75-5,79.38-23.72,108.82-52.3,8.27-8.03,15.76-16.83,22.39-26.26l-1.69.69c3.21.8,6.42,1.6,9.62,2.4l-.66-2.51c-16.52,14.69-24.36,37.81-21.1,59.57,1.89,12.61,8.49,23.12,14.02,34.36,5.08,10.34,9.08,23.69,2.77,34.45-2.94,5.03-7.87,7.87-13.7,7.85-4.85-.02-10.36-2.09-12.36-6.87-.72-1.72-3.42-1.13-2.89.8,4.5,16.49,9,32.98,13.5,49.47l2.74-1.16c-5.78-8.41-17.21-9.9-26.16-6.02-10.58,4.58-14.82,16.09-13.01,27,1.11,6.69,4.39,12.95,9.14,17.78l1.82-2.36c-7.41-3.75-15.7,1.52-18.8,8.51-4.28,9.64,1.54,20.31,6.62,28.38,1.03,1.63,3.62.13,2.59-1.51Z"/>
    </g>
    <g>
      <g>
        <path class="cls-2" d="M379.14,1811.3c.08,2.65.34,5.28.72,7.89.89-.66,1.78-1.31,2.66-1.97l-3.39-5.92Z"/>
        <path class="cls-1" d="M377.64,1811.3c.09,2.78.37,5.54.77,8.29.13.9,1.48,1.43,2.2.9.89-.66,1.78-1.31,2.66-1.97.66-.49.98-1.29.54-2.05-.98-1.72-1.97-3.45-2.95-5.17l-.43-.75c-.39-.68-1.38-.97-2.05-.54s-.96,1.32-.54,2.05c.98,1.72,1.97,3.45,2.95,5.17l.43.75.54-2.05c-.89.66-1.78,1.31-2.66,1.97l2.2.9c-.02-.15-.04-.31-.07-.46-.01-.1-.03-.2-.04-.31.02.12.02.12,0,.01-.04-.31-.08-.62-.12-.92-.08-.64-.14-1.29-.2-1.93-.12-1.29-.2-2.59-.24-3.88-.03-.78-.67-1.54-1.5-1.5s-1.53.66-1.5,1.5Z"/>
      </g>
      <g>
        <path class="cls-2" d="M402.41,1936.82l41.62,5.17c-13.63-21.14-31.85-39.3-53.02-52.87,16.13-3.11,32.5-4.93,48.92-5.43-30.67-6.38-55.54-33.67-60.07-64.51-29.25,21.65-58.5,43.29-87.75,64.94l38.43-14.62c3.95-1.5,8.1-3.03,12.29-2.49,4.19.54,8.34,3.91,8.2,8.13-.13,3.96-3.68,6.81-6.87,9.16-42.82,31.6-76.04,74.07-108.12,116.64h154.18c15.09-1.51,30.19-3.02,45.28-4.52-13.28-12.57-26.56-25.14-39.84-37.71-5.53-5.24-11.29-14.01-6.02-19.52,3.11-3.25,8.3-2.94,12.77-2.38Z"/>
        <path class="cls-1" d="M402.41,1938.32c13.87,1.72,27.74,3.45,41.62,5.17,1.13.14,1.86-1.38,1.3-2.26-10.77-16.66-24.3-31.51-39.93-43.72-4.4-3.44-8.94-6.67-13.63-9.69l-.36,2.74c16.01-3.08,32.23-4.87,48.52-5.37,1.63-.05,2.12-2.58.4-2.95-11.7-2.47-22.62-7.96-31.77-15.64s-16.66-17.52-21.6-28.5c-2.76-6.14-4.65-12.67-5.65-19.32-.13-.9-1.48-1.43-2.2-.9-22.84,16.9-45.68,33.8-68.52,50.7-6.41,4.74-12.82,9.49-19.23,14.23-1.24.92-.57,3.4,1.16,2.74,8.02-3.05,16.05-6.1,24.07-9.16l12.04-4.58c3.8-1.45,7.76-3.27,11.88-3.42,3.17-.11,6.58,1.06,8.28,3.91s.13,5.8-2.01,7.9c-2.54,2.5-5.64,4.45-8.46,6.62-3,2.31-5.95,4.67-8.87,7.08-11.7,9.69-22.7,20.2-33.15,31.22-10.45,11.01-20.36,22.53-29.94,34.3s-18.95,23.97-28.16,36.16c-1.15,1.52-2.3,3.05-3.45,4.57-.71.94.26,2.26,1.3,2.26h153.65c3.12,0,6.29-.57,9.4-.89,8.2-.82,16.41-1.64,24.61-2.46,3.94-.39,7.87-.79,11.81-1.18,1.21-.12,2.08-1.59,1.06-2.56-9.48-8.97-18.95-17.94-28.43-26.91-2.35-2.23-4.71-4.46-7.06-6.68-2.12-2.01-4.35-3.95-6.31-6.12-2.84-3.13-6.57-8.05-5.56-12.6,1.31-5.88,8.67-5.29,13.21-4.74,1.91.23,1.9-2.77,0-3-5.05-.62-11.1-.83-14.53,3.66-3.23,4.23-1.55,9.73.99,13.84,3.25,5.26,8.17,9.27,12.62,13.47,5.19,4.91,10.38,9.83,15.57,14.74,5.79,5.48,11.59,10.97,17.38,16.45l1.06-2.56c-8.2.82-16.41,1.64-24.61,2.46-4.1.41-8.2.82-12.3,1.23-2.79.28-5.6.71-8.4.84-1.88.09-3.78,0-5.67,0h-140.93c-2.37,0-4.88-.23-7.25,0-.1,0-.2,0-.31,0l1.3,2.26c9.53-12.64,19.12-25.23,29.06-37.56,9.86-12.22,20.05-24.17,30.81-35.6,10.76-11.43,22.11-22.33,34.19-32.35,3.05-2.53,6.15-5.01,9.3-7.42,2.83-2.17,5.96-4.13,8.46-6.69,2.32-2.37,3.91-5.49,3.17-8.87-.68-3.15-3.31-5.58-6.19-6.81-3.54-1.51-7.48-1.08-11.09-.05-4.19,1.2-8.25,2.98-12.32,4.52-8.26,3.14-16.51,6.28-24.77,9.42l-6.25,2.38,1.16,2.74c22.84-16.9,45.68-33.8,68.52-50.7,6.41-4.74,12.82-9.49,19.23-14.23l-2.2-.9c1.83,12.25,6.79,23.96,14.02,34,7.2,10.01,16.59,18.48,27.47,24.33,6.16,3.32,12.78,5.78,19.63,7.23l.4-2.95c-16.56.51-33.06,2.35-49.32,5.48-1.34.26-1.37,2.09-.36,2.74,16.36,10.51,30.92,23.74,42.97,39,3.39,4.29,6.55,8.74,9.51,13.33l1.3-2.26c-13.87-1.72-27.74-3.45-41.62-5.17-1.91-.24-1.89,2.76,0,3Z"/>
      </g>
    </g>
  </g>
</svg>