<?xml version="1.0" encoding="UTF-8"?>
<svg id="Layer_2" data-name="Layer 2" xmlns="http://www.w3.org/2000/svg" viewBox="0 0 1457.83 489.75">
  <defs>
    <style>
      .cls-1 {
        fill: #250020;
      }

      .cls-1, .cls-2, .cls-3 {
        stroke-width: 0px;
      }

      .cls-2 {
        fill: #2f0036;
      }

      .cls-3 {
        fill: #2a0034;
      }
    </style>
  </defs>
  <g id="TreesBackground">
    <g>
      <path class="cls-1" d="M1279.64,65.31c-11.72,25.15-35.41,52.45-54.31,72.77,20.1-2.07,39.38-11.4,53.46-25.88-22.08,45.02-55.93,84.21-97.26,112.59,37.65,6.22,78.06-8.19,103.28-36.81-32.77,71.04-89.08,128.04-144.28,183.47,38.17,1.69,76.77-8.08,109.53-27.72-24.44,29.89-52.11,57.14-82.37,81.13,24.38,4.75,49.75,3.94,73.86-1.88,21.05-5.09,42.42-19.91,64.69-12.46,8.47,2.83,16.12,7.65,24.36,11.08,19.02,7.92,40.55,8.15,60.79,4.29,20.24-3.86,39.51-11.61,58.62-19.3-15.1-6.98-30.19-13.96-45.29-20.94-4-1.85-8.73-5.03-7.83-9.35,20.02-2.92,39.88-6.96,59.46-12.09-16.89-11.02-38.07-13.35-55.86-22.83-28.77-15.33-44.85-46.9-70.15-67.45,24.54,15.57,55.83,13.92,84.81,11.74-22.91-4.33-42.97-18.82-57.93-36.71-14.96-17.88-25.37-39.08-34.83-60.4,21.01,5.87,43.03,8.13,64.8,6.65-17.3-8.48-34.6-17.44-49.2-30.01-14.6-12.57-26.45-29.2-29.87-48.16,12.28-.62,24.48-2.92,36.15-6.82-26.99-9.31-42.8-26.83-64.9-44.9"/>
      <path class="cls-1" d="M1278.35,64.55c-10.1,21.55-25.54,40.49-41.17,58.24-4.23,4.8-8.54,9.54-12.9,14.22-.8.86-.31,2.71,1.06,2.56,20.58-2.19,40.03-11.53,54.52-26.32l-2.36-1.82c-17.14,34.85-41.22,66.15-70.48,91.69-8.35,7.29-17.12,14.08-26.24,20.36-.94.65-1.03,2.52.36,2.74,29.83,4.84,61.19-2.73,85.79-20.22,6.94-4.93,13.31-10.61,18.95-16.98l-2.36-1.82c-12.72,27.51-29.08,53.18-47.46,77.24-18.56,24.31-39.15,47.01-60.32,69.05-11.94,12.43-24.1,24.66-36.26,36.87-.95.95-.22,2.51,1.06,2.56,29.93,1.28,60-4.36,87.49-16.24,7.85-3.39,15.46-7.3,22.8-11.69l-1.82-2.36c-19.08,23.3-40.07,45-62.76,64.8-6.41,5.6-12.95,11.03-19.62,16.32-.86.69-.38,2.31.66,2.51,19.54,3.76,39.58,4.08,59.25,1.13,9.31-1.4,18.43-3.51,27.29-6.69,8.37-3,16.58-6.52,25.21-8.76,8.61-2.24,17.61-2.93,26.21-.22,9.14,2.89,17.27,8.23,26.15,11.76,17.49,6.95,36.89,7.53,55.31,4.68,22.13-3.42,43.06-11.86,63.71-20.18,1.05-.42,1.66-2.14.36-2.74-9.92-4.59-19.84-9.18-29.76-13.76-4.96-2.29-9.92-4.58-14.88-6.88-2.96-1.38-8.45-3.86-7.79-7.95l-1.05,1.05c20.03-2.94,39.88-6.97,59.46-12.09,1.3-.34,1.41-2.06.36-2.74-18.34-11.84-41.04-13.73-59.67-25-17.04-10.31-29.54-26.29-42.4-41.14-7.34-8.48-14.94-16.8-23.64-23.91l-1.82,2.36c19.53,12.27,43.18,13.98,65.67,13.15,6.64-.25,13.27-.71,19.9-1.21,1.57-.12,2.17-2.61.4-2.95-36.05-6.96-61.27-36.66-77.9-67.46-5.09-9.43-9.61-19.16-13.96-28.95l-1.69,2.2c21.17,5.87,43.27,8.15,65.19,6.7,1.36-.09,2.19-2.09.76-2.8-26.79-13.14-54.91-28.25-70.19-55.11-3.93-6.9-6.75-14.36-8.2-22.17l-1.45,1.9c12.43-.66,24.73-2.96,36.55-6.87,1.44-.48,1.41-2.4,0-2.89-9.68-3.37-18.73-8.18-27.14-14.02s-15.84-12.33-23.43-18.89c-4.52-3.91-9.05-7.82-13.67-11.61-1.48-1.21-3.62.9-2.12,2.12,15.97,13.09,30.77,28.04,49.04,38,5.3,2.89,10.83,5.31,16.52,7.29v-2.89c-11.57,3.83-23.57,6.12-35.75,6.76-1.03.05-1.63.91-1.45,1.9,5.6,30.23,30.15,51.76,55.56,66.41,7.89,4.55,16.03,8.65,24.21,12.66l.76-2.8c-21.68,1.43-43.46-.79-64.4-6.6-1.37-.38-2.2,1.06-1.69,2.2,14.96,33.68,33.4,68.56,66.52,87.55,8.43,4.84,17.59,8.4,27.14,10.25l.4-2.95c-22.16,1.67-45.34,3.27-66.84-3.57-6.06-1.93-11.83-4.58-17.21-7.96-1.41-.89-3.16,1.26-1.82,2.36,15.62,12.75,27.46,29.23,41.14,43.89,6.64,7.11,13.77,13.83,21.85,19.29,8.86,5.99,18.76,9.81,28.87,13.15,11.82,3.9,23.91,7.38,34.46,14.19l.36-2.74c-19.58,5.12-39.43,9.15-59.46,12.09-.46.07-.97.59-1.05,1.05-.69,4.27,2.18,7.35,5.59,9.48,2.15,1.34,4.52,2.3,6.81,3.36,2.8,1.3,5.61,2.59,8.41,3.89,11,5.09,22,10.17,33,15.26l.36-2.74c-35.16,14.16-74.55,29.65-112.6,17.24-8.92-2.91-16.9-7.83-25.51-11.45s-16.78-4.68-25.72-3.38c-8.57,1.24-16.73,4.3-24.79,7.34-8.5,3.21-16.93,6.15-25.84,7.99-22.05,4.53-44.96,4.8-67.07.54l.66,2.51c23.58-18.72,45.6-39.38,65.75-61.76,5.69-6.32,11.23-12.78,16.62-19.37,1.02-1.25-.26-3.29-1.82-2.36-25.42,15.19-54.28,24.5-83.79,27.01-8.31.71-16.65.87-24.98.51l1.06,2.56c21.7-21.79,43.38-43.63,63.87-66.58,20.3-22.74,39.47-46.6,55.92-72.3,9.22-14.4,17.55-29.37,24.73-44.9.66-1.43-1.14-3.19-2.36-1.82-19.45,21.95-47.7,35.51-76.91,37.53-8.31.58-16.69.23-24.91-1.11l.36,2.74c16.14-11.11,31.18-23.81,44.81-37.89,13.69-14.14,25.99-29.66,36.63-46.23,6-9.35,11.46-19.04,16.36-29.01.72-1.47-1.11-3.09-2.36-1.82-13.9,14.19-32.63,23.34-52.4,25.44l1.06,2.56c16.33-17.55,32.33-35.79,45.16-56.11,3.45-5.47,6.64-11.1,9.38-16.96.81-1.74-1.77-3.26-2.59-1.51h0Z"/>
    </g>
    <g>
      <path class="cls-3" d="M545.91,72.53c-18.53,58.63-54.41,111.65-101.96,150.63,31.37-8.4,62.75-16.81,94.12-25.21-26.43,47.75-65.38,88.5-111.88,117.05,31.53-5.31,62.71-12.72,93.26-22.16-32.86,61.26-77.48,116.19-130.71,160.92,31.6-2.72,62.64-11.69,90.82-26.25-18.31,15.67-20.76,17.76-36.31,31.07,33.18-19.13,67.91,4.31,106.12,1.71,41.97-2.86,87.92-30.2,128.51-41.25-36.6-20.61-69.44-47.88-96.42-80.06,35.52,19.63,78.42,25.49,117.9,16.1,3.93-.93,8.1-2.18,10.64-5.33,7.42-9.17-5.14-21.05-15.8-26.08-33.05-15.59-66.11-31.18-99.16-46.77,33.02,6.07,67.13,12.13,99.87,4.72-31.26-18.87-60.93-40.37-88.58-64.22,28.29,4.28,57.76.45,84.02-10.92-26.28-13.13-52.57-26.25-78.85-39.38,3.23-9.79,17.14-8.55,27.35-7.12s24.91-4.79,20.9-14.28c-1.67-3.95-6.05-5.86-9.93-7.66-22.53-10.44-40.85-29.68-50.17-52.7,17.2,1.52,34.85-2.63,49.57-11.66-37.27-12.38-71.87-32.74-100.8-59.31,7.44,3.5,14.89,7,22.33,10.49-23.68,25.75-50.08,49.01-78.62,69.24,16.43-2.01,32.85-4.02,49.28-6.02-3.08,4.98-6.16,9.95-9.24,14.93"/>
      <path class="cls-2" d="M544.46,72.13c-14.5,45.69-39.46,87.93-72.39,122.76-9.15,9.67-18.9,18.76-29.19,27.21-1.21.99.1,2.87,1.46,2.51,31.37-8.4,62.75-16.81,94.12-25.21l-1.69-2.2c-20.55,37.03-48.52,69.79-81.82,95.96-9.43,7.41-19.31,14.26-29.53,20.55-1.52.93-.47,3.02,1.16,2.74,31.53-5.33,62.7-12.74,93.26-22.16l-1.69-2.2c-12.79,23.81-27.32,46.67-43.46,68.34s-34.06,42.33-53.32,61.47c-10.8,10.73-22.05,21.01-33.7,30.81-.96.81-.21,2.67,1.06,2.56,31.92-2.8,63.08-11.79,91.57-26.46l-1.82-2.36c-12.1,10.36-24.21,20.72-36.31,31.07-1.32,1.13.37,3.18,1.82,2.36,28.42-16.14,60.56-.74,90.36,1.73,32.24,2.67,63.62-10.68,92.87-22.51,16.78-6.79,33.56-13.82,51.05-18.61,1.23-.34,1.49-2.1.36-2.74-28.45-16.07-54.61-36.07-77.52-59.36-6.47-6.57-12.66-13.41-18.6-20.47l-1.82,2.36c32.18,17.69,70,24.3,106.29,18.74,4.51-.69,9-1.55,13.42-2.65,3.67-.91,7.56-2.19,10.21-5.05,4.79-5.17,3.28-11.99-.63-17.16-4.9-6.48-11.88-10.29-19.07-13.69-9.81-4.63-19.62-9.25-29.43-13.88-21.9-10.33-43.8-20.66-65.7-30.99l-1.16,2.74c33.08,6.08,67.28,12.15,100.67,4.72,1.3-.29,1.42-2.1.36-2.74-24.21-14.63-47.49-30.81-69.59-48.47-6.33-5.06-12.56-10.23-18.69-15.52l-1.46,2.51c28.83,4.28,58.4.44,85.17-11.07,1.02-.44.94-2.12,0-2.59-26.28-13.13-52.57-26.25-78.85-39.38l.69,1.69c3.2-8.98,16.4-7.24,23.74-6.31,7.88,1,17.96.08,23.22-6.78,2.28-2.97,2.59-6.72.86-10.05-2.38-4.58-7.71-6.38-12.05-8.5-9.92-4.86-18.95-11.42-26.7-19.29-8.93-9.07-16.11-19.84-20.94-31.63l-1.45,1.9c17.54,1.47,35.28-2.73,50.32-11.87,1.14-.69.85-2.34-.36-2.74-28.8-9.61-55.97-23.93-80.18-42.26-6.92-5.23-13.56-10.81-19.96-16.67l-1.82,2.36c7.44,3.5,14.89,7,22.33,10.49l-.3-2.36c-18.33,19.9-38.24,38.32-59.53,55.01-6.15,4.82-12.42,9.48-18.79,14-1.06.75-.88,2.99.76,2.8,16.43-2.01,32.85-4.02,49.28-6.02l-1.3-2.26c-3.08,4.98-6.16,9.95-9.24,14.93-1.02,1.65,1.58,3.15,2.59,1.51,3.08-4.98,6.16-9.95,9.24-14.93.55-.89-.15-2.4-1.3-2.26-16.43,2.01-32.85,4.02-49.28,6.02l.76,2.8c22.27-15.82,43.27-33.4,62.68-52.62,5.55-5.49,10.96-11.12,16.25-16.86.6-.65.61-1.93-.3-2.36-7.44-3.5-14.89-7-22.33-10.49-1.45-.68-3.16,1.13-1.82,2.36,22.77,20.85,48.91,37.95,77.19,50.35,7.95,3.48,16.04,6.6,24.27,9.35l-.36-2.74c-14.63,8.88-31.75,12.88-48.81,11.46-.9-.08-1.8,1.03-1.45,1.9,8.11,19.82,22.43,36.8,40.65,48.09,4.62,2.86,9.61,4.9,14.34,7.52,3.89,2.15,7.66,6.43,4.63,10.88-2.4,3.52-7.1,5.2-11.09,5.99-4.36.86-8.5.09-12.84-.34-8.58-.86-20.37-.89-23.83,8.83-.21.59.13,1.42.69,1.69,26.28,13.13,52.57,26.25,78.85,39.38v-2.59c-25.95,11.15-54.92,14.92-82.86,10.76-1.31-.19-2.73,1.41-1.46,2.51,21.63,18.63,44.45,35.86,68.33,51.51,6.77,4.44,13.63,8.75,20.56,12.94l.36-2.74c-32.83,7.31-66.55,1.26-99.07-4.72-1.55-.28-2.8,1.96-1.16,2.74,18.27,8.62,36.55,17.24,54.82,25.86,9,4.25,18,8.49,27.01,12.74,4.57,2.15,9.14,4.31,13.7,6.46,3.62,1.71,7.18,3.4,10.45,5.74,4.81,3.44,11.87,9.78,10.26,16.5-.95,3.97-4.65,6.11-8.27,7.25-3.99,1.26-8.17,2.02-12.28,2.75-17.3,3.07-35.16,3.27-52.54.69-19.33-2.86-38.09-9.1-55.21-18.51-1.55-.85-2.89,1.08-1.82,2.36,21.1,25.11,45.68,47.23,72.87,65.56,7.75,5.23,15.71,10.13,23.85,14.73l.36-2.74c-31.72,8.7-61.05,24.29-92.45,33.96-15.18,4.67-30.98,8.11-46.95,7.31s-31.39-5.21-47.1-7.72c-16.68-2.66-33.45-2.4-48.49,6.15l1.82,2.36c12.1-10.36,24.21-20.72,36.31-31.07,1.35-1.15-.37-3.1-1.82-2.36-27.99,14.41-58.69,23.3-90.06,26.05l1.06,2.56c20.78-17.48,40.26-36.48,58.23-56.83s34.46-42.02,49.26-64.77c8.37-12.87,16.19-26.09,23.45-39.61.6-1.11-.4-2.6-1.69-2.2-30.56,9.42-61.72,16.83-93.26,22.16l1.16,2.74c36.39-22.4,68.14-52.1,93-86.85,7.06-9.86,13.53-20.13,19.42-30.74.63-1.14-.41-2.55-1.69-2.2-31.37,8.4-62.75,16.81-94.12,25.21l1.46,2.51c37.32-30.67,67.52-69.88,87.77-113.73,5.64-12.2,10.5-24.76,14.57-37.57.59-1.84-2.31-2.63-2.89-.8h0Z"/>
    </g>
    <g>
      <path class="cls-3" d="M156.99,1.44c7.88,25.27,25.89,47.22,49.13,59.89-15.97,5.73-35.67-19.04-47.48-6.86,30.37,30.3,61.01,60.34,91.91,90.11-19.99,6.06-42.63,2.69-59.98-8.93,18.59,16.03,26.52,40.82,39.61,61.59,14.32,22.73,34.91,40.69,55.19,58.31-28.92-3.72-57.85-7.44-86.77-11.16,34.03,38.81,68.05,77.61,102.08,116.42-13.97,4.01-27.95,8.03-41.92,12.04,6.17,5.94,12.34,11.88,18.51,17.82,2.75,2.65,5.75,6.28,4.39,9.85-1.32,3.46-5.77,4.27-9.46,4.54-13.39.99-26.79,1.99-40.18,2.98,27.27,9.98,52.71,24.96,74.67,43.97-31.2,11.21-63.11,22.55-96.27,23.02-20.53.3-41.65-3.54-61.24,2.63-9.08,2.86-17.56,7.81-26.98,9.13-10.34,1.45-20.75-1.62-30.6-5.09-22.3-7.86-43.81-17.97-64.09-30.13,15.82-17.17,30.37-35.52,43.47-54.84-22.65,5.77-45.98,8.85-69.35,9.15,24.65-17.19,49.3-34.38,73.94-51.58,12.99-22.23,9.83-52.73-7.45-71.83-21.55,11.22-42.5,23.6-62.73,37.07,30.46-21.62,63.29-46.79,70.41-83.45-18.45,2.35-37.78-3.28-52.08-15.17,34.59-28.28,65.6-60.94,92.06-96.95-17.84.74-35.68,1.47-53.52,2.21,24.27-32.72,77.02-43.5,86.06-83.22-11.91,2.19-23.82,4.38-35.72,6.57,17.3-10.06,31.07-26.04,38.48-44.62,5.94,2.64,11.88,5.27,17.82,7.91"/>
      <path class="cls-2" d="M155.55,1.84c8.13,25.71,26.19,47.79,49.82,60.78l.36-2.74c-8.96,3.03-18.31-3.08-26.19-6.64-7.12-3.23-15.61-6.13-21.95.17-.57.57-.57,1.55,0,2.12,23.69,23.63,47.53,47.1,71.54,70.41,6.78,6.58,13.57,13.15,20.37,19.7l.66-2.51c-19.8,5.88-41.6,2.61-58.83-8.78-1.41-.93-3.11,1.23-1.82,2.36,14.63,12.76,22.63,30.74,31.54,47.56,4.73,8.92,9.91,17.5,16.08,25.5s13.3,15.71,20.66,22.89c8.53,8.32,17.52,16.14,26.52,23.95l1.06-2.56c-28.92-3.72-57.85-7.44-86.77-11.16-1.41-.18-1.82,1.7-1.06,2.56,26.48,30.2,52.95,60.39,79.43,90.59,7.55,8.61,15.1,17.22,22.65,25.83l.66-2.51c-13.97,4.01-27.95,8.03-41.92,12.04-1.07.31-1.49,1.71-.66,2.51,5.26,5.06,10.51,10.12,15.77,15.18,2.43,2.34,5.85,4.89,6.83,8.28s-2.13,5.17-5.01,5.78c-3.18.67-6.55.67-9.78.91-3.67.27-7.33.54-11,.82-7.49.56-14.99,1.11-22.48,1.67-1.71.13-2,2.36-.4,2.95,27.04,9.95,52.18,24.76,74,43.58l.66-2.51c-18.08,6.49-36.21,12.98-54.92,17.44-9.29,2.22-18.72,3.94-28.24,4.83-9.32.88-18.62.77-27.96.38-9.38-.4-18.8-.95-28.18-.27-9.19.67-17.81,2.82-26.34,6.28s-17.11,6.95-26.67,6.34-19.22-4.21-28.32-7.62c-19.93-7.46-39.14-16.76-57.4-27.68l.3,2.36c15.9-17.28,30.51-35.72,43.7-55.15.77-1.13-.5-2.51-1.69-2.2-22.56,5.71-45.69,8.76-68.95,9.09l.76,2.8c21.73-15.16,43.47-30.32,65.2-45.48l7.16-4.99c1.03-.72,1.84-1.2,2.48-2.26.73-1.21,1.35-2.49,1.95-3.77,1.96-4.16,3.45-8.54,4.41-13.03,2-9.26,1.92-18.93-.13-28.17-2.31-10.4-7.17-20.12-14.28-28.07-.46-.51-1.25-.53-1.82-.23-21.55,11.24-42.49,23.61-62.73,37.07l1.51,2.59c23.72-16.85,48.9-35.22,62.87-61.48,3.83-7.19,6.64-14.88,8.23-22.87.17-.84-.41-2.03-1.45-1.9-18.18,2.21-36.84-3.09-51.02-14.73v2.12c27.1-22.19,52.03-47.02,74.28-74.08,6.21-7.56,12.22-15.29,18.01-23.17.68-.92-.23-2.3-1.3-2.26-17.84.74-35.68,1.47-53.52,2.21l1.3,2.26c19.77-26.42,54.4-35.84,75.03-61.27,5.33-6.56,9.25-14.06,11.18-22.31.28-1.18-.71-2.05-1.85-1.85-11.91,2.19-23.82,4.38-35.72,6.57l1.16,2.74c17.7-10.39,31.5-26.5,39.17-45.52l-2.2.9c5.94,2.64,11.88,5.27,17.82,7.91,1.75.78,3.28-1.81,1.51-2.59-5.94-2.64-11.88-5.27-17.82-7.91-.96-.43-1.81-.07-2.2.9-7.37,18.27-20.81,33.76-37.79,43.73-1.53.9-.46,3.04,1.16,2.74,11.91-2.19,23.82-4.38,35.72-6.57l-1.85-1.85c-3.63,15.54-14.6,27.13-26.99,36.5s-27.06,17.63-39.83,27.52c-7.11,5.51-13.69,11.63-19.09,18.84-.69.92.24,2.3,1.3,2.26,17.84-.74,35.68-1.47,53.52-2.21l-1.3-2.26c-20.6,28-43.93,53.96-69.58,77.42-7.23,6.61-14.65,13.02-22.24,19.23-.59.48-.58,1.64,0,2.12,14.77,12.13,34.14,17.92,53.14,15.61l-1.45-1.9c-5.74,28.82-27.38,50.31-49.68,67.76-6.54,5.12-13.28,9.98-20.05,14.79-1.55,1.1-.11,3.67,1.51,2.59,20.24-13.46,41.18-25.83,62.73-37.07l-1.82-.23c12.34,13.81,17.35,33.45,13.98,51.58-.83,4.49-2.15,8.91-4.02,13.08-.98,2.2-1.87,4.43-3.8,5.91-2.55,1.96-5.31,3.7-7.95,5.55-10.07,7.02-20.14,14.05-30.21,21.07-11.4,7.95-22.79,15.9-34.19,23.85-1.16.81-.83,2.82.76,2.8,23.52-.34,46.95-3.43,69.75-9.2l-1.69-2.2c-13.06,19.22-27.51,37.44-43.24,54.54-.65.71-.55,1.84.3,2.36,16.3,9.75,33.36,18.19,51,25.23,8.98,3.58,18.18,7.24,27.66,9.26s17.95,1.53,26.76-1.58,17.12-7.22,26.45-8.83,19.28-1.44,28.9-1.06c9.45.38,18.9.94,28.36.47s18.97-1.79,28.29-3.69c21.53-4.38,42.28-11.8,62.91-19.21.98-.35,1.58-1.71.66-2.51-22.23-19.17-47.78-34.21-75.33-44.35l-.4,2.95c8.93-.66,17.86-1.32,26.79-1.99,4.46-.33,8.93-.62,13.39-.99,2.64-.22,5.42-.56,7.74-1.94,6.21-3.69,2.84-10.51-1.06-14.47-6.18-6.28-12.72-12.25-19.06-18.36l-.66,2.51c13.97-4.01,27.95-8.03,41.92-12.04,1.14-.33,1.4-1.67.66-2.51-26.48-30.2-52.95-60.39-79.43-90.59-7.55-8.61-15.1-17.22-22.65-25.83l-1.06,2.56c28.92,3.72,57.85,7.44,86.77,11.16,1.28.17,1.99-1.76,1.06-2.56-15.89-13.8-31.91-27.73-45.11-44.21-6.45-8.05-11.89-16.73-16.77-25.81-4.51-8.4-8.66-17-13.47-25.23-5.3-9.08-11.49-17.7-19.45-24.64l-1.82,2.36c17.86,11.8,40.62,15.17,61.14,9.08,1.06-.31,1.49-1.71.66-2.51-24.09-23.22-48.03-46.59-71.81-70.13-6.71-6.65-13.41-13.3-20.1-19.97v2.12c6.37-6.33,15.82-.91,22.43,2.22,7.43,3.53,16.03,7.85,24.39,5.02,1.17-.4,1.55-2.09.36-2.74-22.95-12.62-40.54-34-48.44-58.99-.58-1.83-3.48-1.05-2.89.8h0Z"/>
    </g>
    <g>
      <path class="cls-3" d="M463.47,481.49c-24.81-.04-52.16-1.03-70.36-17.89.81,7.47,2.13,14.88,3.96,22.17-6.43.97-13.3-1.94-17.07-7.25,2.14,2.53.49,6.73-2.4,8.37s-6.41,1.45-9.72,1.21c-11.87-.84-23.74-1.68-35.61-2.52-1.45-.1-3.05-.28-4.01-1.36-.89-1-.95-2.46-.97-3.8-.06-5.24-.13-10.47-.19-15.71-18.31,9.92-38.24,16.84-58.76,20.4l.75,1.24c6.31-9.18,14.26-17.56,21.55-26.12-9.39,4.11-20.02,5.33-30.09,3.43,8.35-8.76,15.11-19.04,19.84-30.18-11.08.58-22.23-.41-33.04-2.91,16.57-9.1,31.08-21.93,42.15-37.25-25.76,6.45-52.16,10.35-78.68,11.63,25.09-18.68,51.47-35.65,78.87-50.73-4.4,2.59-9.56,3.88-14.66,3.67,19.56-7.09,36.69-20.73,47.98-38.21-16.1,4.88-33.13,6.72-49.9,5.38,14.79-13,29.58-26,44.37-38.99-25.38,4.47-50.77,8.93-76.15,13.4,37.44-20.43,72.17-45.82,103-75.29-10.02,7.07-22.15,11.1-34.41,11.45,9.29-15.02,20.12-29.08,32.27-41.89-11.54,4.82-23.08,9.63-34.62,14.45,23.43-19.49,50.3-38.66,61.78-66.89l-.07-.19c10.29,32.42,29.61,61.93,55.22,84.31-12.51,3.45-25.75,4.21-38.57,2.21,10.05,10.82,21.24,20.58,33.34,29.05-11.91-1.52-24.21.14-35.3,4.74,32.93,28.56,66.25,56.66,99.95,84.31-28.41-.54-56.66-7.98-81.66-21.49,8.49,11.84,20.23,21.32,33.59,27.13-9.5,1.94-14.5,2.94-23.53,3.97,16.03,17.97,49.28,34.1,68.94,44.66-7.66,1.49-15.31,2.98-22.97,4.47-2.45.48-5.19,1.15-6.46,3.29-1.95,3.27.81,7.27,3.49,9.98,9.49,9.61,20.04,18.17,31.41,25.46-17.21,7.05-35.61,11.19-54.18,12.2,4.43,13.19,15.31,24.05,28.52,28.46"/>
      <path class="cls-2" d="M463.47,479.99c-18.79-.04-38.93-.24-56.19-8.61-4.78-2.32-9.2-5.25-13.11-8.84-.86-.79-2.71-.32-2.56,1.06.84,7.61,2.17,15.14,4.02,22.56l1.05-1.85c-5.82.78-11.91-1.84-15.38-6.56l-2.59,1.51c1.42,1.87.59,4.36-1.1,5.79-2.29,1.93-5.75,1.77-8.54,1.61-6.56-.38-13.11-.92-19.66-1.39-3.42-.24-6.85-.48-10.27-.73-1.6-.11-3.2-.23-4.79-.34-1.26-.09-2.87.03-4.07-.47-1.66-.69-1.44-2.5-1.47-4.02-.02-1.59-.04-3.19-.06-4.78-.04-3.42-.08-6.83-.13-10.25-.01-1.16-1.26-1.84-2.26-1.3-18.24,9.84-37.98,16.67-58.4,20.25-.96.17-1.36,1.44-.9,2.2l.75,1.24c.62,1.01,1.95.92,2.59,0,6.36-9.2,14.07-17.33,21.32-25.81,1.15-1.35-.26-3.03-1.82-2.36-9.07,3.91-19.22,5.05-28.94,3.28l.66,2.51c8.43-8.9,15.25-19.21,20.08-30.49.41-.96-.04-2.32-1.3-2.26-10.97.54-21.93-.41-32.64-2.86l.36,2.74c16.82-9.29,31.4-22.24,42.69-37.79.81-1.12-.52-2.5-1.69-2.2-25.65,6.4-51.88,10.28-78.29,11.58l.76,2.8c19.53-14.52,39.81-28.02,60.76-40.4,5.99-3.54,12.03-6.98,18.11-10.33l-1.51-2.59c-4.27,2.44-8.99,3.61-13.9,3.47l.4,2.95c19.99-7.31,37.27-21.05,48.88-38.9.71-1.1-.47-2.57-1.69-2.2-16.04,4.82-32.81,6.62-49.5,5.33l1.06,2.56c14.79-13,29.58-26,44.37-38.99,1.23-1.08-.12-2.74-1.46-2.51-25.38,4.47-50.77,8.93-76.15,13.4l1.16,2.74c29.19-15.95,56.73-34.87,82.08-56.4,7.26-6.17,14.33-12.55,21.22-19.12,1.2-1.15-.4-3.35-1.82-2.36-9.9,6.91-21.58,10.85-33.66,11.25l1.3,2.26c9.25-14.91,19.98-28.84,32.04-41.59.94-.99.01-3.12-1.46-2.51-11.54,4.82-23.08,9.63-34.62,14.45l1.46,2.51c18.96-15.76,39.57-30.69,53.52-51.4,1.89-2.81,3.64-5.72,5.21-8.72.79-1.51,1.53-3.04,2.23-4.59.47-1.04,1.55-2.66,1.14-3.83-.63-1.81-3.48-1.06-2.89.8,8.11,25.43,21.62,49.05,39.41,68.95,5.07,5.67,10.48,11.01,16.2,16.03l.66-2.51c-12.29,3.34-25.17,4.13-37.77,2.21-1.43-.22-2.55,1.33-1.46,2.51,10.16,10.91,21.44,20.71,33.64,29.28l.76-2.8c-12.09-1.48-24.43.18-35.7,4.79-.95.39-1.61,1.69-.66,2.51,25.69,22.27,51.62,44.28,77.78,66,7.37,6.12,14.77,12.22,22.18,18.3l1.06-2.56c-21.93-.46-43.68-4.98-63.99-13.28-5.78-2.36-11.42-5.06-16.92-8.01-1.22-.66-2.99.76-2.05,2.05,8.71,12.06,20.49,21.69,34.13,27.67l.36-2.74c-7.68,1.56-15.34,3.02-23.13,3.92-1.29.15-1.99,1.53-1.06,2.56,7.13,7.94,15.96,14.3,24.88,20.06,9.55,6.17,19.52,11.66,29.56,16.99,4.93,2.62,9.88,5.2,14.8,7.84l.36-2.74c-6.42,1.25-12.84,2.5-19.25,3.75-4.24.82-10.55,1.29-11.77,6.44s3.5,9.21,6.63,12.27c4.23,4.14,8.66,8.08,13.28,11.79,5.2,4.18,10.62,8.09,16.23,11.7l.36-2.74c-17.13,6.98-35.32,11.11-53.79,12.14-.91.05-1.78.93-1.45,1.9,4.72,13.78,15.78,24.81,29.56,29.51,1.83.62,2.62-2.27.8-2.89-12.75-4.34-23.1-14.67-27.47-27.41l-1.45,1.9c18.73-1.05,37.2-5.17,54.58-12.25,1.18-.48,1.52-1.99.36-2.74-11.22-7.22-21.82-15.62-31.11-25.22-1.74-1.8-4.52-4.85-3.52-7.61s4.85-2.96,7.18-3.42c7.21-1.4,14.41-2.81,21.62-4.21,1.27-.25,1.45-2.15.36-2.74-18.99-10.19-38.61-19.69-55.81-32.82-4.58-3.5-8.96-7.31-12.82-11.6l-1.06,2.56c8.06-.93,15.99-2.41,23.93-4.02,1.19-.24,1.54-2.22.36-2.74-13.15-5.77-24.64-14.94-33.05-26.59l-2.05,2.05c19.67,10.59,41.2,17.47,63.36,20.3,6.32.81,12.68,1.26,19.06,1.4,1.22.03,2.09-1.72,1.06-2.56-26.29-21.57-52.35-43.41-78.17-65.54-7.28-6.24-14.54-12.49-21.78-18.77l-.66,2.51c11.06-4.53,23.04-6.14,34.9-4.68,1.63.2,1.83-2.04.76-2.8-11.99-8.42-23.05-18.09-33.03-28.81l-1.46,2.51c13.15,2,26.53,1.28,39.36-2.21,1.04-.28,1.53-1.75.66-2.51-19.79-17.35-35.78-38.84-46.77-62.76-3.12-6.79-5.8-13.77-8.07-20.89l-2.89.8c-.09-.27-.45.62-.62,1.02-.29.66-.59,1.31-.89,1.96-.65,1.37-1.33,2.73-2.05,4.07-1.4,2.59-2.92,5.11-4.56,7.55-3.28,4.9-7,9.47-10.98,13.81-8.13,8.86-17.28,16.72-26.54,24.35-5.22,4.3-10.49,8.53-15.69,12.85-1.11.93.08,3.08,1.46,2.51,11.54-4.82,23.08-9.63,34.62-14.45l-1.46-2.51c-12.23,12.93-23.13,27.07-32.51,42.2-.59.95.17,2.29,1.3,2.26,12.57-.42,24.85-4.46,35.17-11.66l-1.82-2.36c-24.02,22.94-50.36,43.41-78.56,60.97-7.91,4.93-15.96,9.62-24.14,14.09-1.58.86-.43,3.02,1.16,2.74,25.38-4.47,50.77-8.93,76.15-13.4l-1.46-2.51c-14.79,13-29.58,26-44.37,38.99-1.06.93-.13,2.47,1.06,2.56,16.94,1.31,34.03-.55,50.3-5.43l-1.69-2.2c-11.16,17.16-27.86,30.49-47.09,37.52-1.55.57-1.36,2.9.4,2.95,5.42.15,10.71-1.19,15.42-3.88,1.68-.96.18-3.52-1.51-2.59-21.31,11.75-42,24.6-61.96,38.54-5.7,3.98-11.34,8.05-16.92,12.2-1.08.81-.88,2.88.76,2.8,26.67-1.31,53.18-5.22,79.08-11.69l-1.69-2.2c-10.98,15.12-25.26,27.68-41.61,36.71-1.1.61-.9,2.45.36,2.74,10.96,2.51,22.21,3.52,33.44,2.97l-1.3-2.26c-4.73,11.04-11.34,21.16-19.61,29.88-.72.76-.5,2.3.66,2.51,10.59,1.93,21.37.68,31.25-3.58l-1.82-2.36c-7.41,8.68-15.28,17.01-21.79,26.42h2.59l-.75-1.24-.9,2.2c20.66-3.62,40.66-10.58,59.12-20.55l-2.26-1.3c.04,3.19.08,6.37.12,9.56.03,2.83-.36,6.05.34,8.81.57,2.26,2.37,3.47,4.58,3.82,3.01.47,6.12.49,9.15.71,6.39.45,12.78.9,19.17,1.36,3.26.23,6.52.49,9.78.69,2.64.16,5.41.21,7.92-.72,4.22-1.55,7.78-7.01,4.61-11.18-1.15-1.51-3.74-.05-2.59,1.51,4.36,5.93,11.48,8.92,18.77,7.93.82-.11,1.22-1.15,1.05-1.85-1.78-7.16-3.1-14.43-3.91-21.77l-2.56,1.06c14.72,13.49,35.02,17.04,54.3,17.98,5.7.28,11.41.34,17.12.35,1.93,0,1.93-3,0-3h0Z"/>
    </g>
  </g>
</svg>