<?xml version="1.0" encoding="UTF-8"?>
<svg id="Layer_2" data-name="Layer 2" xmlns="http://www.w3.org/2000/svg" viewBox="0 0 328.72 350">
  <defs>
    <style>
      .cls-1 {
        fill: #ff8150;
      }

      .cls-1, .cls-2, .cls-3, .cls-4, .cls-5, .cls-6, .cls-7, .cls-8, .cls-9, .cls-10, .cls-11, .cls-12, .cls-13, .cls-14 {
        stroke-width: 0px;
      }

      .cls-15 {
        stroke: #ff9852;
        stroke-miterlimit: 10;
        stroke-width: 3px;
      }

      .cls-15, .cls-5 {
        fill: #ff9852;
      }

      .cls-2 {
        fill: #f46640;
      }

      .cls-3 {
        fill: #d452f4;
      }

      .cls-4 {
        fill: #ffcaa6;
      }

      .cls-6 {
        fill: #aa0f3e;
      }

      .cls-7 {
        fill: #ff8440;
      }

      .cls-8 {
        fill: #ef5c3f;
      }

      .cls-9 {
        fill: #bb0fe6;
      }

      .cls-10 {
        fill: #f23053;
      }

      .cls-11 {
        fill: #ff8e50;
      }

      .cls-12 {
        fill: #f9763d;
      }

      .cls-13 {
        fill: #ff9250;
      }

      .cls-14 {
        fill: #ea98ff;
      }
    </style>
  </defs>
  <g id="Anteaters">
    <g id="L1_BuffAnteater">
      <g>
        <path class="cls-7" d="M145.27,333.4c2.16,6.61,8.53,13.77,15.06,11.39,2.04-.74,3.62-2.39,4.88-4.15,7.69-10.75,5.27-25.37,3.72-38.5-4.66-39.54,1.81-79.79-3.27-119.28l-48.14,38.38s14,32,19.04,55.57c1.6,7.48,3.61,42.99,2.28,36.71-1.33-6.28,5.17,16.04,6.42,19.88Z"/>
        <path class="cls-7" d="M143.82,333.8c1.6,4.74,4.81,9.68,9.47,11.88,2.17,1.02,4.6,1.4,6.93.71,2.63-.77,4.59-2.69,6.16-4.85,6.74-9.22,6.1-21.44,4.89-32.21-.7-6.28-1.5-12.53-1.93-18.84-.46-6.8-.66-13.62-.72-20.44-.11-13.67.38-27.34.54-41.01.18-15.42-.07-30.88-2.02-46.19-.17-1.34-1.49-1.91-2.56-1.06-5.43,4.33-10.86,8.66-16.29,12.99-8.64,6.89-17.29,13.79-25.93,20.68-1.97,1.57-3.94,3.14-5.91,4.71-.56.44-.48,1.25-.23,1.82,5.55,12.68,10.73,26.49,14.86,40.02,2.19,7.15,4.16,14.4,4.91,21.69.71,6.9,1.18,13.83,1.53,20.76.14,2.74.29,5.49.25,8.24,0,.36-.03.71-.04,1.07-.01.3.18-.25,0-.06-.02.02,0,.06-.02.08.63-.91.49-.43,2.62-.35.15,0,.1.42.05.06-.02-.17-.08-.34-.11-.5-.04-.19-.04-.42-.11-.6-.08-.2.22.1.03.21,0-.03,0-.06,0-.09,0-.51-.25-.11-.73,1.2l-1.16.15s-.93-.66-.81-.57c.21.16-.11-.29-.03-.08s.16.42.23.63c.25.71.48,1.43.71,2.15.68,2.13,1.33,4.26,1.97,6.4,1.15,3.8,2.24,7.63,3.47,11.41.59,1.83,3.49,1.05,2.89-.8-1.17-3.58-2.2-7.21-3.29-10.82-.63-2.09-1.27-4.18-1.92-6.26-.41-1.31-.74-2.76-1.37-4-.39-.76-1.15-1.24-2.02-.88s-.99,1.24-.86,2.07c.15.97.33,2.29,1.45,2.59,2.88.79,2.07-5.08,2.03-6.43-.28-9.16-.89-18.36-1.93-27.46-.54-4.74-1.62-9.32-2.88-13.93-1.89-6.93-4.14-13.76-6.54-20.53-2.04-5.74-4.22-11.44-6.49-17.1-1.25-3.11-2.43-6.29-3.87-9.32-.07-.15-.13-.3-.19-.44l-.23,1.82c5.43-4.33,10.86-8.66,16.29-12.99,8.64-6.89,17.29-13.79,25.93-20.68,1.97-1.57,3.94-3.14,5.91-4.71l-2.56-1.06c3.3,25.86,1.71,51.95,1.49,77.93-.11,12.99.13,26,1.51,38.93,1.12,10.53,3.5,21.75.55,32.19-.77,2.73-1.95,5.32-3.56,7.65s-3.8,4.34-6.78,4.19c-5.28-.26-9.14-6.27-10.65-10.75-.61-1.82-3.51-1.04-2.89.8Z"/>
      </g>
      <g>
        <path class="cls-7" d="M155.45,169.81c5.75,4.84,5.19,14.16,11.83,17.68,6.64,3.52,14.21,4.86,21.16,7.74,1.79.74,3.88,2.38,3.13,4.16-4.23-2.53-10.46-.61-12.54,3.86-.88,1.89-1.07,4.04-1.96,5.93-1.61,3.4-5.24,5.39-8.87,6.4s-7.43,1.27-11.02,2.4c-.42.13-.85.28-1.19.56-.72.6-.87,1.63-.98,2.56-.43,3.89-.84,7.92.37,11.64,1.21,3.72,4.52,7.06,8.44,7,2.91-.05,5.55-1.91,8.46-2.04,1.7-.08,3.43.44,5.1.14s3.32-2.03,2.62-3.58c3.96,2.88,9.38-.21,13.19-3.28,9.21-7.41,18.15-15.14,26.8-23.18,4.25-3.95,8.82-9.21,7.33-14.82,2.57-1.38,4.12-4.46,3.69-7.34-.43-2.89-2.81-5.38-5.68-5.94-.85-7.92-4.3-15.53-9.68-21.4-2.94-3.2-6.42-5.87-9.87-8.52-9.87-7.56-19.74-15.13-29.61-22.69-.9-.69-1.96-1.43-3.08-1.21-1.8.34-2.83,2.35-4.65,2.6-12.95,1.76-21.73-1.02-29.34,8.37s-14.61,12.39-4.61,21.39,16.86,8.15,20.93,11.57Z"/>
        <path class="cls-7" d="M154.39,170.87c4.26,3.69,4.81,9.68,7.97,14.12,1.83,2.57,4.29,3.99,7.15,5.22,3.51,1.51,7.16,2.62,10.8,3.76,2.04.64,4.08,1.29,6.09,2.05,1.06.4,4.25,1.38,3.72,2.97l2.2-.9c-4.73-2.7-11.25-1.07-14.14,3.57-1.82,2.92-1.55,6.62-4.11,9.14-2.29,2.25-5.49,3.23-8.55,3.87-1.84.39-3.71.66-5.55,1.04-1.6.33-3.77.6-5.03,1.76-1.16,1.06-1.3,2.61-1.46,4.07-.21,1.95-.41,3.92-.38,5.89.09,6.01,3.16,13.24,10.03,13.78,1.92.15,3.75-.47,5.53-1.08,2.07-.72,3.78-1,5.96-.8,1.94.18,3.85.15,5.42-1.15,1.28-1.06,1.99-2.7,1.42-4.32l-2.2,1.69c3.59,2.45,7.99,1.09,11.42-.96,4.16-2.49,7.84-5.98,11.55-9.09,3.91-3.28,7.78-6.63,11.59-10.03,3.58-3.2,7.38-6.33,10.54-9.96s5.61-8.03,4.43-12.93l-.69,1.69c3.08-1.76,4.92-5.3,4.41-8.84-.51-3.51-3.31-6.42-6.75-7.19l1.1,1.45c-.7-6.22-2.78-12.21-6.22-17.45-3.69-5.6-8.81-9.72-14.08-13.76-5.92-4.54-11.84-9.08-17.76-13.61-2.89-2.22-5.79-4.44-8.68-6.66-2.32-1.78-5.17-4.92-8.36-3.45-1.08.5-1.83,1.45-2.87,1.99-1.16.61-2.85.51-4.14.62-2.64.22-5.3.31-7.94.46-4.56.26-9.22.76-13.23,3.12-2.26,1.33-4.11,3.15-5.77,5.16-1.78,2.15-3.71,4.17-5.56,6.26-2.74,3.1-5.32,6.73-3.5,10.98,1.31,3.05,4.03,5.44,6.55,7.5s5.15,3.81,8.04,5.2c2.11,1.02,4.3,1.81,6.5,2.6,1.58.57,3.26,1.14,4.57,2.22,1.48,1.22,3.61-.89,2.12-2.12-2.57-2.11-5.86-2.91-8.9-4.08-5-1.93-9.58-4.95-13.35-8.75-1.38-1.39-3-3.16-3.18-5.21-.14-1.63.82-3.13,1.76-4.38,1.41-1.87,3.1-3.54,4.66-5.28,1.78-1.97,3.34-4.17,5.36-5.91,3.2-2.75,7.26-3.75,11.38-4.11,2.39-.21,4.79-.28,7.19-.41,1.3-.07,2.6-.16,3.89-.28s2.77-.13,4.01-.52c1.15-.36,1.96-1.15,2.9-1.85,1.28-.95,2.02-.47,3.21.42,2.79,2.08,5.53,4.24,8.29,6.35,5.53,4.24,11.05,8.47,16.58,12.71s11.77,8.45,16.17,14.11c4.05,5.21,6.64,11.59,7.38,18.14.07.64.41,1.29,1.1,1.45,2.3.52,4.22,2.32,4.59,4.7s-.94,4.69-2.96,5.85c-.59.34-.84,1.05-.69,1.69.91,3.77-1.28,7.27-3.66,10.01-2.8,3.21-6.13,6-9.3,8.84-6.81,6.12-13.75,12.14-20.94,17.81-2.93,2.31-7.56,5.42-11.22,2.92-1.06-.72-2.63.48-2.2,1.69s-1.18,1.74-2.09,1.78c-1.68.07-3.32-.36-5.01-.15-2.75.35-5.35,2.16-8.17,1.94-2.4-.18-4.39-1.97-5.57-3.96-1.54-2.59-1.73-5.71-1.6-8.65.07-1.51.18-3.03.4-4.53.07-.49.09-1.12.5-1.46.51-.42,1.52-.51,2.14-.67,3.12-.78,6.34-1.08,9.44-1.95,2.55-.72,5.02-1.85,7.04-3.59s3.14-4.17,3.86-6.82,1.76-4.89,4.43-6.11c2.19-1,4.77-1.01,6.87.19.88.5,1.9.02,2.2-.9,1.25-3.78-3.28-5.71-6.03-6.74-3.81-1.43-7.73-2.49-11.58-3.79-3.25-1.1-7.23-2.25-9.65-4.81-1.92-2.03-2.9-4.8-3.96-7.33-1.29-3.08-2.72-6.14-5.3-8.38-1.45-1.26-3.58.85-2.12,2.12Z"/>
      </g>
      <g>
        <path class="cls-11" d="M107.76,107.21c-14.26-1.61-28.77-3.2-42.87-.57-12.43,2.32-24.21,7.96-33.82,16.18-4.76,4.08-9.67,9.06-15.94,9.17-1.68.03-3.37-.31-5.02-.06-3.11.48-5.55,2.98-7.09,5.73-1.8,3.23-2.41,7.85.46,10.19,1.51,1.23,3.67,1.54,4.97,2.99,1.58,1.76,1.28,4.43,1.09,6.79-.94,12.09,3.79,24.08,10.79,33.98,7.01,9.9,16.2,18.01,25.32,26,4.58,4.01,9.36,8.13,15.2,9.86,5.84,1.74,13.05.4,16.36-4.71,1.54-2.38,2.07-5.27,2.37-8.09.23-2.18.28-4.59-1.04-6.33-1.42-1.86-3.94-2.39-5.98-3.53-6.2-3.47-7.11-11.77-8.86-18.66-3.16-12.42-11.47-23.44-22.55-29.88,4.57,3.97,11.19,4.86,17.15,3.77s11.43-3.92,16.8-6.72c9.12-4.75,18.44-9.65,25.39-17.23.73-.8,1.44-1.63,2.35-2.22.74-.48,1.58-.77,2.38-1.14,3.49-1.61,5.44-5.1,7.43-8.4,1.87-3.1,11.64-1.2,14.25.35s2.1-7.72-3.54-11.73c-3.84-2.72-11.35-5.78-15.59-5.75Z"/>
        <path class="cls-11" d="M107.76,105.71c-13.09-1.47-26.33-2.92-39.46-1.12-11.5,1.57-22.6,5.84-32.15,12.45-4.51,3.12-8.31,7.08-12.77,10.24-2.12,1.5-4.5,2.82-7.12,3.15-2.83.36-5.6-.53-8.34.59C3.39,132.85.13,138.1,0,142.93c-.06,2.23.68,4.51,2.42,5.99s5,1.78,5.62,4.4c.27,1.15.15,2.39.06,3.56-.11,1.54-.2,3.08-.17,4.63.06,2.85.4,5.71.99,8.5,1.21,5.79,3.48,11.35,6.39,16.48,5.96,10.53,14.68,19.16,23.62,27.18,4.33,3.88,8.63,7.97,13.44,11.26,4.29,2.93,9.29,5.06,14.58,4.73,4.67-.29,9.32-2.36,11.78-6.5,1.49-2.5,2.02-5.42,2.33-8.27.29-2.61.27-5.46-1.46-7.6-1.62-2-4.13-2.56-6.29-3.77-1.94-1.09-3.34-2.79-4.36-4.75-2.17-4.13-2.73-8.93-3.91-13.39-2.67-10.14-8.7-19.42-16.84-26.02-1.99-1.62-4.09-3.08-6.3-4.38-1.43-.84-3.15,1.23-1.82,2.36,8.68,7.34,20.52,4.65,29.87.25,5.05-2.38,10.02-5.02,14.87-7.79s9.35-5.73,13.43-9.39c.94-.84,1.85-1.72,2.72-2.64.94-.99,1.79-2.14,3-2.83,1.08-.61,2.28-.96,3.32-1.66s1.97-1.54,2.79-2.48,1.49-1.9,2.15-2.92c.57-.88,1.13-2.15,1.75-2.85.82-.92,2.65-.89,3.8-.87,1.78.02,3.55.29,5.27.71.75.19,1.5.39,2.22.68.51.2.99.55,1.52.7,3.35.95,3.26-3.8,2.89-5.75-.84-4.39-3.6-7.81-7.41-10.02-4.24-2.46-9.52-4.74-14.5-4.78-1.93-.01-1.93,2.99,0,3,4.04.03,8.26,1.85,11.78,3.7,3.27,1.72,5.79,3.9,6.9,7.53.19.61.35,1.25.43,1.88.06.5.05,1.32,0,1.57-.01.07-.09.22-.07.28,0,0,.09.02-.03.04.1-.01.5-.3.67-.35.23-.07.47.2.08-.04-.3-.19-.66-.32-.99-.46-2.94-1.21-6.41-1.81-9.59-1.67-1.46.06-3.06.28-4.31,1.09-1.52.99-2.25,2.96-3.22,4.43-1.25,1.89-2.73,3.64-4.79,4.65-1.1.54-2.21.93-3.18,1.69s-1.75,1.72-2.59,2.6c-7,7.36-16.2,12.06-25.11,16.69-5.3,2.75-10.8,5.57-16.78,6.41-5.09.71-10.72-.13-14.74-3.53l-1.82,2.36c8.6,5.05,15.41,12.79,19.44,21.91,1.92,4.35,2.79,8.94,3.94,13.52,1.05,4.16,2.51,8.63,5.84,11.54,1.77,1.55,3.86,2.23,5.91,3.31,2.53,1.33,2.84,3.59,2.62,6.24-.42,4.94-2.01,9.69-6.96,11.64-10.24,4.02-19.43-4.75-26.47-10.94-16.4-14.41-35.07-32.52-33.73-56.3.14-2.39.56-4.92-.48-7.19-1.11-2.42-3.42-2.97-5.52-4.23-4.17-2.49-1.14-8.87,1.36-11.42.82-.84,1.79-1.56,2.9-1.96,1.39-.5,2.84-.35,4.29-.26,2.6.16,5.04-.25,7.43-1.3,4.6-2.03,8.17-5.76,11.98-8.93,8.39-6.97,18.45-11.92,29.05-14.42,11.99-2.83,24.45-2.26,36.61-1.06,3.06.3,6.11.64,9.16.99,1.92.22,1.9-2.79,0-3Z"/>
      </g>
      <g>
        <path class="cls-11" d="M166.66,182.86c.5-18.13-4.97-33.56-10.44-49.06-.3-.84-.66-1.91-1.55-1.95s.67,1.93.03,1.3c-12.18-11.92,1.18-6.45-11.5-12.19-24.71-11.17-51.61,25.77-51.61,25.77-4.18,14.88-12.83,28.39-15.54,43.61-1.44,8.1-1.14,16.4-.61,24.61,2.89,44.22,15.12,82.81,39.24,119.99,2.95,4.54,6.34,9.05,11.14,11.55,4.8,2.5,12.55,3.31,15.05-1.49,2.41-4.64,4.3-7.17-.9-29.42-3.68-15.73-8.44-27.35-8.44-37.35,0-6,.51-8.23,1.2-10.17,1.33-3.71,5.28-6.25,11.12-8.33,5.84-2.09,15.22-5.58,20.67-16.5,3-6,2.59-34.13,2.8-41.06s-.87-11.62-.66-19.32Z"/>
        <path class="cls-11" d="M168.16,182.86c.43-17.16-4.64-33.83-10.59-49.74-.54-1.45-1.93-3.55-3.79-2.54-.74.4-.99,1.24-.82,2.02.06.28.19.55.31.81.07.14.33.77.15.26l.39-1.46h-.01c.61-.07,1.21-.14,1.82-.22.49.33-.23-.27-.33-.37-.26-.25-.51-.51-.76-.77-.4-.41-.79-.83-1.17-1.25-.61-.68-1.22-1.37-1.74-2.12-.33-.47-.64-.95-.88-1.47.04.08-.27-.85-.16-.47-.03-.09-.02-.23,0-.32,0,.02-.08.38,0,.08.04-.15.08-.29.11-.44.14-.78-.06-1.49-.64-2.05-.69-.67-1.67-1.08-2.52-1.49-1.72-.83-3.46-1.67-5.24-2.35-3.34-1.27-6.99-1.78-10.56-1.54-7.2.49-13.96,3.65-19.86,7.65-5.53,3.75-10.52,8.28-15.05,13.17-1.52,1.64-2.99,3.32-4.4,5.06-.69.85-1.52,1.71-2.07,2.65-.28.48-.38,1.12-.54,1.65-.42,1.4-.87,2.78-1.35,4.16-.92,2.62-1.94,5.2-3,7.77-2.18,5.27-4.54,10.46-6.57,15.79s-3.69,10.7-4.53,16.3c-.91,6.13-.95,12.32-.67,18.5.52,11.18,1.71,22.34,3.57,33.38,3.55,21.03,9.81,41.52,18.77,60.87,4.62,9.99,9.95,19.65,15.84,28.94,2.81,4.42,5.72,8.99,9.88,12.28,3.45,2.72,7.73,4.45,12.17,4.41,3.7-.03,6.84-1.49,8.58-4.83.71-1.37,1.39-2.77,1.78-4.27,1.44-5.65.01-12.03-1.08-17.59-2.12-10.85-5.49-21.33-8.17-32.04-1.03-4.12-1.91-8.32-1.98-12.58-.05-3.4-.13-7.29,1.25-10.49,1.7-3.94,6.55-5.79,10.28-7.13,3.23-1.16,6.42-2.45,9.37-4.24,6.26-3.8,11.91-9.96,13.2-17.35,1.24-7.09,1.34-14.41,1.49-21.59.14-6.54.41-13.16.2-19.7-.17-5.13-.77-10.21-.65-15.34.05-1.93-2.95-1.93-3,0-.13,5.2.5,10.35.65,15.54.09,2.94-.04,5.9-.06,8.84-.06,7.13-.12,14.27-.53,21.39-.18,3.22-.4,6.45-.92,9.64-.19,1.16-.41,2.32-.77,3.44-.23.69-.16.52-.49,1.15-.61,1.18-1.3,2.33-2.05,3.42-2.36,3.41-5.52,6.19-9.1,8.28-2.94,1.72-6.09,2.84-9.26,4.04-3.95,1.49-8.31,3.53-10.54,7.32-1.62,2.75-1.89,6.18-2.01,9.3-.36,9.21,2.25,17.95,4.73,26.73,2.74,9.69,5.55,19.59,6.68,29.63.16,1.41.28,2.83.29,4.24,0,.53,0,1.07-.03,1.6-.01.27-.03.53-.06.8-.01.13-.09.73-.05.48-.12.79-.3,1.58-.55,2.34-.05.14-.1.29-.15.43-.03.08-.26.64-.1.26-.13.32-.28.63-.43.93-.35.7-.68,1.47-1.12,2.11-.96,1.41-2.66,2.03-4.3,2.19-4.22.43-8.56-1.3-11.75-3.99-3.93-3.31-6.66-7.78-9.37-12.08-2.9-4.61-5.66-9.31-8.26-14.1-9.94-18.29-17.44-37.83-22.24-58.09-2.43-10.27-4.19-20.69-5.33-31.18-.61-5.62-1.06-11.26-1.34-16.9-.3-6.05-.36-12.18.54-18.19,1.64-11.01,6.51-21.11,10.76-31.28,1.04-2.5,2.05-5.01,2.97-7.55.45-1.23.87-2.48,1.27-3.73.23-.73.38-1.73.68-2.39.11-.25.37-.49.53-.7.08-.1-.2.26.05-.07.09-.12.18-.24.28-.35.25-.31.5-.63.75-.94,7.42-9.13,16.66-18.09,27.68-22.63,6.32-2.61,13.36-3.4,19.8-.72,1.59.66,3.17,1.4,4.7,2.18.37.19.73.4,1.1.61.28.16.19.05.08.04.23.02.11.37,0-.03-.12-.42-.16-.57-.13-.7-.05.16-.09.32-.12.49-.14.75-.05,1.48.22,2.2.44,1.2,1.2,2.23,1.99,3.22,1.21,1.54,2.64,3.4,4.27,4.5.53.36,1.39.22,1.82-.23h.01c.35-.38.56-.97.39-1.47-.09-.25-.35-.9-.45-1-1.44.39-1.9.91-1.41,1.54.09.16.17.33.22.5.2.49.36,1.01.53,1.51.77,2.17,1.53,4.35,2.28,6.53,1.45,4.24,2.82,8.51,3.99,12.83,2.48,9.17,3.93,18.55,3.69,28.07-.05,1.93,2.95,1.93,3,0Z"/>
      </g>
      <g id="MuscleToning">
        <g>
          <path class="cls-1" d="M88.75,135.14c-4.3,5.15-11.11,7.35-17.58,9.1-2.19.59-4.53,1.16-6.68.46-.79-.25-1.52-.67-2.34-.82-.9-.16-1.82.02-2.71.19-4.12.81-8.24,1.63-12.36,2.44"/>
          <path class="cls-1" d="M87.69,134.08c-4.42,5.17-11.21,7.25-17.58,8.89-1.88.48-3.74.82-5.62.15-.87-.31-1.64-.67-2.57-.76s-1.93.09-2.88.27c-4.12.79-8.24,1.63-12.36,2.44-1.89.37-1.09,3.27.8,2.89,4.27-.84,8.53-1.78,12.81-2.53,1.97-.35,3.58.85,5.51,1.04s4.03-.32,5.96-.84c6.58-1.78,13.49-4.09,18.06-9.43,1.25-1.46-.86-3.59-2.12-2.12h0Z"/>
        </g>
        <g>
          <path class="cls-1" d="M57.26,133.3c5.08-1.61,9.35-6.04,14.67-5.92"/>
          <path class="cls-1" d="M57.66,134.75c2.6-.85,4.92-2.28,7.3-3.6,2.17-1.2,4.44-2.3,6.97-2.27,1.93.02,1.93-2.98,0-3-5.74-.06-9.89,4.29-15.07,5.98-1.83.59-1.05,3.49.8,2.89h0Z"/>
        </g>
        <g>
          <path class="cls-12" d="M187.89,154.02c-.98.03-1.65,1.13-1.59,2.11s.63,1.85,1.19,2.66c3.22,4.74,6.7,9.7,11.94,12.03.83.37,1.7.67,2.39,1.26,1.07.92,1.5,2.35,2.17,3.59.86,1.59,2.17,2.94,3.74,3.83"/>
          <path class="cls-12" d="M187.49,152.57c-1.53.23-2.62,1.72-2.69,3.23-.07,1.68.92,3.07,1.82,4.4,1.88,2.75,3.83,5.51,6.22,7.84,1.15,1.12,2.41,2.14,3.76,2.99s3.13,1.22,4.27,2.25,1.52,2.88,2.41,4.15c.97,1.39,2.21,2.51,3.66,3.38,1.66.99,3.17-1.6,1.51-2.59-1.18-.7-2.18-1.62-2.91-2.79s-1.12-2.46-1.94-3.55-1.88-1.66-3.1-2.19-2.42-1.19-3.52-2c-2.14-1.58-3.93-3.65-5.52-5.77-.79-1.05-1.54-2.14-2.28-3.22-.35-.52-2.32-3-.93-3.22,1.9-.29,1.09-3.18-.8-2.89h0Z"/>
        </g>
        <g>
          <path class="cls-12" d="M200.27,150.51c4.17,1.53,7.45,5.25,8.45,9.58"/>
          <path class="cls-12" d="M199.87,151.96c.13.05.26.1.39.15-.28-.11.14.06.16.07.23.11.46.22.69.34.47.25.93.53,1.37.84.1.07.19.13.28.2.06.04.11.08.17.13-.1-.08-.11-.08-.03-.02.2.16.4.33.59.5.4.36.78.74,1.13,1.14.17.19.33.39.49.59-.18-.23.09.13.1.14.07.09.14.19.2.29.3.44.58.9.83,1.38.12.23.23.46.34.69.03.06.06.13.09.19-.05-.12-.06-.13-.02-.04.04.11.09.22.13.33.2.52.36,1.06.48,1.61.18.76,1.09,1.29,1.85,1.05.8-.26,1.24-1.03,1.05-1.85-1.15-4.88-4.83-8.88-9.5-10.62-.74-.27-1.68.31-1.85,1.05-.19.85.26,1.55,1.05,1.85h0Z"/>
        </g>
        <g>
          <path class="cls-1" d="M42.48,177.18c3.42,2.14,7.26,5.05,7.06,9.08-.13,2.7-2.09,4.89-3.39,7.25-1.3,2.37-1.72,5.83.51,7.34"/>
          <path class="cls-1" d="M41.72,178.48c1.96,1.24,4.08,2.62,5.37,4.6,1.48,2.27.93,4.46-.39,6.66s-2.67,4.02-3.02,6.51c-.33,2.33.29,4.48,2.22,5.91,1.55,1.15,3.05-1.45,1.51-2.59s-.72-3.91.02-5.29c1.25-2.32,3.06-4.39,3.49-7.07.83-5.25-3.76-8.83-7.69-11.32-1.64-1.03-3.14,1.56-1.51,2.59h0Z"/>
        </g>
        <g>
          <path class="cls-12" d="M203.52,198.2c-4.08-.84-8.55,2.24-9.22,6.35-.18,1.12-.12,2.28-.47,3.36-.35,1.08-1.31,2.09-2.44,1.99"/>
          <path class="cls-12" d="M203.92,196.75c-3.35-.65-6.92.65-9.09,3.3-1.16,1.41-1.85,3-2.07,4.81-.11.9-.06,1.87-.4,2.73-.03.08-.09.19-.19.34-.1.14-.11.16-.26.3-.2.18-.31.18-.51.17-.81-.03-1.5.71-1.5,1.5,0,.84.69,1.47,1.5,1.5,2.11.09,3.65-1.78,4.04-3.71.2-.96.17-1.95.34-2.91.14-.78.33-1.24.67-1.84.37-.65.66-1.01,1.23-1.54.5-.47,1-.82,1.7-1.17.57-.29,1.2-.49,1.95-.62.39-.06,1.37-.05,1.79.04.79.15,1.62-.22,1.85-1.05.2-.73-.25-1.69-1.05-1.85h0Z"/>
        </g>
        <g>
          <path class="cls-1" d="M22.17,170.3c-.66,5.95,2.67,11.53,5.86,16.59.95,1.51,1.91,3.02,2.86,4.54"/>
          <path class="cls-1" d="M20.67,170.3c-.79,8.15,4.83,15.38,8.93,21.88,1.03,1.63,3.63.12,2.59-1.51-2.07-3.29-4.28-6.53-6.07-9.98-1.67-3.24-2.82-6.7-2.46-10.39.19-1.92-2.82-1.91-3,0h0Z"/>
        </g>
      </g>
      <g>
        <path class="cls-5" d="M147.83,207.7c21.38,17.79,40.52,16.58,67.96,21.1,7.29,1.2,22.71,1.05,30.05.3,8.33-.85,16.3-3.74,24.16-6.6,12.22-4.45,22.45-7.89,34.67-12.34,3.62-1.32,9.55,1.35,13.25,2.44,3.96,1.17,6.74,7.01,7.52,11.07.78,4.06-.15,13.27-1.64,17.12-4.21,10.85-13.13,19.78-23.97,24.02-10.84,4.23-23.45,3.7-33.9-1.43,4.85-.37,9.82,1.9,12.72,5.8.88,1.18,1.59,2.55,1.64,4.02.07,1.99-1.05,3.82-2.22,5.43-6.52,8.91-16.38,15.61-27.31,17.19-10.93,1.58-22.78-2.37-29.71-10.98,4.73,1.17,7.67,5.81,9.78,10.21,2.57,5.38,4.64,11.76,2.12,17.16-2.57,5.52-9.3,8.1-15.37,7.65-6.07-.45-12.67-.3-18.08-3.1-4.69-2.43-8.39-4.85-13.08-7.28-3.31-1.71-6.66-6.45-9.51-8.86-3.51-2.97-6.12-6.85-8.69-10.68-5.45-8.14-11.1-16.87-11.3-26.66,2.92,7.11-3.01,16.24-10.69,16.46-3.87-7.29-4.32-16.32-1.19-23.96-4.27-1.31-7.74-4.99-8.8-9.33-1.07-4.34.31-9.2,3.49-12.35"/>
        <path class="cls-5" d="M145.71,209.82c7.04,5.82,14.8,10.47,23.42,13.53,7.71,2.74,15.8,4.13,23.88,5.25,4.36.61,8.81,1.16,13.09,1.75s8.67,1.45,13.04,1.85c7.96.74,16.11.66,24.08.11,10.78-.75,20.72-4.46,30.8-8.09s20.54-7.21,30.77-10.93c.51-.19,1.01-.38,1.55-.48-.47.09.57-.02.76-.02.98.01,1.58.13,2.67.38,2.11.5,4.14,1.26,6.2,1.93.39.13.78.24,1.17.37.55.18.22.06.1,0,.23.1.44.23.65.35.37.22,1.26,1.06,1.56,1.44,1.19,1.48,1.95,3.17,2.49,4.77.29.87.49,1.74.68,2.63.03.14.06.56,0-.08.02.17.04.35.05.52.04.48.06.96.08,1.44.06,2.03-.06,4.06-.27,6.08-.34,3.26-1.16,6.87-2.75,10.05-3.88,7.78-10.18,14.09-17.95,17.98-8.4,4.22-18.54,5.04-27.66,2.56-2.29-.62-4.51-1.43-6.64-2.47l-1.51,5.59c2.62-.16,5.01.39,7.27,1.79,1.64,1.02,3.95,3,4.09,5.03.09,1.31-.85,2.56-1.56,3.56-.76,1.08-1.6,2.1-2.48,3.08-1.81,2.04-3.8,3.96-5.97,5.63-8.48,6.53-19.31,9.38-29.57,6.58-5.72-1.56-10.76-4.7-14.54-9.33l-2.92,5.01c3.35.9,5.49,4.03,7.16,7.18,1.94,3.66,3.74,7.85,3.68,12.06-.05,3.85-2.07,6.6-5.11,8.25-3.19,1.74-6.5,1.74-10.28,1.52-4.35-.26-8.78-.35-12.94-1.81-2.15-.75-4.15-2.02-6.12-3.14-2.12-1.21-4.23-2.46-6.37-3.64-1.87-1.03-3.5-1.84-4.99-3.26s-2.9-3.05-4.35-4.56-3.1-2.81-4.52-4.36-2.77-3.39-4.02-5.2c-5.61-8.15-12.17-17.2-12.46-27.48l-5.89.8c.65,1.67.82,2.59.57,4.43.05-.4-.13.57-.17.74-.1.41-.23.81-.36,1.21-.12.34-.06.23-.32.74-.21.43-.45.84-.7,1.24-.72,1.13-1.81,2.27-2.88,2.96-1.34.86-2.65,1.28-3.94,1.34l2.59,1.49c-3.5-6.72-3.69-14.65-.89-21.65.62-1.55-.69-3.24-2.1-3.69-3.12-1.01-5.73-3.69-6.62-6.88-.94-3.38.07-7.18,2.62-9.78,2.7-2.76-1.53-7.01-4.24-4.24-3.97,4.05-5.69,10.11-4.17,15.61s5.66,9.4,10.81,11.07l-2.1-3.69c-3.39,8.47-2.7,18.22,1.49,26.27.46.89,1.59,1.53,2.59,1.49,9.53-.43,17.16-11.13,13.58-20.26-.54-1.39-1.72-2.39-3.29-2.15-1.43.21-2.64,1.43-2.6,2.95.3,10.71,6.16,19.91,11.95,28.54,1.51,2.25,3.05,4.47,4.75,6.58,1.49,1.85,3.19,3.39,4.91,5.01s3.17,3.38,4.81,5.02c1.77,1.77,3.66,3.14,5.86,4.31,4.77,2.56,9.32,5.8,14.39,7.74,4.78,1.83,10.06,1.94,15.11,2.24,4.62.27,8.99-.04,13.16-2.25,4.09-2.16,7.16-6.06,7.95-10.66,1.03-6.02-1.2-11.99-3.88-17.29-2.36-4.66-5.81-9.18-11.08-10.6-1.28-.34-2.71.23-3.39,1.38-.72,1.23-.38,2.59.47,3.64,8.26,10.11,22.39,14,34.93,11.34,6.49-1.38,12.49-4.5,17.67-8.58,2.46-1.94,4.72-4.12,6.73-6.51,2.37-2.81,5.12-6.11,5.03-10-.09-4.09-3.25-7.59-6.42-9.79s-7.12-3.27-10.94-3.03c-1.33.08-2.53.87-2.89,2.2-.33,1.21.2,2.82,1.38,3.39,9.71,4.7,20.87,5.93,31.35,3.28,9.29-2.35,17.79-7.87,23.79-15.34,3.01-3.76,5.51-7.9,7.18-12.43,1.38-3.74,1.76-8.02,1.94-11.97s-.34-7.89-2.02-11.66c-.9-2.02-2.12-4-3.71-5.55s-3.55-2.34-5.72-3.06c-4.07-1.35-8.76-3.31-13.09-2.06-2.75.8-5.45,1.96-8.15,2.92s-5.17,1.83-7.76,2.74c-5.28,1.86-10.57,3.71-15.84,5.61s-10.89,4.04-16.48,5.61c-8.71,2.43-17.61,2.72-26.61,2.62-4.02-.04-8.04-.19-12.03-.66-.13-.01-.6-.09.02,0-.16-.02-.33-.05-.49-.07-.56-.09-1.13-.18-1.69-.27-1.29-.21-2.58-.4-3.87-.59-2.49-.36-4.98-.7-7.47-1.03-8.43-1.12-16.87-2.06-25.28-4.15s-15.87-5.26-23.04-10.15c-1.91-1.3-3.75-2.7-5.53-4.17-1.25-1.03-3.02-1.22-4.24,0-1.06,1.06-1.25,3.2,0,4.24h0Z"/>
      </g>
      <path class="cls-15" d="M51.41,4.65c2.4-9.34,27.72,4.16,46.91,13.87,19.19,9.72,21.92,12.37,37.56,17.55,15.64,5.17,28.64,2.17,48.19,22.38,23.26,24.03,6.92,60.2-17.68,69.18-20.87,7.62-50.87,1.62-65.87-34.38s-17.29-46.18-30.46-63.86c-10.54-14.14-18.75-24.32-18.64-24.73Z"/>
      <g>
        <path class="cls-13" d="M180.71,51.68c-1.33-1.07-.91-3.15-.32-4.75,1.07-2.9,2.35-5.78,4.36-8.14s4.83-4.16,7.91-4.35c2.2-.14,4.38.54,6.4,1.43,2.15.95,4.31,2.3,5.22,4.46,1.27,3.03-.47,6.65-3.13,8.58s-6.01,2.57-9.25,3.17c-1.78.33-3.56.65-5.34.98-1.61.29-3.77.29-4.29-1.26"/>
        <path class="cls-13" d="M181.77,50.62c-1.12-1.04.05-3.29.49-4.42.76-1.94,1.69-3.84,2.91-5.53,2.35-3.25,6.06-5.42,10.14-4.49,3.06.7,7.96,2.62,7.89,6.43s-3.94,6.13-7.24,7.07c-2.26.64-4.6,1-6.9,1.42-.65.12-4.89,1.36-5.34.32-.32-.75-.99-1.27-1.85-1.05-.71.19-1.36,1.1-1.05,1.85.94,2.23,3.12,2.71,5.35,2.43,2.82-.36,5.68-.95,8.46-1.55,4.79-1.02,9.85-3.3,11.26-8.44.65-2.36.18-4.79-1.36-6.7s-3.99-3.14-6.32-4.01c-2.59-.97-5.45-1.36-8.14-.52-2.38.74-4.51,2.21-6.16,4.05-2.07,2.3-3.43,5.09-4.55,7.95-.92,2.34-1.86,5.36.28,7.34,1.42,1.31,3.54-.81,2.12-2.12h0Z"/>
      </g>
      <g>
        <path class="cls-5" d="M124.73,69.93c-1.28-2.77-4.48-4-7.4-4.87-2.27-.68-4.59-1.32-6.97-1.32s-5.44,1.97-7.13,3.63c-2.58,2.53-2.42,7.85-.56,10.95,1.86,3.09,5.39,4.94,8.97,5.39s8.22-2.34,11.62-3.55"/>
        <path class="cls-7" d="M126.02,69.17c-2-4.03-7.1-5.4-11.13-6.34-2.29-.54-4.77-.93-7.04-.13-2.09.74-4.13,2.03-5.69,3.61-2.7,2.73-2.92,7.32-1.7,10.79,1.42,4.03,5.09,6.75,9.15,7.76,5.13,1.27,9.4-1.55,14.04-3.25,1.8-.66,1.02-3.56-.8-2.89-3.23,1.18-6.52,3.37-10.03,3.54-3.29.16-7.05-1.75-8.79-4.55-1.46-2.35-1.85-5.96-.42-8.41.79-1.35,2.33-2.32,3.67-3.06,1.76-.97,3.39-1.12,5.36-.79,2.21.37,4.47,1.02,6.55,1.85,1.75.7,3.36,1.68,4.22,3.41s3.45.21,2.59-1.51h0Z"/>
      </g>
      <g>
        <path class="cls-6" d="M111.84,50.58c-2.02.72-3.79,2.12-4.96,3.92-.18.28-.36.6-.31.93.09.74,1.1.92,1.82.75,2.8-.69,5.29-3.86,7.92-2.66"/>
        <path class="cls-6" d="M111.44,49.13c-1.5.55-2.87,1.35-4.05,2.44-.58.54-1.09,1.15-1.55,1.79-.56.77-.96,1.65-.69,2.62.49,1.74,2.61,2,4.07,1.51,1.31-.44,2.46-1.2,3.64-1.89.29-.17.58-.33.89-.48.08-.04.16-.07.24-.11.14-.06.13-.04,0,0,.16-.05.31-.12.47-.16s.31-.07.47-.11c-.29.07-.01,0,.13,0,.08,0,.16.02.24,0,.16-.02-.19-.08-.04,0,.08.04.58.19.3.06.74.32,1.61.22,2.05-.54.37-.63.21-1.73-.54-2.05s-1.56-.54-2.41-.44-1.54.35-2.28.7c-.66.31-1.28.7-1.9,1.07-.32.19-.64.38-.97.56-.16.09-.32.17-.49.25-.05.02-.46.21-.32.15s-.28.1-.32.11c-.16.05-.33.09-.49.13.38-.09-.07-.02-.19-.02.2.03.22.03.05,0-.16-.05-.15-.04.05.04-.14-.09-.12-.07.05.05.09.09.15.2.18.32.07.16.06.3-.03.41.05-.1.11-.2.17-.29.11-.17.23-.34.35-.5-.13.17.16-.19.2-.23.25-.29.52-.57.8-.83.15-.14.31-.27.46-.4.14-.11.16-.13.06-.05.08-.06.17-.12.25-.18.34-.23.69-.45,1.05-.64.46-.24.47-.25.9-.4.76-.28,1.28-1.02,1.05-1.85-.2-.73-1.08-1.33-1.85-1.05h0Z"/>
      </g>
      <g id="Hat">
        <g>
          <path class="cls-3" d="M117.52,62.24c-5.1-7.68-10.77-23.26-10.62-30.9.15-7.64,3.36-12.58,8.01-18.65,2.75-3.59,7.22-5.25,11.52-6.63,3.53-1.13,8.22-1.49,11.92-1.2,7.38.58,14.14,2.27,19.71,7.14,9.33,8.16,14.76,15.63,19.91,28.6"/>
          <path class="cls-9" d="M118.82,61.48c-4.36-6.62-7.34-14.45-9.25-22.11-.86-3.45-1.43-6.92-1.01-10.48.51-4.31,2.46-8.14,4.89-11.68,1.3-1.88,2.61-3.89,4.36-5.39,1.65-1.41,3.69-2.39,5.7-3.16,4.55-1.74,9.18-2.6,14.06-2.34,4.48.23,9.14,1.02,13.26,2.86s7.38,4.81,10.53,7.95c6.84,6.82,11.61,14.96,15.17,23.89.71,1.77,3.61,1,2.89-.8-3.41-8.56-7.78-16.54-14.09-23.31-3.17-3.4-6.66-6.88-10.73-9.19s-9-3.55-13.81-4.12-10.26-.43-15.12,1.14c-4.53,1.46-9.06,3.32-12.05,7.2s-5.6,7.62-7.05,12.12c-1.27,3.97-1.39,8.1-.71,12.19.8,4.81,2.33,9.52,4.11,14.05s3.68,8.75,6.27,12.7c1.06,1.61,3.66.11,2.59-1.51h0Z"/>
        </g>
        <g>
          <path class="cls-3" d="M199.93,63c-.64-3.39-1.74-6.72-3.71-9.55-10.3-14.79-16.7-19.21-26.3-18.58-11.9.78-22.7,4.71-32.54,11.45-6.29,4.3-15.19,9.9-19.85,15.92,8,3,12.17,7.54,13,11,.83,3.46-.74,6.63-3.6,8.74-2.15,1.59-5.4,2.26-8.4,4.26,1,14,7.63,24.26,21.2,29.16,13.58,4.9,24.78,6.14,38.28,1.01,3.9-1.48,11.83-7.22,14.82-10.14,4.08-3.98,6.96-11.69,8.05-17.28,1.79-9.21.81-16.77-.94-25.99ZM187.43,104.49c-1.04.77-3.71,2.78-4.84,3.41-2.49,1.38-3.73,2.21-6.39,3.21s-4.48,1.72-7.32,1.79c-.25,0-.53,0-.74-.15-.33-.22-.39-.67-.42-1.06-.25-3.34-.65-6.74-.03-10.03.22-1.16,8.95-3.53,12.34-5.47,2.19-1.25,4.51-2.29,6.5-3.83,1.38-1.06,3.21-2.36,4.66-1.39.88.58,1.08,1.77,1.12,2.82q.25,6.88-4.88,10.7Z"/>
          <g>
            <path class="cls-9" d="M201.37,62.6c-.8-4.09-2.29-7.71-4.7-11.1-2.26-3.19-4.63-6.33-7.28-9.2-3.57-3.87-7.87-7.36-13.13-8.5-2.52-.55-5.08-.55-7.64-.33-3.91.34-7.8,1-11.59,2.02-7.63,2.06-14.64,5.61-21.16,10.03s-14.28,9.12-19.42,15.65c-.73.93-.46,2.08.66,2.51,4.34,1.66,10.07,4.57,11.76,9.29.98,2.74-.16,5.48-2.26,7.33-2.49,2.19-6.08,2.85-8.86,4.64-.42.27-.78.76-.74,1.3.62,8.23,3.23,16.33,9.07,22.36,2.89,2.99,6.42,5.33,10.21,7.02,4.94,2.2,10.3,3.79,15.63,4.74s10.56,1.1,15.85.32c4.83-.71,9.8-2.06,14.05-4.51,3.66-2.1,7.14-4.62,10.37-7.34s5.59-6.38,7.29-10.38c2.22-5.23,3.44-10.79,3.75-16.46.36-6.53-.66-13.01-1.87-19.4-.36-1.89-3.25-1.09-2.89.8,1.94,10.27,2.85,20.59-.52,30.68-1.32,3.97-3.17,8.16-6.21,11.14-2.58,2.53-5.63,4.67-8.65,6.65-1.54,1.01-3.12,2-4.79,2.79-2.13,1.01-4.5,1.66-6.78,2.23-4.97,1.25-10.08,1.6-15.18,1.1s-10.37-1.96-15.32-3.7c-3.83-1.35-7.53-3.15-10.66-5.78-6.66-5.59-9.72-13.76-10.36-22.26l-.74,1.3c3.28-2.12,7.4-2.86,10.15-5.77,2.36-2.49,3.46-6.05,2.4-9.39-1.89-5.95-8.5-9.51-13.92-11.58l.66,2.51c4.34-5.52,10.41-9.51,16.17-13.4,6.13-4.14,12.26-7.97,19.31-10.37,3.5-1.19,7.1-2.07,10.75-2.62,2.88-.44,5.87-.78,8.79-.52,4.68.43,8.62,3,11.91,6.2,2.73,2.65,5.1,5.64,7.34,8.7,1.33,1.82,2.71,3.64,3.68,5.69s1.52,4.22,1.95,6.4c.37,1.89,3.26,1.09,2.89-.8Z"/>
            <path class="cls-9" d="M186.67,103.2c-3.77,2.82-7.64,5.29-12.08,6.92-1.2.44-2.41.86-3.67,1.09-.62.11-1.42.3-2.05.19.46.08.19.75.31-.16.06-.49-.09-1.1-.13-1.6-.12-1.52-.22-3.05-.19-4.58.01-.68.04-1.37.12-2.05l.07-.5c.12-.52.12-.59-.02-.22.03.09-.13.18-.14.18.4-.01,1.19-.63,1.58-.8.94-.4,1.91-.75,2.87-1.11,1.99-.74,4-1.46,5.94-2.33,2.24-1,4.47-2.25,6.54-3.56,1.14-.72,2.17-1.76,3.41-2.31,1.64-.72,1.55,1,1.59,2.18.06,1.56.31,3.77-.28,5.06-.68,1.51-2.55,2.6-3.89,3.6-1.53,1.14-.04,3.75,1.51,2.59,1.67-1.25,3.66-2.48,4.76-4.31.98-1.63.97-3.62.93-5.46-.06-2.76-.15-7.05-4.01-6.89-1.64.07-3.01,1.12-4.28,2.06-1.55,1.15-3.27,2.03-4.96,2.95-2.21,1.19-4.42,2.16-6.78,3.04-2.05.76-4.33,1.4-6.22,2.54-.73.44-1.23.93-1.43,1.77-.45,1.88-.38,3.95-.29,5.86.08,1.68-.03,3.72.46,5.34.55,1.82,2.41,1.79,3.98,1.61,6.59-.75,12.64-4.63,17.83-8.51,1.53-1.14.04-3.75-1.51-2.59Z"/>
          </g>
        </g>
        <g>
          <path class="cls-14" d="M200.68,67.62c-.62-2.57-5.18-1.15-7.82-1.05-5.72.22-11.54,1.3-16.69,3.81-2.35,1.15-3.65,1.85-5.82,2.59-1.29.44-2.44,1.18-3.74,1.6-15.97,5.16-29.44,17.6-35.84,33.12-.09.21.08.47-.05.66-1.21,1.88,2.79,4.88,8.99,7.04,13.63,4.75,24.78,6.14,38.28,1.01,3.9-1.48,11.83-7.22,14.82-10.14,4.08-3.98,7.18-11.65,8.05-17.28.35-2.25,1.65-13.75-.19-21.36ZM187.43,104.49c-1.04.77-3.71,2.78-4.84,3.41-2.49,1.38-3.73,2.21-6.39,3.21s-4.48,1.72-7.32,1.79c-.25,0-.53,0-.74-.15-.33-.22-.39-.67-.42-1.06-.25-3.34-.65-6.74-.03-10.03.22-1.16,8.95-3.53,12.34-5.47,2.19-1.25,4.51-2.29,6.5-3.83,1.38-1.06,3.21-2.36,4.66-1.39.88.58,1.08,1.77,1.12,2.82q.25,6.88-4.88,10.7Z"/>
          <g>
            <path class="cls-9" d="M202.12,67.22c-.9-2.97-4.22-2.75-6.71-2.43-3.55.45-7.12.51-10.64,1.2-4.08.8-7.76,2.34-11.48,4.14-3.32,1.61-6.83,2.79-10.25,4.13-12.96,5.08-24.03,14.74-30.78,26.92-.85,1.53-1.63,3.11-2.33,4.71-.17.4-.39.81-.52,1.22-.06.18-.16,1.08-.09.76.08-.36-.17.35-.21.49-.07.27-.09.57-.08.85.09,2.54,3.13,4.32,5.07,5.37,3.67,1.97,7.78,3.21,11.79,4.31s7.78,1.82,11.77,2.13c7.48.57,15.77-.59,22.53-3.96,2.74-1.36,5.29-3.12,7.76-4.92,2.22-1.61,4.51-3.28,6.4-5.28,4.39-4.64,7.11-11.5,8.02-17.76.8-5.56,1.08-11.33.55-16.92-.16-1.67-.4-3.33-.78-4.96-.44-1.88-3.33-1.08-2.89.8,1.33,5.66,1.06,11.73.53,17.48-.45,4.96-1.8,10.07-4.38,14.74-2.72,4.91-7.11,8.16-11.7,11.23-2.14,1.43-4.35,2.86-6.78,3.74-3.62,1.32-7.4,2.31-11.24,2.71-7.37.77-14.64-.53-21.67-2.7-3.45-1.06-7.02-2.18-10.05-4.21-.8-.54-1.42-1.19-1.94-1.89-.05-.07,0-.21-.02.05-.02.18.15-.32.18-.42.22-.77.37-1.45.72-2.2,5.29-11.58,14.53-21.2,25.83-27.07,2.83-1.47,5.75-2.51,8.72-3.62,1.73-.65,3.44-1.43,5.15-2.14,1.55-.64,3.03-1.42,4.54-2.14,3.4-1.62,7.12-2.59,10.84-3.1,1.75-.24,3.51-.3,5.27-.43,1.29-.1,2.56-.35,3.84-.43.5-.03,1.95-.24,2.15.41.56,1.84,3.46,1.06,2.89-.8Z"/>
            <path class="cls-9" d="M186.67,103.2c-3.77,2.82-7.64,5.29-12.08,6.92-1.2.44-2.41.86-3.67,1.09-.62.11-1.42.3-2.05.19.46.08.19.75.31-.16.06-.49-.09-1.1-.13-1.6-.12-1.52-.22-3.05-.19-4.58.01-.68.04-1.37.12-2.05l.07-.5c.12-.52.12-.59-.02-.22.03.09-.13.18-.14.18.4-.01,1.19-.63,1.58-.8.94-.4,1.91-.75,2.87-1.11,1.99-.74,4-1.46,5.94-2.33,2.24-1,4.47-2.25,6.54-3.56,1.14-.72,2.17-1.76,3.41-2.31,1.64-.72,1.55,1,1.59,2.18.06,1.56.31,3.77-.28,5.06-.68,1.51-2.55,2.6-3.89,3.6-1.53,1.14-.04,3.75,1.51,2.59,1.67-1.25,3.66-2.48,4.76-4.31.98-1.63.97-3.62.93-5.46-.06-2.76-.15-7.05-4.01-6.89-1.64.07-3.01,1.12-4.28,2.06-1.55,1.15-3.27,2.03-4.96,2.95-2.21,1.19-4.42,2.16-6.78,3.04-2.05.76-4.33,1.4-6.22,2.54-.73.44-1.23.93-1.43,1.77-.45,1.88-.38,3.95-.29,5.86.08,1.68-.03,3.72.46,5.34.55,1.82,2.41,1.79,3.98,1.61,6.59-.75,12.64-4.63,17.83-8.51,1.53-1.14.04-3.75-1.51-2.59Z"/>
          </g>
        </g>
        <path class="cls-9" d="M186.67,103.2c-3.77,2.82-7.64,5.29-12.08,6.92-1.2.44-2.41.86-3.67,1.09-.62.11-1.42.3-2.05.19.46.08.19.75.31-.16.06-.49-.09-1.1-.13-1.6-.12-1.52-.22-3.05-.19-4.58.01-.68.04-1.37.12-2.05l.07-.5c.12-.52.12-.59-.02-.22.03.09-.13.18-.14.18.4-.01,1.19-.63,1.58-.8.94-.4,1.91-.75,2.87-1.11,1.99-.74,4-1.46,5.94-2.33,2.24-1,4.47-2.25,6.54-3.56,1.14-.72,2.17-1.76,3.41-2.31,1.64-.72,1.55,1,1.59,2.18.06,1.56.31,3.77-.28,5.06-.68,1.51-2.55,2.6-3.89,3.6-1.53,1.14-.04,3.75,1.51,2.59,1.67-1.25,3.66-2.48,4.76-4.31.98-1.63.97-3.62.93-5.46-.06-2.76-.15-7.05-4.01-6.89-1.64.07-3.01,1.12-4.28,2.06-1.55,1.15-3.27,2.03-4.96,2.95-2.21,1.19-4.42,2.16-6.78,3.04-2.05.76-4.33,1.4-6.22,2.54-.73.44-1.23.93-1.43,1.77-.45,1.88-.38,3.95-.29,5.86.08,1.68-.03,3.72.46,5.34.55,1.82,2.41,1.79,3.98,1.61,6.59-.75,12.64-4.63,17.83-8.51,1.53-1.14.04-3.75-1.51-2.59Z"/>
        <g>
          <path class="cls-3" d="M171.66,70.06c.2-.58-.67-1.04-1.21-.75s-.76.93-.93,1.52c-.37,1.28-.65,2.9.39,3.73.39.31.89.43,1.39.47,2.57.17,4.99-2.29,4.77-4.85-.04-.43-.15-.88-.44-1.2-.45-.49-1.2-.56-1.87-.58-1.2-.05-2.74.13-3.07,1.28"/>
          <path class="cls-9" d="M173.11,70.46c.45-1.69-1.25-3.03-2.84-2.67-1.34.3-1.93,1.67-2.25,2.86-.29,1.05-.46,2.19-.19,3.27.32,1.29,1.4,2.28,2.71,2.51,2.39.41,4.62-.71,6-2.65,1.27-1.78,1.76-5.27-.59-6.43-1.16-.57-2.6-.55-3.86-.35s-2.43.99-2.83,2.27c-.24.75.28,1.67,1.05,1.85.82.19,1.59-.25,1.85-1.05.09-.28-.19.31-.03.07l.04-.07c.09-.13.05-.09-.1.12.03-.02.08-.08.1-.11.18-.21-.31.18-.07.05.07-.04.14-.08.2-.11.13-.07.13.02-.14.06.17-.02.35-.11.52-.15.07-.01.15-.02.21-.04-.37.12-.21.03-.05.01.14-.01.29-.02.43-.02.35,0,.69.02,1.04.04.22.02-.38-.09-.06,0,.09.02.19.05.28.07.3.07-.22-.13-.05-.03.02.01.19.12.2.12l-.16-.12c.11.11.09.09-.05-.08-.02,0,.23.32.06.08-.13-.18,0,.03.02.1.02.07.03.13.04.2-.03-.23-.03-.27-.02-.1,0,.15.02.31.01.46,0,.07-.04.22-.02.27,0-.03.07-.38.02-.13-.04.16-.07.33-.12.49-.02.07-.05.15-.07.22-.02.06-.04.11-.07.17.09-.22.11-.25.04-.11-.14.28-.32.52-.48.79.2-.34.08-.1,0-.01-.06.07-.12.14-.19.21-.13.13-.27.25-.41.38-.24.21.22-.15.05-.04-.06.04-.13.09-.19.13-.13.08-.26.16-.4.23-.05.03-.21.07-.25.12l.19-.08c-.06.02-.11.04-.17.07-.17.06-.35.11-.53.15-.07.02-.15.03-.22.04-.21.04.4-.02.08-.02-.17,0-.34.01-.51,0h-.05c-.17-.02-.14-.01.08.02-.07.02-.24-.05-.31-.07,0,0-.19-.04-.2-.06.19.09.22.09.07.02-.06-.03-.12-.07-.18-.11l.15.11s-.09-.08-.13-.12c-.13-.12.06-.07.07.1,0-.02-.11-.21-.13-.22.15.1.1.31.04.08-.02-.07-.04-.14-.06-.21l-.02-.09c-.03-.16-.02-.11.02.14.04-.15-.02-.39-.01-.55,0-.09.01-.19.02-.28.02-.34-.07.35,0,.02.04-.19.07-.37.12-.56.05-.21.11-.42.17-.63.02-.06.04-.12.06-.18.04-.13.23-.43.01-.08.03-.05.05-.11.08-.17.03-.05.06-.11.09-.16.09-.13.07-.1-.07.09l.06-.06c.12-.1.09-.08-.09.07.23-.16-.33.1-.07.03l-.25.04c.16,0,.1,0-.17-.03.27.07-.32-.17-.07-.04l.06.04c-.15-.08-.26-.19-.34-.34.08.13.05.07-.07-.17-.05-.17-.06-.35-.02-.52-.2.76.25,1.66,1.05,1.85s1.63-.24,1.85-1.05h0Z"/>
        </g>
        <path class="cls-9" d="M169.6,71.68c-1.65,1.1-3.67,1.51-5.51,2.19-1.71.63-3.39,1.34-5.03,2.12-3.34,1.58-6.52,3.49-9.49,5.67-5.92,4.34-11.05,9.7-15.08,15.84-1.13,1.73-2.17,3.51-3.11,5.35-.85,1.67-2.42,4-2.08,5.91s3.23,1.09,2.89-.8c.05.3.35-.58.41-.72.15-.34.31-.69.46-1.03.4-.85.81-1.69,1.25-2.52.79-1.49,1.64-2.95,2.56-4.37,1.9-2.94,4.08-5.7,6.49-8.24,4.74-5,10.34-9.14,16.53-12.18,1.74-.85,3.52-1.61,5.34-2.27,1.98-.71,4.11-1.18,5.88-2.36,1.6-1.07.1-3.67-1.51-2.59h0Z"/>
        <path class="cls-9" d="M120.75,60.11c9.57.71,19.28.14,28.76,1.85,4.36.79,8.68,2.03,12.62,4.09,3.72,1.94,7.14,4.59,11.37,5.31,1.89.32,2.7-2.57.8-2.89-4.4-.75-7.9-3.72-11.84-5.6s-8.24-3.13-12.59-3.88c-9.62-1.67-19.42-1.16-29.12-1.88-1.93-.14-1.92,2.86,0,3h0Z"/>
        <path class="cls-9" d="M180.09,38.83l-.99-.28v.35c-.09.23-.01.67-.02.92-.03.63-.09,1.26-.19,1.88-.2,1.29-.51,2.57-.83,3.84-.67,2.63-1.36,5.24-2.04,7.86-1.38,5.3-2.76,10.6-4.14,15.9-.49,1.87,2.41,2.67,2.89.8,1.67-6.43,3.34-12.85,5.01-19.28.57-2.2,5.14-16.12-.5-14.89-1.89.41-1.09,3.31.8,2.89h0Z"/>
        <path class="cls-9" d="M176.57,71.83c7.43-2.44,15.94-5.45,23.71-2.76,1.83.63,2.61-2.26.8-2.89-8.29-2.88-17.36.15-25.31,2.76-1.83.6-1.04,3.5.8,2.89h0Z"/>
        <g id="BuffAnt">
          <path class="cls-2" d="M168.01,49.14c1.07,2.13.26,4.98-1.76,6.24-.41.26-.03.9.38.65,2.38-1.49,3.29-4.76,2.03-7.27-.22-.43-.86-.05-.65.38h0Z"/>
          <path class="cls-2" d="M171.12,48.17c.23,1.39.65,2.75,1.25,4.03.46,1,1.15,2,2.26,2.31.47.13.67-.6.2-.72-1-.27-1.52-1.29-1.91-2.16-.52-1.16-.87-2.4-1.08-3.65-.08-.47-.8-.27-.72.2h0Z"/>
          <g id="Body">
            <g>
              <path class="cls-7" d="M172.44,46.36c-.91-1.17-2.46-1.57-3.7-.94s-2.06,2.23-1.96,3.81c.03.49.16,1.01.49,1.33.22.21.49.31.77.38,1.92.49,4.05.44,5.21-1.43.63-1.02.97-2.46.4-3.53-.35-.66-.98-1.95-1.61-2.16-1.49-.48-4.05-.43-5.21.73-.91.9-1.2,2.66-.81,4.14.49,1.83,2.56,2.31,4.16,1.89.86-.22,1.73-.65,2.23-1.49.77-1.27.39-3.23-.68-4.14s-2.64-.81-3.74.07-1.72,2.44-1.81,3.99c-.02.27.9.55,1.04.76.27.4-.11.25.29.05,1.27-.66,2.48-1.5,3.57-2.5-1.33-.34-2.66-.67-4-1.01-.23-.06-.52-.1-.67.12-.11.16-.09.38-.05.57.26,1.12,1.31,1.71,2.28,1.95.58.14,1.21.2,1.75-.1s.93-1.05.73-1.7-1.11-.87-1.4-.26"/>
              <path class="cls-7" d="M173.5,45.29c-1.69-2.12-5.04-2.22-6.81-.14-.9,1.07-1.43,2.42-1.42,3.83,0,.73.15,1.53.55,2.15.48.74,1.23,1.12,2.07,1.31,1.16.26,2.36.35,3.53.08,1.26-.29,2.3-1.07,3.02-2.12.8-1.17,1.14-2.67.9-4.06-.1-.59-.4-1.13-.68-1.65s-.6-1.03-.99-1.49c-.78-.92-2.04-1.1-3.18-1.17-1.05-.06-2.18.05-3.16.46-.59.24-1.12.53-1.58.98-.5.5-.82,1.11-1.07,1.76-.45,1.19-.46,2.63-.12,3.84.31,1.14,1.11,2.12,2.19,2.62s2.27.6,3.46.4c1.33-.23,2.57-.96,3.35-2.06s.88-2.47.61-3.72-1.05-2.4-2.17-3c-1.31-.7-2.82-.64-4.14,0-1.14.55-2.01,1.65-2.5,2.8-.27.63-.48,1.26-.58,1.95-.06.4-.13.79-.08,1.19.07.56.41.96.86,1.27.15.1.31.19.47.27.08.04.16.09.25.14.11.05.17.19-.16-.13-.31-.3-.37-.7-.26-1.18l1.45-1.1h0c.48.37.96.73,1.45,1.1h0v.79s-.44.76-.49.71c0,0,.26-.14.3-.16.16-.09.31-.17.47-.27.35-.21.69-.43,1.03-.66.73-.51,1.42-1.06,2.08-1.66.83-.76.4-2.24-.66-2.51-.74-.19-1.47-.37-2.21-.56s-1.44-.42-2.17-.51c-1.22-.16-2.28.7-2.27,1.97,0,.83.41,1.61.94,2.23.88,1.01,2.43,1.6,3.76,1.58,1.71-.03,3.26-1.42,3.14-3.21-.07-1.05-.72-1.93-1.74-2.24-.95-.29-2.03.14-2.5,1.02-.37.69-.2,1.66.54,2.05s1.66.2,2.05-.54c.11-.2-.19.2-.28.25-.15.09-.3.13-.48.13.12,0,.1,0-.05-.01-.15-.03-.16-.02-.05,0-.22-.1-.28-.12-.18-.06.1.06.05.02-.14-.11-.13-.19-.17-.24-.11-.14.06.1.04.04-.06-.16.04.17.04.14,0-.08.03.29.09-.28,0,.02s.15-.24-.01.03c-.15.25.21-.19-.02.03-.21.21.25-.16-.01,0,.14-.05.16-.06.06-.03-.06.02-.12.04-.18.05.29-.09,0-.02-.11-.02-.38,0,.26.07-.11,0-.21-.04-.42-.09-.63-.16-.06-.02-.13-.04-.19-.07l.17.07s-.27-.13-.31-.16c-.09-.05-.17-.12-.26-.16-.09-.06-.06-.04.1.08-.04-.03-.08-.07-.11-.1-.03-.03-.27-.29-.12-.11s-.08-.15-.11-.19c-.15-.25.08.28,0-.04l-.03-.11c.1.48-.16.85-.78,1.12l-.22.04c-.24-.04-.28-.04-.12,0,.14.04.29.07.43.11,1.19.3,2.38.6,3.57.9l-.66-2.51c-.17.16-.34.31-.52.46-.11.09-.21.18-.32.26-.21.17.05-.04-.08.06-.38.29-.77.56-1.18.82-.38.24-.79.43-1.17.67-.67.41-1.08,1.09-.88,1.9.15.62.81,1.13,1.45,1.1h0c.64-.02,1.29-.45,1.45-1.1.19-.82-.23-1.61-.91-2.05-.14-.09-.28-.16-.42-.24-.08-.04-.15-.09-.22-.13-.13-.09-.09-.05.13.11.15.24.2.3.14.18l.2.76c-.01-.1,0-.19.01-.29.02-.41-.07.31,0-.09.04-.2.08-.4.13-.6s.12-.39.18-.58c.12-.38-.14.27.03-.08.05-.11.1-.21.16-.32.11-.2.22-.42.37-.59-.03.04-.21.23-.02.04.08-.08.15-.17.23-.24.07-.06.14-.12.21-.19.15-.14-.29.16.02,0,.1-.05.2-.12.3-.17.31-.17-.27.07.06-.02.11-.03.22-.06.32-.09.34-.1-.23,0-.01,0,.09,0,.18-.01.28-.01h.11c.17.02.15,0-.07-.02.12.1.4.03.53.14l-.15-.06c.07.03.13.07.2.11.08.05.32.27.07.03.06.06.34.26.34.35l-.12-.14c.04.06.08.11.11.17.05.09.1.18.15.27.14.26-.02-.07-.03-.07.04.03.09.25.1.3.03.1.05.2.08.31.08.29,0-.31,0,.02,0,.18.02.35,0,.53v.1c-.03.17-.02.14,0-.09.02.01-.06.28-.07.3-.01.04-.07.16-.06.19l.07-.17c-.03.06-.06.12-.09.18-.05.08-.1.16-.15.24-.06.09-.05.07.05-.07-.05.06-.1.11-.16.17-.07.07-.25.33-.05.06-.03.04-.15.1-.19.13-.1.06-.2.11-.3.17-.31.18.21-.06,0,0-.19.07-.39.14-.59.19-.07.02-.15.04-.22.05-.04,0-.09.02-.13.03-.16.03-.12.02.13-.02-.12-.03-.33.03-.46.03-.09,0-.19,0-.28,0-.05,0-.34-.05-.08,0s-.03,0-.07-.02c-.09-.02-.18-.04-.27-.06-.06-.02-.12-.03-.17-.05-.39-.13.16.11-.06-.02-.06-.04-.32-.23-.38-.23.15,0,.24.2.03,0-.04-.04-.08-.09-.13-.13-.23-.21.17.29,0,.02-.05-.08-.1-.16-.14-.24-.13-.2.08.1.03.09-.04,0-.11-.37-.12-.4-.02-.1-.04-.2-.06-.29-.06-.23.02.37,0-.01-.01-.2-.03-.4-.03-.6,0-.12.01-.24.02-.35.01-.39-.08.31,0-.06.05-.22.09-.44.17-.66.02-.05.04-.16.08-.21-.21.3-.02.06.03-.03s.11-.18.16-.27c.12-.2-.05.07-.05.06,0-.03.18-.18.2-.21.2-.22-.23.13-.06.04.05-.02.52-.29.52-.3,0,.02-.36.13-.09.04.09-.03.19-.07.28-.09.16-.05.33-.09.49-.12.06-.01.25-.08.31-.05l-.19.03c.05,0,.1-.01.16-.02.23-.02.45-.03.68-.03.17,0,.34,0,.52.02.08,0,.17.02.25.02.26.02.06.1-.06-.01.07.07.36.06.46.09.09.02.17.04.26.07.05.02.11.03.16.05-.23-.11-.3-.13-.19-.07.16.09-.27-.28-.08-.06.06.07.13.13.19.2.19.21-.04-.06-.05-.07.05.02.15.22.18.26.21.33.39.67.57,1.02.03.06.06.12.1.18.18.33-.06-.29.02.07.02.07.04.15.06.23.09.35.02-.29,0,.07,0,.12,0,.24,0,.36,0,.08.02.28.01-.04,0,.22-.11.5-.18.71-.02.06-.19.42-.03.09-.05.11-.1.22-.16.32-.04.07-.08.14-.12.2-.03.06-.23.4-.03.07-.09.14-.24.28-.37.39l-.08.07c-.13.1-.11.09.06-.05,0,.04-.21.13-.25.16-.02.01-.25.15-.27.14l.18-.07c-.06.02-.12.05-.19.07-.16.05-.32.1-.48.13-.08.02-.31-.01-.1.02.23.04-.04,0-.1,0-.21.01-.41.02-.62,0-.1,0-.21-.01-.31-.02-.07,0-.14-.01-.21-.02l.19.03c-.21.02-.48-.08-.68-.13-.09-.02-.17-.04-.26-.06-.08-.02-.16-.04-.24-.07.17.08.17.07.02,0,.07.06.13.15.19.21-.04-.06-.08-.13-.12-.2.07.18.08.18.03.02,0,0-.08-.4-.04-.17.03.21,0-.24,0-.28,0-.12,0-.24.01-.35,0-.32-.07.27,0-.07.06-.23.11-.45.18-.68.12-.36-.15.26.03-.07.05-.1.1-.2.16-.3s.12-.19.18-.28c.16-.25-.18.2.08-.08.06-.07.12-.13.19-.19.05-.05.11-.1.16-.14-.16.12-.18.14-.05.05.06-.03.12-.07.18-.11.06-.03.12-.07.19-.09-.2.08-.22.09-.06.04.07-.02.13-.04.2-.06.07-.02.13-.03.2-.04-.23.03-.26.03-.09.02.1,0,.21,0,.31,0,.3,0-.3-.08.01,0,.1.03.2.05.3.08.05.02.1.03.15.05.1.04.07.02-.11-.05.12-.01.46.24.55.33-.27-.28-.02,0,.03.05.11.11.2.22.3.34.49.62,1.61.55,2.12,0,.6-.65.53-1.46,0-2.12h0Z"/>
            </g>
            <g>
              <path class="cls-7" d="M158.46,49.1c-.66-.3-1.33.59-1.37,1.44-.07,1.73,1.65,3.03,3.04,2.57s2.29-2.21,2.41-3.93c.06-.89-.07-1.84-.55-2.51-.61-.84-1.68-1.06-2.57-.73s-1.62,1.12-2.19,2c-.51.78-.93,1.7-.97,2.69s.38,2.06,1.15,2.43c.36.17.75.19,1.14.18,1.09-.03,2.22-.25,3.12-.99.9-.74,1.5-2.11,1.22-3.37-.16-.71-.56-1.3-1.01-1.8-.89-.98-2.23-1.69-3.29-1-.91.59-1.24,1.96-1.34,3.2-.05.63-.05,1.34.29,1.82.34.49.93.62,1.47.62,1.08,0,2.17-.37,3.08-1.05.53-.4,1.02-1.33.53-1.8-.18-.17-.43-.19-.66-.2-1.34-.04-2.68-.01-4.02.07"/>
              <path class="cls-7" d="M158.86,47.65c-.79-.3-1.69.01-2.28.57s-.87,1.32-.97,2.1c-.15,1.21.42,2.52,1.32,3.32s2.23,1.26,3.47.94,2.23-1.31,2.81-2.41c1.18-2.24,1.41-6-1.15-7.42-1.22-.68-2.71-.59-3.9.12s-2.04,1.82-2.64,2.99c-.65,1.28-.99,2.74-.61,4.16.18.65.51,1.28.98,1.76.6.62,1.41.89,2.26.94,1.29.07,2.76-.21,3.86-.9s2.02-1.89,2.3-3.21c.32-1.49-.06-2.91-.98-4.1-.77-.99-1.87-1.94-3.15-2.14-1.51-.24-2.9.43-3.65,1.78-.6,1.1-.84,2.45-.83,3.69.01,1.54.84,3.03,2.48,3.29,1.41.23,2.89-.11,4.12-.83s2.38-2.09,1.91-3.59c-.31-.98-1.18-1.48-2.16-1.54-.68-.04-1.36-.03-2.04-.02s-1.39.04-2.08.08c-.78.05-1.54.66-1.5,1.5.03.77.66,1.55,1.5,1.5,1.05-.06,2.11-.09,3.16-.09.28,0,.58.03.86.02.25-.02-.04-.01-.1-.03l.1.02c-.23-.07-.41-.21-.53-.41l-.09-.21c-.02-.27-.03-.32-.02-.15,0-.03.08-.38.01-.14-.08.31.19-.28,0,0-.01.02-.12.25-.16.25l.11-.15s-.09.09-.13.14c-.2.23.29-.18-.04.03-.18.11-.35.22-.54.32-.11.06-.22.11-.34.16.05-.02.28-.1.02-.02s-.5.16-.76.21c-.12.02-.3.13-.02,0-.09.04-.26.02-.36.02-.07,0-.15,0-.22,0h-.1c-.17-.02-.14-.02.09.01,0,0-.29-.06-.3-.08-.01-.04.28.17.08.02l.14.11c-.11-.11-.11-.09.02.06-.04-.06-.08-.12-.11-.18.07.18.09.22.05.11-.01-.06-.09-.2-.06-.26l.02.18c0-.08-.01-.15-.01-.23,0-.19,0-.38.01-.57s.02-.37.05-.55c-.08.41,0,.03.01-.04.02-.13.05-.26.08-.38.05-.2.11-.38.17-.58.1-.33-.11.21,0,.02.04-.08.08-.15.12-.23.02-.03.13-.25.16-.25.03,0-.22.23-.05.08l.07-.07c.12-.11.09-.09-.08.05,0-.06.43-.2.18-.12s.11-.01.11-.02l-.2.02c.07,0,.13,0,.2,0,.32-.03-.24-.07-.05-.02.08.02.17.04.25.06l.1.03c.15.06.13.05-.06-.03,0,0,.17.09.19.1.1.05.19.12.28.17.13.1.12.09-.03-.03.06.05.12.1.18.15.14.13.28.26.41.4.06.07.12.14.18.21.15.17-.19-.3,0,.01.1.16.2.33.3.49.19.31-.07-.28.03.07.03.11.15.35.12.46,0-.02-.02-.37-.01-.06,0,.11,0,.22,0,.34,0,.04-.07.37,0,.14.07-.24-.03.11-.04.13-.03.11-.07.21-.1.32-.1.34.11-.19,0,0-.1.18-.2.49-.37.62.02-.02.22-.25.03-.05-.07.08-.14.16-.22.23,0,0-.27.22-.1.1.18-.13-.15.09-.15.09-.1.06-.21.12-.31.18-.32.19.19-.05-.02.02-.25.08-.48.16-.74.22-.08.02-.15.03-.23.04-.39.07.33-.02-.07,0-.2.01-.39.03-.59.04-.13,0-.26,0-.39,0-.38,0,.17.06-.05-.01s.2.17-.03,0c-.13-.09-.11-.06.08.08-.05-.04-.09-.08-.14-.13-.22-.19.08.07.05.08-.02,0-.15-.23-.16-.25l-.05-.09c-.07-.15-.06-.12.03.07-.02,0-.07-.2-.07-.2-.03-.1-.05-.21-.07-.31-.08-.34,0,.25,0,.03,0-.09,0-.18,0-.27,0-.08,0-.16.01-.24.02-.18.02-.17,0,.02-.03-.16.1-.47.15-.62.04-.12.08-.24.13-.36-.02.05-.13.26,0,.01.23-.45.49-.85.76-1.26-.16.24-.06.07-.01.02.08-.09.15-.18.23-.27.13-.14.27-.27.42-.41.27-.25-.26.15.06-.04.1-.06.19-.12.28-.18.02-.01.2-.1.2-.1-.19.08-.21.09-.06.03.06-.02.13-.04.19-.05.26-.09-.08.04-.11,0,.01.02.26-.01.29-.01h.1c.17.02.13.01-.11-.01.04.02.14.03.19.04l.09.03c.15.06.12.04-.09-.04,0,0,.26.13.26.15,0,.02-.27-.27-.07-.05.05.05.1.1.14.15-.12-.17-.14-.18-.04-.04.04.06.07.13.12.2.19.29-.06-.28.03.07.04.17.16.4.14.58l-.02-.16c0,.08.02.16.02.24,0,.12.01.24,0,.37,0,.08,0,.16,0,.24s-.02.61,0,.17c0,.22-.08.46-.14.66-.05.18-.1.48-.21.64.21-.3.02-.04-.03.04-.05.1-.1.19-.15.29s-.12.18-.17.27c-.15.26.2-.22-.05.06-.06.06-.11.13-.17.18-.05.05-.1.09-.15.14-.12.1-.1.09.07-.05,0,0-.17.11-.16.11-.05.03-.11.07-.17.09-.15.07-.11.06.1-.03-.01,0-.19.06-.21.07-.33.12.29.01.02,0-.05,0-.21-.02-.25,0,.11-.05.36.07.06,0-.06-.01-.19-.08-.25-.08.22.1.26.11.12.05l-.08-.04c-.08-.04-.15-.09-.23-.14-.23-.14.23.24-.01-.02-.05-.05-.11-.11-.16-.16-.1-.12-.08-.09.06.09-.04-.05-.07-.1-.1-.15-.03-.05-.06-.11-.09-.16-.03-.05-.06-.11-.08-.17.09.21.1.25.05.09-.02-.08-.04-.16-.06-.23-.1-.36-.02.25,0-.04,0-.05-.03-.27,0-.31l-.02.19c.02-.07.03-.14.06-.21l-.07.16c.03-.06.06-.12.1-.18.13-.28-.18.19,0,0l.07-.06c-.1.11-.22.18-.36.21.16-.04.1-.04-.16.02-.26-.05-.31-.05-.15,0,.73.28,1.68-.31,1.85-1.05.2-.86-.26-1.54-1.05-1.85h0Z"/>
            </g>
            <g>
              <path class="cls-7" d="M149.13,52.06c-.62-.99-1.98-.5-2.2.78-.16.93.24,1.92.82,2.41s1.29.54,1.96.4c1.12-.24,2.18-1.02,2.97-2.18.23-.35.45-.75.52-1.22.1-.72-.19-1.47-.62-1.89s-.96-.54-1.48-.54c-1.68-.01-3.34,1.27-4.24,3.28-.12.27-.24.58-.22.9.03.48.34.82.64,1.06,1.44,1.13,3.24,1.3,4.77.46.58-.32,1.19-.9,1.27-1.78.1-1.14-.7-1.99-1.42-2.52-1.07-.79-2.26-1.49-3.45-1.21s-2.3,1.9-2.02,3.57c.18,1.11.91,1.91,1.69,2.19,1.01.37,2.14-.01,2.92-.99"/>
              <path class="cls-7" d="M150.43,51.31c-.66-.99-1.87-1.58-3.04-1.11-1.26.5-1.97,1.68-1.99,3.03-.02,1.25.54,2.52,1.54,3.28s2.47.89,3.68.44c1.06-.39,2.02-1.04,2.74-1.92.38-.45.74-.93.98-1.47.34-.78.44-1.55.29-2.39-.24-1.31-1.29-2.48-2.61-2.75-1.14-.23-2.26-.02-3.29.49-.97.47-1.75,1.26-2.39,2.11-.74.99-1.45,2.33-1.11,3.59.35,1.33,1.67,2.12,2.87,2.59,1.06.41,2.3.45,3.4.15s2.18-.95,2.81-1.95c.72-1.14.66-2.64-.02-3.78-.57-.97-1.51-1.67-2.46-2.25-1.13-.69-2.46-1.12-3.78-.8-1.08.25-2.01,1.13-2.53,2.09-.6,1.11-.8,2.43-.47,3.66.3,1.11,1.07,2.17,2.12,2.68,1.17.58,2.46.53,3.61-.06.5-.26.96-.65,1.32-1.08.5-.61.64-1.54,0-2.12-.55-.51-1.59-.65-2.12,0-.12.14-.25.27-.38.4-.23.25.26-.15-.03.03-.06.04-.11.08-.17.11-.02.01-.25.15-.27.14-.02-.02.37-.11.08-.05-.02,0-.27.06-.28.07.02-.06.39-.02.02-.01-.06,0-.13,0-.19,0-.33,0,.34.09.02,0-.06-.02-.12-.04-.19-.05-.32-.07.29.17.04.02-.05-.03-.1-.05-.15-.08l-.07-.05c-.13-.09-.1-.06.09.08-.02-.09-.29-.28-.36-.36-.14-.15.2.31.03.03-.03-.06-.07-.11-.1-.17l-.05-.09c-.07-.15-.06-.12.02.08,0-.04-.05-.15-.07-.2-.03-.1-.05-.21-.08-.32-.07-.3,0,.06,0,.07-.05-.07-.04-.58,0-.66l-.02.19c0-.05.02-.11.03-.16.02-.09.04-.17.07-.26s.06-.17.09-.25c.07-.21-.17.32,0,.03.04-.06.2-.44.26-.43,0,0-.21.24-.05.07.08-.08.15-.17.23-.24.04-.04.15-.1.17-.15-.08.2-.24.15-.05.05.04-.02.16-.07.19-.1-.13.17-.3.08-.08.04.04,0,.2-.08.23-.06,0,0-.31,0-.06.02.07,0,.27-.03.33,0-.2-.03-.24-.03-.12-.01.06,0,.11.02.17.04.11.03.22.07.33.1.06.02.28.09-.03-.02.18.07.37.18.54.27.18.1.35.21.53.33.1.06.56.31.58.41,0,0-.29-.25-.09-.07.07.06.14.12.21.19.1.1.2.21.3.31.14.15-.19-.31-.03-.03.04.07.09.14.13.21.02.03.13.2.11.22-.09-.21-.1-.23-.05-.08l.03.1c.12.3.02-.33,0,0,0,.07,0,.14,0,.21,0,.34.11-.28,0,.03-.01.04-.06.17-.06.2l.07-.18c-.03.06-.06.12-.09.17-.03.05-.08.11-.11.16.12-.27.13-.17.02-.05-.06.06-.2.14-.24.22.08-.16.24-.16.09-.08-.07.04-.14.09-.22.13-.06.04-.13.07-.2.1-.32.18.3-.09-.04.02-.17.05-.34.11-.51.15-.07.02-.14.03-.21.04-.33.06.29,0-.02,0-.18,0-.35.01-.52,0h-.1c-.17-.03-.14-.02.08,0-.05-.02-.15-.03-.21-.04-.17-.04-.35-.09-.52-.14l-.1-.04c-.15-.06-.14-.05.06.03-.09,0-.23-.11-.3-.15-.17-.09-.32-.2-.48-.3-.27-.18.05.03.05.04-.01,0-.19-.18-.2-.19-.18-.17.03.04.06.07-.18-.25.04.3,0-.01.06.38,0,.15.02.07-.06.39.03-.03.06-.12.05-.22-.16.31,0,0,.04-.08.08-.17.12-.25.08-.16.18-.32.27-.48.09-.14.18-.27.27-.4.2-.3-.21.24.02-.03.07-.08.13-.16.2-.23.11-.12.23-.24.36-.35.06-.05.12-.11.19-.16.16-.14-.31.21-.04.03.13-.09.26-.18.4-.25.05-.03.11-.06.16-.09.05-.03.11-.05.16-.08.15-.07.11-.05-.11.05.1.02.32-.11.42-.13.08-.02.5-.11.23-.05s0,0,.06,0c.08,0,.15,0,.23,0h.05c.17.01.14,0-.09-.02.06-.03.23.06.31.07.32.07-.25-.16.04.02.1.07.18.03-.03-.04.02,0,.23.2.22.22-.01.03-.19-.34-.06-.06,0,.02.17.33.07.11s.03.11.03.13c0,.03.05.37.04.13s0,.22-.01.25l.02-.17-.03.11c-.03.08-.08.43,0,.07-.03.16-.18.34-.26.47-.04.06-.08.12-.12.18-.06.08-.18.37-.04.06-.07.15-.26.3-.37.41-.12.12-.4.28-.48.43l.14-.11c-.06.04-.11.08-.17.12-.08.06-.17.11-.26.16-.06.03-.12.07-.18.1-.06.03-.12.06-.18.09-.15.07-.12.05.09-.04,0,.01-.41.13-.46.14l-.09.02c-.17.03-.14.03.08,0-.08-.02-.23.02-.32.02h-.11c-.17-.02-.14-.01.08.01-.02.02-.3-.07-.31-.09.11.12.2.1.06.01-.14-.09-.13-.08.02.04-.05-.04-.09-.08-.13-.12-.04-.04-.08-.1-.12-.14.14.18.16.2.07.07-.03-.04-.05-.08-.08-.13-.08-.14-.04-.24,0,.04-.01-.09-.08-.21-.1-.3-.02-.06-.09-.25-.07-.31l.03.19c0-.07,0-.14,0-.22,0-.03-.02-.37,0-.12-.02.12-.02.12,0,0,.01-.06.03-.12.05-.18.04-.18.09.02-.05.12.02-.01.24-.37.06-.12-.16.21,0,.02.04-.02.18-.2-.29.19-.07.06.24-.15-.36.11-.1.03.13-.04.34-.03-.13,0,.07,0,.29.02,0-.02-.15-.03-.18-.03-.07,0,.14.05.09.02-.17-.08.02.02.11.07.12.07-.2-.17-.25-.19-.14-.09-.15-.2-.18-.24-.09-.11.44.65,1.34,1,2.05.54.65-.42,1-1.35.54-2.05h0Z"/>
            </g>
            <g>
              <path class="cls-7" d="M156.93,47.09c-.87-.23-1.59-.96-1.81-1.83s.06-1.85.71-2.47c-.34-.28-.81-.36-1.17-.62-.66-.46-.76-1.53-.22-2.12s1.62-.55,2.13.07.33,1.68-.36,2.1c.73-.01,1.49.21,2.03.71s.83,1.29.63,2-.93,1.25-1.66,1.15c-.28-.66-.46-1.36-.55-2.07-.03-.22-.02-.5.17-.61.2-.12.47.05.55.27s.03.46-.03.68c-.44.13-.97-.06-1.16-.48s.12-1,.58-1c.4,0,.69.35.89.69.12.2.23.41.23.64,0,.54-.66.9-1.17.74s-.85-.67-.98-1.19-.12-1.06-.17-1.6-.19-1.09-.57-1.47c.12.05.27.11.39.04s.07-.31-.06-.28c.1.11.19.23.29.34"/>
              <path class="cls-7" d="M157.33,45.65s-.1-.03-.14-.04c-.11-.04-.06-.02.13.06-.07-.05-.19-.09-.26-.14-.05-.03-.27-.2-.09-.05s-.04-.04-.08-.08c-.03-.03-.21-.17-.2-.22.12.16.15.19.09.1-.03-.04-.06-.08-.08-.13l-.05-.09c-.06-.12-.06-.12-.01,0,.05.12.05.12,0,0-.02-.05-.03-.09-.04-.14,0-.03-.08-.23-.06-.25.03.21.03.26.03.14,0-.05,0-.1,0-.16v-.1c.02-.17,0-.14-.02.09-.02-.03.05-.22.05-.25,0-.04.04-.23.08-.25-.08.18-.1.22-.05.12.02-.05.05-.09.07-.14.04-.06.15-.19.17-.26l-.1.14c.05-.05.09-.1.14-.15.34-.34.48-.79.41-1.26-.07-.5-.33-.8-.72-1.1-.27-.2-.58-.31-.88-.45-.08-.04-.16-.09-.24-.13-.19-.09.22.18.09.06-.12-.11.15.29.05.06-.09-.2.04.1.04.12,0,0-.05-.19-.06-.21-.06-.11,0,.26.02.13,0-.04.02-.18,0-.22.01.03-.05.36,0,.14.06-.3-.07.25-.04.07.02-.09.24-.27-.05.05.15-.16-.06.07-.1.06,0,0,.33-.16.05-.05s.02.01.03,0c.03,0,.06-.01.09-.02.12-.02.06-.01-.18.03,0,0,.17,0,.18,0-.04.03-.39-.07-.09,0,.05.01.25.08.03,0-.28-.11.05.05.05.05-.05.01-.25-.23-.1-.06l-.12-.17s.05.07.07.11c.03.16-.13-.26-.05-.12.12.23-.05.01,0-.1-.01.03,0,.14,0,.18.02.25.07-.2.01-.09-.02.04-.04.12-.05.17-.03.18.14-.31.02-.08-.1.2.04-.1.08-.09-.03.03-.06.06-.09.09-.08.07-.04.04.13-.1-.54.36-.9,1.04-.69,1.69s.77,1.1,1.45,1.1c.13,0,.26,0,.39.02.12.01.07,0-.12-.02.05,0,.11.02.16.03.09.02.3.04.37.11l-.16-.07c.07.03.13.06.19.1.05.03.09.06.14.09.09.06.06.04-.08-.07,0-.01.22.22.23.22-.12-.17-.14-.19-.04-.05l.06.09c.04.06.07.12.1.19-.07-.18-.09-.22-.05-.11,0,.05.1.41.05.16-.05-.28.03.2-.01.21l.02-.19c-.01.07-.03.13-.06.2l.07-.17c-.03.06-.06.12-.1.17.13-.15.15-.19.08-.11-.03.04-.07.07-.11.11.18-.13.2-.14.06-.05l-.09.05c-.25.17.26-.06,0,0,.43-.08.04-.01-.09-.03l1.45,1.1c-.2-.49-.36-.99-.46-1.51,0-.04-.08-.44-.05-.24.01.1.01.1,0-.01,0-.13,0-.12-.02.02-.07.59-.55.88-1.45.87-.41-.11-.64-.35-.69-.71-.05-.27-.07-.3-.07-.11.03-.21.02-.22,0-.05l1.05-1.05c-.31.07.36-.02.04-.02.06,0,.33.06.13,0,.2.09.25.11.15.05-.1-.06-.05-.03.13.1.13.13.2.3.22.48.01.09-.08.49,0,.26l-.08.2c-.15.17-.19.22-.11.14.15-.15.01-.07-.42.23l-.24.03c-.11,0-.5-.07-.54-.22,0,.01.13.14.14.14-.12-.16-.14-.19-.08-.1.03.04.06.08.08.13l.06.1c.07.13.07.14.02.03-.01-.17-.07-.3-.02-.48l.09-.21c-.06.1-.06.09.02-.02.06-.06.37-.28.17-.18.22-.08.27-.1.16-.07-.12.03-.05.03.19-.01-.26,0,.28.09.1.03-.13-.04.29.2.05.02.12.09.2.15.04.01-.12-.1.14.25.02.02-.01-.02-.16-.32-.06-.09s-.01-.06-.02-.11c-.01-.05-.08-.47-.04-.13-.02-.22-.03-.45-.05-.67-.06-1.09-.27-2.11-1.04-2.93l-1.46,2.51c.91.37,2.02-.12,2.29-1.09.12-.42.08-.94-.16-1.31-.33-.51-.8-.74-1.39-.78s-1.16.41-1.37.92c-.25.58-.09,1.17.31,1.64.1.11.19.23.29.34.51.6,1.6.57,2.12,0,.58-.64.55-1.48,0-2.12-.1-.11-.19-.23-.29-.34l-1.06,2.56h.06c-.35-.14-.71-.29-1.06-.43l.04.04-.39-.66v-.61c.13-.22.26-.44.39-.66l-.05.05.66-.39c.53.06.66.05.41-.04-.59-.24-1.41.15-1.69.69-.32.61-.24,1.31.23,1.82.19.2-.18-.22.05.08.1.13-.06-.09-.04-.12,0,.01.05.14.05.15.02.06.05.34.09.37,0,0-.03-.3-.02-.13,0,.08.02.17.02.25.05.66.04,1.36.27,1.99.49,1.38,1.82,2.49,3.36,2.02.75-.23,1.37-.81,1.6-1.57s-.03-1.55-.46-2.17c-.48-.7-1.15-1.24-2.03-1.26-.8-.02-1.55.47-1.91,1.16-.45.86-.32,1.98.4,2.65.67.62,1.56.82,2.44.61.49-.11.94-.56,1.05-1.05.19-.84.15-1.72-.52-2.35-.81-.77-2.07-.67-2.74.21-.52.67-.4,1.47-.26,2.24.1.56.27,1.11.48,1.63.28.68.72,1.03,1.45,1.1.88.09,1.84-.35,2.42-1.02.71-.82.94-1.85.71-2.91-.41-1.88-2.31-2.94-4.12-2.93l.76,2.8c1.12-.75,1.71-2.19,1.23-3.49-.52-1.43-2.05-2.17-3.51-1.79s-2.24,1.75-2.05,3.16c.09.67.37,1.28.86,1.75s1.08.56,1.58.93l-.3-2.36c-1.02,1.03-1.47,2.57-1.08,3.98s1.49,2.43,2.84,2.83c.75.22,1.67-.27,1.85-1.05s-.24-1.61-1.05-1.85h0Z"/>
            </g>
            <g>
              <path class="cls-7" d="M160.49,45.56c-.4-.84-.62-1.75-.66-2.68-.02-.54.03-1.12.36-1.55s1.01-.62,1.43-.28c.15.13.09.43-.1.49-.58-.64-1.04-1.38-1.37-2.17-.04-.11-.09-.23-.05-.34.03-.11.13-.19.22-.26.41-.31.9-.63,1.38-.47.37.12.6.5.75.86.22.53.27,1.29-.25,1.54-.38.18-.86-.09-1.06-.46s-.2-.82-.19-1.24c.23.7.24,1.48,0,2.18.54-.21,1.11.32,1.29.87.38,1.11-.11,2.32-.64,3.37-.06.12-.12.24-.22.32-.23.2-.61.12-.83-.09s-.3-.53-.33-.83c-.09-.85.19-1.73.75-2.37.27.64.35,1.36.22,2.05-.46-.78-.65-1.72-.53-2.62.02-.12.05-.26.16-.32.22-.13.44.17.51.42.32,1.1.44,2.27.34,3.41-.01.16-.04.34-.16.44-.18.15-.47.05-.61-.14s-.15-.44-.17-.67c-.02-.27-.02-.59.19-.76.26-.22.67-.06.89.19.31.36.39.92.15,1.33s-.82.61-1.24.39-.58-.85-.28-1.22c.1-.12.27-.22.42-.18.27.06.33.42.27.69-.04.2-.17.42-.37.41-.31-.01-.3-.48-.19-.77.09-.24.22-.51.46-.59.27-.09.57.1.7.36s.13.55.12.84c0,.21-.03.46-.21.56-.19.1-.43-.04-.52-.23s-.07-.41-.05-.62c.08.12.16.24.24.36.2.3.41.64.38,1s-.43.7-.75.53c-.35-.19-.19-.81.2-.89s.76.26.85.65c.04.19.02.41-.1.56-.31.42-1.11,0-1.03-.51s.78-.77,1.24-.5.63.87.52,1.38c-.06.3-.22.6-.49.74-.5.26-1.14-.15-1.33-.68s-.05-1.12.08-1.67c.07-.28.17-.6.43-.71.26-.12.58.03.75.27s.22.53.27.81c.02.12.04.26-.03.36-.15.22-.5.04-.66-.18-.32-.43-.47-.98-.42-1.51.01-.14.05-.3.16-.39.23-.2.58,0,.78.23.65.73.92,1.79.68,2.74-.03.13-.08.26-.16.36-.14.17-.36.24-.58.24-.86,0-1.43-.95-1.51-1.81-.07-.71.24-1.62.96-1.67.71-.06,1.16.76,1.27,1.47.11.71-.08,1.63-.78,1.78-.53.11-1.05-.33-1.21-.85s-.06-1.07.04-1.6c.27-.17.68.09.64.4"/>
              <path class="cls-7" d="M161.78,44.8c-.27-.59-.44-1.37-.46-2,0-.06.03-.54,0-.34l.04-.16c.05-.18.06-.21.03-.08-.06.02-.18.13-.26.16.18-.05.17-.05,0,0-.41-.16-.5-.16-.27-.03l-.54-.54-.11-.79.39-.66.16-.11,1.82.23c-.23-.26-.38-.44-.59-.8-.09-.15-.17-.3-.25-.45-.04-.08-.13-.46-.14-.21l-.2.76c-.05.07-.11.13-.18.18.09-.07.19-.13.29-.19-.1.01-.07,0,.11-.04l-.54-.08c-.06-.03-.1-.08-.13-.13.05.08.1.17.14.26-.06-.15-.06-.14,0,.02.03.15.04.17.02.06-.01-.11-.01-.09,0,.06.04-.19.04-.2,0-.04.19-.43.76-.87,1.22-.5.16.13.09.25.1.02.02.14.03.11.01-.08,0-.11,0-.21,0-.32l-2.95.4c.15.48.15.9,0,1.39-.33,1.1.76,2.14,1.85,1.85-.21.06-.39-.1-.57-.14.08.02.13.19.04.05-.11-.19.05.17.06.25-.02-.18,0,.15,0,.2,0,.25-.04.34-.13.63s-.18.52-.28.73c-.06.12-.14.25-.19.38-.18.31.07.19.75-.37l.59.24.06.06c.05.1.06.1.03,0-.02-.1-.02-.1,0,.01v-.16s.06-.46,0-.24c.03-.13.06-.26.11-.39.08-.22-.15.2.08-.15.02-.04.26-.37.13-.22l-2.51-.66c.05.14.1.27.14.41,0,.03.09.35.06.2.02.11.02.23.02.35,0,0-.03.45,0,.29l2.74-.36c-.17-.31-.28-.56-.35-.99-.02-.1-.02-.11,0-.02,0-.11-.01-.23-.01-.34,0-.11,0-.23.02-.34-.02.14-.01.14.04,0l-.39.66.08-.08-.66.39.11-.03h-.8c-.53-.7-.74-.87-.62-.51.02.06.03.12.05.19.04.15.08.31.11.47.06.27.09.46.11.74.03.32.03.64.03.96,0,.15-.05.33-.02.48.09.64,2.16-.83,2.06-.13.01-.08,0-.2-.02-.28.05-.39-.19-.3-.7.27-.37.52-.68.58-.92.17.12.12.01.15.02.03s-.02-.17.02-.28c.09-.22.29-.32.52-.31.26.02.54.25.61.51.06.23-.08.68-.31.79l-.76.2h-.14c-.22-.14-.44-.27-.66-.4-.47-.43-.19-1.33.46-1.45h.8l.2.08.54.54c.05.12.09.25.11.38-.03.19-.03.23,0,.12.03-.09.02-.07-.03.06-.11.13-.25.23-.4.32h-.8c.38.08.24-.09-.42-.51,0-.09,0-.08,0,.02-.08.56.1-.14.23-.24l.66-.39.16-.04.76.2c.27.8.4,1.02.39.66,0-.08,0-.16.01-.24l-2.8.76c.12.19.25.37.37.56.06.1.1.17.09.17-.07-.1-.06-.21.03-.33,0-.62.46-.82,1.35-.62l.54.54c.08.18.09.37.01.57.04.59-.34.87-1.14.82-.75-.25-.83-1.66.51-1.57.78.05,1.18,1.26.4,1.64-.15.07-.31.08-.46.03-.12-.04-.19-.16-.29-.2l-.04-.1c.04.16.05.19.02.09-.02-.05-.02-.11,0-.17-.04.16-.05.2-.03.11.22-.2.68-.61,1-.27.13.13.05.39.05.04,0,.13.03-.24.01-.14,0-.05.05-.26.07-.36.02-.09.04-.17.06-.26.03-.1.02-.1-.03.01-.76.53-1.25.55-1.48.04-.09-.18-.09-.16-.02.04.05.32-.01.02.03-.1l.39-.66-.09.08.66-.39-.11.02h.8l.11.07c.23.25.3.3.2.15-.04-.08-.05-.09-.03-.04.03.08.02.04-.04-.12-.02-.06-.06-.24-.02-.08.01-.17,0-.21-.01-.11-.02.09-.01.06.04-.09l-.39.66-.09.06-.76.2c-.09,0-.37-.19-.42-.17,0,0,.11.18.16.25.09.15.1.22.16.48.02.1.02.11,0,0v.16s0,.41,0,.29c.01-.12-.06.26-.07.25l.6-.61.14-.02c.16.03.18.03.07,0-.08-.02-.08-.02,0,0,.2.07.11.16.07,0,.05.19.02.03-.04-.08-.11-.19.07.3-.05-.09-.03-.09-.05-.18-.07-.27.06.26,0,.02,0-.07,0-.15.05-.26,0-.06,0-.04.1-.38.05-.19-.05.17.13-.12,0,.02-.08.09-.17.19-.3.22-.21.05-.42,0-.6-.11-.14-.09.12.2-.03-.04.05.08.1.16.13.24-.1-.24,0,.06,0,.11.05.17.02-.22.01.06,0,.04,0,.4.01.2.02-.19-.05.17-.05.19.04-.13.09-.14,0-.02.17-.22.52-.43.81-.28.04.02.14.15.15.15.04,0-.02-.15-.01-.08-.02-.31.01-.38.07-.68l-.69.9.11-.05-.76.2-.96-1.05c.03.81.67,1.5,1.5,1.5.79,0,1.53-.69,1.5-1.5-.04-.87-.55-1.63-1.41-1.88-1.08-.32-2.07.36-2.24,1.44-.25,1.54.06,3.27,1.72,3.87,1.46.52,2.89-.51,3.18-1.97.24-1.21-.06-2.58-.96-3.46-1.15-1.13-3.01-.78-3.79.59-.63,1.11-.52,2.56.1,3.65.69,1.22,2.3,2.03,3.63,1.27s1.4-2.63.97-3.9c-.47-1.41-1.94-3.21-3.59-2.18-1.42.89-1.02,3.27,0,4.31.6.6,1.56.89,2.34.44.9-.53,1-1.56.75-2.47-.22-.8-.76-1.54-1.59-1.78-.9-.26-1.89.1-2.36.92-.71,1.25-.85,3.19.17,4.31,1.1,1.21,3,1.1,3.85-.34.75-1.29.3-3.14-1.04-3.84-1.41-.74-3.38.23-3.39,1.91,0,1.86,2.54,2.92,3.71,1.36,1.27-1.69-.59-4.36-2.61-3.46-.86.38-1.38,1.36-1.16,2.29s1.11,1.58,2.08,1.44,1.76-1.04,1.8-2.05c.03-.81-.4-1.47-.82-2.12-.85-1.28-2.68-.73-2.8.76-.08,1,.41,2.03,1.44,2.32,1.29.36,2.26-.69,2.35-1.89.07-.94-.21-1.95-1.04-2.49-.98-.64-2.24-.35-2.86.64-.39.62-.58,1.43-.35,2.14.4,1.26,1.99,1.63,2.93.72.67-.65.81-1.81.36-2.62-.62-1.12-2.16-1.25-3.02-.33-.67.71-.76,1.82-.31,2.67.49.91,1.54,1.35,2.54,1.15,1.97-.41,2.59-2.89,1.26-4.31-.68-.73-1.84-.98-2.71-.43-.92.58-1.07,1.75-.85,2.74.21.93.99,1.72,1.99,1.7,1.27-.02,1.81-1.09,1.89-2.21.07-.96-.03-1.94-.22-2.88-.22-1.07-.75-2.29-2.03-2.29-1.39,0-1.84,1.38-1.8,2.53.03.96.3,1.87.77,2.7.29.52.92.8,1.49.72.54-.08,1.15-.49,1.25-1.07.16-.97.14-1.92-.22-2.85-.2-.5-.5-.9-1.05-1.05-.48-.13-1.13-.01-1.46.39-.95,1.14-1.43,2.58-1.1,4.06.4,1.82,2.83,2.67,3.96.96.7-1.06,1.21-2.57,1.09-3.85-.15-1.66-1.47-3.32-3.31-2.82l1.85,1.85c.29-.97.29-2.01,0-2.98-.49-1.61-2.93-1.32-2.95.4,0,.87.11,1.75.71,2.42s1.56,1.01,2.44.73c1.75-.56,1.78-2.74.98-4.07-.46-.77-1.27-1.34-2.2-1.31-.84.03-1.72.51-2.29,1.1-1.34,1.39.39,3.63,1.37,4.73.44.5,1.26.55,1.82.23,1.23-.69,1.2-2.45,0-3.15-1-.58-2.32-.28-3.09.54-1.51,1.6-.78,4.35.02,6.1.34.74,1.4.92,2.05.54.76-.44.88-1.31.54-2.05h0Z"/>
            </g>
          </g>
          <path class="cls-2" d="M146.76,49.25c-.48-1.13-1.13-2.17-1.93-3.11-.13-.15-.4-.14-.53,0-.15.15-.13.38,0,.53.75.88,1.36,1.89,1.81,2.95.08.19.35.23.51.13.19-.11.21-.33.13-.51h0Z"/>
          <g id="Face">
            <path class="cls-10" d="M173.37,48.31s-.03,0-.04,0h.1c-.37-.04-.73-.14-1.07-.28l.09.04s-.07-.03-.1-.04c-.09-.04-.19-.07-.29-.04-.09.02-.18.09-.22.17-.09.16-.06.43.13.51.22.1.45.19.68.26s.48.11.72.14c.09.01.21-.05.27-.11.07-.07.11-.17.11-.27s-.04-.2-.11-.27c-.08-.07-.16-.1-.27-.11h0Z"/>
            <path class="cls-10" d="M167.48,49.5c.42-.09.83-.3,1.12-.61.07-.07.11-.17.11-.27,0-.09-.04-.2-.11-.27-.15-.13-.39-.15-.53,0-.06.06-.12.12-.19.17l.08-.06c-.12.09-.25.17-.4.23l.09-.04c-.12.05-.25.09-.37.12-.09.02-.18.1-.22.17-.05.08-.07.2-.04.29s.09.18.17.22c.09.05.19.06.29.04h0Z"/>
            <path class="cls-10" d="M167.79,46.67h-.08c-.1,0-.2.02-.29.07-.09.03-.17.08-.24.16-.07.07-.12.15-.16.24-.05.09-.07.19-.06.29l.03.2c.04.13.1.24.19.33l.15.12c.12.07.24.1.38.1h.08c.1,0,.2-.02.29-.07.09-.03.17-.08.24-.16.07-.07.12-.15.16-.24.05-.09.07-.19.06-.29l-.03-.2c-.04-.13-.1-.24-.19-.33l-.15-.12c-.12-.07-.24-.1-.38-.1h0Z"/>
            <path class="cls-10" d="M172.67,46.05h-.17c-.1,0-.2.02-.29.07-.09.03-.17.08-.24.16-.07.07-.12.15-.16.24-.05.09-.07.19-.06.29l.03.2c.04.13.1.24.19.33l.15.12c.12.07.24.1.38.1h.17c.1,0,.2-.02.29-.07.09-.03.17-.08.24-.16.07-.07.12-.15.16-.24.05-.09.07-.19.06-.29l-.03-.2c-.04-.13-.1-.24-.19-.33l-.15-.12c-.12-.07-.24-.1-.38-.1h0Z"/>
            <path class="cls-10" d="M171.31,45.72c-.41-.36-1.01-.53-1.55-.36s-.92.62-.98,1.18c-.02.2.19.38.38.38.22,0,.35-.17.38-.38-.01.11,0-.02.01-.05,0-.02.01-.04.02-.06.01-.05-.04.08,0,0,.02-.04.04-.08.06-.11,0-.01.03-.03.03-.04-.03.04-.04.05-.02.02,0-.01.02-.02.03-.03.03-.03.06-.06.09-.08.04-.04.01-.03,0,0,0-.02.04-.03.06-.04.04-.02.08-.04.12-.06.04-.02-.08.03,0,0,.02,0,.04-.01.07-.02.02,0,.12-.02.12-.03-.05,0-.06,0-.03,0,0,0,.02,0,.03,0,.02,0,.05,0,.07,0,.05,0,.09,0,.14,0,.07,0-.05-.01,0,0,.02,0,.05,0,.07.01.05.01.09.02.14.04,0,0,.05.01.05.02-.04-.02-.05-.02-.02,0,.01,0,.03.01.04.02.04.02.07.04.11.06.02.01.04.02.06.04l-.03-.02s.03.02.04.04c.15.13.39.16.53,0,.13-.14.16-.39,0-.53h0Z"/>
          </g>
          <path class="cls-8" d="M156.18,46.51s0-.03,0-.04c0-.03,0,.02,0-.01,0,0,.01-.04,0-.01,0-.01.01-.02.02-.03,0,0,.03-.03,0-.01,0-.01.02-.02.03-.03s.02-.02.03-.03c.02-.02-.01,0,.02-.01.11-.07.2-.11.33-.13.06,0,.11,0,.16.01,0,0,.02,0,.02,0-.01,0-.01,0,0,0,.01,0,.02.01.03.02,0,0,0,0,0,0,0,0,0,0,.01.01,0,0,.03.03.02.02s.01.02.01.02c0,.01.01.02.02.03,0,0,0,0,0,0,0,0,0,.01,0,.02,0,0,.01.04,0,.02s0,.02,0,.02c0,0,0,.01,0,.02,0-.02,0-.02,0-.01,0,0-.02.04,0,.02s-.01.02-.02.02c-.05.06-.01.17.05.21.08.04.16.01.21-.05.1-.13.08-.32-.01-.46-.11-.16-.29-.23-.48-.22-.31.02-.79.24-.75.61,0,.08.06.15.15.15.08,0,.16-.07.15-.15h0Z"/>
          <path class="cls-8" d="M161.66,38.71s0,0,.01,0c.01,0,.03,0,.04-.01,0,0,.01,0,.02,0-.02,0-.02,0,0,0,.01,0,.02,0,.03,0,.01,0,.03,0,.04,0,.02,0,.01,0,0,0,0,0,.01,0,.02,0,.02,0,.05.01.07.02.02,0,.01,0,0,0,0,0,.01,0,.02,0,.01,0,.03.01.04.02,0,0,.02.01.03.02.01,0,.01,0,0,0,0,0,.01,0,.02.01.01,0,.02.02.03.03,0,0,.03.04.02.02s.01.02.01.02c0,0,.02.03.02.04,0-.02,0-.02,0,0,0,0,0,.01,0,.02,0,.01,0,.02,0,.03,0,0,0,.01,0,.02,0,.02,0,.01,0,0,0,0,0,.04,0,.04,0,.01,0,.03,0,.04,0,.03,0-.03,0,0,0,.03-.01.06-.02.08,0,.03.01-.02,0,0,0,.01-.01.03-.02.04s-.02.02-.02.04c0,.01,0,.01,0,0,0,0,0,.01-.01.02-.02.02-.03.04-.05.05.04-.02,0,0-.01,0-.01,0-.03.01-.04.02-.07.03-.1.14-.05.21.05.07.13.09.21.05.21-.1.35-.35.33-.59-.02-.26-.2-.46-.45-.53-.14-.04-.29-.02-.42.04-.07.03-.09.14-.05.21.05.07.13.09.21.05h0Z"/>
          <path class="cls-8" d="M157.23,44.86l-.2-.05c-.07-.02-.17.02-.18.1-.04.22-.08.44.02.65.07.16.25.27.43.28.1,0,.21-.04.28-.12.05-.06.06-.15,0-.21-.06-.05-.16-.06-.21,0,0,0-.01.01-.02.02-.02.02.03-.02,0,0,0,0-.02,0-.03.01,0,0,.03-.01,0,0,0,0-.02,0-.03,0,.01,0,.04,0,.01,0,0,0-.02,0-.03,0-.03,0,.03,0,0,0-.02,0-.04,0-.05-.01s-.02-.02,0,0c0,0-.02,0-.03-.01,0,0-.01,0-.02-.01,0,0,0,0-.01,0,.02.01.02.02.01.01-.01-.01-.03-.03-.04-.04-.02-.02.02.03,0,0,0,0,0-.01-.01-.02,0-.01-.01-.02-.02-.03.01.04,0,0,0,0,0-.02-.01-.05-.02-.07,0-.03,0,.03,0,0,0-.01,0-.03,0-.04,0-.03,0-.05,0-.08,0-.01,0-.02,0-.03,0,0,0-.02,0-.02,0-.02,0-.02,0,0,0,0,.03-.14.03-.16l-.18.1.2.05c.08.02.17-.02.18-.1.02-.08-.02-.17-.1-.18h0Z"/>
          <path class="cls-8" d="M155.72,45.89c.27-.11.58-.29.62-.61.04-.28-.13-.61-.44-.62-.08,0-.15.07-.15.15s.07.15.15.15c.02,0,.03,0,0,0,.01,0,.02,0,.03,0,.03,0-.02-.01,0,0,0,0,.02.01.03.02,0,0,0,0,0,0,0,0,0,0,.01.01,0,0,.02.02.02.02,0,0,0,0,.01.01-.01-.01-.01-.02,0,0,0,0,.01.02.02.03s0,.02.02.03c0,.01,0,0,0,0,0,0,0,.01,0,.02,0,.02.01.04.02.07,0-.02,0-.01,0,0,0,.01,0,.02,0,.03s0,.02,0,.03c0-.02,0-.01,0,0,0,.01,0,.02,0,.03,0,.03.01-.02,0,.01-.01.02-.03.05-.04.07,0,0-.03.04,0,.01,0,.01-.02.02-.03.03-.02.02-.04.04-.06.06,0,0-.03.03-.01.01-.01,0-.02.02-.03.02-.02.02-.05.03-.07.04-.03.01-.05.03-.08.04-.01,0-.03.01-.04.02,0,0,0,0,0,0,0,0-.02,0-.03.01-.07.03-.13.1-.1.18.02.07.11.14.18.1h0Z"/>
          <path class="cls-8" d="M157.23,42.58s-.03-.01,0,0c.03.01,0,0,0,0,0,0,.02.01.02.01-.02-.01-.02-.02,0,0h0s0,0,0,0c0,0,.01.02.01.02.02.03,0-.03,0,0,0,0,0,.02,0,.03,0,.03,0-.03,0,0,0,0,0,.02,0,.03,0,.03,0-.03,0,0,0,.01,0,.02,0,.03-.01.03.01-.03,0,0,0,0-.01.02-.02.03,0,0,0,0,0,.01,0,0,0,0,0,0,0,0-.02.02-.02.03-.02.02-.03.03-.05.05,0,0-.02.02-.03.02.02-.02,0,0,0,0-.04.03-.09.06-.14.08-.02.01-.05.03-.07.04-.01,0-.02,0-.03.01,0,0-.01,0-.02,0,.01,0,.01,0,0,0-.05.02-.1.04-.16.05-.08.02-.13.11-.1.18s.1.13.18.1c.14-.04.27-.09.39-.17s.22-.15.3-.26.1-.25.06-.37c-.05-.14-.17-.24-.32-.24-.08,0-.15.07-.15.15s.07.15.15.15h0Z"/>
          <path class="cls-8" d="M157.96,43.11c.19,0,.19-.3,0-.3s-.19.3,0,.3h0Z"/>
          <path class="cls-8" d="M157.59,43.66s0,0,0,0c0,0,0-.02.01-.02,0,0,.02-.02.01-.02,0,0-.02.02,0,0,.01-.01.03-.03.04-.04.02-.02-.02.01,0,0,0,0,.01,0,.02-.01.01,0,.03-.02.05-.02-.02,0-.02,0-.01,0,0,0,0,0,.02,0,0,0,.02,0,.03,0s.02,0,.03,0c.03,0-.02,0,0,0s.04,0,.06,0c.03,0-.02,0,0,0,0,0,.02,0,.03,0s.02,0,.03,0c.03,0,0,0,0,0,0,0,.04.02.05.03,0,0,.02,0,.02.02-.02-.02-.01,0,0,0,.01.01.03.03.04.04.02.02-.01-.02,0,0,0,0,0,.01.01.02,0,0,.01.02.02.03,0,.02,0,0,0,0,0,.02.01.04.02.06.02.08.11.13.18.1.08-.03.12-.1.1-.18-.05-.23-.26-.4-.49-.42-.11,0-.23.03-.32.08-.1.07-.18.16-.22.27-.03.07.03.17.1.18.09.02.15-.03.18-.1h0Z"/>
          <path class="cls-8" d="M157.87,42.25c-.17.17-.19.44-.08.65s.37.3.6.24c.13-.03.24-.11.32-.22.04-.06.01-.17-.05-.21-.08-.04-.16-.02-.21.05,0,0,0,0,0,.01,0,0,.02-.03.01-.02,0,0-.01.01-.02.02,0,0-.01.01-.02.02,0,0,0,0,0,0-.01.01.03-.02,0,0-.01,0-.03.02-.05.03-.01,0-.04.01,0,0,0,0-.02,0-.03.01-.02,0-.03,0-.05.01,0,0-.01,0-.02,0,0,0,.04,0,.02,0-.01,0-.02,0-.03,0-.02,0-.04,0-.05,0-.02,0,.02,0,.02,0,0,0-.01,0-.01,0,0,0-.02,0-.03,0,0,0-.02,0-.03,0-.03-.01.03.01,0,0-.02,0-.04-.02-.05-.03-.02-.01.03.02,0,0,0,0-.01-.01-.02-.02,0,0-.01-.02-.02-.02,0,0,.02.03.01.02,0,0,0-.01-.01-.02,0-.02-.02-.03-.03-.05-.01-.02,0,.01,0,.01,0,0,0-.01,0-.01,0,0,0-.02,0-.03,0,0,0-.02,0-.03,0,0,0-.01,0-.02,0-.02,0,.02,0,.02,0-.02,0-.04,0-.06,0-.01,0-.02,0-.03,0-.02,0,.02,0,.02,0,0,0-.01,0-.02,0-.02.01-.04.02-.06,0,0,0-.02,0,0-.01.02,0,0,0,0,0,0,0-.02.01-.03,0,0,.03-.04.01-.02s0,0,.01-.01c.05-.06.06-.16,0-.21s-.15-.06-.21,0h0Z"/>
          <path class="cls-8" d="M154.02,40.48s-.03,0,0,0c0,0,.02,0,.03,0,0,0-.03-.02,0,0,0,0,.01.01.02.01.02,0-.02-.02,0,0,0,0,.01.01.02.02h0s0,.02,0,0c0,0,.01.02.01.02,0,0,0,.01.01.02.02.03,0-.03,0,0,0,.02.01.04.02.05,0,.03,0-.03,0,0,0,0,0,.02,0,.02,0,0,0,.02,0,.03,0,0,0,0,0,.01,0,.01,0,0,0-.02,0,0-.01.04-.01.05-.01.03,0,0,0,0,0,0-.01.03-.02.03,0,.02-.02.03-.03.05,0,0,0,0,0,0,0,0,0,0-.01.01,0,0-.01.01-.02.02-.02.02-.03.03-.05.05,0,0-.01.01-.02.02-.01.01-.02.01,0,0-.03.03-.08.05-.11.08-.07.04-.1.14-.05.21s.13.1.21.05c.2-.12.4-.3.42-.55,0-.1-.02-.21-.08-.3-.07-.11-.18-.17-.31-.18-.08,0-.15.07-.15.15,0,.09.07.15.15.15h0Z"/>
          <path class="cls-8" d="M154.84,41.48s0-.03-.02-.03c0,.02.01.03,0,.01,0,0,0-.01,0-.02,0-.01,0-.02,0-.03,0,0,0-.01,0-.02,0-.02,0-.01,0,.01,0-.02,0-.04,0-.06,0-.01,0-.03,0-.04,0,.03,0,.03,0,.01,0,0,0-.01,0-.02,0-.02,0-.04.02-.06,0,0,0-.01,0-.02,0,.02-.01.03,0,.01,0-.01.01-.02.02-.03s.01-.02.02-.03c.02-.03-.02.03,0,0,0,0,.02-.02.02-.03,0,0,.02-.02.03-.02-.02.01-.02.02,0,0,0,0,.01,0,.02,0,.01,0,.02-.01.03-.02h0s.01,0-.01,0c0,0,.03,0,.03-.01.01,0,.02,0,.04,0,0,0,.01,0,.02,0-.02,0-.03,0-.01,0,.02,0,.04,0,.06,0,0,0,.01,0,.02,0,.02,0,.01,0-.01,0,.01,0,.02,0,.04,0,.02,0,.04.01.06.02-.04-.01,0,0,0,0s.02.01.03.02c0,0,0,0,.01.01-.02-.01-.02-.02,0,0,0,0,.02.02.03.02.06.06.16.06.21,0s.06-.15,0-.21c-.15-.15-.38-.2-.58-.14-.22.07-.35.26-.38.48-.01.11.01.23.07.33.04.07.14.1.21.05s.1-.13.05-.21h0Z"/>
          <path class="cls-8" d="M154.59,39.8c-.14.18-.1.45.04.62.15.18.41.2.61.09.11-.06.2-.17.23-.29.02-.08-.03-.17-.1-.18s-.16.02-.18.1c0,0,0,.02,0,.03,0,.01,0-.02,0-.02,0,0,0,0,0,.01,0,0,0,.02-.01.02,0,0-.02.03,0,.01s0,0,0,0c0,0-.01.01-.02.02,0,0-.01.01-.02.02-.01.01.03-.02.01,0,0,0,0,0-.01,0-.02,0-.03.02-.05.03-.03.01.03,0,0,0,0,0-.02,0-.03,0,0,0-.02,0-.03,0-.02,0-.04,0,0,0-.02,0-.04,0-.05,0,0,0-.04,0-.01,0s0,0,0,0c0,0-.02,0-.03,0,0,0,0,0-.01,0-.03,0,.02.01.01,0-.01,0-.03-.02-.05-.03-.01,0,.02.01.02.01,0,0,0,0-.01,0,0,0-.01-.01-.02-.02,0,0-.02-.03,0,0s0,0,0,0c0-.01-.02-.03-.03-.05-.01-.02.01.03,0,0,0,0,0-.02,0-.03s0-.02,0-.03c0,0,0,0,0-.01,0-.03,0,.03,0,.01,0-.02,0-.04,0-.06,0,0,0-.04,0-.01s0,0,0-.01c0,0,0-.02,0-.03,0,0,0,0,0-.01,0-.02-.01.02,0,.01.01-.02.02-.04.03-.05.02-.03.02-.08.02-.12s-.04-.07-.07-.09c-.03-.02-.08-.03-.12-.02s-.06.04-.09.07h0Z"/>
          <path class="cls-8" d="M162.5,43.98c-.06-.08-.14-.14-.24-.17-.09-.02-.19-.01-.28.02s-.18.08-.24.16c-.07.09-.12.19-.15.3s-.05.23-.06.35c0,.08.08.15.15.15.09,0,.14-.07.15-.15,0-.01,0-.03,0-.04,0-.04,0,.03,0,0,0-.03,0-.05.01-.08,0-.05.02-.1.04-.15,0-.01,0-.02.01-.03,0,0,0-.01,0-.02,0-.02,0-.01,0,0,0,0,.01-.03.01-.03,0-.01.01-.03.02-.04,0,0,.01-.02.02-.03,0,0,0-.01.01-.02-.01.01-.01.02,0,0,.01-.02.03-.03.04-.05.03-.02-.02.01,0,0,0,0,.01,0,.02-.01.01,0,.02-.01.03-.02,0,0,0,0,.01,0,.01,0,0,0-.02,0,.02,0,.04-.01.06-.02,0,0,.04,0,.01,0s0,0,.01,0c0,0,.02,0,.03,0,0,0,.01,0,.02,0,.02,0,.01,0-.01,0,.01,0,.04.01.06.01-.03,0-.02-.01,0,0,0,0,.02.01.03.02-.01,0-.02-.02,0,0,0,0,.03.04,0,0,.02.03.05.06.09.07.04,0,.08,0,.12-.02.06-.04.1-.14.05-.21h0Z"/>
          <path class="cls-8" d="M160.69,43.96s0-.01.02-.02c0,0,0,0,0,0,.01-.01-.02.01-.02.01,0-.01.03-.02.04-.02,0,0,.03-.01,0,0s0,0,0,0c.02,0,.03,0,.05-.01.01,0-.02,0-.02,0,0,0,0,0,.01,0,0,0,.01,0,.02,0s.01,0,.02,0c0,0,0,0,.01,0,.02,0-.02,0-.02,0,0,0,.03,0,.04,0,0,0,.02,0,.02,0,0,0-.03-.02-.02,0,0,0,0,0,.01,0,0,0,.01,0,.02.01,0,0,.03.02,0,0s0,0,0,0c0,0,.01.01.02.02,0,0,.02.03,0,0s0,0,0,0c0,.01.02.03.02.04.01.02-.01-.03,0,0,0,0,0,.01,0,.02,0,.02,0,.03.01.05,0,0,0,.02,0,.02,0,0,0,.01,0,.01,0,0,0-.04,0-.02,0,.02,0,.03,0,.05,0,.08,0,.15-.01.23l.07-.13c.08-.05.19.03.16.13.02-.08-.03-.17-.1-.18s-.16.02-.18.1c-.03.1.04.2.14.23.06.02.14,0,.18-.06.03-.04.03-.09.04-.14,0-.1,0-.2,0-.3s-.07-.2-.14-.28c-.08-.08-.19-.12-.31-.13-.12,0-.25.05-.34.14-.05.06-.06.16,0,.21s.15.06.21,0h0Z"/>
          <path class="cls-8" d="M161.12,43.11c.09.24.32.42.58.42s.5-.18.58-.42c.03-.07-.03-.17-.1-.18-.08-.02-.16.03-.18.1-.01.04,0-.02,0,0,0,0,0,.02-.01.03-.01.02-.02.04-.03.05.02-.03,0,0,0,0,0,0-.01.02-.02.02s-.02.01-.02.02c-.02.02.01,0,0,0-.02.01-.03.02-.05.03,0,0-.02,0-.03.01.03-.01,0,0,0,0-.02,0-.04.01-.07.02.01,0,.02,0,0,0-.01,0-.02,0-.04,0-.01,0-.02,0-.03,0,0,0-.03,0,0,0-.02,0-.04,0-.06-.01,0,0-.04-.01-.02,0s-.01,0-.02,0c-.02,0-.04-.02-.05-.03-.03-.02.02.02,0,0,0,0-.01-.01-.02-.02,0,0-.02-.02-.03-.03,0,0-.03-.03-.01-.01s-.01-.01-.01-.02c0,0-.01-.02-.02-.03s0-.02-.01-.03c-.01-.03,0,.02,0-.01-.03-.07-.1-.13-.18-.1-.07.02-.13.11-.1.18h0Z"/>
          <path class="cls-2" d="M152.03,48.07c-.19-.58-.34-1.17-.42-1.77s-.1-1.19-.32-1.74c-.07-.19-.25-.32-.46-.26-.18.05-.34.27-.26.46.22.55.24,1.15.32,1.73s.23,1.2.42,1.79c.15.46.88.26.72-.2h0Z"/>
          <path class="cls-2" d="M149.17,48.16c-.37-1-.64-2.03-.8-3.08-.03-.2-.28-.31-.46-.26-.21.06-.29.26-.26.46.16,1.05.42,2.09.8,3.08.07.19.25.32.46.26.18-.05.33-.27.26-.46h0Z"/>
          <path class="cls-2" d="M145.25,50.89c-.25-.16-.47-.31-.66-.53-.22-.25-.45-.46-.72-.65-.54-.4-1.09-.78-1.63-1.18-.16-.12-.42-.03-.51.13-.11.19-.03.39.13.51.54.39,1.09.78,1.63,1.18.23.17.42.38.62.59.22.24.49.42.76.59.41.26.79-.39.38-.65h0Z"/>
        </g>
      </g>
      <g id="Stripe">
        <g>
          <path class="cls-2" d="M166.66,182.86c.19-6.99-.51-13.58-1.74-19.92-10,1.38-20.07,2.21-30.16,2.46-15.99.39-33.25-1.16-45.72-10.95-4.48,11.96-10.75,23.35-12.99,35.91-.22,1.22-.38,2.44-.53,3.67,13.62,8.21,28.63,14.11,44.3,16.04,16.17,1.99,33.05-.44,47.51-7.97.19-6.89-.87-11.56-.66-19.23Z"/>
          <path class="cls-2" d="M168.16,182.86c.17-6.83-.5-13.62-1.8-20.32-.17-.87-1.1-1.15-1.85-1.05-10.98,1.51-22.09,2.4-33.17,2.45-9.32.05-18.78-.65-27.69-3.55-4.86-1.58-9.51-3.88-13.56-7.02-.93-.72-2.08-.47-2.51.66-4.98,13.23-11.87,25.75-13.57,39.98-.06.51.33,1.05.74,1.3,21.85,13.13,47.69,20.36,73.1,15.19,7.03-1.43,13.85-3.82,20.22-7.12.47-.24.73-.78.74-1.3.16-6.42-.82-12.8-.66-19.23.05-1.93-2.95-1.93-3,0-.16,6.43.82,12.81.66,19.23l.74-1.3c-22.29,11.53-48.64,10.32-71.54,1.29-6.51-2.57-12.75-5.76-18.75-9.35l.74,1.3c1.66-13.9,8.61-26.27,13.47-39.18l-2.51.66c16.1,12.51,38.17,12.17,57.51,10.91,6.63-.43,13.24-1.12,19.83-2.03l-1.85-1.05c1.24,6.44,1.85,12.96,1.69,19.52-.05,1.93,2.95,1.93,3,0Z"/>
        </g>
        <g>
          <path class="cls-4" d="M164.71,161.96c-9.9,1.37-17.94,2.18-27.96,2.43-15.52.38-34.11-3.92-46.59-13.12-1.08,3.16-2.3,6.28-3.6,9.37,12.95,9.6,25.95,13.6,43.24,14.42,12.29.59,24.84.48,36.52-3.36-.33-3.67-.9-6.24-1.61-9.74Z"/>
          <path class="cls-4" d="M164.31,160.52c-10.53,1.45-21.27,2.68-31.91,2.36-9.44-.28-18.9-2.11-27.72-5.5-4.87-1.87-9.54-4.32-13.76-7.4-.83-.61-1.92.07-2.2.9-1.09,3.17-2.31,6.28-3.6,9.37-.27.65.2,1.33.69,1.69,8.06,5.94,17.11,10.25,26.9,12.45,5.12,1.15,10.35,1.78,15.59,2.1,6.11.36,12.26.5,18.37.16,6.8-.37,13.57-1.39,20.06-3.49.58-.19,1.16-.78,1.1-1.45-.33-3.42-.98-6.78-1.67-10.14-.39-1.89-3.28-1.09-2.89.8.64,3.1,1.26,6.19,1.56,9.34l1.1-1.45c-11.35,3.68-23.37,3.87-35.18,3.35-9.96-.44-19.95-1.95-29.16-5.93-5.07-2.19-9.82-5.05-14.26-8.33l.69,1.69c1.29-3.09,2.51-6.2,3.6-9.37l-2.2.9c7.84,5.73,17.21,9.27,26.65,11.3,9.95,2.14,19.93,2.28,30.05,1.6,6.36-.43,12.69-1.19,19.01-2.06.81-.11,1.23-1.14,1.05-1.85-.23-.87-1.05-1.16-1.85-1.05Z"/>
        </g>
      </g>
    </g>
  </g>
</svg>