<?xml version="1.0" encoding="UTF-8"?>
<svg id="Layer_2" data-name="Layer 2" xmlns="http://www.w3.org/2000/svg" viewBox="0 0 294.91 310.47">
  <defs>
    <style>
      .cls-1 {
        fill: #f46640;
      }

      .cls-1, .cls-2, .cls-3, .cls-4, .cls-5, .cls-6, .cls-7, .cls-8, .cls-9, .cls-10, .cls-11, .cls-12, .cls-13, .cls-14, .cls-15 {
        stroke-width: 0px;
      }

      .cls-2 {
        fill: #ffcaa6;
      }

      .cls-3 {
        fill: #ff9852;
      }

      .cls-4 {
        fill: #ce124b;
      }

      .cls-5 {
        fill: #aa0f3e;
      }

      .cls-6 {
        fill: #f45270;
      }

      .cls-7 {
        fill: #ff7694;
      }

      .cls-8 {
        fill: #b899ff;
      }

      .cls-9 {
        fill: #ff8440;
      }

      .cls-10 {
        fill: #ff6e9b;
      }

      .cls-11 {
        fill: #e81a50;
      }

      .cls-12 {
        fill: #ed4a71;
      }

      .cls-13 {
        fill: #f23053;
      }

      .cls-14 {
        fill: #ff8e50;
      }

      .cls-15 {
        fill: #ff9250;
      }
    </style>
  </defs>
  <g id="Anteaters">
    <g id="L1_HelpfulAnteater">
      <g>
        <path class="cls-11" d="M254.08,117.68c17,1,21,7,23,12,2.48,6.2,4.56,12.29,3.03,18.79,3.34,1.77,4.95,5.61,6.15,9.2,3.92,11.71,6.26,23.96,6.94,36.29.22,3.99.03,8.55-2.99,11.17-1.33,1.15-3.03,1.75-4.71,2.27-4.12,1.28-8.34,2.24-12.61,2.86-1.95.28-4.02.48-5.82-.31s-3.18-2.9-2.49-4.74"/>
        <path class="cls-4" d="M254.08,119.18c5.75.36,12.24,1.17,17,4.73,3.31,2.48,4.6,6.03,5.91,9.7,1.67,4.66,2.78,9.53,1.68,14.46-.14.64.09,1.36.69,1.69,4.4,2.46,5.65,8.61,6.96,13.06,1.7,5.77,3.03,11.66,3.96,17.6.47,3,.84,6.01,1.1,9.03.24,2.72.51,5.49.34,8.22-.14,2.19-.65,4.58-2.31,6.15-1.93,1.83-5.05,2.4-7.54,3.06-3.22.86-6.52,1.58-9.83,1.99-1.47.18-3.18.34-4.54-.37-1.07-.55-1.86-1.69-1.49-2.89.57-1.85-2.32-2.64-2.89-.8-.86,2.77.98,5.55,3.54,6.59,2.97,1.2,6.43.39,9.46-.16,3.5-.63,6.98-1.47,10.35-2.58,2.79-.91,5.34-2.3,6.76-4.99,1.26-2.4,1.55-5.2,1.53-7.87-.03-3.46-.39-6.94-.79-10.37-.81-6.9-2.1-13.74-3.92-20.44-.96-3.54-1.97-7.13-3.37-10.52-1.23-2.95-2.95-5.71-5.81-7.3l.69,1.69c1.04-4.66.46-9.33-.94-13.84-.88-2.84-1.88-5.8-3.33-8.42-2.24-4.05-6.07-6.63-10.36-8.16s-8.52-2-12.85-2.27c-1.93-.12-1.92,2.88,0,3h0Z"/>
      </g>
      <g>
        <path class="cls-11" d="M262.6,143.07l8.77,4.99c.16.09.34.19.52.16.19-.03.33-.19.46-.34,1.01-1.18,2.02-2.35,3.02-3.53.01,1.74,1.01,3.44,2.53,4.29s1.49.83,2.98-.06"/>
        <path class="cls-4" d="M261.85,144.37c2.66,1.51,5.32,3.03,7.98,4.54,1.26.72,2.43,1.22,3.58.03,1.07-1.1,2.02-2.36,3.02-3.53l-2.56-1.06c.08,2.12,1.08,4.05,2.81,5.29.7.5,1.62,1.04,2.49,1.11.93.07,1.7-.41,2.46-.87,1.66-.99.15-3.58-1.51-2.59-.24.14-.56.41-.83.48s.05-.01.08,0c-.15-.05-.84-.46-1.08-.64-.87-.65-1.37-1.69-1.41-2.76-.04-1.2-1.67-2.1-2.56-1.06-.58.68-1.16,1.36-1.74,2.04-.5.58-.97,1.28-1.56,1.76l.66-.39-.05-.02.76.2c-3.08-1.51-6.03-3.41-9.02-5.11-1.68-.96-3.19,1.63-1.51,2.59h0Z"/>
      </g>
      <g>
        <path class="cls-11" d="M274.85,149.57c-.54-.6-1.59-.44-2.16.13s-.76,1.42-.87,2.22c-.54,4.13.63,8.45,3.19,11.74.29.37.62.75,1.06.91,1.27.46,2.36-1.05,2.74-2.34,1.02-3.45.74-7.26-.75-10.53-.81-1.77-2.8-3.58-4.44-2.55-.95.6-1.19,1.86-1.32,2.98-.12,1.12-.21,2.27.12,3.35s1.18,2.06,2.29,2.23,2.35-.77,2.23-1.89c-.54-.21-1.2-.05-1.57.39"/>
        <path class="cls-4" d="M275.92,148.51c-.85-.8-2.03-1.02-3.12-.6-1.21.46-1.94,1.55-2.26,2.77-.56,2.19-.41,4.64.04,6.83s1.38,4.42,2.69,6.29c.66.95,1.41,1.98,2.6,2.26s2.27-.21,3.05-1.03c1.55-1.64,1.91-4.23,2-6.4.11-2.46-.36-4.94-1.33-7.21-.81-1.91-2.42-3.86-4.63-4.07-2.47-.23-3.77,2-4.06,4.14-.35,2.56-.31,5.56,2.12,7.12,2.19,1.41,5.56,0,5.44-2.81-.03-.68-.45-1.25-1.1-1.45-1.1-.33-2.22-.02-3.03.77-1.38,1.36.74,3.48,2.12,2.12.08-.08.04-.02.11,0l-1.1-1.45c.03.72-.96.27-1.27-.14-.75-1-.52-2.65-.34-3.79.13-.84.37-1.85,1.29-1.39,1.06.53,1.62,1.79,1.99,2.85.52,1.49.8,3.04.8,4.63,0,1.37-.11,2.98-.69,4.25-.15.34-.51.67-.65.91-.19.33-.2-.45.07.04-.03-.05-.08.1-.12-.04-.05-.2-.55-.65-.69-.84-.8-1.15-1.45-2.4-1.89-3.73-.52-1.58-.79-3.2-.76-4.86.01-.77.04-1.59.26-2.34.07-.24.17-.4.3-.61.22-.33.34.16.03-.12,1.41,1.32,3.53-.8,2.12-2.12h0Z"/>
      </g>
      <g>
        <path class="cls-11" d="M227.91,24.34c3.22.95,6.33,2.25,9.43,3.55,11.89,4.98,24.55,10.6,31.29,21.6,3.11,5.08,4.69,10.94,5.82,16.79,1.83,9.48,2.58,19.13,3.32,28.75.28,3.6.52,7.39-1.04,10.64-2.41,5.03-8.26,7.22-13.56,8.95-2.31.75-5.76.89-6.22-1.49"/>
        <path class="cls-4" d="M227.51,25.79c4.26,1.28,8.36,3.07,12.44,4.83,3.51,1.51,7,3.09,10.36,4.9,6.54,3.52,12.8,8.02,16.81,14.41,4.82,7.66,6.22,17.22,7.34,26.05.62,4.87,1.05,9.76,1.45,14.66.34,4.27,1.25,9.08-.09,13.25-1.25,3.88-4.9,6.14-8.47,7.64-1.3.55-8.32,3.8-8.97,1.22-.47-1.87-3.36-1.08-2.89.8.93,3.72,5.56,3.35,8.4,2.43,3.71-1.21,7.45-2.62,10.52-5.09,3.42-2.76,4.92-6.72,5.03-11.04.07-2.5-.21-5-.41-7.49-.21-2.69-.43-5.38-.68-8.07-.49-5.26-1.1-10.52-2-15.73-.83-4.84-1.87-9.7-3.72-14.27-3.3-8.15-9.28-14.29-16.66-18.92-4-2.51-8.26-4.57-12.58-6.47-4.94-2.18-9.94-4.42-15.12-5.98-1.85-.56-2.64,2.34-.8,2.89h0Z"/>
      </g>
      <g>
        <path class="cls-11" d="M254.47,51.3c4.56,2.02,9.88,2.27,14.6.67"/>
        <path class="cls-4" d="M253.71,52.6c4.98,2.17,10.58,2.53,15.76.82,1.82-.6,1.04-3.5-.8-2.89-4.36,1.44-9.21,1.32-13.45-.52-.74-.32-1.61-.22-2.05.54-.37.64-.21,1.73.54,2.05h0Z"/>
      </g>
      <g>
        <path class="cls-11" d="M264.44,58.45l-1.33,7.05c-.39,2.08-.34,4.91,1.69,5.48,1.55.43,3.09-1.07,3.33-2.65s-.42-3.16-1.06-4.63c-1.22-2.79-2.45-5.59-3.67-8.38"/>
        <path class="cls-4" d="M262.99,58.05c-.51,2.69-1.16,5.4-1.49,8.11-.22,1.81-.09,4.05,1.33,5.38,1.86,1.75,4.56.99,5.93-.94,1.63-2.28.71-5.07-.3-7.4-1.25-2.89-2.52-5.76-3.78-8.64-.33-.74-1.41-.91-2.05-.54-.77.45-.86,1.31-.54,2.05,1.14,2.61,2.28,5.21,3.42,7.82.49,1.13,1.11,2.34,1.15,3.59.02.74-.25,1.7-1.03,2-.61.23-.85-.11-1.04-.58-.24-.58-.23-1.5-.16-2.25.09-1.14.41-2.36.62-3.51l.81-4.29c.15-.8-.22-1.62-1.05-1.85-.73-.2-1.69.25-1.85,1.05h0Z"/>
      </g>
      <g>
        <path class="cls-11" d="M208.08,232.68c17.26-.5,28.02-2.19,43.49-9.87,2.35-1.17,7.11-5.57,9.09-7.29,4.17-3.59,7.08-11.58,7.61-17.06,1.74-18.06,1.48-25.43-1.99-43.24-1.85-9.5-6.16-18.72-7.24-28.34-2.24-19.94.44-40.4-4.24-59.92-4.01-16.71,1.29-27.28-30.71-43.28-15.37-7.69-24.84-7.94-42-7"/>
        <path class="cls-4" d="M208.08,234.18c10.76-.32,21.49-1.26,31.73-4.77,2.64-.9,5.23-1.95,7.78-3.08,2.29-1.02,4.66-1.99,6.69-3.48,1.9-1.4,3.69-2.96,5.46-4.52,1.48-1.31,2.96-2.55,4.16-4.14,2.97-3.92,4.83-8.94,5.61-13.78.87-5.4,1.12-11.04,1.27-16.51.28-10.69-1.18-21.59-3.69-31.97-1.5-6.18-3.76-12.13-5.28-18.3s-1.92-12.88-2.15-19.39c-.47-13.17.04-26.41-1.86-39.5-.66-4.55-1.87-8.98-2.61-13.52-.46-2.81-.79-5.64-1.32-8.44-1.13-6.01-3.57-11.39-7.75-15.9-2.93-3.16-6.42-5.8-10.02-8.15-4.99-3.25-10.32-6.1-15.78-8.48-4.7-2.05-9.57-3.67-14.63-4.53s-9.94-1.01-14.94-.91c-2.89.06-5.78.2-8.66.36-1.92.1-1.93,3.11,0,3,10.1-.55,20.23-.86,30,2.17,5.39,1.67,10.48,4.12,15.43,6.8,4.45,2.41,8.84,5.06,12.73,8.31,4.74,3.96,8.36,8.76,9.98,14.77,1.48,5.46,1.75,11.16,3.01,16.67,2.88,12.51,3.03,25.23,3.21,38,.09,6.38.22,12.77.8,19.13s2.03,12.15,3.88,18.13,3.46,11.89,4.57,18.04c.9,4.97,1.65,9.97,1.96,15.01s.17,9.75-.15,14.61c-.35,5.27-.61,10.56-2.38,15.58-.8,2.27-1.84,4.47-3.21,6.46-1.12,1.62-2.59,2.85-4.06,4.15-1.65,1.46-3.31,2.95-5.09,4.26-1.97,1.45-4.27,2.41-6.5,3.4-9.44,4.21-19.35,6.4-29.64,7.12-2.85.2-5.7.31-8.55.4-1.93.06-1.93,3.06,0,3h0Z"/>
      </g>
      <g>
        <path class="cls-4" d="M209.64,233.89c2.06-.26,4.11-.52,6.17-.79,12.67-1.67,25.77-.95,31.43-12.41,2.62-5.31,3.09-11.4,3.32-17.33.94-24.96-4.48-46.65-7.12-71.49-1.07-10.05-1.97-20.17-1.43-30.26.57-10.58,2.72-21.13,1.84-31.69s-5.96-29.78-15.08-35.16c-5.19-3.06-12.98-10.56-18.39-13.2-13.18-6.41-23.95-5.57-33.03-1.25-7.57,3.61-21.39,9.31-25.33,19.34"/>
        <path class="cls-5" d="M209.64,235.39c5.41-.68,10.83-1.26,16.25-1.89,4.58-.53,9.19-1.24,13.41-3.16s7.48-5.15,9.43-9.28c2.6-5.52,3.1-11.67,3.33-17.68.96-25.69-5.14-50.92-7.61-76.36-.65-6.65-1.13-13.33-1.09-20.02s.85-13.34,1.51-20.01c.61-6.17,1.04-12.41.35-18.6-.48-4.24-1.32-8.44-2.47-12.55-1.24-4.42-2.82-8.8-5-12.85-1.86-3.48-4.26-6.88-7.57-9.11-3.95-2.66-7.64-5.55-11.4-8.46-1.92-1.48-3.85-2.96-5.93-4.21-2.41-1.45-5.09-2.54-7.74-3.46-5.13-1.78-10.64-2.69-16.06-2.19-4.73.43-9.07,1.89-13.34,3.91-7.77,3.65-16.32,7.4-21.84,14.27-1.37,1.7-2.45,3.51-3.27,5.54-.72,1.79,2.18,2.57,2.89.8,3.21-7.93,12.11-12.45,19.37-15.95,3.59-1.73,7.18-3.58,11.04-4.61,4.7-1.26,9.65-1.39,14.44-.48,5.21,1,10.41,2.94,14.81,5.94,3.99,2.73,7.63,5.94,11.51,8.81,1.53,1.14,3.26,2.04,4.74,3.23,1.39,1.11,2.58,2.49,3.59,3.94,2.45,3.49,4.18,7.46,5.56,11.48,3.05,8.91,4.4,18.1,3.89,27.51-.35,6.44-1.28,12.83-1.76,19.26s-.37,12.71.04,19.05c.82,12.56,2.57,25.03,4.42,37.47s3.48,23.75,3.92,35.75c.23,6.18.26,12.46-.45,18.61-.58,5.08-2.01,10.52-5.72,14.25-2.94,2.95-6.91,4.39-10.9,5.24-4.6.98-9.33,1.26-13.99,1.79-2.78.32-5.56.71-8.34,1.06-1.89.24-1.91,3.24,0,3h0Z"/>
      </g>
      <path class="cls-5" d="M137.47,52.8c14.1,2.27,28.21,4.53,42.31,6.82,13.76,2.24,27.32,4.95,40.47,9.65,7.32,2.61,14.5,5.61,21.67,8.61.75.31,1.64-.34,1.85-1.05.25-.86-.3-1.53-1.05-1.85-12.75-5.33-25.55-10.58-39.02-13.83s-27.67-5.17-41.54-7.4c-7.96-1.28-15.93-2.57-23.89-3.85-1.89-.3-2.7,2.59-.8,2.89h0Z"/>
      <g>
        <path class="cls-9" d="M205.03,141.56c-.08-11.9-.16-23.79-.25-35.69,5.27,4.17,10.31,8.62,15.1,13.33.61.6,1.24,1.24,1.52,2.06.61,1.81-.82,3.79-2.59,4.48s-3.76.44-5.65.18c10.23,3.83,19.05,11.34,24.45,20.84-4.62,1.44-9.87.72-13.93-1.93,12.44,8.53,20.51,23.13,21.1,38.21.08,2.1.02,4.28-.83,6.21-1.88,4.27-7.34,6.15-11.87,5.04s-8.17-4.56-10.8-8.42c4.3.02,8.19,2.95,10.41,6.64s3.03,8.04,3.52,12.31c.27,2.36.41,4.91-.82,6.94-.99,1.63-2.72,2.65-4.44,3.5-5.08,2.51-11.23,4-16.34,1.54s-7.57-10.22-3.34-13.99c-5.59,2.8-13.13.72-16.5-4.54-.65-1.01-1.16-2.17-1.09-3.37.13-2.16,2.04-3.69,3.44-5.34,7.82-9.16,1.06-23.9,5.77-34.98"/>
        <path class="cls-9" d="M206.53,141.56c-.08-11.9-.16-23.79-.25-35.69l-2.56,1.06c4.22,3.35,8.31,6.87,12.23,10.57.97.91,1.93,1.83,2.87,2.76.68.68,1.48,1.39,1.11,2.44-.88,2.5-4.36,2.04-6.37,1.77-1.89-.26-2.64,2.19-.8,2.89,9.9,3.75,18.29,10.98,23.55,20.15l.9-2.2c-4.34,1.29-8.95.65-12.78-1.77-1.65-1.04-3.08,1.5-1.51,2.59,8.09,5.6,14.3,13.83,17.62,23.08,1.64,4.57,2.63,9.39,2.76,14.25.07,2.5-.15,5.12-1.95,7.02-1.41,1.48-3.42,2.33-5.43,2.56-5.66.64-10.36-3.59-13.35-7.93l-1.3,2.26c4.44.11,7.95,3.42,9.84,7.21,1.09,2.19,1.7,4.6,2.13,7,.39,2.21.8,4.58.62,6.83-.2,2.42-1.6,3.88-3.64,5.02s-4.25,2-6.51,2.56c-4.04,1-8.97.88-11.91-2.48-2.29-2.61-3.24-7.05-.47-9.65,1.31-1.22-.35-3.06-1.82-2.36-3.35,1.62-7.44,1.29-10.65-.51-1.63-.92-3.07-2.21-4.01-3.84-1.31-2.25-.22-3.76,1.34-5.46,2.77-3,4.45-6.41,5.07-10.46s.4-8.36.3-12.54c-.1-4.65-.04-9.37,1.77-13.73.74-1.78-2.16-2.56-2.89-.8-3.58,8.65-.59,18.03-2.19,26.95-.38,2.11-1.04,4.15-2.19,5.98-1.21,1.93-3.18,3.31-4.21,5.36-2.22,4.37,1.72,8.95,5.35,11.04,4.22,2.44,9.43,2.71,13.82.59l-1.82-2.36c-3.31,3.1-3.14,8.11-1.02,11.84,2.67,4.68,8.01,6.42,13.17,5.86,2.92-.32,5.7-1.22,8.37-2.43,2.37-1.08,4.87-2.45,6.13-4.83,1.34-2.53,1.07-5.48.73-8.21-.37-2.98-.88-5.97-1.97-8.78-2.21-5.67-6.93-10.65-13.36-10.82-1.08-.03-1.94,1.32-1.3,2.26,3.15,4.57,7.65,8.77,13.41,9.4,4.95.54,10.36-1.92,12.16-6.76,1.04-2.8.83-5.98.54-8.89s-.77-5.58-1.51-8.3c-1.46-5.36-3.82-10.5-6.91-15.1-3.54-5.27-8.02-9.82-13.24-13.43l-1.51,2.59c4.47,2.83,10.02,3.59,15.09,2.08.93-.28,1.39-1.35.9-2.2-5.68-9.88-14.71-17.49-25.35-21.53l-.8,2.89c2.95.4,6.3.73,8.62-1.55s2.02-5.11-.05-7.28c-4.74-4.97-10.12-9.47-15.49-13.73-.96-.76-2.57-.35-2.56,1.06.08,11.9.16,23.79.25,35.69.01,1.93,3.01,1.93,3,0h0Z"/>
      </g>
      <g>
        <path class="cls-15" d="M117.49,52.44c-4.07-1.17-8.05-3.48-10.04-7.22-1.99-3.74-1.29-9.06,2.28-11.33,3.6-2.29,8.8-.56,11.14,3s2.21,8.32.63,12.28"/>
        <path class="cls-15" d="M117.89,51c-5.3-1.56-11.38-5.85-9.81-12.18.61-2.46,2.5-4.37,5.13-4.45s5.33,1.46,6.68,3.79c1.88,3.24,1.48,7.26.17,10.62-.29.76.32,1.65,1.05,1.85.85.23,1.55-.29,1.85-1.05,1.51-3.87,1.73-8.34-.06-12.15-1.59-3.39-4.98-5.69-8.7-6.03-3.51-.32-6.86,1.58-8.34,4.78s-1.26,7.21.58,10.29c2.31,3.86,6.45,6.18,10.66,7.42,1.86.55,2.65-2.35.8-2.89h0Z"/>
      </g>
      <g>
        <path class="cls-9" d="M141.19,122.17c-5.24,3.44-32.18,10.17-38.29,11.57-22.64,5.18-45.28,10.37-67.92,15.55-4.35,1-9.57,2.88-10.22,7.29-.39,2.64,1.14,5.18,2.91,7.17,4.55,5.1,11.05,8.19,17.74,9.59,6.69,1.4,13.62,1.21,20.43.58,16.55-1.53,46.16-10.97,61.45-17.5"/>
        <path class="cls-9" d="M140.43,120.88c-1.57,1.01-3.32,1.61-5.07,2.25-2.74.99-5.53,1.86-8.33,2.69-5.92,1.76-11.88,3.35-17.87,4.86-17.09,4.31-34.36,7.96-51.54,11.9-5.26,1.2-10.51,2.41-15.77,3.61-4.23.97-8.71,1.62-12.68,3.43-3.21,1.46-6.06,4.18-5.97,7.96.1,4.3,3.6,7.9,6.76,10.4,7.32,5.79,16.69,7.83,25.86,7.93,7.95.09,15.82-1.02,23.58-2.7,15.08-3.28,30.01-7.99,44.35-13.7,1.44-.57,2.87-1.16,4.3-1.77,1.77-.75.24-3.34-1.51-2.59-13.37,5.69-27.42,10.12-41.5,13.65-6.62,1.66-13.34,3.14-20.15,3.72-9.22.79-19,.72-27.5-3.41-5.2-2.53-16.87-11.38-7.74-16.39,3.55-1.94,7.89-2.47,11.78-3.36,5.01-1.15,10.03-2.3,15.04-3.44,17.15-3.93,34.37-7.61,51.44-11.83,5.65-1.4,11.29-2.88,16.89-4.49,5.1-1.46,10.29-2.92,15.15-5.09.68-.3,1.36-.63,1.99-1.04,1.62-1.04.12-3.64-1.51-2.59h0Z"/>
      </g>
      <g>
        <path class="cls-5" d="M113.15,189.6c-.27.53-.98.71-1.45.36s-.66-.97-.81-1.54c-4.15-16.07-1.64-33.74,6.8-48.03,4.85-8.2,11.86-14.82,18.02-22.08,1.38-1.62,5.24-6.64,3.81-2.13s-4.75,8-7.81,11.55c-13.4,15.59-20.62,36.35-19.8,56.89.8-.03.79-2.4,1.18-1.7,1,1.77,1.13,4.6.06,6.68Z"/>
        <path class="cls-5" d="M111.85,188.84c.54-.75.8.26.53-.65-.1-.33-.17-.66-.25-.99-.15-.61-.29-1.23-.42-1.85-.29-1.38-.54-2.77-.73-4.16-.37-2.72-.55-5.46-.56-8.21-.01-5.36.65-10.69,1.98-15.88s3.42-10.46,6.15-15.23,6.32-9.14,10.02-13.3c3.29-3.71,6.58-7.41,9.82-11.16.46-.53,1.05-1,1.47-1.55.26-.34.13-.12.1-.08.41-.62-1.3-1.6-1.65-.93-.19.36-.25.91-.38,1.31-.86,2.47-2.41,4.69-4.05,6.7-3.41,4.19-6.96,8.16-9.92,12.71s-5.26,9.05-7.25,13.89c-4.58,11.09-6.76,23.16-6.31,35.15.04,1.01.93,1.66,1.9,1.45.68-.15,1.14-.64,1.44-1.24.14-.27.29-.63.34-.93.13-.66.15-.04-.38.19h-1.51c-.44-.52-.52-.56-.26-.12.08.19.15.39.21.59.14.46.21.92.23,1.4.05.99-.11,1.99-.53,2.89-.82,1.74,1.77,3.26,2.59,1.51,1.15-2.43,1.35-5.47.09-7.91-.52-1.01-1.73-1.62-2.69-.7-.28.27-.41.64-.53.99-.04.11-.17.43-.16.55.04.4-.55.08.36-.12l1.9,1.45c-.44-11.81,1.73-23.63,6.28-34.54,2.26-5.41,5.13-10.58,8.49-15.39,1.71-2.44,3.58-4.75,5.54-7s3.9-4.48,5.4-7.03c.69-1.17,1.27-2.41,1.71-3.69.3-.88.69-1.96.4-2.89-.67-2.19-2.91-.92-3.94.11-1.46,1.47-2.72,3.17-4.08,4.73-2.03,2.32-4.12,4.59-6.17,6.88-4.12,4.6-8.12,9.36-11.17,14.75s-5.15,10.79-6.55,16.58c-1.59,6.54-2.2,13.35-1.73,20.07.23,3.36.72,6.7,1.47,9.98.32,1.4.56,3.23,1.9,4.08s2.69.24,3.5-.89c1.13-1.57-1.47-3.07-2.59-1.51Z"/>
      </g>
      <g>
        <path class="cls-9" d="M109.66,212.3c1.51,24.97,4.75,51.06,10.63,75.38,1.39,5.75,3.04,11.66,6.8,16.23.55.66,1.18,1.32,2,1.55,1.07.3,2.19-.17,3.17-.69,9.6-5.08,15.57-14.86,22.82-22.94,5.86-6.54,12.73-12.1,18.77-18.46,6.04-6.37,11.38-13.82,13.17-22.41"/>
        <path class="cls-9" d="M108.16,212.3c.81,13.37,2.09,26.72,3.96,39.99s4.09,26.09,7.48,38.81c.76,2.86,1.68,5.69,2.95,8.37,1.11,2.35,2.64,5.27,4.82,6.79,2.55,1.78,5.41.06,7.67-1.37s4.41-3.16,6.38-5.02c4.06-3.85,7.47-8.31,11.01-12.62,3.96-4.83,8.31-9.23,12.86-13.49,9.7-9.09,20.26-18.84,23.18-32.4.41-1.88-2.49-2.69-2.89-.8-2.47,11.45-10.8,20.14-19.04,27.92-4.45,4.19-9,8.29-13.05,12.89-3.49,3.96-6.64,8.2-10.14,12.16s-7.23,7.57-11.85,9.96c-.55.28-1.36.74-2.01.54-.56-.17-.98-.74-1.34-1.16-.88-1.05-1.62-2.24-2.27-3.44-1.32-2.43-2.24-5.05-3-7.71-1.67-5.82-2.89-11.79-4.07-17.72-1.25-6.29-2.34-12.61-3.29-18.95-2.11-14.17-3.49-28.44-4.36-42.73-.12-1.92-3.12-1.93-3,0h0Z"/>
      </g>
      <g>
        <path class="cls-14" d="M128.58,137.35c-18.09,26.14-23.49,57.21-16.82,88.29,1.42,6.64,3.78,13.66,9.36,17.51,4.16,2.87,13.41,6.16,18.44,6.66,12.92,1.29,20.71,2.28,33.5.07,12.79-2.21,25.4-7.95,33.55-18.05,8.77-10.88,11.46-25.77,9.71-39.63s-7.55-26.91-14.25-39.17c-4-7.31-8.34-14.43-13.02-21.32-3.71-5.47-7.79-10.95-13.5-14.25-9.72-5.62-22.38-3.68-32.07,1.99-9.69,5.66-9.37,8.18-14.97,17.91"/>
        <path class="cls-14" d="M127.28,136.6c-7.94,11.52-13.76,24.47-16.9,38.11s-3.63,27.36-1.84,41.01c.84,6.43,1.88,13.09,4.43,19.09,1.16,2.75,2.7,5.36,4.82,7.49,1.97,1.98,4.38,3.36,6.9,4.51,5.19,2.38,10.64,4.08,16.32,4.65,6.74.68,13.5,1.41,20.28,1.18,13.09-.45,26.69-3.72,37.46-11.44,5.17-3.71,9.58-8.38,12.78-13.9s5.29-12.05,6.2-18.54c1.94-13.95-1.27-27.87-6.66-40.71-5.73-13.65-13.43-26.68-21.89-38.81-3.8-5.45-8.2-10.85-14.28-13.84s-12.31-3.35-18.59-2.28-12.28,3.8-17.47,7.49c-3.43,2.44-5.87,5.42-7.87,9.1-1.25,2.29-2.46,4.61-3.76,6.88-.96,1.68,1.63,3.19,2.59,1.51,2.14-3.73,3.83-8.03,6.62-11.34,3.11-3.69,7.76-6.34,12.13-8.22,5.61-2.41,12-3.62,18.08-2.64,6.34,1.02,11.47,4.47,15.64,9.24,4.47,5.11,8.08,11.06,11.64,16.82,3.81,6.18,7.41,12.52,10.64,19.03,6,12.08,10.71,25.24,10.78,38.88.07,12.32-3.66,24.9-12.41,33.86-8.85,9.06-21.23,13.53-33.55,15.22-6.23.86-12.5.88-18.77.41-5.9-.45-11.87-.78-17.55-2.54-4.91-1.52-10.42-3.47-13.9-7.44-3.99-4.56-5.36-10.94-6.48-16.72-5-25.9-1.21-53,11.85-76.03,1.65-2.92,3.44-5.75,5.35-8.51,1.1-1.59-1.5-3.1-2.59-1.51h0Z"/>
      </g>
      <g>
        <path class="cls-14" d="M214.09,213.9c-4.79,25.28-7.69,50.9-8.69,76.61-.15,3.9-.28,7.91-1.79,11.52-1.51,3.6-4.73,6.77-8.63,7-5.15.3-9.12-4.26-12.28-8.34-12.99-16.74-27.26-33.77-41.51-49.45,10.64-3.37,22.54-.99,32.61-5.82,5.33-2.55,9.77-6.59,14.14-10.58,5.57-5.08,11.18-10.21,15.51-16.38,5.84-8.34,9.11-18.29,10.5-28.37,2.96,7.89,3.04,16.83.2,24.77"/>
        <path class="cls-14" d="M212.65,213.5c-4.54,24.04-7.42,48.39-8.57,72.83-.25,5.4.27,11.75-2.59,16.58-1.12,1.89-2.83,3.61-4.96,4.3s-4.3.19-6.18-.96c-4.28-2.61-7.21-7.46-10.25-11.32-3.73-4.73-7.51-9.43-11.34-14.08-8.59-10.43-17.42-20.67-26.5-30.67l-.66,2.51c6.62-2.05,13.56-1.92,20.38-2.7,3.35-.38,6.7-.96,9.87-2.12s5.94-2.78,8.59-4.72c5.61-4.09,10.76-9.04,15.68-13.92s9.27-10.19,12.43-16.34c3.59-7,5.75-14.63,6.84-22.39h-2.89c2.85,7.74,2.93,16.18.2,23.97-.64,1.83,2.26,2.61,2.89.8,2.88-8.24,2.81-17.38-.2-25.57-.45-1.22-2.66-1.62-2.89,0-.93,6.63-2.61,13.22-5.4,19.33s-6.81,11.62-11.54,16.51-9.66,9.49-14.88,13.68c-2.58,2.07-5.37,3.96-8.41,5.28s-6.23,1.98-9.45,2.4c-7.35.95-14.87.7-22.02,2.91-1.11.34-1.43,1.66-.66,2.51,8.43,9.28,16.65,18.77,24.65,28.43,4.01,4.84,7.96,9.71,11.86,14.64,3.33,4.21,6.41,9.1,10.69,12.42,3.88,3.01,8.92,3.79,13.06.76,4.48-3.28,5.9-8.69,6.31-13.96.48-6.17.56-12.37.97-18.55s.97-12.74,1.63-19.1c1.48-14.29,3.58-28.51,6.24-42.63.36-1.89-2.53-2.7-2.89-.8h0Z"/>
      </g>
      <g>
        <path class="cls-3" d="M25.92,116.6c-1.55,2.91-.95,7.19,2.02,8.62,2.77,1.33,5.97-.3,8.68-1.75,28.46-15.22,63.03-13.1,94.57-6.29,15.48,3.34,31.82,7.68,46.81,2.56,10.83-3.7,19.84-12.41,23.89-23.12,4.06-10.7,3.09-23.19-2.56-33.15-3.81-6.71-9.5-12.12-15.24-17.27-2.29-2.05-4.54-2.95-7.36-4.18-3.79-1.65-11.86-3.84-15.98-4.11-13.31-.85-22.85,1.86-34.82,7.75-6.6,3.25-12.69,7.43-18.76,11.6-25.62,17.59-42.95,29.35-67.54,48.34-13.53,10.45-12.59,8.85-13.73,10.98Z"/>
        <path class="cls-3" d="M24.63,115.85c-1.33,2.65-1.48,6.07.24,8.6,2.14,3.15,6.01,3.21,9.25,1.9,3.68-1.49,7.08-3.6,10.76-5.13s7.22-2.71,10.93-3.74c15.23-4.2,31.24-4.68,46.9-3.27,8.03.73,16,1.97,23.9,3.55,8.34,1.67,16.59,3.82,25.02,4.98s16.89,1.38,25.03-1c6.76-1.97,12.93-5.75,17.82-10.8,10.41-10.75,14.03-26.64,9.39-40.88-2.48-7.61-7.31-13.95-12.94-19.54-2.75-2.73-5.63-5.81-9.03-7.73-2.76-1.56-5.81-2.74-8.83-3.69s-6.32-1.82-9.55-2.34c-3.46-.55-7.01-.58-10.5-.41-7.4.36-14.52,2.21-21.34,5.07-7.87,3.31-15.1,7.65-22.15,12.44s-13.9,9.52-20.83,14.31c-12.71,8.77-25.33,17.68-37.7,26.94-6.4,4.79-12.67,9.74-19.08,14.51-1.46,1.08-2.93,2.14-4.4,3.22-.66.48-1.37.95-1.93,1.56-.4.44-.69.94-.96,1.46-.91,1.7,1.68,3.22,2.59,1.51.12-.23.25-.45.38-.68.26-.48-.2.1.17-.22.21-.18.41-.38.63-.56.2-.16-.26.19-.04.03.09-.07.18-.14.27-.2.2-.15.41-.3.61-.45,4.47-3.26,8.87-6.6,13.26-9.97,12-9.22,24.22-18.15,36.62-26.83,6.13-4.3,12.3-8.54,18.47-12.78,6.8-4.67,13.53-9.51,20.53-13.88,6.62-4.13,13.72-7.69,21.18-10.01,6.89-2.14,14.05-2.85,21.24-2.39,2.87.18,5.71.89,8.48,1.63,2.92.79,5.76,1.74,8.53,2.96,1.56.69,3.12,1.43,4.5,2.44,1.57,1.15,2.98,2.59,4.39,3.92,2.81,2.64,5.54,5.39,7.93,8.42,9.22,11.64,11.34,28.04,4.32,41.32-3.08,5.82-7.68,10.82-13.23,14.37-6.38,4.08-13.76,5.92-21.29,6.1-8.23.2-16.38-1.34-24.39-3.06-7.63-1.64-15.24-3.34-22.96-4.56-15.02-2.36-30.37-3.37-45.51-1.54-7.45.9-14.82,2.45-21.92,4.88-3.51,1.2-6.96,2.62-10.3,4.23-1.67.8-3.27,1.72-4.94,2.52s-3.69,1.63-5.45.86c-2.42-1.06-2.51-4.53-1.48-6.57.86-1.72-1.72-3.24-2.59-1.51Z"/>
      </g>
      <g>
        <path class="cls-3" d="M196.24,57.95c-.85-4.92,2.05-10.23,6.64-12.18,4.59-1.95,10.43-.34,13.37,3.69.88,1.2,1.52,2.62,1.56,4.1.04,1.54-.57,3.02-1.33,4.35-3.07,5.33-9.02,8.89-15.17,9.06"/>
        <path class="cls-9" d="M197.69,57.55c-1-6.37,4.9-12.2,11.23-10.94,3,.6,6.07,2.53,7.11,5.54,1.2,3.46-1.98,7.17-4.42,9.27-2.85,2.46-6.54,3.9-10.3,4.05-1.92.07-1.93,3.07,0,3,4.32-.17,8.42-1.73,11.8-4.41s6.87-7.14,6.08-11.63c-.73-4.17-4.56-7.33-8.46-8.46s-8.08-.4-11.25,2.13c-3.65,2.91-5.4,7.67-4.68,12.25.13.81,1.13,1.24,1.85,1.05.86-.23,1.17-1.05,1.05-1.85h0Z"/>
      </g>
      <g id="Stripes">
        <g>
          <path class="cls-1" d="M216.32,192.2c-.9-7.12-2.87-14.03-5.48-20.72l-7.97-12.03c-11.25,4.88-23.93,4.75-36.19,5.21-12.26.46-25.17,1.84-35.09,9.06-2.95-7.1-7.36-13.56-12.84-18.94-6.23,13.76-9.44,28.44-9.69,43.48,7.53,8.36,15.07,16.72,22.6,25.08,10.09-6.31,22.21-8.42,34.05-9.55,11.84-1.13,23.87-1.43,35.34-4.62,5.03-1.4,10-3.4,14.04-6.7.6-.49,1.18-1.03,1.73-1.59.03-2.91-.13-5.81-.49-8.68Z"/>
          <path class="cls-1" d="M217.82,192.2c-.53-4.07-1.34-8.09-2.47-12.05-.55-1.95-1.17-3.88-1.85-5.79-.43-1.23-.8-2.61-1.44-3.74-1.68-2.98-3.83-5.78-5.72-8.63-.73-1.1-1.46-2.2-2.19-3.3-.49-.74-1.27-.87-2.05-.54-18.09,7.73-38.57,2.69-57.26,7.79-5,1.36-9.8,3.45-14.02,6.48l2.2.9c-3.09-7.36-7.55-13.99-13.23-19.61-.63-.62-1.95-.6-2.36.3-4.19,9.31-7.14,19.13-8.64,29.24-.37,2.47-.66,4.95-.87,7.43-.1,1.14-.17,2.29-.23,3.43-.07,1.33-.29,2.81-.14,4.13.13,1.16,1.35,2.08,2.1,2.9.94,1.04,1.88,2.09,2.83,3.13,1.83,2.03,3.66,4.06,5.48,6.08,4.21,4.67,8.42,9.34,12.63,14.01.43.48,1.28.57,1.82.23,10.83-6.7,23.68-8.53,36.14-9.61,13.13-1.13,26.99-1.44,39.31-6.62,3.11-1.31,6.07-2.97,8.64-5.18.68-.58,1.61-1.23,1.79-2.15s.03-1.95,0-2.86c-.06-2.01-.22-4.02-.47-6.01-.23-1.89-3.23-1.92-3,0,.35,2.88.51,5.77.49,8.68l.44-1.06c-4.04,3.99-9.31,6.25-14.7,7.79-5.8,1.65-11.78,2.55-17.77,3.16-11.62,1.19-23.4,1.44-34.81,4.19-6.16,1.49-12.17,3.73-17.57,7.08l1.82.23c-7.53-8.36-15.07-16.72-22.6-25.08l.44,1.06c.27-14.72,3.43-29.29,9.48-42.72l-2.36.3c5.28,5.22,9.58,11.42,12.46,18.28.34.8,1.33,1.53,2.2.9,15.92-11.43,36.76-7.71,55.04-10.06,5.6-.72,11.04-1.99,16.25-4.21l-2.05-.54c1.67,2.52,3.34,5.04,5.01,7.55l2.65,3.99c.31.47.47.89.67,1.44.71,1.9,1.37,3.81,1.97,5.75,1.34,4.33,2.37,8.77,2.95,13.26.11.81.61,1.49,1.5,1.5.73,0,1.6-.7,1.5-1.5Z"/>
        </g>
        <g>
          <path class="cls-2" d="M131.58,173.72c9.92-7.21,22.84-8.59,35.09-9.06,11.27-.43,27.38-1.48,38.65-5.44-1-1.99-1.04-5.95-2.1-7.9-10.33,4.05-25.38,5.14-35.7,5.29-11.46.17-23.57.86-33.13,7.19-4-5.15-8.32-10.05-12.94-14.67-.6,1.2-2.17,4.42-2.72,5.64,5.48,5.38,9.9,11.85,12.84,18.94Z"/>
          <path class="cls-2" d="M132.34,175.01c8.36-6,18.66-7.86,28.73-8.56s19.24-.83,28.82-2.2c5.36-.76,10.72-1.81,15.84-3.59.97-.34,1.32-1.29.9-2.2-1.16-2.48-.85-5.42-2.1-7.9-.27-.54-1.11-.92-1.69-.69-8.43,3.26-17.67,4.34-26.63,4.91s-18.48.12-27.59,1.9c-5.29,1.03-10.44,2.87-14.97,5.83l1.82.23c-4.01-5.15-8.33-10.04-12.94-14.67-.64-.65-1.92-.57-2.36.3-.93,1.87-1.85,3.74-2.72,5.64-.28.61-.27,1.32.23,1.82,5.28,5.22,9.58,11.42,12.46,18.28.32.75.99,1.27,1.85,1.05.71-.19,1.36-1.1,1.05-1.85-3.09-7.36-7.55-13.99-13.23-19.61l.23,1.82c.87-1.9,1.79-3.77,2.72-5.64l-2.36.3c4.61,4.62,8.93,9.52,12.94,14.67.39.5,1.31.56,1.82.23,8.09-5.29,17.85-6.51,27.31-6.86,8.97-.33,17.85-.46,26.75-1.85,4.9-.76,9.79-1.83,14.42-3.63l-1.69-.69c1.23,2.44.93,5.4,2.1,7.9l.9-2.2c-9.29,3.22-19.29,4.26-29.04,4.91-9.84.67-19.79.51-29.44,2.85-5.56,1.35-10.95,3.54-15.62,6.89-1.55,1.12-.06,3.72,1.51,2.59Z"/>
        </g>
      </g>
      <g>
        <path class="cls-14" d="M180.87,120.08c14.76,12.98,31.17,23.89,48.66,32.35,16.93,8.19,47.92,14.3,62.26,26.78,1.86,1.62,1.99,4.23,1.04,7.9-.35,1.35-4.16,4.19-4.96,4.58-11.44,5.58-33.23,1.7-45.56-1.17-12.32-2.87-23.77-8.99-34.31-16.27-11.9-8.22-23.31-18.67-28.02-32.76"/>
        <path class="cls-14" d="M179.81,121.14c15.09,13.24,32.1,24.89,50.39,33.25,14.57,6.66,30.36,10.19,45.01,16.7,3.44,1.53,6.83,3.22,10.04,5.2,1.47.91,2.92,1.89,4.28,2.97s2.34,1.97,2.39,3.78-.17,3.51-1.47,4.77c-.96.94-2.05,1.88-3.24,2.53-2.94,1.63-6.69,2.17-9.98,2.46-8.37.75-16.88-.3-25.12-1.78-8.79-1.58-17.35-3.79-25.47-7.61-8.83-4.15-17.26-9.51-24.86-15.63-7.06-5.69-13.5-12.37-17.71-20.47-1.04-2-1.92-4.08-2.64-6.21-.62-1.82-3.52-1.04-2.89.8,3.05,8.99,8.73,16.71,15.58,23.19,7.17,6.78,15.5,12.52,24.09,17.35,8.71,4.89,17.89,8.35,27.66,10.42,8.42,1.78,17.04,3.14,25.66,3.18,4.05.02,8.17-.27,12.11-1.25,3.29-.82,5.99-2.17,8.5-4.45,1.46-1.33,2.17-2.54,2.51-4.5s.46-4.17-.51-6.03c-.82-1.58-2.46-2.66-3.85-3.69-1.48-1.1-3.03-2.11-4.62-3.05-7.14-4.22-14.98-7.2-22.77-9.97s-16.14-5.37-24.09-8.36c-8.59-3.23-16.73-7.55-24.61-12.23-9.19-5.46-17.99-11.6-26.27-18.37-2.03-1.66-4.03-3.36-6-5.09-1.45-1.27-3.58.84-2.12,2.12h0Z"/>
      </g>
      <g id="Water_Bottle" data-name="Water Bottle">
        <g>
          <path class="cls-6" d="M7.08,141.68c-1-3-.61-3.28-1.17-6.06-.12-.61-.22-1.3.13-1.82.31-.46.89-.66,1.43-.8,2.61-.69,5.33-.95,8.03-.76,1.17,3.35-.42,9.45,1.53,10.06.82.26,3.61.57,4.42.84,4.15,1.41,5.09,8.04,1.49,10.55l.08,2.32c.02.44.39.73.82.75,1.04.04,2.26,1.24,2.91,2.14.82,1.16.96,2.65,1.08,4.06.2,2.48.4,7.07.6,10.23.05.78-.26,2.58-.9,3.02-.59.41-1,1.09-1.13,1.8s.36,1.43,1.06,1.51c1.03.12,1.86.76,2.02,2.05.46,3.75.92,4.49,1.38,8.24.07.54.13,1.11-.1,1.6-.31.69-1.08,1.02-1.79,1.28-6.12,2.24-12.72,3.11-19.21,2.54-.63-.05-1.3-.14-1.76-.57-.45-.42-.61-1.06-.72-1.66-.53-2.74-.84-5.52-.92-8.3-.02-.55,0-2.17.37-2.57.38-.41.99-.47,1.5-.68.46-.19.83-.52,1.09-.93.75-1.17-.96-2.71-2.32-2.99-.78-.16-1.51-.67-1.98-1.33-.73-1.02.03-2.29-.19-3.53-.54-2.97-1.07-6.3-1.61-9.74-.17-1.08.64-3.06,1.73-3.1l.78-1.07c-.09-2.23.19-2.88-1.66-3.08-1.46-.16-2.19-1.65-2.41-3.1-.12-.82-.19-1.65-.17-2.23.06-1.75.11-5.61,1.83-5.98,1.37-.3,3.43-1.04,3.61-2.44"/>
          <path class="cls-6" d="M8.53,141.28c-.33-1.01-.61-2.03-.74-3.09-.12-.98-.51-2.18-.46-3.15.02-.41-.18-.24.21-.5.19-.13.57-.16.79-.21.79-.19,1.6-.35,2.41-.46,1.58-.21,3.17-.23,4.76-.14l-1.45-1.1c.72,2.24.33,4.67.44,6.99.09,1.98.57,3.81,2.73,4.26,1.88.39,4.12.23,5.41,1.89,1.12,1.45,1.39,3.67.59,5.32-.48.99-1.66,1.45-1.78,2.59-.07.69.03,1.5.08,2.2.09,1.22.73,2.01,1.93,2.32,1.34.35,2.29,1.51,2.62,2.84.63,2.52.49,5.39.62,7.97.07,1.39.2,2.78.23,4.17.01.5-.02,1.06-.22,1.54-.22.52-.67.76-1,1.22-.76,1.05-1.13,2.49-.46,3.69.27.47.68.87,1.17,1.12.65.33,1.22.13,1.55.86.25.55.21,1.48.31,2.08.11.66.23,1.31.36,1.96.26,1.3.53,2.59.7,3.9.1.77.26,1.23-.5,1.6-.63.3-1.34.49-2.01.7-1.77.56-3.58,1.02-5.41,1.36-3.53.65-7.14.84-10.71.6-.61-.04-1.42.06-1.79-.47-.4-.57-.39-1.88-.5-2.56-.29-1.86-.46-3.73-.53-5.61-.02-.5-.03-1,0-1.49,0-.12,0-.68.12-.78-.34.29.39.08.48.05,1.27-.46,2.47-1.52,2.53-2.95.05-1.26-.81-2.36-1.78-3.06s-3-.73-3.01-2.22c0-.77.2-1.46.09-2.24s-.27-1.59-.41-2.38c-.32-1.87-.62-3.74-.92-5.61-.11-.7-.37-1.53-.23-2.23.05-.24.15-.57.31-.76.18-.23.18-.1.48-.28.76-.47,1.6-1.51,1.7-2.44.11-.99.04-2.48-.52-3.33-.31-.47-.76-.79-1.29-.98s-1.22-.11-1.65-.52c-.88-.82-.79-2.69-.76-3.79.03-1.15.06-2.33.36-3.45.33-1.24,1.1-1,2.23-1.49,1.28-.55,2.48-1.44,2.79-2.88.41-1.88-2.48-2.69-2.89-.8-.21.97-1.77,1.14-2.56,1.39-.92.29-1.57.89-2,1.75-.89,1.77-.95,4.04-.93,5.99.02,2.32.55,5.41,3.06,6.3.44.16.96.15,1.37.3-.39-.15-.25-.43-.23.22,0,.2-.08.59.02.74.16.26.34-.25.1-.07-.26.2-.46.63-.66.9l.9-.69c-1.55.25-2.5,1.94-2.76,3.36-.18.96.02,1.86.17,2.81.19,1.2.38,2.39.57,3.59s.38,2.28.57,3.41.17,2.02.1,3.16c-.13,2.1,1.34,3.58,3.23,4.21.35.12.68.18.99.4.2.14.57.63.59.52,0,.02-.58.26-.84.36-.51.19-.99.37-1.4.75-1.13,1.07-.97,3.01-.91,4.43.1,2.3.35,4.59.74,6.86.35,2.03.88,3.91,3.17,4.35,4.37.83,9.31.27,13.63-.56,2.35-.45,4.7-1.06,6.94-1.91,1.83-.69,3.14-1.81,3.03-3.92-.1-1.8-.53-3.61-.88-5.37s-.25-3.84-1.24-5.28c-.44-.64-1.11-1.12-1.84-1.36,0,0-.56-.1-.59-.14.03.04,0,.34.07-.02.09-.42.54-.65.81-.93,1.03-1.07,1.24-2.88,1.17-4.29-.11-2.19-.24-4.39-.36-6.58-.11-1.98-.1-4.09-.58-6.02s-1.86-3.73-3.63-4.59c-.21-.1-.42-.22-.65-.26-.09-.04-.19-.06-.29-.06-.35-.09-.31.13.13.65.07-.07-.02-.54-.02-.64l-.06-1.65-.74,1.3c4.3-3.19,3.87-10.79-1.23-13.04-1.14-.5-2.39-.6-3.61-.8-.35-.06-.71-.17-1.06-.2-.46-.03-.19-.27-.09.06-.01-.03-.14-.58-.17-.84-.31-2.78.3-5.6-.58-8.32-.21-.66-.76-1.06-1.45-1.1-2.05-.12-4.07,0-6.1.32-1.65.27-3.85.53-4.74,2.15-.78,1.41-.09,3.12.09,4.6s.43,2.86.89,4.27c.59,1.83,3.49,1.05,2.89-.8h0Z"/>
        </g>
        <g>
          <path class="cls-13" d="M8.95,161.21c-1.4.02-2.8.33-4.07.91-.23.1-.46.22-.62.42-.21.27-.24.62-.26.96-.24,3.75-.91,4.53-.03,8.18.16.66.35,2.34.8,2.85.6.68,1.52,1.02,2.42,1.1,6.43.54,12.94.07,19.16-1.62.34-.09.69-.2.93-.45.31-.32.38-.8.42-1.24.5-5.01,1.03-7.11-.38-11.95-6.22-1.21-12.74-.89-18.82.91"/>
          <path class="cls-13" d="M8.95,159.71c-1.83.06-4.87.39-5.99,2.08-.5.75-.46,1.7-.54,2.56-.08.92-.22,1.82-.32,2.74-.18,1.71.06,3.32.41,4.99s.5,3.19,2,4.19c1.7,1.14,4.08.99,6.04,1.05,2.32.06,4.65,0,6.96-.22s4.73-.58,7.05-1.1c1.99-.45,4.2-.77,4.57-3.14.67-4.36.85-8.61-.36-12.88-.13-.47-.54-.95-1.05-1.05-6.53-1.23-13.22-.94-19.61.91-1.85.54-1.06,3.43.8,2.89,5.86-1.7,12.02-2.04,18.02-.91l-1.05-1.05c1.06,3.74.85,7.29.37,11.1,0,.24-.04.48-.1.71.19-.17.12-.18-.2-.03-.5.24-1.2.31-1.74.44-1.17.27-2.34.5-3.52.7-2.23.36-4.49.55-6.75.62s-4.58.19-6.74-.19c-.86-.15-1.25-.38-1.45-1.21s-.35-1.64-.51-2.46c-.3-1.48-.19-2.89,0-4.38.09-.7-.01-2.18.4-2.67.25-.3,1.26-.43,1.63-.52.56-.12,1.11-.17,1.68-.19,1.93-.06,1.93-3.06,0-3h0Z"/>
        </g>
        <g>
          <path class="cls-8" d="M11.23,163.4c.18,2.07-1.84,4.5-2.24,6.54-.09.49-.21,1.72.04,2.15.16.27.54.94.81,1.09.67.37,1.4.43,2.11.15.48-.19,1.42-.73,1.61-1.21s.25-1.71.2-2.22c-.11-1.28-.53-1.81-.91-3.04-.33-1.06-1.3-2.4-1.62-3.46Z"/>
          <path class="cls-8" d="M9.73,163.4c.01.22.01.44-.01.66.04-.32-.06.2-.07.28-.05.21-.12.42-.19.62-.04.12-.09.23-.13.35.08-.19-.03.06-.06.13-.42.94-.9,1.84-1.29,2.79-.64,1.55-.94,3.51-.01,4.99.25.4.53.8.91,1.09.55.43,1.25.62,1.94.68,1.04.1,2.1-.35,2.93-.95.43-.31.84-.65,1.11-1.13s.32-1.02.38-1.56c.1-.89.07-1.79-.13-2.66-.11-.48-.31-.93-.49-1.39-.22-.57-.4-1.15-.64-1.71-.21-.47-.45-.91-.7-1.36-.12-.23-.24-.46-.36-.69-.05-.11-.11-.22-.16-.33-.04-.1-.04-.09.02.03-.03-.08-.06-.17-.09-.25-.25-.77-1.04-1.27-1.85-1.05-.75.21-1.3,1.07-1.05,1.85.27.83.7,1.6,1.11,2.37.1.18.19.36.28.55.04.09.09.18.13.27,0,.01.09.23.04.08-.06-.16.03.1.04.14.04.1.07.21.1.31.08.22.16.44.25.66.13.32.26.64.36.97.13.43.16.57.18.93.01.29,0,.58-.02.87,0,.09-.08.6-.02.26-.01.08-.03.15-.04.23-.02.09-.14.27-.01.1.03-.04.26-.29.11-.19-.06.05-.12.12-.18.17-.12.11.02-.02.04-.03-.08.05-.15.1-.23.15-.15.09-.3.17-.45.25-.09.05-.26.07.07-.02-.14.04-.27.1-.41.12-.26.05.16,0-.1,0-.17,0-.05.01,0,.02-.1-.01-.22-.05-.32-.08.15.05-.11-.06-.11-.06l.08.06c.11.09.11.08,0-.02.03,0,.19.29,0,0-.09-.14-.18-.28-.27-.42.01.02-.1-.16-.1-.16-.01.02.13.34.06.12-.07-.24,0,.03,0,.08,0-.08-.01-.16-.01-.24,0-.33.03-.65.05-.98-.03.44,0,0,.03-.1.04-.18.09-.35.15-.52.05-.16.11-.31.17-.47.09-.23-.08.18.02-.05.05-.11.1-.23.15-.34.79-1.7,1.9-3.48,1.78-5.43-.05-.78-.65-1.54-1.5-1.5-.77.03-1.55.66-1.5,1.5Z"/>
        </g>
        <g>
          <path class="cls-8" d="M20.03,162.06c-.2,1.91-.34,1.81-.8,3.88-.24,1.07.14,2.35.57,2.67s1.96.28,2.46-.28c.76-.85.31-2.38-.2-3-1.25-1.53-1.06-.64-2.04-3.26Z"/>
          <path class="cls-8" d="M18.53,162.06c-.02.2-.06.42-.07.62.01-.5,0,.02-.03.16-.04.25-.1.49-.16.73-.15.61-.33,1.22-.46,1.84-.37,1.67-.05,4.37,1.99,4.79,1.74.36,3.86-.27,4.27-2.22.21-.98.04-1.94-.37-2.84-.26-.58-.71-1.08-1.16-1.54-.12-.13-.25-.25-.37-.37-.05-.05-.09-.1-.13-.15-.13-.14.25.37.15.2-.03-.04-.06-.08-.08-.12-.11-.18-.2-.38-.29-.58-.08-.17.16.39.05.12-.04-.11-.09-.21-.13-.32-.09-.24-.18-.47-.27-.71-.28-.73-1.03-1.31-1.85-1.05-.72.23-1.34,1.06-1.05,1.85.37.99.7,2.06,1.44,2.85.21.23.44.43.65.66.08.09.16.18.24.28.28.34-.17-.28.02.04.06.1.11.22.17.33-.2-.32-.09-.23-.05-.1.03.09.06.18.08.28.01.05.02.11.04.17.08.3-.02-.37,0-.06,0,.11-.03.33,0,.43-.01-.03.08-.38.02-.15-.01.05-.08.2-.07.24,0-.04.18-.32.05-.13-.03.05-.06.1-.09.14.14-.17.18-.22.11-.15-.19.21.32-.21.02-.03-.23.14.36-.11.09-.04-.05.01-.1.03-.14.04-.08.02-.15.03-.23.05-.23.05.15-.02.16-.02-.15-.02-.32.02-.47.02-.06,0-.12-.01-.18-.01-.19,0,.41.09.16.02-.18-.05-.39-.19.04.05-.19-.11.29.26.16.13s.02-.1.09.13c-.01-.04-.05-.09-.08-.13-.19-.34.06.24-.02-.03-.04-.15-.08-.31-.12-.46-.05-.18-.07,0,0,.09-.03-.05-.02-.2-.02-.26,0-.18,0-.36.01-.53.01-.22-.09.36,0,.03.03-.12.05-.24.08-.36.13-.58.3-1.15.44-1.73.17-.72.26-1.46.33-2.19.08-.78-.75-1.53-1.5-1.5-.88.04-1.41.66-1.5,1.5Z"/>
        </g>
        <g>
          <path class="cls-7" d="M5.71,132.09c-.79-.14-1.82-.15-2.14.58-.11.26-.09.56-.07.84.05.67.1,1.33.15,2,.03.45.08.94.38,1.28.44.51,1.23.47,1.89.39,3.46-.41,6.91-.95,10.33-1.61.24-.05.49-.1.66-.27.27-.28.21-.72.13-1.1-.24-1.17-.48-2.34-.72-3.5-.02-.11-.05-.23-.13-.31-.09-.09-.22-.11-.34-.12-3.48-.47-7.07-.09-10.37,1.1-.28.1-.57.22-.78.43s-.29.57-.13.82"/>
          <path class="cls-7" d="M6.11,130.64c-1.38-.22-3.02-.19-3.79,1.2-.42.76-.32,1.59-.26,2.42s.04,1.65.26,2.42c.46,1.65,2.06,2.16,3.6,2,1.69-.18,3.38-.43,5.06-.68s3.35-.54,5.02-.85c.84-.16,1.69-.32,2.2-1.09s.41-1.63.23-2.51c-.15-.75-.31-1.5-.46-2.25-.18-.9-.29-1.81-1.18-2.29-.68-.37-1.68-.34-2.43-.39-.83-.05-1.67-.06-2.5-.02-1.88.09-3.77.4-5.58.93-.84.25-1.83.49-2.5,1.09-.83.75-.93,1.78-.49,2.76.33.74,1.41.91,2.05.54.76-.45.87-1.31.54-2.05l-.07-.16.2.76c.03.29-.48.41-.11.33,0,0,.38-.12.45-.15.4-.13.8-.25,1.2-.36.9-.24,1.82-.44,2.75-.56s1.78-.16,2.68-.15c.46,0,.92.02,1.38.05.25.02.5.04.75.06.16.02.7.22.33,0l-.54-.54c-.06-.1.07.42.08.45.05.25.1.5.15.75.09.46.19.92.28,1.38.01.06.21,1.07.19,1.06l.43-.7c-.14.03-.29.06-.44.09-.21.04-.43.08-.64.12-1.93.36-3.86.68-5.8.96-.9.13-1.81.25-2.71.36-.39.05-.78.11-1.18.11-.04,0-.24-.01-.22-.02.07,0,.16.1.17.18-.11-.75-.17-1.59-.21-2.37-.01-.14-.02-.29-.01-.43l-.05.21c-.41.43-.28.17-.16.22-.16-.08.18,0,.26,0,.05,0,.49.06.27.02.8.13,1.61-.21,1.85-1.05.2-.72-.24-1.72-1.05-1.85h0Z"/>
        </g>
        <path class="cls-12" d="M3.82,148.83c6.37-1.52,13.19-.18,19.35-2.76.75-.31,1.28-.99,1.05-1.85-.19-.7-1.09-1.36-1.85-1.05-6.13,2.56-12.99,1.24-19.35,2.76-1.88.45-1.08,3.34.8,2.89h0Z"/>
        <path class="cls-12" d="M4.67,155.04c3.14-.62,6.28-1.25,9.46-1.6,1.56-.17,3.13-.28,4.71-.29,1.48-.02,2.98.02,4.38-.51.76-.29,1.28-1.01,1.05-1.85-.2-.73-1.08-1.34-1.85-1.05-1.33.5-2.73.38-4.13.41-1.63.04-3.26.17-4.88.37-3.2.39-6.37.99-9.54,1.62-1.89.38-1.09,3.27.8,2.89h0Z"/>
        <path class="cls-12" d="M8.78,184.97c6.14-1.59,12.58-.88,18.77-2.15,1.89-.39,1.09-3.28-.8-2.89-6.19,1.27-12.62.55-18.77,2.15-1.87.48-1.08,3.38.8,2.89h0Z"/>
        <path class="cls-12" d="M10.25,192.59c3.85-.1,7.69-.36,11.51-.81,1.9-.22,3.79-.49,5.67-.79.82-.13,1.73-.16,2.26-.89s.34-1.9-.53-2.34c-.44-.22-1.08-.33-1.51,0l-.06.05c-.64.49-.98,1.29-.54,2.05.37.63,1.4,1.03,2.05.54l.06-.05h-1.51l.09.04-.69-.9.03.09.39-1.46-.1.11.66-.39c-1.39.4-2.94.5-4.37.7s-2.91.36-4.36.5c-3,.29-6.02.47-9.04.54-1.93.05-1.93,3.05,0,3h0Z"/>
        <path class="cls-10" d="M3.69,130.86c-.4,2.49-.55,5.13,1.11,7.22.25.32.8.26,1.06,0,.31-.31.25-.74,0-1.06-1.27-1.6-1.02-3.89-.73-5.76.06-.4-.1-.81-.52-.92-.36-.1-.86.12-.92.52h0Z"/>
        <path class="cls-10" d="M7.38,130.17c.2,1.3.36,2.61.48,3.92.06.65.11,1.3.16,1.96.02.34.04.68.06,1.02s.02.68.29.94c.24.22.62.3.91.12.26-.16.4-.4.4-.71s-.23-.65-.55-.72h-.03c-.94-.22-1.34,1.23-.4,1.44h.03c-.18-.24-.37-.48-.55-.72v.04c.12-.22.25-.43.37-.65l-.03.02.91.12-.05-.04.19.33c-.05-.27-.03-.61-.04-.89s-.04-.58-.06-.87c-.05-.63-.1-1.26-.17-1.88-.13-1.27-.29-2.54-.49-3.81-.06-.4-.56-.62-.92-.52-.43.12-.59.52-.52.92h0Z"/>
        <path class="cls-10" d="M10.71,129.49l.79,3.94.4,1.97c.11.56.14,1.32.63,1.69.32.25.75.31,1.06,0,.26-.26.32-.81,0-1.06-.09-.08-.1-.08-.03.01-.02-.05-.03-.1-.04-.15-.04-.16-.06-.31-.1-.47l-.17-.84-.37-1.83-.73-3.65c-.08-.4-.55-.63-.92-.52-.41.11-.6.52-.52.92h0Z"/>
        <path class="cls-10" d="M14.23,130.06c.45.96.79,1.98,1.01,3.03.11.5.19,1,.24,1.5.03.27.04.53.05.8,0,.13,0,.27,0,.4,0,.09.02.18.05.26.06.2.09.24.07.13v-.4l-.02.06.72-.55h-.04c.18.07.35.15.53.22l-.03-.03.12.91v-.03c.47-.85-.83-1.61-1.28-.76v.03c-.18.32-.12.64.1.91.14.17.38.26.6.25.34-.01.62-.23.72-.55.06-.18.05-.35,0-.53-.08-.23-.1-.24-.04-.04,0-.08,0-.15,0-.23-.01-.31-.03-.61-.06-.92-.06-.6-.15-1.2-.27-1.79-.25-1.19-.66-2.34-1.17-3.44-.17-.37-.7-.46-1.03-.27-.38.22-.44.66-.27,1.03h0Z"/>
      </g>
      <path class="cls-5" d="M165.69,77.9c1.36-2.55,4.49-3.86,7.17-3.02s4.5,3.98,4.03,6.65c-.14.8.21,1.62,1.05,1.85.72.2,1.7-.25,1.85-1.05.76-4.34-1.73-8.83-5.94-10.28-4-1.37-8.78.64-10.74,4.34-.9,1.7,1.68,3.22,2.59,1.51h0Z"/>
      <path class="cls-5" d="M126.02,68.7c-.64-3.64-4.23-5.94-7.73-6.19-4-.28-7.7,2.23-10.33,5-1.33,1.4.79,3.52,2.12,2.12,2.02-2.12,4.71-4.17,7.79-4.14,2.4.03,4.83,1.54,5.26,4.01.14.8,1.12,1.25,1.85,1.05.84-.23,1.19-1.04,1.05-1.85h0Z"/>
      <path class="cls-6" d="M118,116.34c3.05-.52,6.01-1.62,8.67-3.2.47-.28.94-.58,1.47-.75.71-.23,1.47-.21,2.22-.18,11.33.44,23.13,1.79,33.62-2.51-3.3,4-8.74,5.41-13.81,6.48-7.55,1.6-14.28,3-21.94,2.03-3.04-.38-6.81-1.53-9.83-2.05"/>
      <g>
        <path class="cls-5" d="M244.85,215.36c-9.64-3.22-18.55-8.4-27.15-13.81-7.66-4.81-14.71-10.53-21.74-16.24-5.12-4.16-10.3-8.38-14.21-13.7-2.55-3.48-4.5-7.36-6.13-11.35-2.08-5.08-3.67-10.43-3.86-15.91-.19-5.48,1.11-11.14,4.37-15.55,1.76-2.38,4.02-4.34,6.3-6.23,10-8.35,38.43-31.27,50.96-34.82,7.15-2.03,8.18,5.35,4.06,6.27-10.4,2.32-35.11,22.05-43.92,28.04-6.3,4.28-12.94,8.95-15.85,15.99-2.04,4.93-1.98,10.56-.57,15.7s4.12,9.85,7.24,14.17c3.23,4.48,6.98,8.67,11.63,11.64,3.17,2.03,6.67,3.45,10.03,5.14,4.45,2.24,8.63,4.97,12.8,7.69,4.84,3.15,9.67,6.31,14.51,9.46,3.89,2.54,8.18,4.29,12.39,6.26,4.48,2.11,1.66,8.07-.86,7.23Z"/>
        <path class="cls-5" d="M245.25,213.91c-7.67-2.59-14.83-6.39-21.74-10.55-7.02-4.22-13.68-8.88-20.1-13.97s-12.69-9.71-17.96-15.61c-5.22-5.84-8.7-13.33-10.78-20.84s-2.24-15.43,1.84-22.03c2.86-4.62,7.74-7.96,11.91-11.35,8.53-6.93,17.24-13.69,26.33-19.88,4.27-2.91,8.64-5.74,13.25-8.09,2.19-1.12,8.24-4.59,10.08-1.63.59.95.3,2.16-.84,2.55-1.77.61-3.51,1.11-5.23,1.9-4.56,2.11-8.83,4.85-13.01,7.63-8.58,5.7-16.69,12.04-25.12,17.94-5.19,3.64-10.61,7.11-14.51,12.21-4.64,6.07-5.72,13.75-3.93,21.09s6.14,14.03,10.99,19.72c2.42,2.84,5.16,5.42,8.26,7.5s6.88,3.64,10.36,5.39c7.53,3.77,14.46,8.75,21.5,13.34,3.55,2.32,7.04,4.75,10.84,6.65,1.79.9,3.62,1.72,5.45,2.56,1.17.54,3,.99,3.56,2.29.31.72.18,1.6-.17,2.28-.17.32-.38.59-.66.82-.19.16-.2.1-.33.06-1.86-.51-2.66,2.38-.8,2.89,2.31.63,4.16-1.32,4.83-3.34.83-2.52-.22-5.19-2.53-6.48-1.83-1.03-3.86-1.77-5.76-2.67s-3.74-1.82-5.53-2.88c-3.86-2.3-7.56-4.89-11.33-7.35s-7.44-4.92-11.26-7.24-7.39-4.02-11.19-5.87-7-3.85-9.93-6.67-5.28-5.83-7.46-9.08c-4.43-6.61-7.88-14.63-6.35-22.74,1.41-7.45,7.07-12.58,12.98-16.79,8.71-6.2,17.29-12.6,26.1-18.67,4.58-3.16,9.25-6.26,14.18-8.85,1.78-.93,3.61-1.82,5.54-2.41s3.64-1.13,4.37-3.23c.64-1.83.05-3.93-1.38-5.22-1.94-1.74-4.73-1.61-7.07-.91-4.29,1.29-8.3,3.65-12.11,5.97-10.12,6.17-19.59,13.42-28.87,20.77-3.53,2.79-7.02,5.63-10.47,8.51-3.05,2.55-5.98,5.28-7.89,8.82-1.79,3.32-2.73,7.04-2.99,10.79-.58,8.24,2.27,16.52,5.83,23.84s9.05,13.23,15.35,18.48c12.97,10.82,26.45,21.07,41.68,28.54,3.66,1.79,7.41,3.38,11.27,4.68,1.83.62,2.62-2.28.8-2.89Z"/>
      </g>
      <g>
        <path class="cls-4" d="M192.98,24.33c-2.72-6.59-5.02-13.35-6.89-20.23-.19-.7-.35-1.53.11-2.1.5-.62,1.45-.56,2.24-.44,4.25.62,8.5,1.24,12.76,1.86,1.2.18,2.48.39,3.38,1.2,1.11,1,1.34,2.71.97,4.16s-1.23,2.71-2.05,3.97c-3.03,4.62-5.67,9.49-7.91,14.55-2.54-2.51-1.62-6.72-.52-10.12.79-2.46,1.59-4.92,2.38-7.38-2.18-.73-4.5-1.06-6.79-.96,2.68,3.6,4.42,7.9,4.97,12.36"/>
        <path class="cls-5" d="M194.43,23.93c-1.63-3.96-3.11-7.97-4.44-12.03-.66-2.03-1.29-4.08-1.88-6.13-.15-.53-.3-1.07-.45-1.6-.05-.2-.38-.96-.26-1.16.14-.24,2.26.24,2.6.29,2.21.32,4.42.65,6.62.97,1.95.28,4.1.36,5.97.97,4.04,1.32-.48,6.83-1.64,8.7-2.52,4.04-4.73,8.26-6.67,12.61l2.36-.3c-1.75-1.85-1.24-4.67-.66-6.9.81-3.08,1.92-6.1,2.9-9.14.26-.79-.3-1.61-1.05-1.85-2.33-.75-4.75-1.08-7.19-1.02-1.04.03-2,1.29-1.3,2.26,2.51,3.42,4.21,7.38,4.77,11.6.11.81.61,1.49,1.5,1.5.73,0,1.61-.7,1.5-1.5-.63-4.76-2.33-9.23-5.18-13.11l-1.3,2.26c2.2-.06,4.3.24,6.39.91l-1.05-1.85c-1.12,3.48-2.56,6.99-3.23,10.59-.56,2.98-.42,6.06,1.76,8.37.61.64,1.96.58,2.36-.3,2.06-4.63,4.44-9.11,7.16-13.38,2.02-3.18,5.28-8.15,1.32-11.33-1.76-1.41-4.32-1.44-6.46-1.75-2.7-.39-5.4-.79-8.1-1.18-1.88-.27-4.59-1.08-5.89.85s.2,4.97.78,6.91c1.66,5.62,3.63,11.15,5.86,16.57.72,1.76,3.63.99,2.89-.8h0Z"/>
      </g>
    </g>
  </g>
</svg>