<?xml version="1.0" encoding="UTF-8"?>
<svg id="Layer_2" data-name="Layer 2" xmlns="http://www.w3.org/2000/svg" viewBox="0 0 1137.56 862.25">
  <defs>
    <style>
      .cls-1 {
        fill: #cf3ff3;
      }

      .cls-1, .cls-2, .cls-3 {
        stroke-width: 0px;
      }

      .cls-2 {
        fill: #bb0fe6;
      }

      .cls-3 {
        fill: #b899ff;
        opacity: .5;
      }
    </style>
  </defs>
  <g id="MountainBorder">
    <g id="MountainBackground">
      <g id="MtnBackPiece">
        <g>
          <path class="cls-1" d="M689.2,340.38c14.09-35.45,60.16-46.4,82.32-77.44,2.05-2.87,4.24-6.15,7.69-6.86,2.84-.58,5.72.8,8.05,2.53,13.45,10,14.39,29.33,20.72,44.85,4.4,10.8,11.73,20.13,19.16,29.13,15.7,19.03,32.27,37.32,49.28,55.19,5.19,5.46,10.45,10.9,14.89,16.98,5.54,7.59,9.73,16.07,14.94,23.89,11.07,16.58,26.47,29.75,39.3,45.01,18.87,22.43,32.15,49.54,38.3,78.2"/>
          <path class="cls-1" d="M690.65,340.77c4.78-11.9,13.68-21.35,23.54-29.29s21.57-15.12,32.24-22.84c5.36-3.87,10.59-7.95,15.4-12.49,2.35-2.21,4.6-4.54,6.7-6.99s4.02-5.34,6.11-7.96c1.08-1.36,2.34-2.74,3.98-3.4,1.96-.78,4.06-.21,5.85.76,3.07,1.67,5.71,4.34,7.76,7.15,4.15,5.68,6.39,12.46,8.35,19.14s3.76,13.92,6.63,20.55c3.44,7.97,8.45,15.12,13.78,21.92,11.62,14.8,24.2,28.9,36.89,42.78,6.38,6.98,12.87,13.86,19.39,20.72,6.44,6.78,12.47,13.7,17.41,21.67s8.95,15.46,14.36,22.61c5.2,6.88,11.02,13.24,16.95,19.49,6.03,6.36,12.17,12.64,17.85,19.32s10.45,13.23,14.94,20.36c8.99,14.28,15.97,29.81,20.65,46.03,1.14,3.94,2.13,7.93,3,11.94.41,1.89,3.3,1.09,2.89-.8-3.62-16.75-9.62-32.96-17.75-48.05s-18.67-28.86-30.49-41.47c-6.11-6.52-12.41-12.88-18.29-19.61s-11.19-14.03-15.82-21.79-9.35-15.82-15.38-22.87-12.97-13.94-19.46-20.89c-13.27-14.22-26.22-28.74-38.63-43.71-5.73-6.91-11.44-13.92-15.94-21.72-4.01-6.95-6.42-14.41-8.59-22.09-1.95-6.87-3.84-13.87-7.17-20.23-1.59-3.02-3.54-5.88-5.91-8.35-2.53-2.63-5.75-5.3-9.42-6.03-7.82-1.55-11.62,7.2-15.79,12.12s-9.28,9.63-14.49,13.81c-10.53,8.44-22.11,15.43-32.99,23.38-10.45,7.62-20.53,16.26-27.22,27.49-1.63,2.73-3.01,5.6-4.19,8.55-.72,1.79,2.18,2.57,2.89.8h0Z"/>
        </g>
        <g>
          <path class="cls-2" d="M785.25,256.82c-6.22,12.14-12.53,20.55-14.47,34.05-1.94,13.5,1.26,28.51,11.5,37.51,1.33,1.17,2.83,2.32,3.35,4.01,2.35,7.59-15.17,8.13-14.84,16.07,6.02,2.83,13.2,8.57,10.3,14.56-2.77,5.72-11.58,4.34-16.68,8.14.09,1.7.19,3.4.28,5.1-4.64-3.4-9.96-5.87-15.55-7.22.59,6.86,3.99,13.43,9.24,17.88,4.17,3.52,9.5,5.83,12.62,10.3s2.1,12.43-3.29,13.3c-2.26.37-4.49-.66-6.56-1.65-21.75-10.47-43.96-21.28-60.88-38.49-6.19-6.29-12.06-13.69-20.51-16.25-2.15-.65-4.58-1.07-5.98-2.83-2.47-3.1.27-7.85,3.81-9.64s7.74-2.03,11.15-4.03c6.96-4.09,8.08-13.5,12.17-20.45,6.87-11.68,21.47-17.59,33.88-23.02,13.41-5.86,19.56-13.56,29.42-24.37,4.73-5.19,13.26-17.16,18.72-12.99"/>
          <path class="cls-2" d="M783.95,256.06c-4.05,7.88-8.92,15.4-11.95,23.77s-3.92,16.66-2.84,25.07c1.02,7.91,3.9,15.61,9.19,21.67,1.37,1.56,2.96,2.84,4.44,4.28.92.89,1.71,2.18,1.54,3.21-.28,1.68-2.32,2.87-3.88,3.75-4.24,2.39-11.3,4.69-11.17,10.65.01.5.27,1.07.74,1.3,3.39,1.62,7.03,3.82,9.09,7.07,1.77,2.79,1.33,6.14-1.61,7.91-2.73,1.66-6.13,1.97-9.14,2.91-1.56.49-3.14,1.11-4.48,2.05-1.11.78-.98,1.61-.91,2.86s.14,2.47.2,3.71l2.26-1.3c-4.77-3.46-10.19-5.96-15.91-7.37-.87-.21-1.99.44-1.9,1.45.52,5.51,2.56,10.72,5.98,15.08s8.18,6.79,12.44,10.16c3.46,2.74,6.15,6.48,4.92,11.08-.41,1.53-1.3,2.99-2.86,3.52-2.82.96-6.08-1.25-8.52-2.43-20.98-10.12-42.37-20.78-58.81-37.69-3.78-3.89-7.38-8-11.7-11.32-2.09-1.6-4.31-2.97-6.75-3.97-1.19-.49-2.4-.85-3.64-1.21s-2.57-.7-3.48-1.62c-1.62-1.62-.7-4.04.54-5.59,1.76-2.18,4.44-2.94,7.03-3.66s5.3-1.45,7.57-3.02c1.93-1.34,3.48-3.11,4.73-5.09,2.53-4.02,3.8-8.66,5.84-12.92s5.28-8.14,9.08-11.25c8-6.54,17.82-10.03,27.07-14.34s16.45-11,23.24-18.44c3.15-3.45,6.22-6.95,9.28-10.47,2.52-2.9,5.39-6.47,9.02-8.01,1.27-.54,2.44-.58,3.57.24,1.57,1.13,3.06-1.47,1.51-2.59-3.35-2.43-7.31-.19-10.07,2.04-3.48,2.81-6.28,6.38-9.2,9.75-3.42,3.96-6.98,7.86-10.64,11.6s-7.26,6.91-11.5,9.61c-4.62,2.94-9.68,4.95-14.66,7.17s-9.82,4.53-14.37,7.44-8.48,6.16-11.65,10.34-4.68,8.83-6.66,13.48-4.61,8.89-9.7,10.62c-2.85.97-5.89,1.46-8.57,2.9-2.16,1.16-3.94,3.16-4.83,5.45s-.63,4.92,1.1,6.75c1.87,1.98,4.68,2.34,7.13,3.17,5.29,1.81,9.54,5.73,13.38,9.66,4.13,4.22,8.11,8.52,12.59,12.38s9.54,7.6,14.63,10.95c10.36,6.81,21.41,12.48,32.54,17.9,2.79,1.36,5.57,2.78,8.41,4.05,2.65,1.18,5.61,1.95,8.35.57,3.85-1.94,4.75-6.95,3.98-10.81-1.04-5.19-5.66-8.43-9.76-11.21-2.29-1.55-4.58-3.09-6.52-5.07-2.05-2.08-3.7-4.53-4.92-7.18s-1.88-5.26-2.14-8.02l-1.9,1.45c5.5,1.36,10.61,3.75,15.19,7.07.91.66,2.32-.22,2.26-1.3-.09-1.7-.19-3.4-.28-5.1l-.74,1.3c4.17-3.01,9.81-2.49,14.1-5.28,2.25-1.46,3.79-3.8,3.97-6.51s-1.3-5.42-3.12-7.45c-2.34-2.6-5.43-4.57-8.57-6.07l.74,1.3c-.04-1.95,1.39-3.33,2.98-4.39,2.06-1.37,4.34-2.36,6.5-3.56,1.87-1.04,3.95-2.31,4.96-4.28,1.41-2.75.15-5.64-1.95-7.64-1.45-1.38-2.98-2.63-4.3-4.14s-2.4-3.06-3.39-4.74c-1.99-3.4-3.36-7.12-4.23-10.96-1.83-8.09-1.39-16.69.9-24.64,2.74-9.5,8.3-17.81,12.78-26.53.88-1.71-1.71-3.23-2.59-1.51h0Z"/>
        </g>
        <g>
          <path class="cls-2" d="M740.34,375.15c4.92-9.43,11.48-18,19.3-25.21,4.36,9.41,8.71,18.82,13.07,28.22,10.87,3.96,21.93,7.95,33.47,8.62,11.55.67,23.86-2.46,31.78-10.89,4.28,2.28-3.18,8.37-2.09,13.1.42,1.83,2.11,3.03,3.68,4.06,7.54,4.97,15.07,9.95,22.61,14.92-.84,2.68-1.67,5.35-2.51,8.03,13.7,5.12,27.39,10.23,41.09,15.35,3.09,1.15,6.39,2.48,8.16,5.25,1.56,2.45,1.61,5.52,2.32,8.34,2.18,8.52,10.59,14.18,19.15,16.2,8.56,2.02,17.49,1.21,26.28,1.35,4.6.07,9.48.51,13.18,3.25,2.88,2.14,4.67,5.4,6.37,8.56,4.62,8.59,9.23,17.19,13.85,25.78,2.32,4.32,5.28,9.12,10.12,9.93,4.64.78,9.16-2.53,13.84-2.12,5.48.48,9.16,5.67,12.05,10.35,5.32,8.61,10.63,17.22,15.95,25.82,2.24,3.62,4.34,8.72,1.29,11.69-1.29,1.26-3.16,1.67-4.93,2.03-14.23,2.89-29.03,5.78-43.13,2.29-14.06-3.48-25.8-12.91-38.89-19.11-19.4-9.2-41.42-11.16-61.61-18.47-46.11-16.7-78.13-59.22-121.9-81.34-26.3-13.29-58.99-21.21-72.48-47.41-2.59-5.04-4.31-10.78-3.35-16.37,2.21-12.82,16.51-19.13,28.85-23.26"/>
          <path class="cls-2" d="M741.63,375.91c4.91-9.33,11.33-17.73,19.06-24.9l-2.36-.3c3.19,6.9,6.39,13.8,9.58,20.7l2.32,5.02c.36.78.65,1.82,1.16,2.51s1.34.85,2.13,1.14c3.29,1.2,6.59,2.38,9.92,3.47,12.48,4.06,25.9,6.7,38.83,3.13,6.31-1.74,12.18-4.95,16.73-9.7l-1.82.23c1.79,1.06-1.22,5.14-1.78,6.42-1.36,3.05-1.77,6.22.81,8.77,1.55,1.54,3.58,2.64,5.39,3.84,2.17,1.43,4.33,2.86,6.5,4.29,4.43,2.92,8.86,5.85,13.28,8.77l-.69-1.69c-.84,2.68-1.67,5.35-2.51,8.03-.26.82.31,1.57,1.05,1.85,12.95,4.84,25.89,9.67,38.84,14.51,2.65.99,5.55,1.83,7.81,3.6,2.49,1.95,2.92,4.86,3.46,7.79.91,4.97,3.39,9.26,7.22,12.56,9.14,7.86,21.34,8.23,32.8,8.11,5.74-.06,12.53-.8,17.83,1.88s7.88,9.53,10.59,14.57c3.22,6,6.44,11.99,9.66,17.99,2.33,4.33,4.72,9.5,9.26,11.94,2.23,1.2,4.69,1.45,7.17,1.04,2.94-.48,5.73-1.88,8.72-2.05,5.54-.31,9.14,4.82,11.76,8.98,3.62,5.76,7.16,11.58,10.73,17.37,1.81,2.93,3.63,5.86,5.44,8.8,1.33,2.17,2.76,4.67,2.79,7.29.03,3.43-3.25,4.09-5.99,4.65-3.25.66-6.51,1.31-9.79,1.88-6.59,1.15-13.27,1.96-19.98,1.8s-12.63-1.35-18.59-3.65c-5.53-2.13-10.73-5.05-15.85-8.02-5.1-2.95-10.16-6.01-15.48-8.57-5.58-2.69-11.41-4.81-17.34-6.6-11.89-3.58-24.11-5.87-36.03-9.33-10.89-3.17-21.24-7.63-31.09-13.27-18.87-10.81-35.48-24.99-52.37-38.56-16.78-13.48-34.01-26.31-53.62-35.4-17.7-8.2-37.25-14.46-52.29-27.34-7.55-6.47-14.79-15.48-16.41-25.55-1.72-10.72,5.79-18.27,14.57-22.9,4.21-2.22,8.68-3.9,13.18-5.42,1.82-.61,1.04-3.51-.8-2.89-8.98,3.02-18.9,6.81-25.12,14.32-3.08,3.72-4.96,8.23-5.09,13.09-.16,6.02,2.21,11.85,5.21,16.96,10.31,17.53,29.51,26.65,47.42,34.48,9.59,4.19,19.3,8.18,28.5,13.19,9.91,5.4,19.24,11.79,28.24,18.57,18.01,13.56,34.8,28.73,53.44,41.47,9.21,6.3,18.88,11.97,29.15,16.37,11.53,4.93,23.66,7.83,35.81,10.77s24.86,6.26,36.25,12.22c10.76,5.63,20.78,12.88,32.47,16.55,12.99,4.08,26.73,2.47,39.87,0,3.15-.59,6.5-.99,9.54-2.01,2.34-.78,4.31-2.37,4.94-4.84,1.4-5.5-3.2-11.15-5.87-15.48-3.75-6.06-7.49-12.13-11.24-18.19-2.79-4.51-5.65-9.86-10.54-12.43-2.21-1.16-4.61-1.54-7.08-1.2-3.05.42-5.91,1.88-8.99,2.1-5.88.43-8.98-5.45-11.37-9.88-3.33-6.19-6.66-12.39-9.98-18.59-2.84-5.29-5.35-11.87-10.3-15.58-4.65-3.49-10.83-3.59-16.4-3.59-6.99,0-14.07.44-20.99-.75-5.38-.93-10.69-2.96-14.84-6.6-1.93-1.7-3.57-3.69-4.71-6-1.3-2.61-1.47-5.46-2.17-8.24-1.54-6.08-6.75-8.09-12.1-10.08-6.63-2.48-13.27-4.96-19.9-7.43s-13.05-4.88-19.58-7.31l1.05,1.85c.84-2.68,1.67-5.35,2.51-8.03.21-.66-.15-1.33-.69-1.69-4.33-2.86-8.67-5.72-13-8.58-2.26-1.49-4.52-2.98-6.78-4.48-1.74-1.15-4.42-2.36-5.49-4.24-2.57-4.53,7.4-11.04,1.07-14.79-.56-.33-1.36-.24-1.82.23-7.23,7.56-17.8,10.6-28.04,10.54-12.38-.08-24.26-4.47-35.75-8.65l.9.69c-4.36-9.41-8.71-18.82-13.07-28.22-.42-.92-1.71-.9-2.36-.3-7.9,7.33-14.51,15.97-19.53,25.51-.9,1.71,1.69,3.23,2.59,1.51h0Z"/>
        </g>
        <path class="cls-3" d="M726.36,306.49c14.84-16.68,29.67-33.35,44.51-50.03.84-.95,9.77-1.95,11-2.23,2.31-.53,7.29,2.61,8.7,4.52,7.8,10.56,7.6,20.12,15.39,30.68,1.98,2.68,1.04,5.57,1.26,8.9s-2.29,7.05-5.62,6.8c-2.72-.21-4.58-2.77-6.98-4.06s-6.62.34-5.53,2.84c16.24,8.08,28.91,23.04,34.21,40.39-12.36-2.74-20.8-14.07-26.69-25.27-1.03-1.97-2.61-4.28-4.81-3.95-2.43.37-3.56,3.83-6.01,3.97-1.34.08-2.48-.9-3.58-1.67-8.01-5.57-18.91-1.45-27.7,2.78,2.31-8.73,6.8-16.88,12.96-23.49-5.7,1.39-9.91,6.04-13.96,10.29s-8.82,8.57-14.67,8.92-12.06-5.75-9.54-11.05c2.21-4.66,9.61-6.19,9.91-11.35.08-1.43-.46-2.82-.56-4.25-.28-4.09,3.84-7.87,7.89-7.24"/>
      </g>
      <g id="MainMtn">
        <g>
          <path class="cls-1" d="M1123.51,595.13c-34.66-54.51-58.02-56.5-127.85-84.88s-80.17-49.62-151.17-75.62-31-1-143-89c-25.36-19.93-37.57-75.93-62-97-38.08-32.84-43.4-38.57-62.19-52.28-7.46-5.44-15.79-9.72-22.71-15.84-28.46-25.19-26.38-74.72-57.35-96.74-10.92-7.77-24.97-11.15-34.09-20.97-14.5-15.62-14.25-44.82-34.3-52.05-10.81,17.02-21.61,34.05-32.42,51.07-5.67,8.94-11.5,18.31-12.56,28.84-.64,6.35.52,12.79-.29,19.12-2.15,16.83-17.28,28.81-32.23,36.83s-31.61,14.57-41.98,28c-4.42,5.73-7.41,12.4-10.68,18.85-27.13,53.7-73.84,94.63-121.36,131.52-21.41,16.62-45.48,34.24-52.17,60.51-34.67,136.14-111.67,168.14-106.67,260.14s-44.33,124.56,11.83,190.28,707.17-28.28,810.17-58.28,202-56,242-105,68.04-35.01,41.02-77.5Z"/>
          <path class="cls-1" d="M1126.54,593.36c-8.52-13.33-17.92-26.34-29.59-37.11-9.7-8.96-20.82-16.03-32.67-21.79-34.03-16.53-70.62-26.97-104.31-44.4-32.28-16.7-61.93-37.39-95.63-51.43-20.19-8.41-41.15-14.31-61.55-22.03-12.07-4.57-22.58-12.95-32.78-20.98-11.61-9.15-23.11-18.44-34.67-27.65-8.74-6.96-17.5-13.9-26.27-20.81-6.89-5.42-12.79-10.84-17.78-18.12-10.13-14.79-17.05-31.55-25.1-47.48-3.83-7.59-7.87-15.13-12.73-22.12s-11.1-12.93-17.78-18.73c-21.34-18.48-42-38.22-65.83-53.54-8.67-5.58-16.5-11.49-22.4-20.05-5.12-7.44-8.9-15.72-12.23-24.08-6.28-15.77-11.19-32.58-20.99-46.65-4.85-6.96-10.8-12.97-18.01-17.49-8.71-5.47-18.9-8.64-26.95-15.17-13.23-10.73-14.98-29.17-23.68-42.95-3.89-6.16-8.99-10.74-15.8-13.41-1.46-.57-3.18.39-3.95,1.61-8.49,13.37-16.98,26.75-25.47,40.12-7.28,11.47-16.54,23.35-19.3,36.95-1.32,6.49-.47,12.94-.69,19.49-.26,7.69-2.97,14.49-7.85,20.44-7.67,9.35-18.39,15.34-28.99,20.75s-21.99,10.86-30.96,19.22c-9.99,9.3-14.71,22.17-21.19,33.86-12.92,23.29-29.63,44.2-48.18,63.24-18.95,19.45-39.75,36.99-61.07,53.77-18.61,14.66-39.49,28.54-52.24,49.04-6.79,10.91-9.09,23.25-12.71,35.4s-7.97,24.63-12.83,36.62c-8.24,20.31-18.34,39.81-29.49,58.66-17.41,29.44-38.58,57.4-50.74,89.62-5.8,15.39-9,31.66-9.33,48.11-.23,11.49.84,22.93.37,34.43s-1.75,22.45-3.67,33.55c-5.83,33.62-19.19,68.25-5.56,101.73,3.78,9.27,8.99,17.82,15.02,25.8,3.11,4.11,6.2,8.49,10.24,11.77,4.64,3.78,10.15,6.29,15.73,8.34,16.25,5.95,33.98,8.07,51.1,9.68,24.61,2.32,49.38,2.79,74.08,2.65,64.73-.36,129.45-5.08,193.88-10.98,70.47-6.45,140.77-14.74,210.88-24.27,59.64-8.11,119.21-17.05,178.45-27.71,20.43-3.68,40.85-7.53,61.11-12.05,29.65-6.61,58.71-15.86,87.8-24.53,48.31-14.4,98.68-29.13,142.06-55.52,8.4-5.11,16.5-10.78,23.98-17.17,8.07-6.9,14.43-15.02,21.56-22.83,7.95-8.7,16.79-16.42,26.22-23.47,5.38-4.02,11.45-7.8,15.68-13.1,9.39-11.77-.57-26.75-7.18-37.24-2.4-3.8-8.46-.29-6.04,3.53,4.06,6.44,10.55,15.12,10.22,23.21-.22,5.2-4.62,8.69-8.39,11.69-6.92,5.5-14.2,10.49-20.9,16.28-9.43,8.15-17.05,17.63-25.45,26.76-13.55,14.73-30.79,25.66-48.43,34.85-21.8,11.35-44.84,20.18-68.05,28.17-26.52,9.13-53.44,17.1-80.37,24.94-16.16,4.71-32.27,9.76-48.58,13.91s-33.51,7.6-50.37,10.86c-53.99,10.41-108.36,18.89-162.77,26.74-68.18,9.83-136.55,18.39-205.07,25.44-65.97,6.79-132.16,12.37-198.46,14.63-27.1.92-54.25,1.29-81.35.34-20.78-.73-41.74-2.01-62.2-5.9-11.68-2.22-26.31-5.37-34.93-12.81-5.15-4.44-9.18-10.5-12.94-16.09-5.25-7.81-9.69-16.2-12.43-25.22-4.81-15.86-3.55-32.22-.49-48.28,3.48-18.29,8.17-36.29,10.61-54.77,1.54-11.61,2.32-23.31,2.2-35.02-.1-9.89-.93-19.69-.23-29.58,2.33-33.16,18.36-61.96,35.61-89.57,21.27-34.03,42.08-67.87,56.45-105.55,4.63-12.13,8.65-24.49,12.11-37.01s7.29-23.75,15.81-34.05c15.57-18.83,36.98-32.48,55.83-47.74,40.31-32.63,78.94-69.63,102.97-116.26,6.38-12.37,11.99-23.56,23.8-31.65,10.32-7.07,22.04-11.67,32.76-18.03,9.43-5.59,18.56-12.7,24.32-22.19,2.65-4.37,4.46-9.23,5.19-14.29,1.12-7.88-.7-15.87,1.06-23.69,2.99-13.23,12.4-24.95,19.54-36.2,8.1-12.77,16.21-25.53,24.31-38.3l-3.95,1.61c15.22,5.95,18.29,26.48,24.88,39.48,3.85,7.59,9.09,13.84,16.23,18.54,8.44,5.55,18.23,8.74,26.45,14.65,14.44,10.37,21.39,27.68,27.49,43.72s11.57,32.1,22.34,45.34,26.6,20.4,39.68,30.63c9.32,7.28,18.16,15.15,27.06,22.93,13.79,12.04,28.91,22.91,38.69,38.64s16.18,31.69,24.43,47.42c3.89,7.41,8.07,14.72,13.16,21.38,5.44,7.13,12.04,12.31,19.05,17.83,14.97,11.81,29.87,23.71,44.76,35.62,12.7,10.15,25.4,21.81,40,29.23,12.54,6.37,26.69,9.73,39.91,14.35,18.32,6.4,36.38,13.48,53.73,22.21,15.14,7.62,29.55,16.5,44.11,25.15,16.69,9.91,33.79,18.99,51.58,26.79,18.09,7.92,36.64,14.75,54.99,22.04,13.26,5.26,26.56,10.76,38.7,18.33,11.6,7.23,21.55,16.53,30.17,27.11,5.52,6.78,10.46,14.02,15.17,21.39,2.42,3.78,8.48.28,6.04-3.53Z"/>
        </g>
        <g>
          <path class="cls-2" d="M462.71,647.92c-8.29-13.32-2.25-33.32,12.03-39.82-18.65-20.17-20.51-53.79-4.2-75.89,11.12-15.06,30.44-28.3,27.45-46.78-1.46-9.02-8.34-16.49-9.7-25.53-1.23-8.15,2.2-16.23,3.07-24.43,2.37-22.42-14.42-43.51-12.33-65.96-17.6,44.86-35.21,89.72-52.81,134.58-4.39,11.18-8.86,22.51-16.08,32.11-15.17,20.14-41.8,31.9-50.01,55.74,18.79,18.86,49.68,19.86,70.36,36.64,12.8,10.39,20.97,26.3,35.47,34.16-2.82-9.06-4.56-18.45-5.15-27.92"/>
          <path class="cls-2" d="M465.73,646.15c-7.18-12.27-1.9-28.84,10.77-35.03,2.13-1.04,2.11-3.94.71-5.5-11.02-12.24-15.77-29.08-13.89-45.36.93-8.03,3.57-15.91,7.85-22.77s10.39-12.82,15.84-18.96c9.51-10.71,18.25-23.55,13.22-38.44-2.8-8.29-8.88-15.46-8.69-24.56s4.1-18.24,3.42-27.84c-1.42-19.99-13.94-37.86-12.44-58.19.31-4.24-5.54-4.33-6.87-.93-13.87,35.34-27.73,70.67-41.6,106.01-6.6,16.81-12.21,34.64-20.95,50.49-7.06,12.81-17.81,22.02-28.76,31.4s-22.37,20.09-27.6,34.53c-.41,1.14.06,2.59.9,3.41,15.76,15.37,37.78,19.1,56.96,28.42,10.24,4.98,18.14,11.96,25.56,20.51,7.24,8.34,14.26,16.89,24.02,22.4,2.59,1.46,6.04-.97,5.14-3.95-2.67-8.83-4.37-17.78-5.03-26.99-.32-4.47-7.32-4.5-7,0,.7,9.81,2.43,19.43,5.28,28.85l5.14-3.95c-9.88-5.59-16.71-14.65-24.09-23.02-6.98-7.92-14.72-14.48-24.18-19.25-18.79-9.48-41.32-12.83-56.84-27.97l.9,3.41c4.76-13.16,15.45-22.57,25.8-31.44s20.95-17.9,28.15-29.86c8.88-14.75,14.21-31.8,20.47-47.75,6.87-17.51,13.75-35.03,20.62-52.54,7.96-20.28,15.92-40.56,23.87-60.84l-6.87-.93c-1.36,18.38,8.24,34.61,11.62,52.2,2,10.38-.89,19.28-2.22,29.48-1.21,9.29,1.83,16.49,5.84,24.63,3.98,8.08,5.47,15.74,1.29,24.07-3.73,7.44-9.78,13.49-15.32,19.59-11.01,12.12-18.81,24.89-20.49,41.5-1.81,17.93,3.96,36.21,16.02,49.61l.71-5.5c-16.08,7.85-22.27,29.26-13.29,44.61,2.28,3.89,8.33.37,6.04-3.53h0Z"/>
        </g>
        <g>
          <path class="cls-2" d="M477.9,366.76c6.51,23.96,47.37,22.1,55.87,45.43,1.72,4.71,1.82,9.98,4.21,14.38,2,3.68,5.4,6.36,8.28,9.4,12.12,12.77,15.13,31.75,25.35,46.1,13.04,18.31,35.73,26.58,57.13,33.45,6.65,2.13,14.7,6.1,14.32,13.07-.14,2.61-1.56,5.13-1.13,7.71.44,2.64,2.69,4.55,4.78,6.22,17.5,13.94,35.16,27.98,55.13,38.07,4.53,2.29,9.28,4.45,12.87,8.04,6.45,6.47,8.55,16.97,16.43,21.59-4.22-8.43-3.59-18.34-3.49-27.77.53-47.02-14.06-95.8,1.98-140-21.46,17.85-42.91,35.71-64.37,53.56-3.01,2.5-6.08,5.05-9.7,6.53-8.85,3.64-21.37,1.57-25.92,9.98"/>
          <path class="cls-2" d="M474.53,367.69c5.42,18.35,26.29,22.82,41.13,30.96,3.78,2.07,7.46,4.43,10.4,7.62,4.01,4.33,5.02,9.4,6.37,14.98,1.59,6.57,4.99,10.85,9.7,15.52,4.98,4.95,8.57,10.74,11.6,17.04,5.66,11.74,9.69,24.22,18.21,34.34,8.39,9.96,19.89,16.8,31.71,21.92,5.75,2.49,11.63,4.66,17.57,6.65,5.52,1.86,13.63,3.2,17.22,8.31,2.09,2.98.24,6,0,9.25-.21,2.9.69,5.35,2.52,7.6,4.23,5.18,10.85,9.14,16.11,13.23,13.6,10.56,27.62,20.66,43.01,28.49,7.43,3.78,12.96,7.3,17.22,14.64,3.33,5.74,6.37,11.31,12.08,15,3.2,2.06,6.14-1.87,4.79-4.79-5.6-12.1-2.7-27.56-3.27-40.52-.62-14.03-2.14-28-3.4-41.98-2.49-27.68-3.9-55.95,5.52-82.57,1.27-3.6-3.42-5.43-5.85-3.41-18.65,15.52-37.29,31.03-55.94,46.55-4.47,3.72-8.81,7.93-13.74,11.04-3.77,2.39-7.94,3.17-12.27,3.9-7.26,1.23-14.46,2.55-18.59,9.29-2.36,3.85,3.69,7.37,6.04,3.53,3.98-6.49,14.32-5.56,20.83-7.37,9.47-2.64,16.86-10.6,24.21-16.72,18.14-15.09,36.27-30.18,54.41-45.27l-5.85-3.41c-9.83,27.78-8.23,57.39-5.6,86.26,1.33,14.58,2.9,29.15,3.37,43.8.43,13.52-1.76,27.77,4.09,40.42l4.79-4.79c-5.17-3.34-7.53-9.22-10.63-14.29s-7.25-9.21-12.61-12.23c-13.14-7.42-26-14.4-38.21-23.38-6.35-4.67-12.54-9.54-18.71-14.44-2.45-1.95-6.42-4.11-7.04-7.32-.58-3,1.19-6.03.71-9.16-1.75-11.36-16.64-14.09-25.54-17.15-12.41-4.27-25.03-9.37-35.37-17.65-10.84-8.69-16.5-20.28-21.89-32.76-2.56-5.93-5.16-11.89-8.67-17.33s-8.52-9.39-12.44-14.47-3.69-12.54-6.5-18.48c-1.75-3.7-4.43-6.96-7.52-9.62-7.61-6.55-17.16-10.08-26.14-14.28-8.66-4.06-18.16-8.97-21.07-18.8-1.27-4.31-8.03-2.48-6.75,1.86h0Z"/>
        </g>
        <g>
          <path class="cls-2" d="M432.29,8.29c-3.35,20.43-6.7,40.87-10.05,61.3-.31,1.92-.62,3.91-.08,5.78.53,1.81,1.79,3.29,3.03,4.71,3.5,4.03,7,8.06,10.51,12.09-6.13,7.56-10.94,16.2-14.12,25.41,8.24-.89,13.58,8.31,16.38,16.11,13.62,38.02,20.77,78.36,21.04,118.75.04,5.48-.15,11.3-3.21,15.85-8.55,12.73-33.1,7.53-38.71,21.8,4.47,4.42,8.95,8.83,13.42,13.25-18.89,17.78-39.84,33.37-62.3,46.35,12.91,2.47,17.76,19.3,14.44,32.02-3.32,12.72-11.81,23.55-15.65,36.12-7.3,23.92,3.14,50.46-3.74,74.5-8.19,28.63-38.69,46.5-47.19,75.03-4.65,15.6-2.05,32.32.57,48.39-8.62-15.54-14.97-32.33-18.79-49.69-.74-3.38-1.39-6.86-.94-10.29.51-3.78,2.32-7.24,3.68-10.81,3.38-8.89,3.97-18.56,4.39-28.06,2-45.48,1.01-91.1-2.95-136.46-.34-3.91-.78-8.02-3.04-11.22-2.09-2.96-5.43-4.72-8.55-6.56-14.18-8.34-26.19-20.33-34.55-34.5-1.62-2.75-3.15-5.74-3.05-8.93.12-3.94,2.66-7.31,4.66-10.7,10.28-17.46,7.48-39.34,4.35-59.36,18.94-8,24.74-31.27,34.52-49.36,14.4-26.65,40.4-44.64,65.07-62.23,13.07-9.32,27.56-22.29,24.95-38.14-.62-3.76-2.22-7.43-1.88-11.22.32-3.57,2.32-6.73,4.27-9.73,15.47-23.92,30.94-47.84,46.4-71.76"/>
          <path class="cls-2" d="M428.91,7.36c-2.77,16.92-5.55,33.85-8.32,50.77-.98,6-3.83,14.03-1.11,19.89,2.86,6.16,9.32,11.55,13.74,16.63v-4.95c-6.5,8.19-11.5,17.11-15.02,26.95-.75,2.1,1.22,4.53,3.37,4.43,8.56-.39,12.01,10.62,14.26,17.11,3.3,9.54,6.2,19.22,8.69,29.01,5.05,19.88,8.41,40.19,9.95,60.65.73,9.71,1.65,19.84.91,29.57-.65,8.53-5,12.95-12.77,15.52-10.12,3.35-23.69,4.23-28.57,15.38-.63,1.44-.65,3.06.55,4.24,4.47,4.42,8.95,8.83,13.42,13.25v-4.95c-18.76,17.56-39.38,32.88-61.59,45.8-2.52,1.47-2.14,5.71.84,6.4,8.08,1.86,11.94,9.62,12.74,17.35,1,9.67-3.35,18.5-7.63,26.88-4.61,9.03-9.09,17.92-10.65,28.05s-.88,20.39-.21,30.57,1.53,21.6-.8,32.11c-1.87,8.46-5.85,16.1-10.73,23.2-9.71,14.12-22.55,25.94-31.08,40.89-11.58,20.31-9.27,42.39-5.66,64.56l6.4-2.7c-6.42-11.7-11.61-23.99-15.36-36.8-1.78-6.08-4.38-13.3-4.04-19.69s4.3-12.24,5.75-18.39c3.04-12.95,2.73-26.78,3.09-39.99.38-14.18.47-28.37.27-42.56s-.69-28.37-1.46-42.53c-.4-7.25-.87-14.49-1.42-21.73-.47-6.15-.46-12.62-1.89-18.64-2.69-11.28-15.25-14.99-23.45-21.6-9.07-7.3-17.7-16.6-23.04-27.04-2.03-3.97-2.08-6.94.08-10.87,1.51-2.75,3.26-5.31,4.57-8.17,2.51-5.46,4.01-11.25,4.77-17.2,1.74-13.52-.24-27.15-2.32-40.52l-1.61,3.95c15.8-7.06,23-23.47,29.78-38.3,3.93-8.58,8.13-16.93,13.78-24.54,6.23-8.39,13.69-15.83,21.57-22.66s16.11-12.95,24.5-18.99c7.82-5.63,15.98-10.96,22.97-17.64,6.05-5.79,11.67-12.96,13.38-21.34.87-4.24.62-8.42-.35-12.62-.63-2.74-1.68-5.6-1.13-8.46s2.23-5.11,3.68-7.39c15.26-24.05,30.94-47.85,46.4-71.76,2.45-3.79-3.6-7.31-6.04-3.53-13.31,20.58-26.62,41.17-39.93,61.75-5.45,8.43-12.81,16.61-10.69,27.27.93,4.7,2.25,8.73,1.16,13.55s-3.68,9-6.77,12.67c-6.45,7.67-14.8,13.3-22.89,19.08s-15.54,11.21-22.98,17.24c-15.15,12.26-29.01,26.42-37.97,43.91-8.33,16.26-13.89,37.63-32.01,45.72-1.51.68-1.83,2.53-1.61,3.95,1.89,12.19,3.69,24.7,2.27,37.05-.73,6.3-2.43,12.58-5.46,18.18-2.4,4.43-5.84,8.61-5.94,13.9s3.19,10.4,6.06,14.75c3.08,4.67,6.56,9.12,10.35,13.23,8.01,8.68,17.32,14.33,26.94,20.9,6.17,4.21,5.78,11.55,6.33,18.26.59,7.23,1.1,14.47,1.54,21.72.88,14.49,1.45,29,1.73,43.51s.24,29.03-.09,43.55c-.32,13.84.22,28.54-2.93,42.09-1.59,6.83-5.74,13.16-6,20.25-.23,6.59,2.03,13.56,3.8,19.84,3.94,13.98,9.57,27.45,16.55,40.18,2.04,3.71,7,.99,6.4-2.7-1.89-11.58-3.77-23.37-2.73-35.13.89-10.04,4.48-19.2,9.86-27.65,9.6-15.08,23.16-27.22,32.33-42.61,10.65-17.89,10.09-36.92,8.82-57.04-.71-11.22-1.25-22.74,2.08-33.63s9.53-19.53,13.5-29.64c5.85-14.89,4.1-38.47-14.74-42.81l.84,6.4c22.71-13.21,43.83-28.94,63.01-46.9,1.37-1.29,1.31-3.65,0-4.95-4.47-4.42-8.95-8.83-13.42-13.25l.55,4.24c4.22-9.65,17.88-9.62,26.49-12.91,4.48-1.71,8.71-4.11,11.61-8.03,4.33-5.86,4.37-13.4,4.29-20.37-.39-34.99-5.96-70.01-16.34-103.42-3.62-11.65-8.46-33.77-24.56-33.04l3.37,4.43c3.09-8.64,7.51-16.67,13.22-23.86,1.24-1.56,1.36-3.38,0-4.95-2.33-2.69-4.67-5.37-7-8.06-1.77-2.04-4.84-4.55-5.63-7.19-.97-3.26.8-8.28,1.34-11.58l1.73-10.54c2.36-14.37,4.71-28.74,7.07-43.1.72-4.41-6.02-6.3-6.75-1.86h0Z"/>
        </g>
        <g>
          <path class="cls-2" d="M310.08,738.16c-22.91-39.59-26.84-87.11-42.64-130.03-11.15-30.3-28.59-60.03-26.54-92.25-19.14,19.74-40.13,37.69-62.6,53.54-8.56,6.04-17.84,12.41-21.46,22.24-1.67,4.55-2.01,9.6-4.42,13.81-5.5,9.57-20.44,12.65-22.2,23.55-1.97,12.2,13.87,18.53,21.41,28.31,9.04,11.72,5.51,28.43,1.56,42.7-3.51,12.69-7.03,25.38-10.54,38.07-1.21,4.38-2.34,9.41.15,13.21,4.27,6.53,14.4,3.79,21.74,6.44,7.21,2.6,13.18,10.94,20.52,8.74,4.47-1.33,6.81-6.04,9.52-9.84s7.77-7.22,11.73-4.77c1.17.72,2.01,1.85,2.86,2.92,18.32,23.01,50.24,29,79.32,33.42,5.58.85,11.69,1.6,16.54-1.3s6.55-11.1,1.68-13.96c1.31,1.77,4.42.76,5.33-1.24s.35-4.34-.23-6.46c-4.51-16.57-9.02-33.14-13.53-49.71"/>
          <path class="cls-2" d="M313.1,736.39c-14.96-26.19-21.81-55.67-29.16-84.65-3.59-14.18-7.33-28.34-12.25-42.13-5.17-14.51-11.74-28.46-17.24-42.84-6.25-16.35-10.98-33.24-10.05-50.9.16-3.06-3.92-4.58-5.97-2.47-15.14,15.55-31.34,30.07-48.59,43.23-13.29,10.14-32.09,19.14-37.1,36.4-1.29,4.43-1.8,9.15-4.85,12.82-2.41,2.9-5.69,4.98-8.73,7.15-5.05,3.6-10.42,7.62-12.07,13.94-4.04,15.46,14.28,22.59,21.86,32.63,5.88,7.79,5.48,18.17,3.8,27.31-1.82,9.92-4.97,19.63-7.66,29.34-1.49,5.39-2.99,10.79-4.48,16.18-1.25,4.51-2.97,9.26-2.74,14.01.36,7.68,5.99,11.81,13.11,12.86,3.39.5,6.89.43,10.24,1.17,4.29.95,7.59,3.76,11.19,6.11,6.19,4.03,13.33,5.53,19.14-.06,2.93-2.81,4.48-6.76,7.39-9.55,5.24-5.03,8.14,1.12,11.6,4.72,5.51,5.71,12.1,10.4,19.11,14.08,17,8.91,36.2,12.49,54.99,15.42,7.94,1.23,18.27,3.33,24.62-3.17,5.08-5.2,5.24-13.69-.79-18.04-3.2-2.31-7.28,2.93-4.24,5.5s7.22,2.48,9.93-.68c3.83-4.46.77-11.34-.54-16.16-3.99-14.66-7.98-29.31-11.97-43.97-1.18-4.34-7.94-2.5-6.75,1.86,2.43,8.92,4.86,17.84,7.28,26.76,1.21,4.46,2.43,8.92,3.64,13.38.52,1.91,1.04,3.82,1.56,5.74.31,1.13,1.17,7.59,1.79,8.12l-4.24,5.5c3.25,2.35-.21,7.15-2.64,8.36-4.09,2.02-9.3,1.04-13.61.39-7.64-1.15-15.28-2.42-22.83-4.05-14.92-3.23-29.97-7.9-42.43-17.02-3.04-2.22-5.86-4.75-8.44-7.49-2.39-2.54-4.35-5.98-7.53-7.6-6.05-3.09-12.42,1.52-15.91,6.31-2.02,2.77-3.88,7.16-7.42,8.23-3.78,1.14-7.65-2.23-10.54-4.21-6.25-4.28-11.74-5.51-19.16-6.23-2.88-.28-6.77-.51-8.61-3.13-2.7-3.87.16-10.34,1.26-14.32,2.72-9.83,5.44-19.67,8.17-29.5,4.01-14.49,9.14-31.28,2.13-45.7-3.04-6.25-8.45-10.6-13.64-14.99-4.52-3.82-11.17-8.78-10.04-15.51,1.06-6.34,8.35-9.86,13-13.33,5.11-3.81,8.98-8.03,10.93-14.22,1.5-4.75,2.1-9.51,4.86-13.79,2.39-3.71,5.71-6.77,9.12-9.53,7.69-6.21,16.08-11.57,23.91-17.62,16.94-13.07,32.91-27.33,47.84-42.67l-5.97-2.47c-1.67,31.81,14.01,60.26,25.11,89.05s16.31,58.61,25.05,87.76c4.9,16.36,11.01,32.38,19.5,47.24,2.23,3.91,8.28.39,6.04-3.53h0Z"/>
        </g>
        <g>
          <path class="cls-2" d="M735.87,438.98c.49-2.57,3.68-3.85,6.23-3.23s4.54,2.53,6.4,4.37c17.82,17.59,35.65,35.19,53.47,52.78,2.55,2.52,5.58,5.23,9.16,4.98s6.16-5.67,3.05-7.47c5.62.89,4.04,11.87,9.64,12.94,1.89.36,3.94-.71,5.72.01,2.14.87,2.54,3.64,3.46,5.77,2.39,5.51,9.14,7.35,15.03,8.52-4.58-8.62-6.5-18.62-5.44-28.32-12.61-1.68-22.86-10.55-33.03-18.2-21.75-16.34-46.59-28.55-72.81-35.79-.95-.26-2.05-.5-2.87.06-.66.45-.93,1.28-1.15,2.05-.77,2.67-1.54,5.35-2.31,8.02"/>
          <path class="cls-2" d="M739.25,439.91c1.35-3.78,12.64,8.47,13.81,9.63,3.99,3.94,7.97,7.87,11.96,11.81,8.44,8.33,16.89,16.67,25.33,25,5.25,5.19,13.04,16.46,21.71,14.91,5.84-1.04,9.65-9.1,4.6-13.32l-3.41,5.85c2.48.66,3.11,6.72,4.36,8.79,2.17,3.61,4.61,3.77,8.38,4.24,3.06.38,3.01,2.28,4.28,4.65.98,1.82,2.33,3.33,3.96,4.59,3.72,2.86,8.36,4.05,12.88,4.98,3.05.63,5.37-2.35,3.95-5.14-4.24-8.35-5.81-17.25-4.96-26.55.12-1.37-1.17-3.15-2.57-3.37-11.8-1.86-21.04-9.37-30.29-16.4-9.86-7.5-20.26-14.23-31.22-20-10.5-5.53-21.47-10.23-32.72-14.03-4.27-1.44-11.85-5.42-16.35-3.5-4.27,1.82-4.79,8.63-5.91,12.52-1.25,4.34,5.5,6.19,6.75,1.86.31-1.07,1.34-7.48,2.31-8.02-.95.53,1.15.7,1.39.81,1.28.55,2.82.82,4.16,1.23,5.26,1.61,10.45,3.42,15.57,5.43,10.76,4.22,21.17,9.36,31.11,15.27,9.29,5.52,17.87,11.91,26.5,18.39,8.08,6.07,16.67,11.6,26.83,13.2l-2.57-3.37c-.96,10.51,1.15,20.69,5.92,30.09l3.95-5.14c-5-1.03-10.66-2.13-13.02-7.18-1.7-3.64-2.7-6.97-7.33-7.43-2.25-.22-3.7.9-5.18-1.03-1.01-1.3-1.27-3.54-1.89-5.07-1.27-3.13-3.04-5.63-6.45-6.54-3.18-.85-6.19,3.51-3.41,5.85.04,1.74-1,2.04-3.12.92-1.11-.63-2.12-1.39-3.02-2.29-1.88-1.62-3.58-3.51-5.34-5.25-3.75-3.7-7.5-7.41-11.26-11.11-7.27-7.18-14.54-14.35-21.81-21.53-3.52-3.47-7.04-6.95-10.55-10.42-3.12-3.08-6.16-6.85-9.92-9.2-5.24-3.28-11.99-2.08-14.18,4.05-1.52,4.25,5.24,6.08,6.75,1.86h0Z"/>
        </g>
        <g>
          <path class="cls-2" d="M253.19,329.79c-19.02,22.99-39.12,49.1-37.39,78.89.9,15.59,7.55,32.66-.83,45.83-6.48,10.17-20.69,15.14-23.37,26.9-1.48,6.51,1.16,13.14,3.02,19.55,3.88,13.43,4.35,27.84,1.35,41.5-1.4,6.37-6,14.03-12.29,12.33-3.61,6.94-8.71,12.98-13.76,18.95-28.58,33.78-57.66,68.01-94.4,92.67-9.48-50.9-18.97-101.8-28.45-152.71-2.81-15.07-5.23-32.06,3.67-44.54,4.92-6.9,12.57-11.22,19.31-16.36,25.13-19.17,37.85-49.92,54.95-76.5,34.77-54.04,88.96-92.06,141.76-128.68"/>
          <path class="cls-2" d="M250.72,327.31c-20.74,25.12-42.18,53.42-37.77,87.89,1.04,8.13,2.98,16.27,2.68,24.51s-3.94,14.58-10.14,20.05c-4.92,4.34-10.45,8.12-14.14,13.66-4.17,6.26-4.23,13.42-2.44,20.52,2.66,10.56,5.61,20.29,5.5,31.34-.05,5-.55,27.78-9.81,26.14-1.5-.27-3.17.16-3.95,1.61-6.33,11.69-15.95,21.53-24.54,31.58s-16.42,19-24.98,28.19c-17.43,18.7-36.16,36.25-57.38,50.6l5.14,2.09c-6.93-37.2-13.86-74.4-20.79-111.59-3.36-18.04-7.96-36.3-9.71-54.58-.72-7.46-.73-15.31,2.07-22.39,3.17-8.01,10.07-12.98,16.84-17.8,24.83-17.7,38.52-43.89,53.67-69.54,16.24-27.51,36.85-51.47,60.54-72.84,27.09-24.44,57.09-45.33,87.02-66.09,3.68-2.55.18-8.62-3.53-6.04-53.33,36.99-108.47,75.55-143.86,131.27-16.74,26.35-29.41,56.9-55.41,75.81-6.03,4.39-12.44,8.47-17.05,14.46s-6.76,13.01-7.44,20.38c-1.55,16.75,3.62,34.3,6.66,50.63,8.09,43.4,16.17,86.79,24.26,130.19.4,2.15,3.37,3.29,5.14,2.09,21.72-14.69,40.96-32.56,58.8-51.7,8.96-9.61,17.59-19.52,26.12-29.52,8.59-10.07,18.16-19.96,24.49-31.66l-3.95,1.61c16.88,2.99,18.69-22.72,18.68-33.8-.01-9.55-1.78-18.73-4.49-27.85-1.41-4.75-3.08-9.82-1.79-14.79.97-3.74,3.53-6.68,6.26-9.28,5-4.75,10.87-8.52,15.09-14.06,4.8-6.31,6.36-14.05,6.14-21.84-.26-8.83-2.51-17.45-3.21-26.24s.57-17.74,3.38-26.21c6.5-19.55,19.94-36.16,32.87-51.82,2.85-3.45-2.08-8.43-4.95-4.95h0Z"/>
        </g>
        <path class="cls-3" d="M438.39,4.13c-14.3,19.49-28.59,38.98-42.89,58.47-5.91,8.06-11.98,16.47-13.9,26.28-1.22,6.24-.65,12.83,1.63,18.77-6.82,12.05-14.99,23.34-24.3,33.59-3.83,4.22-8.01,8.37-13.28,10.56-3.91,1.62-8.21,2.06-12.28,3.23-12.34,3.52-22.34,14.21-25.05,26.75,6.97-7.14,15.33-12.92,24.48-16.9-7.23,13.72-14.47,27.45-21.7,41.17l8.03-.76c-11.06,13.42-22.11,26.83-33.17,40.25,3.52,5.04,11.37,2.19,16.56-1.09,14.47-9.14,28.95-18.28,43.42-27.43-.97,8.19,1.28,16.73,6.16,23.38,3.18-2.92,8.91-2.25,11.33,1.32,3.67-7.73,7.57-15.75,14.35-20.97,11.58-8.91,29.63-8.15,38.5-19.76,1.97,3.24,4.51,6.14,7.45,8.53,4.24-3.36,8.47-6.71,12.71-10.07.09,9.76-2.18,19.54-6.55,28.27,13.41-4.33,26.82-8.66,40.23-12.98,3.8-1.22,8.19-3.08,8.98-6.99.46-2.26-.48-4.53-1.1-6.76-1.81-6.57-.38-14.39,4.93-18.66s14.56-3.24,17.57,2.88c2.01,4.08.94,8.91.14,13.38-4.48,25.07,1.14,51.81,15.36,72.95,2.37,3.53,5.09,7.01,8.81,9.06,4.5,2.48,9.97,2.59,15.02,1.65,10.03-1.86,19.27-7.72,25.23-15.99-10.69,2.37-22.61-2.35-28.78-11.4s-6.2-21.87-.08-30.95c8.21,2.36,17.06,2.45,25.32.26-2.64-7.81-6.81-15.1-12.21-21.33,5.19,1.27,10.7,2.53,15.8.93s9.34-7.23,7.44-12.23c-2.08-5.45-9.13-6.42-14.61-8.43-11.01-4.03-18.13-14.87-22.16-25.88-4.03-11.02-5.77-22.8-10.29-33.63-11.04-26.41-36.65-43.24-55.72-64.58-15.11-16.92-26.4-37.24-32.77-59.01-.94,1.36-1.89,2.71-2.83,4.07"/>
        <path class="cls-3" d="M522.76,417.61c-4.86,14.8-8.92,29.86-12.15,45.09,7.31-3.26,14.61-6.53,21.92-9.79-1.53,3.27-3.05,6.54-4.58,9.81,3.41-.8,6.83-1.61,10.24-2.41,0,2-.7,3.99-1.96,5.54,3.05.35,6.11.69,9.16,1.04-19.36,26.29-34.08,55.97-43.29,87.29,11.02,5.4,22.42-5.58,32.03-13.22,7.58-6.03,16.45-10.43,25.84-12.82,2.44-.62,5.16-1.08,7.37.13s3.15,4.76,1.09,6.22c2.51-1.76,5.01-3.53,7.52-5.29-6.81-3.68-8.31-13.16-6.02-20.55,2.3-7.39,7.35-13.56,10.98-20.4.8-1.51,1.56-3.15,1.42-4.86-.51-6.62-10.34-5.38-16.97-5.66-8.33-.35-15.88-7.37-16.84-15.65-1.17-10.14,5.64-22.74-2.16-29.34-3.98-3.36-9.78-2.91-14.98-3.17s-11.39-2.43-12.3-7.56c-.66-3.76,1.92-7.32,2.26-11.13.77-8.76-9.43-13.66-15.72-19.81-10.32-10.07-12.04-27.76-24.51-34.99,4.52,19.77,9.04,39.54,13.57,59.31,1.22-5.85,5.9-10.84,11.65-12.45-.42,8.46,5.56,16.81,13.7,19.15l6.3-4.62"/>
        <path class="cls-3" d="M623.25,259.25c-11.72,23.85-23.43,47.69-35.15,71.54,8.62-4.23,18.28-8.13,27.59-5.78,9.31,2.35,16.56,13.92,11.18,21.88,6.55-4.37,13.1-8.75,19.65-13.12,1.27,10.14,2.54,20.29,3.82,30.43,5.1-36.88-37.04-67.74-32.55-104.71,1.82,5.5,8.68,8.69,14.06,6.53-6.91-2.75-11.63-10.22-11.15-17.64-12.42.96-25.15-4.6-32.9-14.35-.72,16.19,9.01,32.36,23.65,39.3-2.5,2.35-5.01,4.7-7.51,7.05,8.51,4.04,17.01,8.07,25.52,12.11,10.76,5.11,22.08,10.69,28.51,20.72,6.43,10.02,5.32,25.85-5.3,31.24,12.17,3.38,24.04,7.85,35.41,13.35-13.91,8.38-34.54,1.7-40.89-13.25,14.83-4.03,31-2.95,45.16,3.02-1,6.49-8.73,11.28-7.54,17.74,1.01,5.47,7.51,7.54,12.61,9.76,8.63,3.74,15.77,10.81,19.61,19.4,3.37,7.54,3.94,17.07-1.26,23.49s-17.15,6.79-20.82-.61c-3.55-7.16,2.81-15.96,10.45-18.29,7.65-2.34,15.84-.35,23.73.93s16.74,1.62,23.07-3.27c2.58-1.99,4.7-4.83,7.85-5.66s7.28,2.41,5.56,5.17c-3.9,4.12-11.22,4.26-15.28.3s-4.07-11.3-.04-15.28c-4.42.24-8.85.48-13.27.71,6.56,8.21,18.05,10.12,27.31,15.1,9.26,4.98,16.61,18.08,9.13,25.47,9.97,3.11,19.94,6.22,29.9,9.33-.25,3.62-1.99,7.11-4.73,9.48,4.29-2.31,9.06-3.72,13.91-4.1-3.79-5.27-8.35-9.98-13.48-13.96-2.51,3.06-5.02,6.12-7.53,9.18,12.53,3.39,24.17,10.03,33.45,19.1,2.17,2.12,4.33,4.45,7.17,5.51,7.25,2.71,16.11-3.68,22.76.29-8.81-.53-10.56-13.35-17.81-18.37-5.94-4.11-13.92-2.03-21.14-2.04s-16.13-5.28-14.03-12.19"/>
        <path class="cls-3" d="M735.81,431.09c-4.39,22.48-9.18,44.89-14.38,67.2,5.32-.81,6.81-7.58,7.73-12.89s4.79-11.85,9.88-10.09c-2.53.89-2.59,4.82-.68,6.7s4.8,2.26,7.48,2.49,5.56.51,7.57,2.28c4.44,3.91,1.4,11.14-1.87,16.07,4.59-2.33,9.17-4.67,13.76-7,1.35-.69,2.81-1.39,4.3-1.15,3.6.59,4.08,5.78,2.52,9.08s-4.26,6.43-3.83,10.06c.51,4.4,5.7,6.97,10.08,6.32s8.04-3.55,11.48-6.34c3.74-3.04,7.48-6.08,11.23-9.12.73-.59,1.5-1.26,1.7-2.18.27-1.27-.65-2.45-1.54-3.4-6.46-6.92-14.22-12.62-22.75-16.71-5.21-2.5-10.83-4.49-15.05-8.44s-6.6-10.68-3.57-15.6c.66-1.08,1.57-2.05,1.9-3.27.45-1.65-.26-3.41-1.27-4.8-4.08-5.59-11.9-6.34-18.58-8.11s-14.09-7.2-12.43-13.91"/>
        <path class="cls-3" d="M255.43,327.44c-11.24,5-16.13,18-19.92,29.7-.92,2.84-1.84,5.88-1.03,8.75,3.9,13.83,33.25-.5,37.03,13.36,1.45,5.29-2.9,10.21-4.69,15.4s2.97,13.11,7.38,9.85c-1.74,5.4-4.31,10.54-7.6,15.16,7.15-6.17,15.79-10.61,24.98-12.82-2.36-17.63,2.84-36.14,14.04-49.95-8.81,7.78-24.27,6.79-31.23-2.67s-2.41-25.37,8.81-28.85c-7.39,3.95-14.78,7.89-22.17,11.84-2.1,1.12-4.36,2.27-6.72,2.01-6.21-.69-7.19-9.24-6.59-15.46s-.97-14.84-7.22-14.92c-2.26-.03-4.3,1.25-6.16,2.54-7.35,5.08-14.16,10.94-20.28,17.46,4.72-1.75,9.88-3.51,14.68-1.98s8.14,8.02,4.8,11.79c3.73-1.7,7.46-3.4,11.19-5.1-9.58,3.21-19.86,3.48-29.85,5.02s-20.33,4.73-27.06,12.28-8.19,20.45-.82,27.36c2.68,2.52,6.34,4.16,8.06,7.41,2.7,5.08-1.22,11.83-6.71,13.55-5.49,1.71-11.55-.51-16.1-4.03-2.43-1.88-4.65-4.25-5.55-7.19-2.29-7.55,6-15.21,13.86-14.53s14.12,7.2,17.43,14.36c-5.08,19.26-21.78,34.81-41.24,39.07-4.44.97-9.2,1.49-12.86,4.19s-5.41,8.65-2.1,11.77c1.38,1.3,3.29,1.82,5.14,2.22,5.83,1.27,11.83,1.77,17.8,1.49-2.47-.55-4.94-1.09-7.41-1.64,5.72.03,13.65-2.37,12.58-8-1.32-6.9-13.47-4.16-17.37-10-4.33-6.48,5.93-14.31,4.51-21.97-1.47-7.95-13.9-7.88-19.55-2.09-5.65,5.79-7.56,14.29-12.55,20.66-8.66,11.05-24.95,13.82-33.63,24.85-6.81,8.66-7.28,21.76-1.1,30.88,3.08,1.28,6.92.45,9.19-2"/>
        <path class="cls-3" d="M234.29,513.54c10.89,2.64,21.57,6.2,31.87,10.61,3.17,1.36,6.44,2.91,8.45,5.72,2.9,4.07,2.32,9.76.2,14.29s-5.55,8.28-8.34,12.42c-1.13,1.68-2.2,3.73-1.54,5.63.86,2.47,3.97,3.14,6.57,3.43,16.01,1.77,32.02,3.55,48.04,5.32-2.31.07-2.66,3.7-1.09,5.4s4.01,2.29,5.8,3.75c5.48,4.46,2.29,13.07,1.58,20.1-.63,6.29,1.32,12.81,5.31,17.72-8.39,1.34-12.54-9.39-17.12-16.55-5.07-7.93-13.55-12.88-21.06-18.56s-14.74-13.28-15.25-22.69c-.18-3.37.35-7.27-2.08-9.61-1.23-1.18-2.95-1.65-4.55-2.22-15.65-5.62-22.88-23.21-28.32-38.92,14.1-1.35,23.62,13.46,35.51,21.16,10.59,6.86,24.95,8.93,31.95,19.43,2.56,3.84,3.85,8.52,6.94,11.96,6.71,7.47,19.58,6.79,25.94,14.55,2.49,3.04,3.67,7.08,6.52,9.79,6.76,6.42,19.04,2.35,26.17,8.35,6.91,5.82,7.83,19.84,16.85,19.53-9.66-1.42-19.15-4.02-28.19-7.73-1.01-.41-2.07-.88-2.7-1.78-1.94-2.76,1.53-5.99,4.25-7.98s4.68-6.95,1.48-8"/>
      </g>
    </g>
  </g>
</svg>