<?xml version="1.0" encoding="UTF-8"?>
<svg id="Layer_2" data-name="Layer 2" xmlns="http://www.w3.org/2000/svg" viewBox="0 0 2137.89 582.24">
  <defs>
    <style>
      .cls-1 {
        fill: #f46640;
      }

      .cls-1, .cls-2, .cls-3, .cls-4, .cls-5 {
        stroke-width: 0px;
      }

      .cls-2 {
        fill: #d452f4;
      }

      .cls-3 {
        fill: #f45270;
      }

      .cls-4 {
        fill: #cf3ff3;
      }

      .cls-5 {
        fill: #f23053;
      }
    </style>
  </defs>
  <g id="MountainForeground">
    <g id="MountainForeground-2" data-name="MountainForeground">
      <g>
        <path class="cls-2" d="M50.76,437.56c86.8.67,172-19.15,255.81-41.78,183.93-49.65,369.99-92.27,558.55-119.51,69.93-10.1,140.27-18.1,209.32-33.07,151.97-32.94,295.79-99.23,449.28-124.16,85.47-13.88,174.06-15,255.16-45.34,30.02-11.23,59.07-26.48,90.85-30.74,53.55-7.18,121.09,12.73,152.91-30.94-7.88-.3-15.76-.6-23.65-.91,42.17-5.11,84.74-2.86,127.13-.2,22.92,1.44,0,568.94,0,568.94H40.87s-94.37-143.1,9.9-142.3Z"/>
        <path class="cls-2" d="M50.76,439.06c68.29.28,135.71-11.64,201.86-27.78,68.72-16.76,136.77-36.2,205.5-52.98,137.16-33.48,275.65-61.84,415.47-81.74,69.78-9.93,139.93-18.13,208.78-33.57,65.29-14.64,129.03-35.21,192.65-55.73,64.16-20.7,128.44-41.47,194.31-56.15,65.12-14.52,131.39-19.31,197.26-28.98,32.61-4.79,65.1-11.13,96.49-21.33,31.21-10.14,60.51-26.19,92.56-33.69,26.67-6.24,54.16-4.06,81.29-4.05,21.75,0,45.14-.79,64.84-11.12,8.86-4.65,16.12-11.22,22.16-19.14.73-.96-.28-2.22-1.3-2.26-7.88-.3-15.76-.6-23.65-.91v3c34.06-3.93,68.31-3.45,102.5-1.65,5.45.29,21.27-1.39,25.01,1.92,1.03.91,1.37,3.07,1.75,4.3,4.3,13.98,4.07,30.18,4.78,44.63,2.86,57.93,1.99,116.1,1.21,174.06-.91,67.35-2.62,134.68-4.68,202-1.34,43.83-2.83,87.66-4.52,131.48-.13,3.28-.21,6.57-.39,9.84-.06,1.07,2.56-.7.58-.86-3.8-.3-7.75,0-11.56,0-20.16,0-40.32,0-60.48,0h-103.37c-46.6,0-93.2,0-139.8,0-55.81,0-111.61,0-167.42,0-62.75,0-125.5,0-188.25,0-67.57,0-135.14,0-202.71,0s-138.48,0-207.72,0-138.22,0-207.33,0h-379.51c-52.48,0-104.95,0-157.43,0-42.12,0-84.23,0-126.35,0-29.4,0-58.8,0-88.2,0-13.7,0-28.1-1.28-41.75,0-.6.06-1.81.2-2.4,0,1.97.68.83.43-.07-1.28-1.58-2.99-3.59-5.81-5.3-8.73-13.46-22.96-26.02-48.08-30.83-74.46-2.26-12.43-2.92-26.7,3.99-37.87,8.79-14.18,26.71-16.91,42.04-16.96,1.93,0,1.93-3.01,0-3-20,.06-41.78,5.64-48.41,26.86-6.16,19.69.94,42.42,8.04,60.85s15.64,34.82,25.54,51.06c1.97,3.23,2.75,5.64,6.09,6.53,7.38,1.98,18.07,0,25.64,0h247.18c89.3,0,178.59,0,267.89,0,105.05,0,210.1,0,315.15,0h651.79c91.89,0,183.77,0,275.66,0,66.85,0,133.7,0,200.56,0,32.03,0,64.06.18,96.09,0,1.38,0,2.77,0,4.15,0,.84,0,1.47-.69,1.5-1.5,2.97-73.59,5.28-147.22,7.15-220.85,1.51-59.28,2.7-118.57,2.98-177.87.21-45.12.65-90.53-2.71-135.56-.69-9.24.13-25.21-5.43-33.32-.64-.93-1.1-1.79-2.07-2.43-.47-.31-.96-.18-1.42-.41-5.36-2.67-18.44-1.12-24.63-1.45-34.19-1.8-68.43-2.28-102.5,1.65-1.88.22-1.98,2.92,0,3,7.88.3,15.76.6,23.65.91l-1.3-2.26c-32.63,42.84-98.51,25.17-144.61,29.42-29.82,2.75-57.01,15.03-84.44,26.16-30.54,12.38-62.13,21.06-94.51,27.11-64.68,12.07-130.64,15.21-195.32,27.3-64.4,12.04-127.28,30.85-189.63,50.72-63.12,20.11-125.93,41.38-190.06,58.11-66.92,17.46-135.09,27.74-203.53,37.15-138.1,18.98-274.91,44.17-410.65,75.92-67.77,15.85-135.2,33.09-202.41,51.18-66.77,17.97-134.4,34.34-203.52,39.8-17.27,1.37-34.57,1.99-51.89,1.92-1.93,0-1.93,2.99,0,3Z"/>
      </g>
      <g>
        <path class="cls-1" d="M2113.87,167.58c-70.27,8.22-140.17,19.55-209.45,33.92,3.86-6.52,7.72-13.04,11.59-19.57-165.45,18.59-327.8,64.54-478.45,135.43,10.09-13.07,20.17-26.15,30.26-39.22-68.42,32.5-136.85,65.01-205.27,97.51,17.06,4.52,34.12,9.05,51.18,13.57-193.61,33.14-396.82-24.39-586.84,25.34,3.39-15.33,12.28-29.38,24.68-39.01-67.04,9.57-133.37,24.09-198.27,43.4,17.63-5.86,36.84-6.9,55-2.98-99.37,31.76-202.06,53.14-305.86,63.68,16.32,1.32,32.63,2.65,48.95,3.97-83.86,20-169.59,32.19-255.7,36.34l3.14,2.23c-.34-26.51-.68-53.02-1.03-79.53,70.22-8.89,140.44-17.78,210.66-26.67,50.37-6.38,100.73-12.75,151.1-19.13,42.22-5.34,84.51-10.7,126.03-20.04,42.24-9.5,83.63-23.1,126.48-29.31,72.63-10.52,146.71.58,219.91-4.72,154.81-11.2,293.75-93.78,438.26-150.43-7.44,13-14.87,26.01-22.31,39.01,130.28-48.83,266.22-82.52,404.23-100.16-11.98,6.62-23.97,13.23-35.95,19.85,139.43-21.89,276.69-57.59,409.12-106.4"/>
        <path class="cls-1" d="M2113.87,166.08c-70.41,8.3-140.41,19.63-209.84,33.97l1.69,2.2c3.86-6.52,7.72-13.04,11.59-19.57.53-.9-.13-2.39-1.3-2.26-129.82,14.75-257.59,45.91-379.48,92.99-33.74,13.03-66.98,27.29-99.72,42.65l2.05,2.05c10.09-13.07,20.17-26.15,30.26-39.22,1.01-1.31-.87-2.61-2.05-2.05-68.42,32.5-136.85,65.01-205.27,97.51-1.19.57-.82,2.43.36,2.74,17.06,4.52,34.12,9.05,51.18,13.57v-2.89c-152.94,25.72-307.65-3.87-461.37,6.06-42.32,2.73-84.38,8.68-125.48,19.28l1.85,1.85c3.8-15.42,12-28.32,24.3-38.35,1.31-1.07-.18-2.69-1.46-2.51-67.06,9.67-133.3,24.17-198.27,43.4l.8,2.89c17.83-5.57,35.88-6.59,54.2-2.98v-2.89c-99.36,31.62-201.74,52.96-305.46,63.62-1.91.2-1.95,2.84,0,3,16.32,1.32,32.63,2.65,48.95,3.97l-.4-2.95c-83.82,19.87-169.27,32.02-255.3,36.29-1.55.08-1.96,1.94-.76,2.8l3.14,2.23c.94.67,2.27-.23,2.26-1.3-.15-11.93-.31-23.86-.46-35.79s-1.58-24.14-.46-35.79c.72-7.45,3.24-7.07,10.32-7.96,5.96-.75,11.92-1.51,17.89-2.26,12.59-1.59,25.17-3.19,37.76-4.78,46.37-5.87,92.74-11.74,139.12-17.61,47.05-5.96,94.1-11.91,141.16-17.87,44.41-5.62,88.98-10.85,132.79-20.2,44.23-9.44,87.34-23.98,132.15-30.68,47.25-7.07,95.17-4.82,142.74-3.81,43.71.92,87.12-.08,130.3-7.46,41.44-7.09,81.98-18.74,121.57-32.78,90.53-32.11,176.15-76.22,265.45-111.36l-1.69-2.2c-7.44,13-14.87,26.01-22.31,39.01-.6,1.06.42,2.68,1.69,2.2,130.28-48.68,265.89-82.32,403.83-100.11l-.76-2.8c-11.98,6.62-23.97,13.23-35.95,19.85-1.59.88-.42,2.99,1.16,2.74,139.48-22.03,276.58-57.68,409.12-106.4,1.8-.66,1.02-3.56-.8-2.89-132.54,48.72-269.64,84.37-409.12,106.4l1.16,2.74c11.98-6.62,23.97-13.23,35.95-19.85,1.22-.67.76-2.99-.76-2.8-138.22,17.82-274.08,51.44-404.63,100.22l1.69,2.2c7.44-13,14.87-26.01,22.31-39.01.6-1.04-.42-2.71-1.69-2.2-149.14,58.68-293.36,145.38-457.49,151.43-43.29,1.6-86.58-1.38-129.87-1.04-43.24.34-84.93,5.85-126.87,16.3-41.11,10.25-81.71,21.15-123.62,27.8-44.51,7.07-89.36,12.09-134.07,17.75-100.04,12.66-200.09,25.33-300.13,37.99-.8.1-1.51.61-1.5,1.5.34,26.51.68,53.02,1.03,79.53l2.26-1.3-3.14-2.23-.76,2.8c86.3-4.29,172.02-16.47,256.1-36.4,1.73-.41,1.21-2.82-.4-2.95-16.32-1.32-32.63-2.65-48.95-3.97v3c103.99-10.69,206.64-32.03,306.26-63.73,1.32-.42,1.54-2.59,0-2.89-18.8-3.7-37.51-2.73-55.79,2.98-1.84.57-1.06,3.44.8,2.89,64.97-19.24,131.21-33.74,198.27-43.4l-1.46-2.51c-12.65,10.32-21.16,23.83-25.07,39.67-.27,1.12.72,2.14,1.85,1.85,150.56-38.85,306.46-12.04,459.54-14.5,42.64-.68,85.22-3.76,127.3-10.84,1.51-.25,1.35-2.54,0-2.89-17.06-4.52-34.12-9.05-51.18-13.57l.36,2.74c68.42-32.5,136.85-65.01,205.27-97.51l-2.05-2.05c-10.09,13.07-20.17,26.15-30.26,39.22-1.02,1.32.87,2.61,2.05,2.05,116.35-54.57,239.41-94.49,365.7-118.36,37.11-7.01,74.47-12.6,111.99-16.87l-1.3-2.26c-3.86,6.52-7.72,13.04-11.59,19.57-.7,1.18.45,2.46,1.69,2.2,69.17-14.29,138.9-25.6,209.05-33.87,1.89-.22,1.92-3.23,0-3h0Z"/>
      </g>
      <g id="Grass">
        <g>
          <path class="cls-4" d="M1619.53,349.74c-4.95-22.59-6.03-46.03-3.17-68.98,2.26,1.5,4.51,3.01,6.77,4.51,3.2-25.16,8.98-49.98,17.21-73.97,1.97,19.84,6.88,39.39,14.53,57.8,3.52-18.79,8.43-37.33,14.68-55.39-.8,11.2-.52,22.47.82,33.61,3.54-3.63,7.08-7.26,10.62-10.89,1.15-1.18,2.52-2.46,4.17-2.38s2.9,2.54,1.49,3.41c7.93-8.81,14.66-18.68,19.96-29.28,3.35,14.56,1.16,30.32-6.03,43.42-6.08.7-12.41,1.49-17.49,4.89s-8.38,10.3-5.72,15.81c-4.67-1.86-9.34-3.71-14.01-5.57-3.92,6.58-7.83,13.17-11.75,19.75-2.71-4.82-6.26-9.17-10.44-12.79-7.39,17.01-14.78,34.02-22.17,51.03-.85,1.96-1.42,4.8.49,5.76"/>
          <path class="cls-4" d="M1620.98,349.34c-3.82-17.54-5.31-35.54-4.43-53.47.25-5.05.69-10.1,1.31-15.12l-2.26,1.3c2.26,1.5,4.51,3.01,6.77,4.51,1.05.7,2.13-.27,2.26-1.3,2.49-19.48,6.55-38.77,12.08-57.61,1.57-5.36,3.27-10.67,5.08-15.96l-2.95-.4c1.56,15.56,4.85,30.93,9.88,45.74,1.43,4.2,3,8.36,4.7,12.46.5,1.2,2.59,1.63,2.89,0,3.53-18.8,8.44-37.32,14.68-55.39l-2.95-.4c-.78,11.2-.51,22.46.82,33.61.14,1.21,1.57,2.08,2.56,1.06,2.8-2.87,5.59-5.74,8.39-8.6,1.21-1.24,2.38-2.74,3.82-3.71.4-.27,1.11-.7,1.61-.46.21.1.26.29.41.44.28.27-.09.37.23.13l1.82,2.36c8-8.92,14.81-18.87,20.19-29.58l-2.74-.36c3.22,14.23,1.09,29.45-5.88,42.27l1.3-.74c-6.91.79-14.48,1.69-19.96,6.41-4.67,4.02-7.22,10.73-4.54,16.55l1.69-2.2c-4.67-1.86-9.34-3.71-14.01-5.57-.61-.24-1.38.16-1.69.69-3.92,6.58-7.83,13.17-11.75,19.75h2.59c-2.8-4.93-6.41-9.37-10.68-13.09-.65-.56-1.94-.65-2.36.3-7.13,16.4-14.25,32.81-21.38,49.21-1.25,2.88-3.4,7.51.23,9.63,1.67.98,3.18-1.61,1.51-2.59-1.27-.74-.16-3.18.25-4.16,1.03-2.44,2.11-4.86,3.17-7.29,2.08-4.78,4.16-9.57,6.24-14.35,4.19-9.64,8.38-19.29,12.57-28.93l-2.36.3c4.09,3.57,7.53,7.76,10.21,12.49.56.99,2.02.96,2.59,0,3.92-6.58,7.83-13.17,11.75-19.75l-1.69.69c4.67,1.86,9.34,3.71,14.01,5.57,1.35.54,2.18-1.16,1.69-2.2-1.95-4.22.18-9.14,3.28-12.19,3.79-3.73,9.36-4.98,14.45-5.73,1.25-.19,2.51-.33,3.77-.48.73-.09,1.23-.16,1.71-.79.42-.55.69-1.29,1-1.91,1.25-2.49,2.34-5.06,3.25-7.69,1.81-5.22,2.91-10.67,3.33-16.17.48-6.3-.01-12.65-1.4-18.8-.28-1.22-2.17-1.5-2.74-.36-5.27,10.49-11.89,20.24-19.72,28.98-1.07,1.19.39,3.44,1.82,2.36,1.66-1.26,1.72-3.39.33-4.93-1.62-1.81-4.11-1.44-5.93-.13-2.24,1.62-4.08,3.92-6,5.89-2.17,2.22-4.34,4.45-6.51,6.67l2.56,1.06c-1.33-11.15-1.6-22.41-.82-33.61.12-1.77-2.42-1.92-2.95-.4-6.24,18.08-11.15,36.6-14.68,55.39h2.89c-7.58-18.31-12.5-37.68-14.48-57.4-.17-1.66-2.38-2.06-2.95-.4-6.44,18.79-11.39,38.07-14.77,57.64-.96,5.55-1.79,11.13-2.5,16.72l2.26-1.3c-2.26-1.5-4.51-3.01-6.77-4.51-1.05-.7-2.13.26-2.26,1.3-2.22,18.01-2.03,36.25.5,54.21.72,5.09,1.63,10.15,2.73,15.17.41,1.89,3.3,1.09,2.89-.8h0Z"/>
        </g>
        <g>
          <path class="cls-4" d="M1765.89,264.15c1.92-8.97,4.32-17.84,7.18-26.55,2.06,7.96,3.04,16.21,2.9,24.43,12.24-9.2,26.26-16.02,41.05-19.98-10,7.18-20.74,13.32-31.99,18.31,14.74-10.09,33.29-14.47,50.99-12.03-19.73,9.49-41.69,14.28-63.58,13.86"/>
          <path class="cls-4" d="M1767.34,264.55c1.93-8.97,4.32-17.83,7.18-26.55h-2.89c2.01,7.86,2.97,15.92,2.85,24.03-.01,1.04,1.32,1.99,2.26,1.3,12.18-9.12,26-15.86,40.69-19.82l-1.16-2.74c-10.02,7.17-20.74,13.3-31.99,18.31l1.51,2.59c14.46-9.84,32.47-14.22,49.83-11.88l-.36-2.74c-15.18,7.27-31.7,11.78-48.47,13.19-4.77.4-9.56.55-14.35.47-1.93-.03-1.93,2.97,0,3,17.23.3,34.52-2.53,50.74-8.37,4.63-1.66,9.17-3.57,13.6-5.7,1.09-.52.92-2.57-.36-2.74-14.12-1.9-28.54.25-41.51,6.18-3.71,1.7-7.26,3.71-10.64,6.01-1.62,1.1-.23,3.37,1.51,2.59,11.25-5.01,21.98-11.14,31.99-18.31,1.32-.95.58-3.21-1.16-2.74-14.92,4.02-29.03,10.87-41.41,20.13l2.26,1.3c.12-8.37-.88-16.72-2.96-24.83-.38-1.49-2.45-1.36-2.89,0-2.86,8.72-5.26,17.58-7.18,26.55-.4,1.88,2.49,2.69,2.89.8h0Z"/>
        </g>
        <g>
          <path class="cls-4" d="M1898.66,253.74c-1.1-16.15,1.31-32.54,7.03-47.68-2.22,15.51,4.61,32,17.16,41.38-5.63,2.58-12.65,1.78-17.56-2-4.91-3.77-7.48-10.36-6.44-16.46"/>
          <path class="cls-4" d="M1900.16,253.74c-1.06-16.07,1.32-32.2,6.97-47.28l-2.89-.8c-1.76,12.67,1.99,25.62,10.01,35.56,2.29,2.84,4.93,5.32,7.84,7.52v-2.59c-5.2,2.3-11.75,1.51-16.18-2.11s-6.48-9.23-5.62-14.65c.3-1.89-2.59-2.7-2.89-.8-1.05,6.6,1.39,13.6,6.68,17.8s13.13,5.18,19.52,2.34c1.15-.51.79-2,0-2.59-11.97-9.04-18.53-24.82-16.47-39.69.26-1.89-2.2-2.64-2.89-.8-5.74,15.3-8.16,31.78-7.08,48.08.13,1.92,3.13,1.93,3,0h0Z"/>
        </g>
        <g>
          <path class="cls-4" d="M1925.88,52.81c-1.19-13.94-2.39-27.88-3.58-41.82,11.86,10.09,21.08,23.27,26.5,37.87,17.02-13.94,34.76-28.25,56.04-33.85-18.51,20.15-44.07,33.7-71.13,37.69,3.51.66,7.02,1.32,10.53,1.99-4.62-8.73-11.16-16.43-19.02-22.4.53,9.27,2.85,18.44,6.81,26.84-2.86-4.89-6.94-9.06-11.78-12.02"/>
          <path class="cls-4" d="M1927.38,52.81c-1.19-13.94-2.39-27.88-3.58-41.82l-2.56,1.06c11.67,9.97,20.74,22.82,26.11,37.21.42,1.11,1.6,1.41,2.51.66,13.09-10.71,26.44-21.57,41.94-28.64,4.34-1.98,8.83-3.6,13.44-4.82l-1.46-2.51c-14.36,15.59-32.87,27.19-53.14,33.39-5.67,1.73-11.47,3.04-17.33,3.91-1.46.22-1.41,2.63,0,2.89,3.51.66,7.02,1.32,10.53,1.99,1.28.24,2.34-1,1.69-2.2-4.79-8.98-11.48-16.76-19.56-22.94-.9-.69-2.32.24-2.26,1.3.58,9.58,2.96,18.9,7.01,27.59l2.59-1.51c-3.03-5.13-7.26-9.42-12.32-12.55-1.65-1.02-3.15,1.58-1.51,2.59,4.63,2.87,8.47,6.79,11.24,11.48,1,1.69,3.4.21,2.59-1.51-3.82-8.19-6.06-17.06-6.6-26.08l-2.26,1.3c7.66,5.85,13.95,13.36,18.48,21.86l1.69-2.2c-3.51-.66-7.02-1.32-10.53-1.99v2.89c21.35-3.19,41.67-12.21,58.51-25.68,4.74-3.79,9.18-7.94,13.29-12.4,1-1.09.03-2.9-1.46-2.51-16.86,4.49-31.52,14.3-45.12,24.91-3.91,3.05-7.75,6.18-11.58,9.32l2.51.66c-5.55-14.87-14.81-28.21-26.88-38.53-.89-.76-2.68-.34-2.56,1.06,1.19,13.94,2.39,27.88,3.58,41.82.16,1.91,3.16,1.93,3,0h0Z"/>
        </g>
        <g>
          <path class="cls-4" d="M1435.71,163.55c-5.27-5.73-10.65-11.62-13.59-18.83s-2.96-16.13,1.96-22.16c3.71-4.54,9.49-6.73,14.28-10.1s8.92-9.35,6.77-14.8c-3.9,4.18-9.58,6.65-15.3,6.65,3.32-8.71,6.63-17.42,9.95-26.13-2.41,4.75-7.92,6.87-12.17,10.08s-7.34,9.88-3.51,13.6c-6.32-10.87-12.65-21.74-18.97-32.61,6.87,11.4.73,25.76-1.09,38.95-2.69,19.43,5.34,40.01,20.48,52.49"/>
          <path class="cls-4" d="M1436.77,162.49c-7.33-7.96-15.49-16.99-15.15-28.54.15-5.15,2.26-9.77,6.27-13.04s9.08-5.17,13.07-8.57c4.22-3.6,7.71-9.43,5.62-15.07-.37-1.01-1.67-1.54-2.51-.66-3.72,3.91-8.84,6.15-14.23,6.21l1.45,1.9c3.32-8.71,6.63-17.42,9.95-26.13.61-1.59-1.95-2.64-2.74-1.16-2.84,5.36-9.26,6.91-13.34,11.01-3.67,3.68-6.3,10.19-2.11,14.49,1.19,1.22,3.21-.34,2.36-1.82-6.32-10.87-12.65-21.74-18.97-32.61l-2.59,1.51c3.46,5.88,3.36,12.77,2.32,19.32s-3.04,13.5-3.8,20.39c-1.36,12.41,1.56,25.2,7.73,36.02,3.47,6.08,8,11.55,13.38,16.02,1.47,1.23,3.61-.89,2.12-2.12-9.54-7.93-16.19-18.94-19.03-30.99-1.43-6.06-1.87-12.34-1.23-18.54.69-6.74,2.66-13.29,3.73-19.97,1.17-7.36,1.28-15.01-2.62-21.63-.98-1.66-3.56-.16-2.59,1.51,6.32,10.87,12.65,21.74,18.97,32.61l2.36-1.82c-3.61-3.69.74-9.51,3.95-11.78,4.26-3.02,9.41-5.25,11.97-10.08l-2.74-1.16c-3.32,8.71-6.63,17.42-9.95,26.13-.35.92.55,1.91,1.45,1.9,6.16-.06,12.1-2.62,16.36-7.09l-2.51-.66c1.9,5.15-2.07,10.26-6.08,13.11-4.35,3.09-9.43,5.12-13.28,8.9-7.83,7.7-6.7,19.95-1.85,28.91,3.16,5.83,7.7,10.78,12.16,15.63,1.31,1.42,3.43-.7,2.12-2.12h0Z"/>
        </g>
        <g>
          <path class="cls-4" d="M966.26,290.1c-9.48-9.11-17.51-19.73-23.71-31.32,8.1,5.56,14.68,13.31,18.83,22.21.12-6.52,1.2-13.03,3.19-19.24,1.24,6.75,3.26,13.36,6.01,19.65,2.79-11.57,10.05-21.99,19.93-28.62,1.89,5.32-3.32,10.45-8.34,13.03s-11.07,4.94-12.85,10.3c8.16,1.21,16.8-1.37,22.97-6.85-8.47,7.32-17.63,13.85-27.31,19.46"/>
          <path class="cls-4" d="M967.32,289.04c-9.39-9.06-17.3-19.52-23.47-31.02l-2.05,2.05c7.9,5.46,14.2,12.99,18.29,21.67.67,1.41,2.76.63,2.8-.76.15-6.41,1.2-12.73,3.13-18.84h-2.89c1.28,6.9,3.37,13.58,6.16,20.01.52,1.21,2.45.81,2.74-.36,2.76-11.22,9.66-21.24,19.24-27.72l-2.2-.9c1.94,5.96-5.16,10.11-9.54,12.28-4.74,2.34-9.79,4.95-11.65,10.25-.24.7.28,1.74,1.05,1.85,8.81,1.24,17.72-1.37,24.43-7.23,1.46-1.28-.67-3.38-2.12-2.12-8.39,7.23-17.43,13.66-27.01,19.22-1.67.97-.16,3.56,1.51,2.59,9.8-5.69,19.04-12.29,27.62-19.69l-2.12-2.12c-5.82,5.09-13.85,7.54-21.51,6.46l1.05,1.85c1.89-5.38,8.32-7.26,12.83-9.76,4.96-2.75,10.38-8.18,8.36-14.36-.28-.86-1.36-1.47-2.2-.9-10.22,6.92-17.68,17.52-20.62,29.52l2.74-.36c-2.68-6.18-4.62-12.67-5.86-19.29-.29-1.54-2.48-1.31-2.89,0-2.01,6.36-3.09,12.97-3.24,19.64l2.8-.76c-4.32-9.15-11.05-17-19.37-22.75-1.3-.9-2.71.82-2.05,2.05,6.28,11.7,14.38,22.4,23.94,31.62,1.39,1.34,3.51-.78,2.12-2.12h0Z"/>
        </g>
        <g>
          <path class="cls-4" d="M793.21,311.75c25.51-7.76,52.04-12.12,78.69-12.93-11.59,4.21-23.17,8.42-34.76,12.62,12.39.49,24.78.99,37.17,1.48-4.92,8.75-17.97,7.73-27.08,3.54-9.11-4.19-18.41-10.54-28.24-8.56-1.06.21-2.43.4-2.99-.52s1.7-1.61,1.31-.6c-10.86,7.37-25.19,9.35-37.64,5.2,9.78-4.48,19.56-8.96,29.34-13.44"/>
          <path class="cls-4" d="M793.61,313.19c19.81-6.01,40.22-10.01,60.85-11.84,5.8-.52,11.62-.86,17.45-1.04l-.4-2.95c-11.59,4.21-23.17,8.42-34.76,12.62-1.57.57-1.35,2.88.4,2.95,12.39.49,24.78.99,37.17,1.48l-1.3-2.26c-3.66,6.32-11.85,6.65-18.24,5.24-8.55-1.88-15.67-7.46-23.98-10.05-2.48-.77-5.08-1.28-7.68-1.32-1.24-.02-2.47.08-3.69.28-.55.09-1.25.11-1.78.27-.06.02-.35-.05-.39-.01l-.16,1.21c-.61-.1-1.02-.56-1.22-1.39l.69-.9c-10.65,7.15-24.29,9.05-36.48,5.05l.36,2.74c9.78-4.48,19.56-8.96,29.34-13.44,1.75-.8.23-3.39-1.51-2.59-9.78,4.48-19.56,8.96-29.34,13.44-1.25.57-.76,2.38.36,2.74,7.98,2.62,16.65,2.85,24.79.84,4.05-1,7.99-2.58,11.6-4.68,1.32-.77,4.01-1.92,2.97-3.88-.74-1.39-2.74-1.03-3.65-.05-1.23,1.33-.25,3.24,1.3,3.73,1.82.58,3.94-.28,5.79-.35,4.34-.15,8.58,1.22,12.51,2.95,7.16,3.15,13.78,7.57,21.66,8.73,7.2,1.06,15.39-.22,19.34-7.04.59-1.01-.17-2.21-1.3-2.26-12.39-.49-24.78-.99-37.17-1.48l.4,2.95c11.59-4.21,23.17-8.42,34.76-12.62,1.51-.55,1.39-3-.4-2.95-20.88.66-41.69,3.44-62,8.33-5.74,1.38-11.44,2.94-17.1,4.65-1.84.56-1.06,3.46.8,2.89h0Z"/>
        </g>
        <g>
          <path class="cls-4" d="M1007.71,453.79c-10.1-21.81-17.72-44.78-22.64-68.3,10.32,12.5,6.47,35.07,20.83,42.57,3.35-19.35,6.71-38.71,10.06-58.06,3.8,9.52,1.97,20.25.08,30.32-3.49,18.66-6.99,37.31-10.48,55.97"/>
          <path class="cls-4" d="M1009,453.03c-7.81-16.89-14.11-34.46-18.84-52.45-1.35-5.13-2.56-10.3-3.65-15.49l-2.51,1.46c8.3,10.19,6.69,24.85,13.63,35.74,1.88,2.96,4.4,5.42,7.51,7.07.78.41,2.03.1,2.2-.9,3.35-19.35,6.71-38.71,10.06-58.06h-2.89c3.93,10.06,1.68,21-.24,31.25-2.16,11.54-4.32,23.07-6.48,34.61-1.23,6.55-2.45,13.09-3.68,19.64-.35,1.89,2.54,2.7,2.89.8,2.21-11.78,4.41-23.56,6.62-35.35,1.1-5.89,2.21-11.78,3.31-17.67,1.01-5.39,2.09-10.79,2.54-16.26.5-6.01.14-12.15-2.07-17.81-.47-1.22-2.61-1.62-2.89,0-3.35,19.35-6.71,38.71-10.06,58.06l2.2-.9c-5.46-2.91-8.19-8.37-9.98-14.05-1.95-6.19-2.99-12.65-5.27-18.74-1.29-3.45-2.95-6.68-5.28-9.54-1.02-1.25-2.79.13-2.51,1.46,3.89,18.49,9.4,36.62,16.49,54.13,1.98,4.89,4.08,9.74,6.3,14.53.81,1.75,3.4.23,2.59-1.51h0Z"/>
        </g>
        <g>
          <path class="cls-4" d="M1055.69,456.61c-9.63-15.21,6.61-37.94-4.18-52.35,8.43,17.75,10,38.64,4.32,57.45"/>
          <path class="cls-4" d="M1056.99,455.85c-3.75-6.04-3.28-13.37-2.31-20.13s2.8-14.33,2.04-21.52c-.41-3.86-1.59-7.56-3.9-10.7-1.14-1.55-3.42-.25-2.59,1.51,6.39,13.56,8.73,28.92,6.85,43.78-.54,4.24-1.46,8.42-2.68,12.51-.55,1.85,2.34,2.65,2.89.8,4.46-14.94,4.53-31.11.25-46.1-1.22-4.29-2.82-8.47-4.72-12.51l-2.59,1.51c4.21,5.72,4.01,12.88,3.14,19.62-.93,7.17-2.77,14.37-2.29,21.64.26,3.92,1.25,7.74,3.33,11.1,1.02,1.64,3.61.13,2.59-1.51h0Z"/>
        </g>
      </g>
      <g id="Rocks">
        <g>
          <path class="cls-3" d="M1569.9,391.89c-14.92-9.85-22.16-29.97-16.93-47.06.59-1.93,1.32-4.02.62-5.91-1.38-3.71-6.65-3.57-10.47-2.52-20.78,5.7-39.63,18.2-52.97,35.12-.85,1.08-1.72,2.32-1.6,3.68.11,1.21.97,2.2,1.81,3.07,12,12.49,28.64,20.42,45.9,21.85,5.63.47,11.55.21,16.51-2.5,4.11-2.24,7.19-5.95,10.88-8.83,3.69-2.88,8.68-4.95,13.01-3.17-2.99-4.79,2.65-10.6,8.11-12.03,5.23-1.37,11.41-.81,15.15,3.1s3.25,11.59-1.73,13.71c-6.38,2.72-12.72-4.78-19.65-4.91-2.53-.05-4.96.91-7.47,1.21s-5.46-.3-6.69-2.51c-1.23-2.21,1.03-5.72,3.34-4.68"/>
          <path class="cls-3" d="M1570.66,390.6c-12.22-8.15-18.99-23.26-17.73-37.79.15-1.75.43-3.48.84-5.18.49-2.07,1.33-4.07,1.56-6.19.38-3.7-2.12-6.43-5.67-7.01s-7.18.52-10.6,1.6c-3.95,1.25-7.82,2.75-11.59,4.46-14.96,6.79-28.59,17.25-38.64,30.29-1.34,1.74-2.32,3.76-1.4,5.95.77,1.83,2.47,3.26,3.88,4.61,3.02,2.9,6.3,5.53,9.77,7.87,6.94,4.68,14.71,8.19,22.81,10.31,4.05,1.06,8.21,1.76,12.38,2.11s8.83.29,13.03-.95,7.56-3.8,10.75-6.72,6.16-5.84,10.28-7.04c2.01-.58,3.99-.59,5.95.16,1.27.49,2.31-1.15,1.69-2.2-1.39-2.38-.07-4.88,1.7-6.64,2.1-2.09,4.8-3.23,7.7-3.64,5.05-.72,11.73.75,13.23,6.36.56,2.1.38,4.57-.91,6.39s-3.58,2.43-5.72,2.05c-5.44-.96-9.72-5.28-15.42-5.39-3.48-.06-6.96,1.95-10.42,1.09-1.09-.27-2.53-.97-2.59-2.26-.04-.97.73-2.26,1.79-1.86,1.81.68,2.59-2.22.8-2.89-3.25-1.22-5.97,2.47-5.52,5.44.55,3.61,4.81,4.97,7.97,4.75,2.18-.15,4.25-.89,6.4-1.17,1.84-.24,3.57.07,5.3.69,3.26,1.16,6.18,3.14,9.5,4.15,3.1.94,6.52.73,9.06-1.43,2.3-1.96,3.27-5.24,3.01-8.19-.66-7.6-8.03-11.26-15.02-10.86-4.21.24-8.25,1.65-11.29,4.66-2.75,2.73-4.26,6.7-2.17,10.28l1.69-2.2c-8.34-3.2-15.18,4.31-20.84,9.17-3.22,2.76-6.8,4.53-11.02,5.16s-8.45.3-12.58-.28c-7.91-1.11-15.63-3.59-22.72-7.26-3.54-1.83-6.94-3.96-10.14-6.35-1.63-1.22-3.2-2.52-4.71-3.88s-3.1-2.72-4.34-4.3c-1.5-1.91.24-3.59,1.49-5.11s2.58-3.07,3.94-4.55c2.67-2.9,5.52-5.65,8.51-8.22,6.04-5.19,12.71-9.65,19.8-13.29,3.51-1.81,7.13-3.41,10.84-4.78,3.42-1.27,7.13-2.76,10.79-3.15,2.97-.32,6.76.27,6.23,4.13-.27,1.93-1.09,3.81-1.52,5.71-.38,1.68-.64,3.39-.81,5.11-1.39,13.9,4.34,28.53,14.91,37.68,1.35,1.16,2.77,2.24,4.25,3.23,1.61,1.07,3.11-1.52,1.51-2.59h0Z"/>
        </g>
        <g>
          <path class="cls-3" d="M1855.62,330.1c.74-5.98,1.32-12.65-2.33-17.46-3.64-4.8-13.17-4.58-14.21,1.36-.33,1.88.25,3.93-.55,5.66-.98,2.13-3.57,2.87-5.85,3.39-4.41.99-8.83,1.98-13.24,2.98-2.46.55-5.36,1.52-5.94,3.97-.65,2.75,2.11,5.02,4.6,6.36,7.56,4.08,16.72,6.8,24.67,3.55,7.96-3.24,12.55-14.61,6.67-20.88"/>
          <path class="cls-3" d="M1857.12,330.1c.62-5.01,1.15-10.4-.84-15.19-1.59-3.82-4.6-6.42-8.74-7-3.32-.46-7.2.44-9.05,3.48-1.22,2-.84,4.11-1.02,6.32-.22,2.61-2.66,3.3-4.86,3.82-2.94.69-5.89,1.33-8.84,1.99-2.54.57-5.23.95-7.65,1.97-2.04.85-3.84,2.34-4.16,4.65s1.14,4.45,2.92,5.88c1.98,1.59,4.36,2.68,6.69,3.68,2.55,1.1,5.18,2,7.9,2.55,5.03,1,10.54.87,15.17-1.56,7.76-4.06,12.31-15.62,5.86-22.72-1.3-1.43-3.42.69-2.12,2.12,4.67,5.14,1.35,13.46-3.68,17.04-7.58,5.39-18.28,2-25.66-1.97-1.52-.82-3.71-2.06-4.09-3.91s1.77-2.88,3.25-3.34c2.3-.72,4.72-1.12,7.07-1.65,2.6-.58,5.2-1.16,7.8-1.75,1.89-.43,3.82-.99,5.33-2.26,1.68-1.42,2.09-3.45,2.08-5.55-.01-1.59-.1-3.2,1.09-4.4.88-.89,2.16-1.33,3.38-1.46,3.57-.39,6.69,1.37,8.27,4.55,2.22,4.48,1.49,9.96.9,14.73-.24,1.91,2.77,1.89,3,0h0Z"/>
        </g>
        <g>
          <path class="cls-3" d="M1575.03,479.05c-20.7,3.15-40.08,14.27-53.24,30.56,12.26,3.08,24.83,4.95,37.46,5.59,3.85.19,7.75.28,11.46,1.32,4.21,1.18,7.97,3.51,11.87,5.5,27.14,13.85,62.56,9.34,85.35-10.88,2.57-2.28,5.14-4.82,8.44-5.76,5.19-1.48,10.49,1.35,15.6,3.09,20.12,6.87,41.73-3.02,60.68-12.67,7.04-3.59,14.22-7.28,19.72-12.96,15.78-16.3,10.07-47.65-10.44-57.36-18.56-8.78-41.87.45-54.55,16.6-3.45,4.4-6.59,9.48-11.7,11.75-6.99,3.1-18.18,2.04-19.27,9.6-.48,3.34,1.76,6.98.21,9.98-1.54,2.97-5.62,3.2-8.96,3.03-16.29-.84-32.57-1.67-48.86-2.51-3.37-10.67-16.87-15.14-27.79-12.66s-19.92,9.87-28.96,16.47"/>
          <path class="cls-3" d="M1574.64,477.6c-16.32,2.52-31.76,9.88-44.15,20.78-3.53,3.11-6.79,6.51-9.76,10.17-.68.83-.53,2.21.66,2.51,10.2,2.54,20.59,4.28,31.06,5.18,5.02.43,10.18.28,15.15,1.13s9.2,3.34,13.61,5.64c14.34,7.45,30.85,9.9,46.8,7.7,7.94-1.09,15.7-3.37,22.97-6.74,3.65-1.69,7.17-3.68,10.5-5.94s6.54-5.04,9.68-7.76c1.66-1.44,3.47-2.83,5.61-3.44,2.33-.66,4.74-.31,7.03.34,4.71,1.33,9.07,3.48,13.93,4.35,9.3,1.67,18.82.32,27.79-2.42,9.41-2.87,18.34-7.15,27.09-11.59,7.86-3.99,16.19-8.12,22.03-14.93,8.58-10.01,10.21-24.52,6.15-36.8-2.02-6.11-5.43-11.82-10.19-16.19-5.32-4.88-12.08-7.74-19.21-8.66-15.51-1.99-31.45,5.39-41.99,16.53-2.82,2.98-5.06,6.39-7.69,9.52s-5.29,5.24-9.04,6.35c-3.18.94-6.48,1.36-9.66,2.31-2.72.81-5.54,2.08-7.06,4.61-.88,1.47-1.21,3.25-1.08,4.95.16,2.06.99,4.15.78,6.22-.41,4.13-6.06,3.62-9,3.47-10.72-.55-21.44-1.1-32.16-1.65-5.24-.27-10.47-.54-15.71-.81l1.45,1.1c-2.55-7.8-9.93-12.56-17.75-13.94-9.47-1.67-18.5,1.61-26.53,6.5-5.11,3.12-9.85,6.81-14.68,10.34-1.54,1.13-.05,3.73,1.51,2.59,7.83-5.73,15.62-12.16,24.94-15.29,7.23-2.42,15.38-2.28,22.09,1.64,3.48,2.03,6.25,5.08,7.51,8.95.22.66.76,1.07,1.45,1.1,10.55.54,21.11,1.08,31.66,1.63,5.24.27,10.47.54,15.71.81,3.53.18,7.81.48,10.59-2.16,3.38-3.2,1.07-7.43,1.1-11.3.02-2.86,2.12-4.52,4.62-5.44,3.03-1.11,6.27-1.54,9.39-2.32,3.53-.88,6.67-2.3,9.38-4.79,2.97-2.73,5.14-6.17,7.66-9.28s5.25-5.78,8.31-8.2c5.98-4.73,13.05-8.2,20.51-9.83,7.31-1.59,15.04-1.25,22.01,1.59,5.88,2.4,10.79,6.71,14.2,12.04,6.63,10.37,8.16,24.51,2.79,35.75-3.38,7.09-9.38,11.98-16.05,15.89-3.96,2.32-8.08,4.36-12.18,6.41-4.3,2.15-8.65,4.24-13.09,6.09-8.68,3.62-17.89,6.57-27.36,6.91-4.65.17-9.29-.31-13.76-1.6s-8.8-3.65-13.56-4.1-8.43,1.78-11.83,4.75c-3.07,2.69-6.12,5.31-9.53,7.57-6.56,4.36-13.8,7.62-21.38,9.74-15.1,4.22-31.46,3.92-46.28-1.28-3.88-1.36-7.54-3.12-11.16-5.06-4.32-2.31-8.59-4.32-13.49-4.97s-9.89-.63-14.82-1.05c-5.12-.44-10.21-1.09-15.27-1.95s-9.87-1.88-14.75-3.1l.66,2.51c10.17-12.53,23.92-21.99,39.26-27,4.35-1.42,8.8-2.48,13.32-3.17,1.9-.29,1.09-3.19-.8-2.89h0Z"/>
        </g>
        <g>
          <path class="cls-3" d="M2015.96,397.24c-6.9-.73-11.03-8.07-17.27-11.1-6.97-3.38-15.25-.89-22.49,1.88-7.95,3.04-15.8,6.37-23.51,9.98-4.26,1.99-8.6,4.16-11.69,7.7-3.09,3.54-4.67,8.81-2.65,13.05,3.65,7.63,16.96,9.36,16.71,17.82-.08,2.82-1.93,5.34-4.17,7.06-6.63,5.07-15.98,4.22-23.72,7.34-9.02,3.64-15.32,13.17-15.12,22.9.03,1.37.21,2.83,1.09,3.89,1.49,1.79,4.25,1.67,6.54,1.25,11.71-2.14,23.95-7.68,34.97-3.17,6.06,2.48,12.22,7.91,18.2,5.26,5.27-2.34,6.19-9.32,9.51-14.03,4.68-6.63,13.78-8.23,21.9-8.32s16.73.63,23.86-3.25c5.23-2.85,8.93-7.81,12.45-12.62,5.92-8.09,12.15-17.32,10.72-27.24-1.1-7.6-6.5-13.77-11.83-19.3-6.77-7.01-13.81-13.76-20.84-20.5-2.5-2.39-5.11-4.86-8.38-5.96-6.64-2.24-13.64,1.66-19.56,5.41-9.51,6.02-19.02,12.04-28.52,18.06"/>
          <path class="cls-3" d="M2015.96,395.74c-3.39-.41-6.14-2.76-8.61-4.94-2.63-2.31-5.25-4.8-8.49-6.23-8.28-3.65-17.44-.21-25.31,2.86-4.46,1.74-8.89,3.57-13.28,5.49s-8.56,3.69-12.64,5.9c-3.6,1.95-7.09,4.44-9.31,7.95-2.01,3.18-3.02,7.26-1.95,10.95,1.69,5.88,7.81,8.62,12.43,11.84,1.89,1.32,3.94,2.95,4.57,5.27.99,3.66-1.93,6.82-4.84,8.56-6.83,4.09-15.41,3.32-22.62,6.46-6.77,2.95-11.95,9.08-14.19,16.07-1.04,3.25-1.86,7.58-.74,10.91,1.37,4.07,5.74,4.2,9.31,3.54,8.76-1.61,17.39-5.18,26.42-4.77,4.37.2,8.11,1.78,11.92,3.82,3.37,1.8,7.03,3.9,10.97,3.84,3.64-.06,6.6-2.1,8.58-5.04s2.9-6.12,4.59-9.05c3.71-6.41,11.3-8.38,18.22-8.84,8.33-.56,17.05.83,25.03-2.28s12.86-10.22,17.59-16.88,9.62-14.64,9.37-23.28-5.69-15.5-11.33-21.46c-6.68-7.06-13.73-13.78-20.75-20.51-3.06-2.94-6.16-6.14-10.28-7.53s-8.41-.58-12.26,1c-4.2,1.72-7.98,4.26-11.81,6.68-4.26,2.7-8.53,5.4-12.79,8.1s-8.25,5.22-12.37,7.83c-1.63,1.03-.12,3.63,1.51,2.59,8.11-5.13,16.22-10.27,24.33-15.4,3.73-2.36,7.43-4.92,11.48-6.72,3.71-1.64,8.03-2.59,11.91-.89s6.78,5.13,9.74,7.97c3.4,3.26,6.79,6.53,10.14,9.84s6.48,6.43,9.6,9.76c2.74,2.93,5.35,6.02,7.26,9.56s2.87,7.41,2.56,11.43-1.87,7.93-3.79,11.47c-1.95,3.61-4.32,6.97-6.74,10.28s-4.69,6.39-7.62,9.06-6.58,4.53-10.58,5.38-8.28.86-12.42.85c-7.2-.02-14.74.04-21.28,3.48-3,1.58-5.51,3.91-7.24,6.84s-2.62,5.91-4.33,8.66-4.51,4.57-7.93,3.97c-3.83-.67-7.17-3.05-10.59-4.73-3.71-1.82-7.62-2.79-11.76-2.83s-8.46.74-12.57,1.7-8.3,2.15-12.5,3c-1.68.34-3.75.85-5.41.14s-1.65-2.79-1.63-4.31c.09-6.99,3.74-13.86,9.32-18.03,6.2-4.63,13.99-4.57,21.17-6.6,6.22-1.76,14.42-6.89,12.19-14.56-1.49-5.16-7.2-7.66-11.27-10.46-2.09-1.43-4.23-3.13-5.31-5.49-1.56-3.39-.37-7.43,1.7-10.33,2.32-3.25,5.97-5.35,9.47-7.1,4.03-2.01,8.17-3.83,12.3-5.61,4.31-1.86,8.65-3.62,13.03-5.3,3.94-1.51,8.03-2.99,12.25-3.47,3.98-.45,7.91.09,11.32,2.28,2.78,1.78,5.06,4.22,7.63,6.27s5.3,3.62,8.62,4.02c1.91.23,1.9-2.77,0-3h0Z"/>
        </g>
        <g>
          <path class="cls-3" d="M1428.89,527.98l-22.6-30.67c-2.57-3.49-5.23-7.06-8.91-9.34-8.71-5.41-20.46-1.9-28.53,4.43-8.07,6.33-13.91,15.07-21.59,21.88-2.84,2.52-6.63,4.89-10.22,3.65-2.77-.96-4.39-3.75-6.34-5.94-10.01-11.26-28.21-6.85-42.31-1.55,2.09,4.44-1.23,9.87-5.67,11.94s-9.58,1.74-14.47,1.55c-19.48-.76-39.08,1.42-57.92,6.45-4.69,1.25-10.42,4.29-9.6,9.07.3,1.74,1.48,3.19,2.68,4.49,12.82,13.86,33.34,20.09,51.7,15.69,18.98-4.55,36.2-19.47,55.46-16.32,6.23,1.02,11.97,3.9,17.89,6.09,27.59,10.21,58.19,5.22,87.15.1,6.98-1.23,14.29-2.61,19.79-7.08s8.32-13.09,4.13-18.81c-5.15-7.03-17.02-5.69-22.47-12.49-2.37-2.96-3.26-7.2-6.48-9.21-5.68-3.55-15.84,1.49-18.5-4.66"/>
          <path class="cls-3" d="M1430.19,527.22c-4.3-5.84-8.61-11.68-12.91-17.52s-8.04-11.24-12.33-16.64c-3.63-4.57-8.15-8.14-14.06-9.01-5.57-.82-11.21.55-16.23,2.97-11.1,5.34-17.91,16.16-26.56,24.45-2.12,2.04-4.46,4.26-7.38,5.06s-5.01-.87-6.81-3.02c-1.69-2.03-3.28-3.99-5.43-5.57-1.94-1.43-4.15-2.49-6.45-3.21-5.43-1.71-11.3-1.48-16.86-.58-5.88.95-11.6,2.76-17.17,4.84-.98.37-1.31,1.26-.9,2.2,1.23,2.8-.29,5.97-2.32,7.95-2.63,2.58-6.44,3.27-9.99,3.4-4.01.15-8.04-.21-12.05-.25-4.31-.05-8.63.05-12.94.29-8.59.48-17.15,1.52-25.61,3.11-4.24.8-8.46,1.73-12.63,2.81-3.07.79-6.15,1.75-8.72,3.69-2.34,1.76-4.04,4.31-3.59,7.34.5,3.45,3.63,6.18,6.07,8.42,5.06,4.63,10.97,8.21,17.35,10.7s13.08,3.79,19.85,3.87,13.88-1.33,20.47-3.74,13.3-5.78,19.96-8.67,13.21-5.3,20.26-5.68c3.7-.2,7.35.21,10.92,1.21,3.84,1.08,7.51,2.67,11.21,4.15,7.55,3.01,15.38,4.98,23.43,6.04,16.21,2.13,32.63.6,48.72-1.8,7.95-1.18,15.94-2.41,23.8-4.08,6.77-1.44,13.87-3.9,18.18-9.64,3.62-4.82,5.16-12.08,1.47-17.31-3.43-4.86-9.45-6.19-14.75-8.03-2.6-.9-5.26-2-7.23-3.97-2.25-2.25-3.12-5.47-5.04-7.97-3.8-4.96-9.85-3.8-15.32-3.98-2.15-.07-4.23-.43-5.21-2.55-.81-1.75-3.39-.23-2.59,1.51,2.32,5.03,8.72,3.95,13.22,3.98,2.59.02,5.26.3,7.11,2.32,2.08,2.29,2.94,5.46,4.89,7.87,3.65,4.51,9.76,5.66,14.93,7.53,2.47.89,4.94,2.04,6.75,4,1.97,2.14,2.65,5.06,2.27,7.9-.89,6.72-6.32,11.21-12.35,13.45-3.41,1.27-6.99,2.01-10.56,2.66-3.83.7-7.66,1.36-11.5,2-15.85,2.65-31.95,4.8-48.05,3.9-7.87-.44-15.69-1.65-23.25-3.89s-14.61-6.23-22.37-7.72c-14.15-2.72-27.4,4.12-39.9,9.78-6.38,2.89-12.92,5.66-19.85,6.93-6.5,1.2-13.28,1.03-19.75-.32s-12.74-3.89-18.33-7.5c-2.82-1.82-5.44-3.91-7.84-6.26-2.01-1.97-5.22-4.81-3.57-7.9,1.29-2.42,4.37-3.75,6.83-4.55,3.82-1.24,7.84-2.05,11.77-2.86,8.24-1.71,16.59-2.89,24.98-3.51,8.3-.62,16.56-.54,24.87-.28,6.79.21,14.58-.69,18.15-7.33,1.45-2.71,1.71-5.7.47-8.52l-.9,2.2c9.2-3.45,19.8-6.86,29.72-4.95,4.74.92,8.77,3.22,11.85,6.95,1.67,2.03,3.25,4.23,5.76,5.27,2.72,1.13,5.67.47,8.17-.9s4.75-3.51,6.82-5.56,4.14-4.33,6.13-6.57c4.05-4.53,8.08-9.23,12.96-12.9,4.3-3.24,9.51-5.7,14.9-6.29s10.75.99,14.78,4.95c2.5,2.46,4.5,5.36,6.57,8.17,2.35,3.19,4.7,6.37,7.04,9.56l14.09,19.12c1.13,1.54,3.74.04,2.59-1.51h0Z"/>
        </g>
        <g>
          <path class="cls-3" d="M867.51,460.45c-8.98-1.78-17.95-3.56-26.93-5.33-2.48-.49-5.12-.97-7.49-.07-2.97,1.13-4.73,4.12-6.26,6.9-1.74,3.16-3.52,6.45-3.74,10.04s1.57,7.59,5,8.71c1.62.53,3.43.37,5,1.04s2.75,2.82,1.57,4.06c14.6-.5,29.2-1.01,43.8-1.51-5.62-4.81-7.71-12.43-11.22-18.94-3.51-6.51-10.37-12.7-17.49-10.7"/>
          <path class="cls-3" d="M867.91,459c-6.04-1.2-12.08-2.39-18.12-3.59-2.94-.58-5.87-1.17-8.81-1.75-2.63-.52-5.47-1.05-8.07-.14-4.49,1.55-6.81,6.39-8.8,10.35-2.16,4.3-3.54,9.12-1.41,13.7.99,2.12,2.76,3.83,4.99,4.57,1.36.45,2.83.38,4.2.77.41.12,2.32,1.07,1.72,1.83-.76.94-.35,2.61,1.06,2.56,14.6-.5,29.2-1.01,43.8-1.51,1.22-.04,2.09-1.66,1.06-2.56-5.97-5.22-7.68-13.25-11.66-19.81s-10.71-12.26-18.51-10.22c-1.87.49-1.07,3.38.8,2.89,7.28-1.91,13.29,5.13,16.25,10.87,3.27,6.36,5.46,13.53,11,18.39l1.06-2.56c-14.6.5-29.2,1.01-43.8,1.51l1.06,2.56c1.33-1.65,1.07-3.73-.34-5.27-1.61-1.77-3.91-1.66-6.07-2.12-4.51-.96-5.32-6.25-4.25-10.03.71-2.5,1.99-4.8,3.25-7.05,1-1.79,2.06-3.7,3.69-5,2.12-1.68,4.79-1.46,7.3-.99,2.75.51,5.49,1.08,8.23,1.63l19.59,3.88c1.89.37,2.69-2.52.8-2.89h0Z"/>
        </g>
        <g>
          <path class="cls-3" d="M760.99,467.19c-3.2,2.79-4.5,7.56-3.17,11.59,3.77,3.8,10.13,5.44,14.59,2.49,4.46-2.94,4.73-10.96-.15-13.15-3.53-1.58-7.71.35-10.52,3.01s-4.91,6.07-8,8.4"/>
          <path class="cls-3" d="M759.93,466.13c-1.9,1.71-3.24,4.03-3.8,6.52-.28,1.27-.4,2.59-.28,3.89s.29,2.74,1.29,3.68c3.65,3.39,9.36,5.23,14.16,3.3,4.11-1.65,6.48-5.85,5.97-10.24-.23-2-1.03-4-2.58-5.34-1.97-1.71-4.59-2.16-7.11-1.68-3.09.6-5.78,2.57-7.9,4.82-2.24,2.36-4.1,5.16-6.7,7.16-.64.49-.98,1.29-.54,2.05.37.63,1.41,1.04,2.05.54,3.25-2.5,5.43-5.97,8.41-8.73,2.3-2.13,6.2-4.22,9.24-2.34,2.01,1.24,2.51,3.98,2.04,6.14-.59,2.78-2.52,4.64-5.3,5.23-3.6.76-7.47-.89-10.01-3.4l.39.66c-1.14-3.63-.04-7.59,2.78-10.13,1.44-1.29-.69-3.41-2.12-2.12h0Z"/>
        </g>
        <g>
          <path class="cls-3" d="M967.14,301.75c-3.06,3.98-5.55,10.86-1,13,1.5.7,3.27.46,4.84-.06,4.08-1.37,7.71-5.45,6.73-9.64s-8.24-5.38-9.38-1.23"/>
          <path class="cls-3" d="M965.84,300.99c-2.02,2.66-3.72,6.13-3.7,9.54.01,1.62.52,3.25,1.69,4.42,1.59,1.59,3.83,1.93,5.97,1.58,4.04-.65,7.93-3.73,9.2-7.66.58-1.79.54-3.88-.35-5.56-.68-1.29-1.9-2.3-3.23-2.87-3.15-1.36-7.44-.74-8.54,2.97-.55,1.86,2.35,2.65,2.89.8.04-.12.07-.25.12-.37-.1.24,0,0,.06-.09.06-.1.13-.2.2-.3-.17.24.03,0,.11-.09.04-.04.3-.25.16-.14s.14-.08.18-.11c.1-.06.21-.11.31-.16.15-.08-.07.03-.09.04.08-.03.15-.06.23-.08.14-.04.27-.08.41-.11.06-.01.41-.07.22-.04s.18,0,.24-.01c.15,0,.3,0,.44,0,.13,0,.26.02.38.02.29.01-.17-.05.12.02s.55.12.83.2c.13.04.25.08.37.13.16.06-.03-.02-.05-.03.06.03.12.05.18.08.26.13.5.26.74.42.08.05.31.23.12.07.1.08.2.17.29.25s.18.18.27.27c.04.05.08.1.13.14.15.17-.13-.18,0,0,.16.23.3.47.41.72-.11-.24,0,.03.03.13.05.17.09.35.13.53.1.56.06,1.27-.08,1.83-.68,2.85-3.4,5.06-6.18,5.85-.74.21-1.53.36-2.31.27-.34-.04-.69-.14-1-.29-.14-.06-.27-.14-.39-.22-.06-.04-.12-.08-.18-.12-.2-.14.14.13-.03-.03-.1-.09-.2-.19-.3-.28-.24-.24,0,.03-.14-.16-.07-.11-.14-.22-.21-.34-.03-.06-.06-.12-.09-.18-.1-.2.07.21,0,0-.09-.26-.16-.52-.22-.78-.01-.07-.03-.14-.04-.2,0,.03.02.23.01.05-.01-.17-.02-.33-.03-.5,0-.35.01-.7.05-1.04-.02.22.04-.22.05-.29.03-.18.07-.37.11-.55.18-.76.42-1.5.72-2.22.53-1.26,1.43-2.78,2.35-3.99.49-.65.1-1.68-.54-2.05-.77-.45-1.56-.11-2.05.54h0Z"/>
        </g>
        <g>
          <path class="cls-3" d="M486.12,494.49c-3.86,3.47-6.88,7.86-8.74,12.71,9.87-.02,19.75,1.66,29.06,4.95-.47-6.35,2.04-12.86,6.65-17.25-9.84-2.05-18.36-9.56-21.63-19.07-4.06,10-9.26,21.12-19.53,24.47,1.51.2,3.01.41,4.52.61"/>
          <path class="cls-3" d="M485.06,493.43c-4.06,3.7-7.13,8.26-9.13,13.37-.36.93.56,1.9,1.45,1.9,9.77,0,19.44,1.67,28.66,4.9.89.31,1.96-.51,1.9-1.45-.38-6.05,1.86-11.96,6.21-16.19.78-.76.45-2.27-.66-2.51-9.37-2.02-17.39-8.95-20.58-18.02-.52-1.47-2.34-1.36-2.89,0-3.68,9.05-8.44,20.05-18.48,23.43-1.25.42-1.59,2.68,0,2.89,1.51.2,3.01.41,4.52.61.81.11,1.6-.19,1.85-1.05.2-.7-.25-1.74-1.05-1.85-1.51-.2-3.01-.41-4.52-.61v2.89c11.2-3.77,16.45-15.38,20.58-25.52h-2.89c3.53,10.03,12.25,17.87,22.68,20.12l-.66-2.51c-4.88,4.74-7.53,11.51-7.09,18.31l1.9-1.45c-9.46-3.31-19.44-5-29.46-5.01l1.45,1.9c1.81-4.62,4.7-8.71,8.36-12.04,1.43-1.3-.7-3.42-2.12-2.12h0Z"/>
        </g>
        <g>
          <path class="cls-3" d="M273.75,531.27c-5.21-.88-10.63-.54-15.7.97-1.65.49-3.46,1.31-3.97,2.96-.71,2.32,1.63,4.41,3.83,5.44,7.12,3.32,15.89,2.82,22.59-1.28,1.29-.79,2.66-2.04,2.39-3.53-.19-1.09-1.2-1.83-2.16-2.39-7.94-4.71-17.93-5.82-26.71-2.95"/>
          <path class="cls-3" d="M274.15,529.83c-3.67-.59-7.34-.69-11.02-.19-2.97.4-6.95.93-9.21,3.12s-1.61,5.26.44,7.26c2.2,2.14,5.51,3.21,8.46,3.8,6.12,1.21,12.71.24,18.1-2.95,2.47-1.46,4.84-4.3,2.6-7.08-.89-1.11-2.23-1.81-3.47-2.45-1.58-.83-3.23-1.53-4.91-2.1-6.91-2.35-14.56-2.41-21.51-.19-1.83.59-1.05,3.48.8,2.89,4.94-1.58,10.22-1.96,15.32-1.01,2.51.47,4.98,1.21,7.3,2.27,1.11.51,2.22,1.06,3.25,1.73,1.07.7,1.46,1.42.44,2.4-1.67,1.59-4.29,2.52-6.46,3.13-2.44.69-4.96.97-7.5.84-2.39-.11-4.76-.62-6.99-1.48-1.44-.56-5.32-2.33-4.13-4.47.53-.95,1.83-1.36,2.8-1.65,1.63-.5,3.32-.87,5.01-1.1,3.27-.45,6.63-.4,9.89.13,1.89.31,2.7-2.59.8-2.89h0Z"/>
        </g>
        <g>
          <path class="cls-3" d="M2017.66,210.97c-4.69,3.93-9.39,7.85-14.08,11.78,7.7,4.13,17.66,3.64,24.91-1.24-2.46-5.35-7.19-9.61-12.77-11.49"/>
          <path class="cls-3" d="M2016.6,209.91c-4.69,3.93-9.39,7.85-14.08,11.78-.73.61-.5,1.93.3,2.36,8.26,4.34,18.62,3.91,26.42-1.24.72-.48.9-1.28.54-2.05-2.7-5.74-7.7-10.11-13.66-12.18-1.83-.64-2.61,2.26-.8,2.89,5.26,1.83,9.51,5.78,11.87,10.81l.54-2.05c-6.91,4.56-16.05,5.1-23.4,1.24l.3,2.36c4.69-3.93,9.39-7.85,14.08-11.78,1.48-1.24-.65-3.35-2.12-2.12h0Z"/>
        </g>
        <g>
          <path class="cls-3" d="M1901.83,83.13c-5.91-26.07-11.83-52.15-17.74-78.22-.25-1.11-.57-2.32-1.5-2.97-1.11-.77-2.61-.44-3.91-.07-15.57,4.35-31.14,8.7-46.71,13.05-1.05.29-2.14.61-2.98,1.31-1.2,1-1.67,2.6-2.33,4.01-2.33,4.99-7.34,8.2-10.27,12.86-2.93,4.66-2.16,12.67,3.28,13.53-13.46,5.55-26.92,11.09-40.37,16.64-5.68,2.34-12.35,6.16-12.04,12.29.15,2.88,1.93,5.41,3.81,7.6,11.03,12.8,28.42,19.83,45.25,18.3-8.19,8.3-21.2,8.81-32.86,8.78.07,9.27,11.89,14.15,20.97,12.26s16.86-7.8,25.8-10.25c6.64-1.82,13.63-1.66,20.52-1.93,20.69-.8,41.21-5.64,60.08-14.17-6.81-5.92-11.97-13.73-14.73-22.32"/>
          <path class="cls-3" d="M1903.28,82.74c-3.01-13.28-6.03-26.56-9.04-39.84-1.47-6.48-2.94-12.96-4.41-19.43l-2.26-9.96c-.73-3.21-1.33-6.49-2.2-9.66-.7-2.54-2.51-4.12-5.23-3.8-1.46.17-2.87.67-4.28,1.06-1.69.47-3.37.94-5.06,1.41-6.5,1.82-13,3.63-19.5,5.45s-13.17,3.65-19.74,5.52c-1.24.35-2.48.75-3.49,1.58-1.08.88-1.7,2.09-2.24,3.35-1.07,2.47-2.53,4.51-4.35,6.49-3.61,3.91-7.66,7.51-8.22,13.11-.42,4.21,1.37,9.22,6,10.08v-2.89c-9.1,3.75-18.2,7.5-27.3,11.25-4.46,1.84-8.93,3.66-13.39,5.52-3.21,1.34-6.4,2.94-8.99,5.32-2.43,2.23-4.13,5.33-3.8,8.7.39,4.04,3.23,7.31,5.92,10.13,5.34,5.6,11.91,9.94,19.05,12.88,8.05,3.31,16.88,4.73,25.56,3.98l-1.06-2.56c-8.22,8.2-20.94,8.36-31.8,8.34-.8,0-1.52.69-1.5,1.5.16,7.26,6.45,11.99,13.03,13.53,8.53,1.99,16.38-1.61,23.92-5.25,4.38-2.11,8.77-4.21,13.55-5.27,5.15-1.14,10.46-1.19,15.71-1.34,10.28-.3,20.51-1.46,30.56-3.62,11.31-2.43,22.31-6.09,32.85-10.84.85-.38.98-1.76.3-2.36-6.63-5.8-11.61-13.27-14.35-21.65-.6-1.83-3.49-1.05-2.89.8,2.89,8.86,8.11,16.84,15.12,22.98l.3-2.36c-17.93,8.07-37.38,12.81-57.02,13.86-4.99.27-10,.2-14.99.67s-9.35,1.52-13.78,3.37c-4.16,1.73-8.12,3.88-12.25,5.67-3.65,1.58-7.59,2.98-11.61,2.98-6.55,0-15.29-3.53-15.46-11.16l-1.5,1.5c11.71.02,25.09-.4,33.92-9.22.86-.86.28-2.68-1.06-2.56-14.33,1.25-28.99-3.64-39.69-13.27-2.64-2.38-5.54-5.13-7.1-8.37-1.45-3.01-.66-6.03,1.6-8.35s5.13-3.76,8-5c4.06-1.76,8.19-3.38,12.28-5.07,9.56-3.94,19.12-7.88,28.67-11.82,1.2-.49,1.63-2.59,0-2.89-3.49-.64-4.23-4.65-3.73-7.66.71-4.34,4.3-7.32,7.14-10.38,1.64-1.76,3.23-3.64,4.31-5.81.52-1.05.87-2.2,1.51-3.19.81-1.25,2.2-1.54,3.56-1.92,5.94-1.66,11.88-3.32,17.82-4.98s12.2-3.41,18.3-5.11c3.05-.85,6.1-1.7,9.15-2.56.92-.26,2.48-.96,3.44-.51s1.06,2.09,1.26,2.96c2.76,12.15,5.51,24.29,8.27,36.44,3.1,13.68,6.21,27.37,9.31,41.05.43,1.88,3.32,1.09,2.89-.8h0Z"/>
        </g>
        <g id="RockShadows">
          <g>
            <path class="cls-5" d="M1991.54,459.51c-8.51-8.44-18.39-15.49-29.13-20.81-4.28-2.12-11.38-2.58-11.94,2.16,5.98,5.17,11.95,10.33,17.93,15.5-2.57,3.31-5.13,6.61-7.7,9.92-10.56-3.92-25.16-.72-28.38,10.08,8.07-6.09,20.83-4.59,27.28,3.19.93,1.12,1.86,2.43,3.28,2.74,1.26.28,2.54-.33,3.68-.94,10.2-5.52,19.13-13.38,25.89-22.81-3.51-.04-7.01-.39-10.45-1.04"/>
            <path class="cls-5" d="M1992.6,458.45c-7.89-7.79-16.91-14.45-26.71-19.64-3.63-1.92-7.44-3.63-11.66-2.99-1.58.24-3.12.89-4.14,2.16-.55.69-.9,1.49-1.05,2.36-.27,1.55,1.2,2.31,2.23,3.21,5.35,4.63,10.71,9.26,16.06,13.89v-2.12c-2.57,3.31-5.13,6.61-7.7,9.92l1.46-.39c-10.71-3.89-26.44-1.11-30.22,11.13-.36,1.17,1.13,2.49,2.2,1.69,6.86-5.07,17.19-4.67,23.6,1.03,1.64,1.46,2.78,3.65,4.77,4.67,2.54,1.3,5.11-.26,7.31-1.51,4.61-2.63,8.94-5.74,12.93-9.23,4.52-3.96,8.53-8.44,12.04-13.31.69-.96-.25-2.24-1.3-2.26-3.38-.06-6.73-.37-10.05-.98-1.89-.35-2.7,2.55-.8,2.89,3.59.66,7.21,1.03,10.85,1.09l-1.3-2.26c-6.07,8.42-13.89,15.56-22.82,20.84-1.07.63-2.16,1.33-3.3,1.83-1.48.65-2.37.34-3.41-.82-1.49-1.66-2.84-3.24-4.67-4.54-3.44-2.45-7.67-3.76-11.87-3.95-4.77-.23-9.64,1.08-13.5,3.93l2.2,1.69c3.3-10.67,17.48-12.33,26.53-9.04.45.16,1.16,0,1.46-.39,2.57-3.31,5.13-6.61,7.7-9.92.47-.6.67-1.54,0-2.12-5.98-5.17-11.95-10.33-17.93-15.5l.39,1.46c.42-2.89,3.94-2.82,6.21-2.4,3.77.71,7.21,2.97,10.47,4.88,7.97,4.67,15.31,10.34,21.89,16.82,1.38,1.36,3.5-.76,2.12-2.12h0Z"/>
          </g>
          <g>
            <path class="cls-5" d="M1978.59,447.56c-3.33-6.9-6.67-13.8-10-20.69,7.95,2.25,16.08,3.86,24.28,4.82,5.42.63,11.56.75,15.55-2.97,3.35-3.13,4.16-8.04,6.06-12.21,1.9-4.17,6.47-8.14,10.66-6.28.05-13-3.38-26.01-9.84-37.29,15.53,9.65,21.96,29.33,36.27,40.7-12.04,11.85-21.69,26.11-28.23,41.69-.69,1.64-1.49,3.45-3.13,4.13-1.23.51-2.63.25-3.94-.03-7.65-1.61-15.31-3.21-22.96-4.82,16.73,1.46,36.74,1.49,46.37-12.27,7.66-10.94,5.92-27.59,16.28-36.02-9.84-1.12-19.39-4.7-27.55-10.32"/>
            <path class="cls-5" d="M1979.88,446.8c-3.33-6.9-6.67-13.8-10-20.69l-1.69,2.2c5.05,1.42,10.16,2.6,15.32,3.51,4.68.82,9.51,1.68,14.27,1.7,4.12.02,8.4-.79,11.55-3.62,3.19-2.87,4.3-7.18,5.78-11.04s4.96-9.09,9.63-7.19c.92.38,1.9-.57,1.9-1.45.01-13.31-3.47-26.48-10.05-38.05l-2.05,2.05c12.18,7.65,18.62,21.23,27.54,32.01,2.54,3.08,5.31,5.96,8.43,8.45v-2.12c-7.31,7.22-13.77,15.31-19.19,24.04-2.73,4.4-5.2,8.97-7.38,13.67-.99,2.14-1.72,4.57-3,6.56-1.58,2.45-4.89,1.01-7.2.53-6.68-1.4-13.35-2.8-20.03-4.2l-.4,2.95c11.9,1.03,24.82,1.55,35.96-3.46,5.3-2.38,9.84-6.25,12.79-11.27s4.42-11.17,5.99-16.93c1.71-6.29,3.75-12.77,8.95-17.07,1.12-.93.08-2.43-1.06-2.56-9.61-1.13-18.81-4.66-26.79-10.11-1.6-1.09-3.1,1.51-1.51,2.59,8.44,5.77,18.16,9.33,28.3,10.52l-1.06-2.56c-9.32,7.72-9.2,20.93-13.72,31.28-2.28,5.22-5.93,9.48-10.92,12.27s-10.8,4.08-16.48,4.6c-6.8.63-13.66.29-20.46-.3-1.68-.15-2.05,2.6-.4,2.95,6.19,1.3,12.38,2.6,18.57,3.9,1.47.31,2.93.62,4.4.92s2.9.57,4.32.17c2.38-.67,3.55-2.85,4.44-4.96,4.18-9.81,9.46-19.1,15.89-27.61,3.69-4.88,7.75-9.48,12.1-13.78.53-.52.63-1.61,0-2.12-11.37-9.1-17.46-22.8-27.34-33.26-2.76-2.92-5.83-5.54-9.23-7.68-1.3-.82-2.77.78-2.05,2.05,6.32,11.12,9.65,23.75,9.64,36.54l1.9-1.45c-3.9-1.59-7.93.79-10.36,3.81-2.7,3.36-3.4,7.61-5.25,11.41-.93,1.91-2.17,3.63-4.01,4.75-1.7,1.03-3.7,1.52-5.67,1.7-4.59.4-9.3-.41-13.82-1.15-5.88-.95-11.7-2.25-17.44-3.87-1.34-.38-2.24,1.07-1.69,2.2,3.33,6.9,6.67,13.8,10,20.69.84,1.74,3.43.22,2.59-1.51h0Z"/>
          </g>
          <g>
            <path class="cls-5" d="M1906.7,92.77c-1.51-1.17-2.85-2.57-3.94-4.14-3.35-4.82-4.25-10.88-5.05-16.7-2.24-16.23-4.48-32.46-6.72-48.69-11.68,8.65-22.33,18.69-31.64,29.86,6.01-.07,11.92,3.47,14.69,8.8,2.77,5.33,2.28,12.2-1.23,17.08-2.98,4.15-8.13,7.46-8.16,12.57-7.27-3.23-14.53-6.47-21.8-9.7-1.37-.61-2.8-1.26-3.73-2.45-1.74-2.23-1.11-5.41-1.29-8.24-.42-6.51-5.91-12.01-12.24-13.6-6.33-1.59-13.16.25-18.65,3.77,7.6,7.12,12.56,16.99,13.76,27.33.32,2.78,2.71,5.19,5.49,5.53-2.85,1.42-5.69,2.84-8.54,4.26,5.09-1.91,10.42,4.22,9.43,9.56-.98,5.35-6.02,9.06-11.16,10.83-3.24,1.12-6.97,1.64-10,.04-2.52-1.33-4.1-3.89-6.01-6.01-2.31-2.57-5.47-4.67-8.92-4.64s-6.97,2.89-6.76,6.34c.11,1.76,1.12,3.37,2.41,4.57,6.85,6.39,18.13,1.43,24.95-4.99,6.82-6.42,13.64-14.72,23-14.83,6.04-.07,11.55,3.45,17.52,4.39,7.86,1.24,15.62-2.03,23.26-4.24,10.85-3.14,22.17-4.19,33.41-5.23-4.07-3.01-8.13-6.01-12.2-9.02"/>
            <path class="cls-5" d="M1907.76,91.71c-7.04-5.55-7.84-14.61-8.98-22.88-1.35-9.75-2.69-19.51-4.04-29.26-.77-5.57-1.54-11.15-2.31-16.72-.13-.91-1.49-1.43-2.2-.9-11.79,8.75-22.52,18.83-31.94,30.09-.8.96-.32,2.56,1.06,2.56,6.44,0,12.56,4.28,14.38,10.53.92,3.19.76,6.63-.4,9.74s-3.52,5.36-5.71,7.76c-2.32,2.54-4.37,5.34-4.47,8.91l2.26-1.3c-5.6-2.49-11.2-4.99-16.8-7.48-2.4-1.07-5.17-1.94-7.34-3.43s-1.9-4.12-1.89-6.41c.02-4.53-1.54-8.62-4.75-11.86s-7.53-5.13-12.08-5.51c-5.75-.48-11.53,1.44-16.35,4.48-.79.5-1.03,1.67-.3,2.36,5.08,4.8,8.98,10.78,11.26,17.4.55,1.6,1.01,3.23,1.38,4.87s.46,3.42.86,5.08c.73,3,3.38,5.42,6.42,5.89l-.36-2.74c-2.85,1.42-5.69,2.84-8.54,4.26-1.51.75-.46,3.29,1.16,2.74,2.72-.93,5.24.79,6.59,3.1,1.53,2.61,1.23,5.51-.34,8.03-1.66,2.67-4.43,4.54-7.26,5.78-2.98,1.3-6.86,2.34-9.99.96s-4.78-4.85-7.2-7.1-5.75-4.13-9.21-3.92c-2.94.18-5.93,1.92-7.23,4.63-1.47,3.07-.33,6.41,2.02,8.7,4.58,4.45,11.31,4.14,16.86,1.87,3.05-1.25,5.84-2.97,8.41-5.04s4.67-4.35,6.96-6.56c4.4-4.25,9.58-9.03,16.01-9.47,3.66-.25,7.13.96,10.54,2.15,3.61,1.26,7.2,2.4,11.06,2.47,7.97.13,15.44-3.29,23.02-5.25,7.96-2.06,16.14-3.09,24.3-3.9,2.06-.2,4.12-.39,6.18-.58,1.53-.14,1.97-1.9.76-2.8-4.07-3.01-8.13-6.01-12.2-9.02-1.55-1.15-3.05,1.45-1.51,2.59,4.07,3.01,8.13,6.01,12.2,9.02l.76-2.8c-8.21.76-16.44,1.52-24.54,3.08-3.95.76-7.85,1.74-11.7,2.93-3.83,1.18-7.64,2.48-11.58,3.21s-7.78.67-11.61-.42c-3.61-1.03-7.05-2.61-10.75-3.32-6.71-1.29-12.62,1.2-17.82,5.31s-9.15,9.42-14.63,13c-4.77,3.12-11.73,5.95-17.1,2.58-2.52-1.59-4.61-4.83-2.24-7.46s5.77-2.27,8.49-.69c3.08,1.78,4.78,4.83,7.27,7.24,2.61,2.53,5.94,3.49,9.52,3.06,6.14-.75,13.05-4.4,15.63-10.29,1.24-2.82,1.28-5.79-.01-8.6-1.18-2.56-3.48-4.83-6.26-5.55-1.39-.36-2.84-.29-4.19.17l1.16,2.74c2.85-1.42,5.69-2.84,8.54-4.26,1.09-.54.92-2.55-.36-2.74-1.44-.22-2.7-.9-3.55-2.1-.92-1.3-.93-2.87-1.18-4.39-.54-3.27-1.45-6.47-2.69-9.54-2.52-6.21-6.3-11.83-11.17-16.44l-.3,2.36c7.73-4.88,18.58-6.31,25.29,1.08,1.4,1.54,2.47,3.4,3,5.42s.27,4.23.4,6.37c.14,2.34.85,4.5,2.74,5.98s4.4,2.3,6.59,3.27c6.06,2.69,12.11,5.39,18.17,8.08,1.03.46,2.22-.07,2.26-1.3.09-3.33,2.69-5.83,4.82-8.11,2.45-2.63,4.58-5.35,5.61-8.85,2.06-7.02-.3-14.67-6.1-19.15-3.19-2.46-7.1-3.83-11.14-3.83l1.06,2.56c9.24-11.06,19.76-21.03,31.33-29.62l-2.2-.9c1.38,10,2.76,20,4.14,30,.7,5.08,1.4,10.16,2.11,15.25.6,4.34,1.06,8.75,2.27,12.98,1.34,4.67,3.74,8.93,7.59,11.96,1.5,1.18,3.64-.93,2.12-2.12h0Z"/>
          </g>
          <g>
            <path class="cls-5" d="M1564.43,377.9c-6.32-.2-12.54-2.68-17.26-6.88,7.68-8.51,10.8-20.91,8.07-32.04-6.74.79-13.36,2.56-19.6,5.22-.87.37-1.79.81-2.24,1.64-.6,1.1-.17,2.45.2,3.65,3.05,9.74,1.46,20.83-4.21,29.32,3.95,2.25,7.89,4.49,11.84,6.74,1.6.91,3.35,1.86,5.18,1.66,2.83-.3,4.61-3.07,6.85-4.83,2.23-1.76,6.61-1.72,6.86,1.12-2.68,8.57-11.45,14.82-20.42,14.57-.31-4.25-.55-8.83,1.66-12.47,2.21-3.65,7.91-5.42,10.79-2.27"/>
            <path class="cls-5" d="M1564.43,376.4c-5.96-.24-11.71-2.52-16.2-6.44v2.12c8.04-9.02,11.27-21.74,8.45-33.5-.14-.57-.82-1.18-1.45-1.1-4.19.51-8.34,1.32-12.39,2.53-1.99.59-3.96,1.27-5.9,2.04-1.58.63-3.47,1.18-4.54,2.59-1.21,1.58-.79,3.49-.26,5.25s.99,3.68,1.22,5.58c.45,3.64.3,7.37-.45,10.97-.87,4.16-2.49,8.07-4.83,11.62-.44.67-.14,1.67.54,2.05,2.25,1.28,4.51,2.57,6.76,3.85s4.33,2.61,6.59,3.7c1.94.94,4.07,1.46,6.15.66,1.76-.67,3.11-2,4.43-3.29,1.15-1.12,2.24-2.18,3.91-2.32.52-.04,1.15-.04,1.63.22.2.11.3.23.44.4.04.05.09.37.09.32-.02-.4-.13.02-.19.14-.45.81-.72,1.75-1.18,2.57s-.98,1.64-1.56,2.39c-1.15,1.49-2.53,2.84-4.05,3.95-3.48,2.54-7.64,3.96-11.96,3.88l1.5,1.5c-.29-3.96-.8-9,1.88-12.33,1.8-2.24,5.73-3.69,8.01-1.35,1.35,1.39,3.47-.74,2.12-2.12-3.23-3.32-8.52-2.23-11.62.69-4.03,3.79-3.76,10.07-3.39,15.11.06.82.64,1.48,1.5,1.5,8.53.15,16.91-4.98,20.66-12.66.89-1.82,1.89-3.82.43-5.6-1.03-1.26-2.73-1.71-4.3-1.61-1.86.12-3.44.86-4.83,2.08-1.49,1.31-2.92,3.37-4.95,3.86-1.4.34-2.76-.32-3.96-.97-1.39-.75-2.76-1.56-4.13-2.34-2.82-1.6-5.64-3.21-8.46-4.81l.54,2.05c3.85-5.86,5.9-12.82,5.93-19.83.01-3.46-.47-6.94-1.45-10.26-.22-.74-.67-1.68-.56-2.47.12-.88,1.07-1.2,1.79-1.51,1.79-.77,3.63-1.44,5.48-2.04,4.34-1.42,8.82-2.42,13.35-2.97l-1.45-1.1c2.56,10.68-.37,22.38-7.68,30.59-.51.57-.64,1.56,0,2.12,5.11,4.47,11.54,7.05,18.32,7.32,1.93.08,1.93-2.92,0-3h0Z"/>
          </g>
          <g>
            <path class="cls-5" d="M1598.15,376.62c-5.47-1.37-11.62.46-15.44,4.61,1.49,1.12,2.59,2.74,3.08,4.53-3.31,1.24-6.83,1.91-10.37,1.97,4.46.85,8.98,1.42,13.52,1.7,4.57.28,9.92-.1,12.52-3.87s-2.05-10.49-5.68-7.71"/>
            <path class="cls-5" d="M1598.55,375.17c-6.07-1.44-12.61.45-16.9,4.99-.51.54-.65,1.61,0,2.12,1.3,1.03,2.21,2.27,2.69,3.87l1.05-1.85c-3.22,1.18-6.54,1.83-9.97,1.92-1.62.04-2.12,2.62-.4,2.95,4.12.78,8.28,1.34,12.46,1.66,3.16.24,6.44.35,9.52-.55,2.63-.77,5.36-2.47,6.35-5.16.87-2.35.12-5.07-1.37-7-1.67-2.15-4.55-3.28-6.96-1.57-1.56,1.11-.06,3.71,1.51,2.59,1.78-1.26,3.42.82,3.94,2.43.83,2.55-.92,4.46-3.19,5.43-2.75,1.17-5.92,1.08-8.84.89-4.24-.28-8.46-.83-12.63-1.62l-.4,2.95c3.68-.09,7.31-.76,10.77-2.03.75-.27,1.3-1.02,1.05-1.85-.62-2.06-1.77-3.86-3.46-5.19v2.12c3.56-3.76,8.93-5.42,13.98-4.22,1.88.45,2.68-2.45.8-2.89h0Z"/>
          </g>
          <g>
            <path class="cls-5" d="M1854.87,317.14c-2.54,4.39-5.09,8.78-7.63,13.17-1.34-4.26-4.05-8.07-7.63-10.73-1.42,5.09-1.56,10.53-.4,15.69-4.2,1.73-7.81,4.87-10.12,8.79,10.21.99,20.67-5.7,24.04-15.39"/>
            <path class="cls-5" d="M1853.58,316.38c-2.54,4.39-5.09,8.78-7.63,13.17l2.74.36c-1.52-4.69-4.4-8.66-8.32-11.63-.79-.6-1.97.05-2.2.9-1.47,5.4-1.59,11.02-.4,16.49l.69-1.69c-4.45,1.89-8.17,5.19-10.65,9.33-.63,1.05.2,2.16,1.3,2.26,11,.97,21.79-6.16,25.49-16.49.65-1.82-2.25-2.61-2.89-.8-3.27,9.15-12.98,15.14-22.59,14.29l1.3,2.26c2.24-3.73,5.57-6.55,9.58-8.25.62-.26.82-1.1.69-1.69-1.08-4.94-.92-10.02.4-14.89l-2.2.9c3.27,2.47,5.68,5.95,6.94,9.84.39,1.2,2.07,1.51,2.74.36,2.54-4.39,5.09-8.78,7.63-13.17.97-1.67-1.62-3.19-2.59-1.51h0Z"/>
          </g>
          <g>
            <path class="cls-5" d="M1443.35,524.26c-6.43-3.89-13.66-6.48-21.1-7.55-.48,13.29-18.08,22.37-29.19,15.07,3.58-11.34,8.47-22.28,14.53-32.51-3.74-2.47-7.49-4.94-11.23-7.41-1.79-1.18-4.2-2.36-5.92-1.09-1.09.81-1.39,2.28-1.61,3.62-1.21,7.38-2.41,14.75-3.62,22.13-.89,5.44-2.47,11.79-7.59,13.84-3.14,1.25-6.69.43-9.9-.62-7.84-2.57-15.25-6.45-21.83-11.42-7.99-1.46-12.15,11.08-7.03,17.39,5.11,6.31,14.15,7.42,22.24,8.06,1.23.1,2.46.19,3.7.29,9.15.72,18.6,1.53,26.72,5.81-15.85,8.93-37.55,5.81-50.24-7.24-3.79-3.9-7.76-8.97-13.18-8.59,4.45-5.76,6.91-13.03,6.85-20.31-7.01-.64-13.82-3.3-19.41-7.59,2.82,10.6-3.53,22.82-13.83,26.61,9.31,6.4,21.46,8.5,32.39,5.6-15.18,14.01-41.18,14.08-56.43.15-5.84-5.34-10.9-12.73-18.74-13.83-6.85,13.73-19.44,24.49-34.08,29.1,11.12,4,22.64,8.07,34.44,7.26,11.79-.81,24.01-7.83,27.06-19.26-7.17-1.59-13.31-7.21-15.52-14.22,18.16,14.56,45.05,17.19,65.69,6.43"/>
            <path class="cls-5" d="M1444.11,522.97c-6.58-3.94-13.88-6.58-21.46-7.7-.98-.15-1.85.38-1.9,1.45-.56,12.29-16.67,20.38-26.93,13.78l.69,1.69c3.56-11.23,8.39-22.01,14.38-32.15.43-.73.14-1.61-.54-2.05-3.19-2.1-6.38-4.21-9.57-6.31-2.37-1.56-5.48-3.92-8.47-2.54s-3.03,5.49-3.49,8.31c-.62,3.77-1.23,7.54-1.85,11.31-.53,3.25-.98,6.53-1.64,9.75-.52,2.55-1.23,5.15-2.66,7.37-3.88,6.01-11.39,3.03-16.72.92-3.17-1.25-6.24-2.74-9.2-4.43-1.41-.8-2.79-1.65-4.15-2.54-.62-.4-1.22-.82-1.83-1.24-.74-.52-1.5-1.27-2.32-1.64-1.73-.76-4.29-.06-5.83.83-1.71.99-3.06,2.6-3.95,4.36-1.93,3.85-2.17,8.61-.28,12.51,2.25,4.64,7.49,7.35,12.22,8.71,6.49,1.87,13.41,1.93,20.1,2.52,7.54.67,15.23,1.75,22.03,5.28v-2.59c-7.91,4.41-17.31,5.8-26.21,4.3s-17.13-5.92-23.48-12.64c-3.47-3.68-7.46-7.96-12.97-7.69l1.3,2.26c4.6-6.03,7.06-13.49,7.05-21.07,0-.87-.69-1.42-1.5-1.5-6.79-.66-13.23-3.27-18.65-7.38-1.1-.83-2.5.54-2.2,1.69,2.53,9.87-3.21,21.15-12.78,24.76-1.23.46-1.47,1.99-.36,2.74,9.73,6.61,22.17,8.7,33.54,5.75l-1.46-2.51c-7.96,7.28-18.88,10.59-29.56,10.05-5.36-.27-10.74-1.54-15.6-3.84-5.01-2.37-9.02-5.78-12.85-9.72-4.41-4.53-9.14-9.56-15.7-10.57-.63-.1-1.37.06-1.69.69-6.75,13.42-18.86,23.84-33.18,28.41-1.46.47-1.38,2.4,0,2.89,10.44,3.76,21.24,7.58,32.48,7.41,8.58-.13,17.25-3.02,23.65-8.87,3.42-3.12,5.97-7.12,7.21-11.59.21-.76-.26-1.66-1.05-1.85-6.71-1.55-12.33-6.6-14.47-13.17l-2.51,1.46c14.63,11.65,34.35,15.95,52.59,12.03,5.19-1.11,10.21-2.93,14.92-5.37,1.72-.89.2-3.48-1.51-2.59-15.65,8.09-34.96,8.42-51.08,1.44-4.57-1.98-8.9-4.53-12.8-7.63-1.06-.85-3.02-.11-2.51,1.46,2.45,7.54,8.82,13.48,16.56,15.27l-1.05-1.85c-2.06,7.48-8.27,12.94-15.31,15.76-8.79,3.52-18.34,2.85-27.37.62-5.77-1.42-11.38-3.42-16.97-5.43v2.89c15.03-4.8,27.87-15.68,34.97-29.79l-1.69.69c6,.92,10.22,5.52,14.24,9.66s8.31,7.83,13.59,10.32c10.08,4.76,21.92,5.59,32.59,2.41,6.01-1.79,11.57-4.86,16.2-9.09,1.14-1.04-.06-2.87-1.46-2.51-10.64,2.77-22.14.73-31.23-5.44l-.36,2.74c11.11-4.2,17.84-16.9,14.87-28.45l-2.2,1.69c5.86,4.44,12.86,7.08,20.17,7.79l-1.5-1.5c0,7.09-2.35,13.92-6.64,19.55-.69.91.24,2.31,1.3,2.26,4.87-.24,8.32,4.16,11.36,7.36,3.22,3.39,6.92,6.27,11.08,8.43,8.18,4.26,17.67,5.93,26.81,4.72,5.24-.69,10.3-2.32,14.92-4.89.95-.53,1-2.07,0-2.59-11.29-5.86-24.06-5.25-36.33-6.81-5-.64-10.44-1.84-14.3-5.3-3.14-2.81-4.21-6.74-3.11-10.81.46-1.69,1.28-3.32,2.58-4.52,1.03-.96,3.01-1.93,4.37-1.25,1.27.64,2.42,1.75,3.62,2.54,1.35.89,2.74,1.74,4.15,2.54,2.8,1.59,5.71,3,8.69,4.23,5.27,2.19,12.19,5.12,17.63,1.89,4.36-2.59,5.95-7.95,6.83-12.63,1.44-7.68,2.53-15.44,3.8-23.16.2-1.22.3-3.43,1.9-3.56s3.13,1.19,4.33,1.98c3.47,2.29,6.93,4.57,10.4,6.86l-.54-2.05c-6.12,10.36-11.05,21.4-14.69,32.87-.21.65.14,1.34.69,1.69,9.52,6.12,22.97,1.54,28.73-7.65,1.65-2.63,2.57-5.63,2.71-8.72l-1.9,1.45c7.35,1.09,14.37,3.57,20.74,7.39,1.66,1,3.17-1.6,1.51-2.59h0Z"/>
          </g>
          <g>
            <path class="cls-5" d="M842.77,454.83c-4.7,3.14-7.75,8.63-7.91,14.28,5.64-.93,12.12-1.64,16.42,2.13,1.49,1.3,2.54,3.03,3.99,4.37,3.64,3.39,9.05,3.83,14.02,4.1-1.38,3.61-5.63,5.38-9.49,5.28-3.86-.1-7.52-1.62-11.22-2.72-9-2.69-18.71-2.94-27.84-.72-2.55-13.79,5.3-28.83,18.07-34.61"/>
            <path class="cls-5" d="M842.02,453.53c-5.18,3.54-8.4,9.3-8.66,15.57-.04,1.06.99,1.6,1.9,1.45,3.04-.5,6.18-.94,9.26-.56,1.44.17,2.9.56,4.17,1.26,1.51.83,2.59,2.07,3.67,3.38,2.07,2.49,4.44,4.26,7.55,5.24s6.23,1.17,9.37,1.34l-1.45-1.9c-1.26,3.05-5.01,4.24-8.05,4.18-4.5-.09-8.74-2.2-13.05-3.28-8.65-2.17-17.75-2.17-26.41-.11l1.85,1.05c-2.37-13.27,5.21-27.31,17.38-32.92,1.75-.81.23-3.39-1.51-2.59-13.46,6.2-21.35,21.79-18.76,36.31.15.82,1.12,1.22,1.85,1.05,9.41-2.24,19.17-1.79,28.37,1.13,4.24,1.35,8.58,2.92,13.09,2.13,3.59-.63,6.73-2.74,8.13-6.15.4-.96-.58-1.85-1.45-1.9-3.18-.18-6.46-.38-9.47-1.54-1.41-.55-2.72-1.35-3.79-2.42-1.25-1.24-2.22-2.75-3.53-3.94-4.91-4.47-12.01-3.64-18.04-2.66l1.9,1.45c.21-5.16,2.9-10.06,7.17-12.98,1.58-1.08.09-3.68-1.51-2.59h0Z"/>
          </g>
          <g>
            <path class="cls-5" d="M767.81,468.99c-1.92-.79-4.4.41-4.97,2.41,2.31,1.24,4.75,2.59,6.01,4.88s.69,5.79-1.77,6.68c-1.05.38-2.21.22-3.29-.05-4.16-1.06-8.02-4.26-8.69-8.5s2.97-8.96,7.22-8.44"/>
            <path class="cls-5" d="M768.21,467.55c-2.78-1.04-5.93.7-6.82,3.45-.2.61.12,1.39.69,1.69,2.12,1.13,5.04,2.53,5.75,5.05.26.91.24,1.93-.19,2.79-.51,1.01-1.48,1.26-2.56,1.12-4.6-.6-9.89-5.15-8.24-10.18.77-2.36,2.91-4.26,5.48-4,.81.08,1.5-.75,1.5-1.5,0-.88-.69-1.42-1.5-1.5-3.31-.33-6.38,1.91-7.79,4.79-1.56,3.19-1.19,6.84.87,9.73s5.28,4.92,8.73,5.53c1.9.34,3.94.12,5.31-1.37,1.08-1.17,1.58-2.78,1.55-4.35-.08-4.37-3.95-6.85-7.4-8.7l.69,1.69c.42-1.31,1.92-1.81,3.13-1.36.76.28,1.64-.32,1.85-1.05.23-.84-.29-1.56-1.05-1.85h0Z"/>
          </g>
          <g>
            <path class="cls-5" d="M494.99,476.72c-3.59,3.69-6.07,8.44-7.03,13.5,3.62,4.27,14.16-.19,14.42,5.4.06,1.27-.68,2.43-1.15,3.61-1.75,4.41.72,10.01,5.16,11.69-10.76,5.17-24.62,2.92-33.2-5.38,5.33-7.74,8.81-16.75,10.07-26.06"/>
            <path class="cls-5" d="M493.93,475.66c-3.1,3.22-5.43,7.12-6.74,11.4-.29.94-.78,2.17-.74,3.16.05.92.88,1.58,1.59,2.06,1.11.76,2.44,1.13,3.76,1.32,1.53.23,3.07.26,4.62.32,1.14.04,2.45.02,3.52.47s1.11,1.3.69,2.47c-.7,1.97-1.54,3.58-1.46,5.74.16,4.32,2.82,8.16,6.82,9.77l-.36-2.74c-10.25,4.83-23.21,2.66-31.38-5.14l.23,1.82c5.38-7.88,8.9-16.96,10.22-26.42.26-1.89-2.63-2.7-2.89-.8-1.29,9.23-4.66,18-9.92,25.7-.36.53-.22,1.38.23,1.82,9.21,8.79,23.52,11.03,35.02,5.61,1.3-.61.71-2.31-.36-2.74-3.06-1.23-4.95-4.79-4.59-8.02.22-1.92,1.56-3.48,1.67-5.42.07-1.24-.32-2.52-1.21-3.41-1.71-1.7-4.53-1.65-6.76-1.73s-5.24.09-6.89-1.75l.39,1.46c.96-4.85,3.22-9.27,6.65-12.84,1.34-1.39-.78-3.52-2.12-2.12h0Z"/>
          </g>
          <g>
            <path class="cls-5" d="M260.01,528.98c2.85,4.06,5.69,8.11,8.54,12.17-5.99.82-12.08.91-18.1.25,1.65-7.17,6.37-13.57,12.73-17.26"/>
            <path class="cls-5" d="M258.72,529.74c2.85,4.06,5.69,8.11,8.54,12.17l.9-2.2c-5.86.79-11.82.82-17.7.19l1.45,1.9c1.61-6.84,5.99-12.8,12.04-16.36,1.66-.98.16-3.57-1.51-2.59-6.7,3.93-11.64,10.59-13.42,18.16-.24,1.03.46,1.79,1.45,1.9,6.17.66,12.35.53,18.49-.3.93-.12,1.4-1.48.9-2.2-2.85-4.06-5.69-8.11-8.54-12.17-1.1-1.57-3.7-.07-2.59,1.51h0Z"/>
          </g>
          <g>
            <path class="cls-5" d="M1987.08,429.68c-3.69,3.4-9.55.71-13.73-2.05-7.74-5.12-15.47-10.24-23.21-15.36-4.28-2.84-8.92-8.84-5.04-12.21-6.74-.09-13.47,2.92-17.89,8.01-1.03,1.19-1.99,2.69-1.65,4.23.34,1.55,1.87,2.5,3.25,3.28,9.29,5.19,18.57,10.38,27.86,15.57,7.36,4.11,15.61,8.36,23.81,6.45"/>
            <path class="cls-5" d="M1986.02,428.62c-2.4,2.08-5.91.95-8.44-.28-3.42-1.66-6.53-4.03-9.69-6.12-3.52-2.33-7.05-4.66-10.57-6.99-3.08-2.04-6.53-3.87-9.13-6.52-1.78-1.82-4.5-5.3-2.03-7.59.97-.9.2-2.56-1.06-2.56-5.43-.02-10.82,1.72-15.17,4.98-2.12,1.59-4.48,3.61-5.5,6.11s.05,4.79,2.15,6.3c2.53,1.82,5.5,3.17,8.22,4.69,2.97,1.66,5.95,3.32,8.92,4.99,5.79,3.23,11.5,6.67,17.44,9.62s12.84,5.31,19.71,3.79c1.88-.41,1.09-3.31-.8-2.89-5.4,1.19-10.84-.43-15.74-2.69-5.22-2.41-10.17-5.43-15.19-8.23-5.15-2.88-10.3-5.76-15.45-8.64-1.23-.69-2.47-1.38-3.7-2.07-.92-.52-2.1-1.04-2.7-1.95-1.28-1.92,1.8-4.43,3.06-5.55,4.04-3.56,9.37-5.49,14.73-5.46l-1.06-2.56c-2.6,2.41-2.14,5.92-.44,8.72,2.15,3.53,5.52,5.68,8.89,7.91,4.14,2.74,8.29,5.49,12.43,8.23,3.79,2.51,7.52,5.44,11.67,7.33,3.78,1.72,8.15,2.51,11.54-.44,1.46-1.27-.67-3.38-2.12-2.12h0Z"/>
          </g>
          <g>
            <path class="cls-5" d="M1808.14,89.98c1.21.96,2.43,1.92,3.64,2.88-17.31-2.85-33.77-10.71-46.88-22.38-4.18,2.76-4.26,9.25-1.51,13.44,2.75,4.19,7.43,6.62,11.9,8.87,8.51,4.28,17.23,8.64,26.68,9.85s19.94-1.29,25.95-8.69c-.34-1.55-2.32-2.48-3.73-1.76"/>
            <path class="cls-5" d="M1807.08,91.04c1.21.96,2.43,1.92,3.64,2.88l1.46-2.51c-17.1-2.86-33.24-10.49-46.21-22-.47-.42-1.25-.62-1.82-.23-4.89,3.39-5.17,10.43-2.22,15.22,3.67,5.96,10.87,8.86,16.89,11.81,12.68,6.22,27.29,11.53,41.09,5.53,3.2-1.39,6.16-3.43,8.48-6.04.61-.69,1.21-1.31.94-2.3-.21-.77-.7-1.45-1.3-1.95-1.35-1.11-3.03-1.24-4.59-.56-1.77.76-.24,3.34,1.51,2.59.63-.27,1.36.29,1.53.86l.39-1.46c-6.84,8.27-18.53,9.79-28.49,7.6-6.24-1.38-12.12-3.96-17.83-6.76-4.92-2.41-10.55-4.67-14.38-8.72-3.14-3.32-5-10.1-.49-13.23l-1.82-.23c13.35,11.84,29.93,19.83,47.54,22.77,1.29.21,2.77-1.47,1.46-2.51-1.21-.96-2.43-1.92-3.64-2.88-1.5-1.19-3.63.92-2.12,2.12h0Z"/>
          </g>
          <g>
            <path class="cls-5" d="M1775.94,467.39c5.02-6.05,5.72-15.75.53-21.67s-16.11-5.88-20.33.76c-4.24,6.68-1.83,17.74-8.97,21.15-5.99,2.86-16.34-1.23-17.83,5.24-.98,4.26,4.35,8.35,2.82,12.43-.74,1.98-2.84,3.05-4.81,3.8-16.03,6.05-37.45,3.81-46.56,18.33-.85,1.35-1.56,2.9-1.4,4.49.41,4.07,5.58,5.42,9.66,5.76,22.3,1.85,44.6,3.7,66.9,5.55,3.21.27,6.63.49,9.44-1.07,3.58-1.98,5.15-6.22,6.32-10.14,5.49-18.48,8.23-37.79,8.08-57.07-7.44,5.71-15.95,10.03-24.96,12.66-13.45,3.93-29.8,5.34-37.02,17.35-2.85,4.75-3.96,10.83-8.41,14.12-2.57,1.9-5.84,2.5-8.99,3.06-12.99,2.29-25.98,4.59-38.96,6.88-4.88.86-9.81,1.73-14.77,1.55-6.51-.24-12.8-2.26-19.02-4.22-10.72-3.38-21.71-6.62-32.95-6.39s-22.94,4.49-29.58,13.55c16.74,13.43,32.36,28.25,46.67,44.25,20.72-10.97,40.64-23.46,59.55-37.32-4.44-10.69-17.47-15.27-29.04-14.77s-22.63,4.78-34.09,6.36c-11.1,1.53-22.55.5-33.2-3.01-3.33-1.1-7.31-2.34-10.08-.18-1.58,1.23-2.27,3.26-2.87,5.17-2.11,6.63-4.21,13.26-6.32,19.89,13.72,1.73,27.29,4.6,40.53,8.57,1.23-2.02,2.46-4.03,3.69-6.05"/>
            <path class="cls-5" d="M1777,468.45c3.34-4.12,5.04-9.48,4.42-14.78-.59-5.02-3.29-9.77-7.91-12.08-4.1-2.05-9.07-2.28-13.28-.43-4.44,1.95-6.63,6.04-7.71,10.57-.97,4.05-.98,9.02-3.52,12.5s-7.45,3.06-11.26,3.13-8.34.44-9.7,4.6c-.78,2.38.08,4.73,1.11,6.88.86,1.81,2.56,4.3,1.43,6.33s-4.35,2.8-6.45,3.45c-2.38.74-4.8,1.33-7.23,1.85-4.93,1.06-9.92,1.83-14.84,2.94-8.93,2.02-19.31,5.8-23.4,14.8-1.12,2.47-1.06,5.23.78,7.33,1.51,1.73,3.86,2.62,6.04,3.11,2.94.66,6.02.73,9.02.98,3.63.3,7.27.6,10.9.9,14.54,1.2,29.07,2.41,43.61,3.61,3.43.28,6.89.74,10.33.76,2.99.02,5.93-.57,8.3-2.48,4.46-3.6,5.69-10.31,7.07-15.54,3.59-13.53,5.72-27.45,6.38-41.43.16-3.5.23-7.01.21-10.51,0-1.03-1.31-2.01-2.26-1.3-6.49,4.95-13.72,8.89-21.45,11.52-6.42,2.19-13.12,3.39-19.63,5.26-6.02,1.73-12.08,4.04-16.83,8.25-2.4,2.13-4.3,4.73-5.71,7.6s-2.51,6.21-4.4,8.97c-2.21,3.23-5.64,4.42-9.34,5.14-4.35.84-8.73,1.55-13.09,2.32-9.01,1.59-18.02,3.18-27.03,4.77-4.44.78-8.9,1.6-13.42,1.6s-8.73-.87-12.97-2.04c-8.5-2.36-16.78-5.42-25.46-7.13-14.49-2.85-31.17-1.92-42.4,8.86-1.27,1.22-2.4,2.56-3.45,3.97-.36.48-.24,1.44.23,1.82,13,10.44,25.34,21.7,36.9,33.72,3.32,3.45,6.57,6.96,9.76,10.53.45.51,1.25.54,1.82.23,16.16-8.57,31.84-18.04,46.92-28.37,4.26-2.92,8.46-5.9,12.62-8.95.72-.53.89-1.24.54-2.05-3.02-7.1-9.72-11.66-16.92-13.85-8.65-2.63-17.6-1.7-26.31.14-10.31,2.18-20.33,5.21-30.97,5.25-5.16.02-10.32-.5-15.36-1.58-2.59-.55-5.14-1.25-7.66-2.07-2.02-.66-4.07-1.3-6.21-1.41-2.36-.11-4.71.67-6.24,2.53s-2.2,4.47-2.95,6.81c-1.91,6-3.81,12-5.72,18-.33,1.03.53,1.78,1.45,1.9,13.58,1.73,27.01,4.6,40.13,8.52.64.19,1.35-.13,1.69-.69,1.23-2.02,2.46-4.03,3.69-6.05,1.01-1.65-1.59-3.16-2.59-1.51-1.23,2.02-2.46,4.03-3.69,6.05l1.69-.69c-13.39-4-27.07-6.86-40.93-8.62l1.45,1.9c1.6-5.05,3.21-10.1,4.81-15.16.71-2.22,1.29-4.55,2.19-6.7.8-1.89,2.13-3.21,4.26-3.28s4.05.62,5.97,1.25c2.28.74,4.59,1.4,6.93,1.93,4.83,1.09,9.79,1.72,14.74,1.85,9.95.28,19.45-1.92,29.06-4.19,8.55-2.02,17.45-3.91,26.22-2.16,7.84,1.56,15.42,5.72,18.66,13.36l.54-2.05c-14.75,10.81-30.11,20.79-45.99,29.86-4.48,2.56-9,5.04-13.56,7.46l1.82.23c-11.12-12.43-23.02-24.15-35.64-35.06-3.62-3.13-7.3-6.19-11.03-9.19l.23,1.82c9.18-12.36,26.26-14.27,40.36-11.84,8.63,1.48,16.89,4.36,25.26,6.86,4.16,1.24,8.39,2.29,12.73,2.67s8.73-.11,13.04-.79c8.91-1.42,17.79-3.12,26.67-4.69,4.46-.79,8.93-1.58,13.39-2.37,3.9-.69,8.15-1.11,11.58-3.26,5.93-3.72,6.76-11.2,10.57-16.55,3.57-5.01,9.31-7.89,15-9.82,6.17-2.09,12.59-3.3,18.85-5.04,7.63-2.12,14.96-5.35,21.62-9.64,1.72-1.11,3.4-2.3,5.03-3.55l-2.26-1.3c.08,13.26-1.16,26.51-3.77,39.51-1.26,6.3-2.74,12.63-4.75,18.73-.76,2.3-1.72,4.69-3.47,6.43-2.1,2.08-4.99,2.39-7.82,2.28-6.63-.25-13.27-1.06-19.88-1.61-6.94-.58-13.88-1.15-20.81-1.73-6.77-.56-13.55-1.12-20.32-1.68-3.19-.26-6.43-.39-9.59-.82-2.02-.28-4.39-.78-5.93-2.22-1.95-1.82-.76-4.32.5-6.2s2.72-3.41,4.42-4.75c3.4-2.68,7.51-4.3,11.63-5.48,9.01-2.58,18.47-3.25,27.38-6.21,2.27-.75,4.79-1.58,6.45-3.4s1.94-4.23,1.2-6.5c-.86-2.64-5.12-8.14-1.15-10.14,1.52-.77,3.41-.76,5.07-.8,2.04-.05,4.08-.01,6.1-.26,4.2-.52,7.51-2.55,9.21-6.53s1.82-8.21,2.96-12.26c.55-1.97,1.34-3.94,2.8-5.42s3.3-2.34,5.28-2.76c3.91-.83,8.38.3,11.21,3.19,3.46,3.55,4.21,9.01,3.02,13.66-.59,2.3-1.64,4.48-3.13,6.33-1.21,1.49.9,3.62,2.12,2.12h0Z"/>
          </g>
          <g>
            <path class="cls-5" d="M1685.02,501.82c-5.35-13.5-7.7-28.18-6.83-42.67-8.41-.51-16.63,6.19-17.83,14.53-.6,4.15.36,8.36.43,12.56.11,5.94-1.6,11.91-4.84,16.9,7.74,2.31,16.27,1.9,23.76-1.14"/>
            <path class="cls-5" d="M1686.46,501.42c-5.29-13.43-7.61-27.86-6.78-42.27.05-.84-.73-1.46-1.5-1.5-6.59-.32-12.92,3.25-16.55,8.68-1.99,2.98-2.93,6.43-2.97,9.99-.06,4.41.91,8.75.5,13.17s-2.04,9.01-4.51,12.88c-.53.83,0,1.94.9,2.2,8.05,2.35,16.77,1.97,24.56-1.14,1.77-.71,1-3.61-.8-2.89-7.33,2.93-15.38,3.35-22.96,1.14l.9,2.2c2.06-3.22,3.56-6.81,4.35-10.56s.75-7.75.38-11.7-.69-7.64.83-11.2c1.17-2.75,3.19-5.17,5.64-6.88,2.88-2,6.23-3.07,9.74-2.9l-1.5-1.5c-.84,14.65,1.51,29.42,6.88,43.07.7,1.78,3.6,1,2.89-.8h0Z"/>
          </g>
        </g>
      </g>
    </g>
  </g>
</svg>