<?xml version="1.0" encoding="UTF-8"?>
<svg id="Layer_2" data-name="Layer 2" xmlns="http://www.w3.org/2000/svg" viewBox="0 0 273.08 288.06">
  <defs>
    <style>
      .cls-1 {
        fill: #dd79f6;
        stroke-width: 0px;
      }
    </style>
  </defs>
  <g id="Sun">
    <g id="Sun-2" data-name="Sun">
      <path class="cls-1" d="M146.12,57.93c-20.31-13.96-59.88-17.99-80.81-4.97-14.97,9.32-32.46-6.09-59.82,70.46-10.58,29.61,1.89,73.71,16.72,101.44,20.01,37.42,62.61,59.77,105.02,61.31,42.41,1.54,63.15-.61,96.7-26.59,14.42-11.17,32.24-36.06,39-53,6.35-15.91,10.25-55.02,8-72-7.51-56.77-27.5-93.96-78.52-119.96C171.37,3.89,146.92-1.73,123.88,3.45c-22.5,5.05-38.76,8.52-67.39,27.81-23.4,15.77-30.01,27.68-40.31,48.31-4.78,9.58-8.34,23.7,1.01,28.9"/>
      <path class="cls-1" d="M146.88,56.63c-7.09-4.84-15.32-7.98-23.62-10.05-9.11-2.27-18.6-3.31-27.99-2.98-8.74.31-17.59,1.8-25.62,5.38-2.43,1.08-4.61,2.56-6.98,3.73-.28.14-.56.27-.85.39-.25.11-.34.15-.23.1-.16.07-.32.13-.48.19-.64.25-1.29.47-1.95.68-5.69,1.8-11.49,2.68-16.77,5.64-9.02,5.05-15.36,13.96-20.45,22.71-4.58,7.87-8.35,16.2-11.8,24.62-4.01,9.77-8.02,19.62-9.38,30.16-2.61,20.23,1.68,41.28,8.14,60.41,6.25,18.52,14.9,36.37,28.42,50.7,13.51,14.32,30.72,24.93,49.2,31.53,9.28,3.31,18.9,5.58,28.67,6.84s20.39,1.4,30.56,1.36c16.95-.06,33.71-1.92,49.35-8.81,8.52-3.75,16.45-8.7,23.97-14.16,3.83-2.78,7.61-5.63,11.06-8.87s6.7-6.76,9.77-10.4c6.54-7.76,12.46-16.1,17.55-24.89,3.98-6.87,7.37-14,9.38-21.7,2.17-8.28,3.47-16.79,4.48-25.28,1.04-8.82,1.71-17.72,1.75-26.6.03-7.99-.94-15.77-2.27-23.65-1.51-8.94-3.46-17.82-6.07-26.51-4.71-15.67-11.67-30.71-21.61-43.77s-23.51-24.68-38.1-33.51C186.03,8.41,164.57.06,142.09,0c-10.21-.03-20.02,2.21-29.89,4.58-8.01,1.93-15.93,4.22-23.57,7.32-9.45,3.84-18.42,8.73-27.02,14.2s-17.44,11.66-24.8,19.09c-5.77,5.82-10.53,12.48-14.58,19.59-2.18,3.82-4.18,7.73-6.16,11.65s-3.9,8.06-5.05,12.41c-1.96,7.38-2.07,16.62,5.41,20.93,1.68.96,3.19-1.63,1.51-2.59-7.51-4.32-5.23-14.71-2.83-21.38,1.51-4.18,3.65-8.12,5.68-12.06,1.88-3.65,3.84-7.26,5.98-10.77,4.2-6.87,9.23-13.1,15.17-18.56,7.95-7.31,17.07-13.36,26.32-18.89,8.06-4.82,16.47-9.07,25.29-12.32,7.46-2.74,15.15-4.75,22.88-6.54,4.54-1.05,9.09-2.19,13.7-2.86,5.59-.81,11.27-.98,16.9-.66,11.44.66,22.69,3.47,33.33,7.66,9.32,3.67,18.24,8.48,26.67,13.88,7.11,4.55,13.86,9.66,20.04,15.43,11.58,10.81,20.79,23.79,27.41,38.18,7.15,15.55,11.27,32.38,13.92,49.23,1.2,7.61,1.79,15.08,1.63,22.79-.19,8.75-.91,17.5-2.02,26.18-1.04,8.07-2.38,16.18-4.62,24.01s-5.92,14.68-10.01,21.44c-5.13,8.48-10.99,16.57-17.53,24.02-2.97,3.38-6.1,6.65-9.47,9.64-3.56,3.16-7.45,5.97-11.34,8.7-7.23,5.06-14.87,9.64-23.04,13.04-7.32,3.04-15.01,5.08-22.84,6.24-8.56,1.27-17.26,1.52-25.9,1.47-9.99-.05-20.07-.18-29.96-1.63-19.04-2.78-37.52-9.63-53.58-20.26-15.93-10.54-28.95-24.76-37.63-41.8-8.98-17.62-15.35-37.05-17.94-56.68-1.27-9.6-1.63-19.49-.13-29.09,1.6-10.23,5.79-19.99,9.75-29.49,3.34-8.01,7.04-15.93,11.5-23.39,2.93-4.9,6.2-9.64,10.18-13.75,4.96-5.11,10.53-8.26,17.24-10.06,2.56-.69,5.16-1.23,7.67-2.05,3.87-1.27,7.11-3.63,10.82-5.28,7.77-3.45,16.46-4.76,24.9-4.99,9.13-.25,18.31.8,27.16,3.09,7.8,2.02,15.45,4.99,22.14,9.55,1.6,1.09,3.1-1.51,1.51-2.59h0Z"/>
    </g>
  </g>
</svg>