<?xml version="1.0" encoding="UTF-8"?>
<svg id="Layer_2" data-name="Layer 2" xmlns="http://www.w3.org/2000/svg" viewBox="0 0 396.02 353.52">
  <defs>
    <style>
      .cls-1 {
        fill: #f46640;
      }

      .cls-1, .cls-2, .cls-3, .cls-4, .cls-5, .cls-6, .cls-7, .cls-8, .cls-9, .cls-10, .cls-11 {
        stroke-width: 0px;
      }

      .cls-2 {
        fill: #ffcaa6;
      }

      .cls-3 {
        fill: #ff9852;
      }

      .cls-4 {
        fill: #ef583a;
      }

      .cls-5 {
        fill: #aa0f3e;
      }

      .cls-6 {
        fill: #f45270;
      }

      .cls-7, .cls-11 {
        fill: #b899ff;
      }

      .cls-8 {
        fill: #ff8440;
      }

      .cls-9 {
        fill: #ff8e50;
      }

      .cls-10 {
        fill: #ff9250;
      }

      .cls-11 {
        opacity: .5;
      }
    </style>
  </defs>
  <g id="Anteaters">
    <g id="L1_SweatyAnteater">
      <g>
        <path class="cls-1" d="M191.14,134.01c-11.65,3.66-27.5-4.3-39.57,2.16-3.93,2.11-9.58-2.82-10.88-7.09-1.88-6.15,8.87-19.51,14.58-22.48s12.35-3.34,18.72-4.22c8.69-1.21,17.65-3.73,23.91-9.87,2.37-2.33,4.27-5.1,6.62-7.45,2.42-2.43,5.28-4.38,8.11-6.31,5.59-3.81,11.31-7.68,17.8-9.59,10.54-3.1,21.81-.72,32.79-.79,14.57-.1,28.52-5.21,42.39-9.7,4.43-1.43,6.57-5.28,7.18-11.71.23-2.38,7.43,25.02-16.41,34.42-23.84,9.4-101.21,51.37-105.25,52.63Z"/>
        <path class="cls-1" d="M190.74,132.57c-8.13,2.47-16.98-.19-25.24-.49-4.26-.15-8.64.2-12.61,1.84-1.74.72-2.99,1.65-4.9.97-1.73-.62-3.25-1.97-4.35-3.42-.86-1.13-1.65-2.51-1.66-3.93,0-1.3.4-2.6.87-3.8,1.24-3.15,3.25-6.08,5.39-8.69,1.95-2.39,4.15-4.81,6.75-6.52,3.73-2.46,8.5-3.24,12.84-3.84,9.11-1.27,18.4-2.25,26.35-7.32,1.91-1.22,3.69-2.64,5.27-4.27,1.79-1.84,3.33-3.91,5.05-5.82,3.42-3.78,7.8-6.53,12.01-9.33s8.5-5.43,13.27-7,10.26-1.97,15.49-1.85,10.42.65,15.63.76,10.54-.38,15.73-1.34,10.38-2.36,15.47-3.91c2.56-.78,5.1-1.6,7.64-2.44,2.35-.77,4.8-1.42,7.09-2.35,3.28-1.34,5.36-4.08,6.44-7.39.29-.89.5-1.8.66-2.73.09-.51.16-1.02.23-1.54.04-.33.09-.66.12-1,.05-.56-.06.16-.02.11l-.14.32-2,.52c-.23-.1-.34-.3-.49-.48.02.03.03.08.06.11-.17-.17-.08-.27.03.14.36,1.31.51,2.39.62,3.48.19,2.03.2,4.08.04,6.11-.41,5.12-2.09,10.23-5.25,14.33-1.97,2.56-4.49,4.66-7.28,6.27-2.28,1.31-4.74,2.2-7.15,3.22-4.29,1.82-8.52,3.8-12.72,5.8-11.32,5.4-22.51,11.09-33.67,16.82-11.2,5.75-22.36,11.58-33.53,17.41-6.89,3.59-13.74,7.32-20.75,10.67-.33.16-.66.31-.99.46-.43.2.12-.05-.05.02-.08.03-.17.07-.25.09-1.83.59-1.05,3.49.8,2.89s3.7-1.7,5.46-2.59c3.7-1.88,7.38-3.79,11.06-5.71,11.02-5.74,22.03-11.5,33.07-17.21,11.8-6.1,23.63-12.15,35.57-17.96,4.78-2.33,9.58-4.62,14.44-6.78s10.26-3.97,14.6-7.65c8.1-6.87,10.95-18.17,9.33-28.4-.15-.97-.3-2.14-.81-3s-1.71-1.17-2.48-.4c-.35.35-.39.71-.47,1.16-.19,1.01-.25,2.03-.48,3.04-.8,3.54-2.52,6.24-6.06,7.4-5.3,1.74-10.6,3.51-15.95,5.08s-10.57,2.86-15.98,3.66-10.89.85-16.37.56-10.85-.8-16.29-.54-10.54,1.36-15.44,3.59-8.98,5.08-13.24,7.98c-2.14,1.46-4.27,2.94-6.24,4.62s-3.7,3.73-5.4,5.75c-3.17,3.79-6.69,6.77-11.2,8.85-4.25,1.96-8.89,3.04-13.5,3.77-5.01.79-10.12,1.06-15.03,2.43-3.69,1.03-6.87,2.63-9.7,5.19s-5.1,5.33-7.14,8.36c-1.82,2.7-3.59,5.78-4.14,9.03-.59,3.49.92,6.55,3.36,9.02,1.37,1.39,3.07,2.58,4.97,3.14s3.6.21,5.36-.66c8.14-4.06,17.95-1.52,26.55-.86,4.06.31,8.22.31,12.14-.89,1.84-.56,1.06-3.46-.8-2.89Z"/>
      </g>
      <g>
        <path class="cls-10" d="M248.66,64.15l1.66-13.07c.12-.98.27-2.01.89-2.77,1.5-1.84,4.48-.91,6.49.35,1.97,1.24,3.82,2.67,5.52,4.27,1.45,1.36,2.82,2.9,3.46,4.79s.41,4.18-1.02,5.56c-1.03.99-2.48,1.38-3.86,1.73-3.38.86-6.77,1.72-10.15,2.58"/>
        <path class="cls-10" d="M250.16,64.15l1.47-11.58c.14-1.08.04-3.25,1.31-3.71,1.04-.38,2.42.22,3.33.7,1.49.79,2.89,1.85,4.19,2.92s2.58,2.2,3.59,3.52c1.62,2.11,2.4,5.61-.59,6.93-1.76.78-3.83,1.07-5.69,1.55-2.18.55-4.35,1.1-6.53,1.66-1.87.47-1.08,3.37.8,2.89,2.3-.58,4.59-1.17,6.89-1.75,2.07-.53,4.33-.88,6.25-1.85,3.62-1.84,4.04-6.31,2.3-9.62-.95-1.81-2.46-3.31-3.97-4.65-1.63-1.45-3.39-2.82-5.27-3.93-2.97-1.76-7.52-2.42-8.97,1.57-.39,1.08-.45,2.27-.59,3.4l-.5,3.92-1.02,8.03c-.1.81.76,1.5,1.5,1.5.9,0,1.4-.69,1.5-1.5h0Z"/>
      </g>
      <g>
        <path class="cls-8" d="M216.85,188.89c24.11,19.97,55.81,31.15,86.89,27.45,9.66-1.15,19.73-3.91,26.37-11.02.91-.98,1.79-2.14,1.79-3.47,0-2.18-2.23-3.62-4.22-4.51-24.57-10.93-55.11-4.28-77.91-18.54-8.19-5.12-15.54-11.85-20.94-19.85-6.08-9-13.96-10.5-18.02-4.75s-6.06,13.75-3.06,20.75,4.19,9.87,9.09,13.94Z"/>
        <path class="cls-8" d="M215.79,189.95c16.78,13.85,37.06,23.66,58.61,27.15,10.61,1.72,21.45,1.94,32.1.37,5.11-.75,10.15-2.01,14.86-4.17,2.36-1.08,4.59-2.42,6.64-4.03,1.88-1.47,4.05-3.26,4.99-5.51,2.26-5.42-4.77-7.95-8.58-9.36-4.91-1.81-10.02-3.03-15.17-3.92-10.38-1.81-20.92-2.35-31.32-3.94s-20.12-4.24-28.81-9.94c-4.6-3.02-8.85-6.54-12.63-10.53-1.94-2.04-3.75-4.21-5.39-6.5-1.53-2.13-2.97-4.29-4.9-6.08-2.92-2.7-6.81-4.79-10.89-4.02-4.31.81-6.78,4.94-8.39,8.66-2.09,4.83-2.81,10.35-1.25,15.45.73,2.39,1.87,4.73,2.93,6.99.84,1.78,1.78,3.5,2.97,5.06s2.67,3.02,4.22,4.32c1.47,1.23,3.61-.88,2.12-2.12-2.97-2.48-5.08-5.28-6.72-8.77-1.01-2.15-2.1-4.38-2.75-6.67-.68-2.42-.8-4.99-.42-7.48s1.14-4.75,2.25-6.9c.87-1.7,1.9-3.6,3.52-4.71,2.87-1.95,6.38-.71,8.93,1.18,2.04,1.51,3.63,3.51,5.06,5.58s2.96,4.06,4.6,5.95c3.4,3.92,7.27,7.42,11.43,10.52,7.93,5.93,16.83,9.63,26.49,11.67s19.46,2.7,29.2,3.87c4.9.59,9.8,1.32,14.62,2.42s9.4,2.34,13.61,4.51c.87.45,1.87,1.01,2.39,1.88.66,1.12-.02,2.19-.78,3.07-1.57,1.82-3.51,3.35-5.53,4.62-4.08,2.57-8.69,4.12-13.38,5.14-9.87,2.15-20.27,2.28-30.28,1.16-20.31-2.27-39.79-10.44-56.26-22.42-2.04-1.48-4.02-3.03-5.96-4.63-1.48-1.22-3.61.89-2.12,2.12Z"/>
      </g>
      <path class="cls-4" d="M275.66,93.35c1.12-2.41-2.55-3.91-3.43-1.48-.39,1.08.16,2.16.43,3.2.36,1.41.55,2.85.6,4.3.2,5.66-1.51,11.14-3.29,16.44s-3.55,10.41-4,15.91.63,10.52.72,15.79c.04,2.47-.13,4.93-.88,7.29s-2.23,4.41-3.85,6.31-3.3,3.69-4.56,5.81-2.11,4.63-2.52,7.11c-.2,1.25-.33,2.52-.37,3.79s.21,2.82-.22,4.1c-.36,1.08-1.15,2-1.79,2.92-.8,1.16-1.54,2.35-2.23,3.59-2.44,4.4-4.14,9.19-5.32,14.08-.68,2.84-1.19,5.72-1.6,8.61-.32,2.32-1.11,5.16-.29,7.45.63,1.74,2,2.96,3.5,3.97,1.12.76,2.83,1.44,3.52,2.61.98,1.66,3.57.16,2.59-1.51-1.42-2.41-4.49-2.97-6.2-5.07-1.11-1.37-.66-3.08-.47-4.69.29-2.43.66-4.84,1.13-7.24.92-4.69,2.21-9.35,4.22-13.7,1-2.16,2.17-4.25,3.5-6.22s2.59-3.75,2.65-6.3.02-4.83.6-7.25,1.57-4.5,3.03-6.44c2.84-3.78,6.32-6.83,7.69-11.52s.86-9.41.45-14.07c-.45-5.06-.57-9.9.62-14.87,1.38-5.75,3.76-11.2,5.16-16.95.69-2.81,1.17-5.7,1.21-8.59.02-1.42-.08-2.83-.28-4.24-.11-.75-.25-1.49-.44-2.22-.08-.29-.16-.59-.25-.88l-.14-.44c-.09-.56-.25-.42-.47.42l-1.16.15-.39-.36v-1.51l-.08.17c-.81,1.74,1.77,3.26,2.59,1.51h0Z"/>
      <g>
        <path class="cls-8" d="M184.4,225.93c4.98,20.68,17.44,39.48,34.56,52.1,1.28.94,2.68,1.99,3.03,3.54.24,1.04-.05,2.13-.34,3.16-4.67,16.79-6.34,38.59-11.01,55.38-.68,2.45-1.42,5.01-3.18,6.86-4.23,4.46-15.33,2.21-18.89-2.82s-3.84-16.58-4-22.73c-.21-8.01-.42-16.02-.62-24.03-.07-2.87-.17-5.84-1.34-8.46-1.64-3.7-5.13-6.17-8.42-8.52-16.42-11.77-31.64-25.21-45.34-40.05-1.95-2.12-4.02-4.74-3.42-7.56.55-2.61,3.15-4.19,5.53-5.41,5.48-2.81,11.08-5.4,16.78-7.75,6.34-2.61,13.08-4.97,19.9-4.25s13.68,5.37,14.81,12.13"/>
        <path class="cls-8" d="M182.96,226.33c2.66,10.97,7.36,21.44,13.76,30.74,3.16,4.59,6.72,8.92,10.63,12.88,1.98,2.01,4.06,3.92,6.22,5.74,1,.84,2.03,1.66,3.06,2.46s2.35,1.59,3.26,2.63c1.1,1.26.56,2.67.17,4.13s-.77,2.96-1.12,4.45c-.67,2.84-1.25,5.7-1.79,8.57-1.16,6.12-2.12,12.28-3.14,18.42s-2.02,11.89-3.37,17.76c-.64,2.79-1.28,5.63-2.24,8.33-.75,2.11-1.92,4.04-4.09,4.85-3.8,1.41-8.62.35-11.97-1.74-3.71-2.31-4.63-6.77-5.28-10.81-.73-4.56-.84-9.2-.96-13.8-.18-7.03-.37-14.06-.55-21.09-.08-3.15,0-6.42-.82-9.49-.75-2.78-2.39-5.15-4.47-7.11s-4.46-3.53-6.75-5.19c-2.72-1.98-5.41-4-8.07-6.07-10.17-7.95-19.83-16.56-28.89-25.76-2.29-2.32-4.55-4.67-6.74-7.08-1.75-1.92-4.12-4.83-2.24-7.43,1.52-2.11,4.48-3.19,6.72-4.31,3.04-1.51,6.12-2.95,9.23-4.33,10.18-4.49,24.81-10.91,34.22-1.43,1.73,1.74,2.86,3.86,3.3,6.27.34,1.9,3.24,1.09,2.89-.8-.98-5.42-5.22-9.55-10.14-11.65-5.97-2.55-12.59-1.9-18.67-.1-6.81,2.02-13.39,5.11-19.78,8.18-4.59,2.21-12.64,5.05-11.32,11.61.61,3.04,3.02,5.4,5.06,7.58,2.39,2.55,4.82,5.06,7.29,7.53,4.84,4.83,9.85,9.49,15.01,13.97s10.44,8.75,15.87,12.86c2.58,1.96,5.22,3.83,7.83,5.75,2.38,1.75,4.82,3.75,6.12,6.48,1.43,3,1.26,6.54,1.34,9.78.1,3.68.19,7.36.29,11.03.16,5.99.18,12,.56,17.99.31,4.99.78,10.3,2.88,14.91,1.86,4.08,5.98,6.41,10.23,7.35s9.36.77,12.34-2.65c2.03-2.34,2.82-5.44,3.6-8.36s1.43-5.8,2.03-8.72c2.62-12.78,4.12-25.77,6.94-38.51.29-1.32.6-2.64.93-3.95.4-1.61.98-3.22,1.2-4.86.46-3.41-1.97-5.23-4.41-7.06-4.72-3.55-9.07-7.62-12.98-12.03-7.83-8.83-13.96-19.23-17.82-30.39-.95-2.73-1.75-5.5-2.43-8.31-.46-1.88-3.35-1.08-2.89.8h0Z"/>
      </g>
      <g>
        <path class="cls-9" d="M206.76,141.95c7.07,3.64,13.48,8.53,14.9,16.36s-2.59,29.74-6.02,36.92c-8.26,17.27-19.3,33.21-32.57,47.02-1.48,1.54-3.1,3.37-2.85,5.49.21,1.81,1.73,3.15,3.13,4.3,7.06,5.78,14.12,11.56,21.18,17.35,1.67,1.36,3.42,2.85,4.03,4.92.63,2.14-.1,4.43-.83,6.54-6.26,18.18-12.52,41.35-18.78,59.53-1.65,4.79-3.42,4.77-7.11,8.24s-9.92,4.8-13.79,1.55c-4.08-3.43-3.65-9.72-2.87-14.99,2.51-16.86,5.01-33.71,7.52-50.57-13.51-6.71-30.42-7.25-41.22-17.78-4.52-4.41-7.47-10.16-9.94-15.97-5.18-12.19-8.61-25.81-5.42-38.67,1.91-7.68,6.06-14.6,10.69-21.02,15.61-21.67,35.95-42.99,61.9-49.27,8.06-1.95,14.5-1.78,18.06.05Z"/>
        <path class="cls-9" d="M206,143.24c4.16,2.16,8.36,4.76,11.2,8.58,2.36,3.18,3.25,6.72,3.25,10.58,0,8.04-1.51,16.24-3.49,24.01-.85,3.34-1.87,6.54-3.39,9.64-2.54,5.18-5.34,10.24-8.36,15.16-6.03,9.79-13,18.98-20.8,27.42-1.78,1.92-4.04,3.78-5.15,6.21s-.5,4.62,1.12,6.49c1.94,2.24,4.62,3.99,6.9,5.86,2.5,2.05,5.01,4.1,7.51,6.15s5.01,4.1,7.51,6.15c1.95,1.6,4.71,3.36,4.97,6.1s-1.22,5.46-2.04,7.89c-.89,2.65-1.75,5.3-2.59,7.96-3.47,10.95-6.69,21.98-10.1,32.95-1.64,5.27-3.26,10.55-5.12,15.75-.64,1.77-1.55,3.14-3,4.34-1.64,1.36-3.26,2.97-5.04,4.14-3.66,2.41-9.27,2.93-11.83-1.31s-1.25-9.75-.58-14.21c1.92-12.93,3.84-25.86,5.76-38.78.46-3.11.92-6.22,1.39-9.33.09-.63-.05-1.38-.69-1.69-6.13-3.02-12.73-4.81-19.25-6.77s-12.8-4.03-18.26-7.92c-6.08-4.33-9.78-10.85-12.7-17.56-3.22-7.39-5.8-15.26-6.6-23.31s.38-15.92,3.82-23.24c3.22-6.85,7.78-13.01,12.39-18.97,8.73-11.3,18.65-22.01,30.42-30.2,5.68-3.96,11.81-7.34,18.32-9.72,6.48-2.37,14.03-4.48,20.98-3.39,1.18.19,2.36.48,3.43,1.01,1.72.86,3.24-1.73,1.51-2.59-6.11-3.04-14.08-1.55-20.36.08-7.01,1.83-13.72,4.78-19.94,8.48-12.8,7.63-23.6,18.3-32.98,29.78-9.97,12.19-20.29,25.65-20.83,42.04-.27,8.35,1.62,16.68,4.44,24.5,2.67,7.41,5.92,15.07,11.26,20.98,9.76,10.79,25.08,12.35,37.98,17.27,1.65.63,3.27,1.33,4.85,2.11l-.69-1.69c-1.99,13.42-3.99,26.84-5.98,40.26-.5,3.35-1,6.71-1.5,10.06-.37,2.5-.7,5.04-.58,7.57.24,4.83,2.43,9.72,7.49,11.06,2.28.6,4.77.41,6.99-.36,2.54-.88,4.37-2.43,6.37-4.15,1.38-1.18,2.95-2.19,4.12-3.6,1.52-1.85,2.21-4.15,2.96-6.38,3.78-11.2,7.11-22.56,10.56-33.87,1.73-5.68,3.47-11.35,5.31-16.99.9-2.77,1.96-5.51,2.76-8.3s.82-5.57-.9-7.97-4.29-4.09-6.52-5.91c-2.63-2.16-5.26-4.31-7.89-6.47s-5.26-4.31-7.89-6.47c-1.63-1.33-5.39-3.46-4.76-6.02.3-1.22,1.27-2.22,2.1-3.1.99-1.05,1.99-2.09,2.97-3.15,2.08-2.26,4.1-4.57,6.06-6.94,3.81-4.6,7.41-9.38,10.75-14.33s6.39-9.97,9.21-15.17c2.14-3.95,4.33-7.94,5.71-12.23,2.61-8.09,4.12-16.78,4.73-25.25.26-3.57.38-7.28-.71-10.73-1.5-4.71-4.83-8.41-8.76-11.3-1.99-1.46-4.12-2.7-6.3-3.83-1.71-.89-3.23,1.7-1.51,2.59Z"/>
      </g>
      <g>
        <path class="cls-3" d="M196.76,148.95c6.72.63,11.44,7.43,13,14,.82,3.45,4.06,20.65,4.02,24.19-.19,19.37,2.74,32.6,4.93,51.85,1.43,12.56,2.21,28.88-5.04,38.61-4.21,1.24-11.77-.77-14.36-4.31s-3.61-7.96-4.55-12.24c-7.45-34.06-10.19-51.57-15-86.11-2.27-16.29,9.28-26.72,17-26Z"/>
        <path class="cls-3" d="M196.76,150.45c4.4.48,7.67,4.02,9.63,7.74,1.47,2.78,2.09,5.79,2.69,8.84,1.23,6.24,2.61,12.59,3.14,18.93.16,1.98.04,3.99.08,5.98.05,2.78.16,5.56.34,8.33.34,5.26.91,10.51,1.58,15.74,1.32,10.33,3.07,20.64,3.72,31.04s.56,21.44-5.57,29.8l.9-.69c-3.65,1-8.42-.2-11.41-2.43-1.92-1.43-3-3.87-3.79-6.06-.95-2.66-1.52-5.44-2.13-8.2-2.35-10.79-4.6-21.61-6.59-32.47-1.78-9.71-3.36-19.45-4.82-29.21-.83-5.53-1.62-11.07-2.4-16.61s-1.78-10.58-.56-15.88c.99-4.32,3.16-8.35,6.47-11.32,2.35-2.12,5.46-3.79,8.71-3.53,1.92.16,1.91-2.85,0-3-7.14-.58-13.43,5.78-16.22,11.73-2.04,4.34-2.85,9.18-2.47,13.96.48,6.03,1.63,12.08,2.49,18.07,3.06,21.14,6.73,42.14,11.19,63.02,1.23,5.76,2.05,11.99,4.73,17.3,1.05,2.08,2.38,3.85,4.36,5.12,1.83,1.18,3.98,1.96,6.11,2.4s4.34.6,6.48.16,3.3-3.45,4.12-5.26c2.03-4.48,2.96-9.34,3.37-14.22.91-10.9-.75-21.9-2.21-32.68-1.54-11.44-3.15-22.85-3.39-34.41-.05-2.22.1-4.47-.09-6.68-.12-1.47-.33-2.93-.55-4.38-.55-3.77-1.22-7.53-1.92-11.28-.54-2.92-1-5.91-1.82-8.77-1.3-4.55-3.89-8.91-7.78-11.7-1.9-1.37-4.09-2.13-6.4-2.38-1.92-.21-1.9,2.79,0,3Z"/>
      </g>
      <g>
        <path class="cls-9" d="M132.91,216.27c-41.05-42.31-61.58-100.16-76.91-157.08-7.64,8.02-15.8,15.55-24.41,22.52,4.8,4.91,12.23,7.07,18.92,5.5-11.41,11.17-22.87,22.38-32.62,35.02-2.94,3.81-5.84,8.1-5.82,12.91.02,7,6.55,12.67,13.44,13.89,6.89,1.22,13.91-1,20.34-3.77-21.61,4.27-39.75,22.57-43.84,44.22-.6,3.17-.9,6.54.34,9.52,2.02,4.87,7.48,7.27,12.58,8.61,15.12,3.99,31.56,2.72,45.89-3.52-7.39,3.82-14.53,8.49-19.69,15.01-5.16,6.52-8.15,15.14-6.45,23.28,1.58,7.56,7.1,13.99,13.98,17.51s14.95,4.29,22.58,3.07c6.61-1.06,13.23-3.76,17.49-8.92s5.52-13.11,1.71-18.62c-1.76,2.5-2.23,5.8-1.52,8.78,2.02,8.49,13.82,12.33,21.01,7.37s8.33-16.27,3.06-23.23c2.42,6.27,11.76,8.43,16.68,3.84"/>
        <path class="cls-9" d="M133.97,215.21c-15.91-16.43-28.88-35.42-39.5-55.63-10.67-20.3-19.01-41.75-26.07-63.55-3.99-12.31-7.58-24.75-10.94-37.24-.29-1.07-1.73-1.48-2.51-.66-7.65,8.02-15.8,15.54-24.41,22.52-.63.51-.53,1.59,0,2.12,5.29,5.3,13.08,7.52,20.38,5.89l-1.46-2.51c-10.96,10.72-21.96,21.49-31.47,33.56-4.08,5.18-8.64,11.25-7.08,18.26,1.28,5.76,6.37,10.09,11.79,11.89,7.96,2.64,16.56-.16,23.92-3.3,1.64-.7.41-3.06-1.16-2.74-16.93,3.41-31.81,15.13-39.7,30.42-1.97,3.82-3.54,7.87-4.57,12.05-1.16,4.67-2.08,10,.33,14.44,2.1,3.87,6.21,6.1,10.22,7.49,4.78,1.66,9.92,2.5,14.95,2.93,11.91,1.02,23.94-1.02,34.9-5.75l-1.51-2.59c-8.57,4.45-16.96,10.11-22.25,18.39s-6.84,17.95-2.86,26.71,12.14,14.24,21.09,16.2,20.05.89,28.16-4.18c4.22-2.64,7.59-6.48,9.13-11.26s1.16-9.89-1.58-13.99c-.65-.97-1.94-.96-2.59,0-2.78,4.12-2.7,9.89.13,13.98,2.27,3.29,5.92,5.49,9.81,6.27s8.46.22,11.86-2.23,5.8-6.51,6.51-10.78c.83-4.96-.16-10.24-3.18-14.32-.91-1.23-3.44-.56-2.74,1.16,2.98,7.36,13.23,9.86,19.18,4.5,1.44-1.29-.69-3.41-2.12-2.12-4.15,3.74-12.04,2.07-14.17-3.18l-2.74,1.16c4.29,5.8,4.22,14.81-1.1,19.99-4.81,4.68-13.13,3.97-17.69-.72-3.17-3.26-3.73-8.39-1.16-12.19h-2.59c4.58,6.84,1.01,15.81-5.17,20.28-7,5.05-16.82,6.47-25.21,5.12s-15.99-5.8-20.21-13.21c-4.33-7.6-3.3-16.66.89-24.08,4.9-8.68,13.48-14.41,22.13-18.9,1.75-.91.21-3.34-1.51-2.59-9.1,3.93-19.06,5.81-28.97,5.58-4.96-.11-9.88-.75-14.7-1.94-3.89-.96-8.06-2.29-10.89-5.29-3.27-3.47-2.7-8.38-1.76-12.68.86-3.95,2.19-7.8,3.96-11.45,3.47-7.16,8.47-13.51,14.54-18.64,6.89-5.82,15.17-9.9,24.01-11.68l-1.16-2.74c-6.13,2.62-13.16,4.96-19.88,3.47-5.04-1.11-10.02-4.76-11.34-9.94-1.62-6.34,3.43-12.2,7.09-16.77,4.36-5.44,9.02-10.63,13.83-15.68,5.46-5.72,11.12-11.26,16.77-16.79,1.11-1.09-.04-2.82-1.46-2.51-6.25,1.4-12.94-.6-17.46-5.12v2.12c8.61-6.98,16.76-14.5,24.41-22.52l-2.51-.66c6.05,22.45,12.81,44.74,21.35,66.38,8.45,21.41,18.64,42.23,31.6,61.3,7.26,10.68,15.36,20.79,24.34,30.06,1.35,1.39,3.47-.73,2.12-2.12h0Z"/>
      </g>
      <g>
        <path class="cls-3" d="M212.19,67.99c-13.11,6.39-23.07,18.91-26.35,33.12s.16,29.83,9.13,41.33c2.16,2.77,4.62,5.31,7.47,7.37,4.48,3.24,9.79,5.18,15.17,6.43,15.58,3.62,32.5,1.54,46.5-6.18,6.93-3.82,13.11-8.94,20.15-12.55,14.3-7.33,31.18-7.92,47.1-5.73,15.92,2.19,31.36,6.98,47.16,9.9,5.98,1.1,14.06.72,15.74-5.13,1.58-5.51-4.29-10.08-9.35-12.77-40.07-21.28-73.96-34.8-115.15-53.82-12.23-5.65-34.83-9.02-58-2"/>
        <path class="cls-3" d="M211.43,66.7c-13.42,6.62-23.67,19.41-27.04,34.01-3.61,15.6.62,32.77,11.2,44.82,5.91,6.73,13.82,10.46,22.46,12.34,8.3,1.82,16.89,2.05,25.28.76,8.43-1.29,16.55-4.23,23.86-8.63s14.47-10.22,22.79-13.44c16.64-6.43,35.02-4.87,52.13-1.43,9.38,1.88,18.63,4.31,27.98,6.35,6.63,1.45,14.81,3.91,21.3.59,2.77-1.42,4.61-4.21,4.62-7.35.01-3.47-2.29-6.44-4.83-8.57-3.19-2.68-6.99-4.46-10.66-6.38-4.11-2.14-8.23-4.25-12.38-6.32-15.89-7.95-32.05-15.36-48.27-22.61-16.55-7.4-33.1-14.82-49.62-22.3-6.19-2.8-12.86-4.37-19.57-5.26-8.52-1.12-17.16-1-25.67.21-4.62.66-9.19,1.67-13.66,3.02-1.84.55-1.06,3.45.8,2.89,15.61-4.68,32.81-5.41,48.6-1.08,7.28,2,14.02,5.59,20.87,8.69,7.91,3.58,15.85,7.11,23.78,10.64,15.49,6.89,30.99,13.79,46.29,21.09,7.89,3.77,15.73,7.64,23.5,11.64,3.83,1.97,7.83,3.81,11.46,6.14,2.58,1.66,5.74,4.08,6.29,7.32,1.17,6.87-8.38,7.18-12.81,6.57s-8.56-1.66-12.78-2.62c-4.47-1.02-8.92-2.09-13.38-3.13-16.84-3.92-34.17-7.21-51.47-4.51-8.27,1.29-16.14,4.1-23.29,8.46s-13.83,9.68-21.67,12.95-15.79,4.79-23.99,4.89c-8.18.1-16.79-1.15-24.31-4.5-14.61-6.52-22.69-23.28-23.1-38.71-.4-14.82,6.46-29.01,17.93-38.32,2.73-2.21,5.73-4.09,8.88-5.64,1.73-.85.21-3.44-1.51-2.59h0Z"/>
      </g>
      <g>
        <path class="cls-5" d="M214.26,106.78c-.75,1.71-.92,3.66-.48,5.47,2.02-.45,3.57-2.49,3.46-4.56-.05-.95-.52-1.99-1.43-2.27s-2.04.75-1.57,1.58"/>
        <path class="cls-5" d="M212.96,106.02c-.91,2.12-1.16,4.37-.63,6.63.19.81,1.08,1.23,1.85,1.05,2.16-.51,3.99-2.41,4.43-4.6.24-1.2.16-2.47-.47-3.55-.68-1.17-2.03-1.94-3.39-1.57-.72.2-1.4.7-1.77,1.35-.45.78-.44,1.64-.04,2.43.36.7,1.4.96,2.05.54.72-.46.92-1.3.54-2.05.09.24.11.28.06.14.03.27.04.33.03.17-.05.26-.05.33-.02.21.03-.11,0-.05-.09.18.02-.05.05-.09.08-.14-.16.19-.19.23-.09.11l.06-.06c.12-.1.08-.08-.11.08.03,0,.19-.09.22-.13-.23.09-.27.11-.12.06.16-.04.11-.03-.15.01.04,0,.08,0,.12,0,.12,0,.06,0-.19-.03.06.01.11.03.17.05-.22-.1-.26-.11-.11-.04l.08.05c.13.09.1.07-.09-.07,0-.01.3.36.12.11-.15-.22.06.11.08.15.17.3-.03.04,0-.02,0,0,.14.6.17.64-.03-.24-.04-.28-.02-.12,0,.05,0,.09,0,.14,0,.11,0,.23,0,.34,0,.07-.05.23-.02.29.03-.24.04-.28,0-.11-.01.06-.03.13-.04.19-.05.2-.12.4-.19.6-.04.11-.02.06.06-.14-.03.06-.05.12-.08.17-.04.09-.09.17-.14.26-.07.11-.14.22-.21.33-.18.28.22-.25,0,0-.15.17-.3.34-.47.49-.05.04-.1.09-.15.13-.1.08-.1.08,0,0,.1-.08.1-.08,0,0-.05.04-.11.07-.16.11-.07.05-.6.29-.59.32,0-.05.35-.13,0-.01-.12.04-.25.07-.37.1l1.85,1.05c-.05-.21-.08-.43-.13-.64-.04-.19.03.28,0-.01-.01-.12-.02-.24-.03-.36-.03-.44-.03-.87,0-1.31,0-.1.02-.2.03-.3.02-.19-.05.28,0-.01.04-.23.09-.47.14-.7.05-.19.1-.38.16-.57.04-.11.08-.23.12-.34.03-.08.17-.41.03-.08.17-.39.27-.73.15-1.16-.1-.35-.36-.73-.69-.9-.65-.34-1.72-.23-2.05.54h0Z"/>
      </g>
      <g>
        <path class="cls-5" d="M269.53,88.09c-.48,1.22-.97,2.55-.6,3.81s2.03,2.17,3.04,1.32c.29-1.12.59-2.3.31-3.42s-1.34-2.15-2.48-1.95-1.67,2.03-.64,2.56"/>
        <path class="cls-5" d="M268.08,87.69c-.36.91-.65,1.8-.76,2.77s.05,1.98.57,2.77c.97,1.46,2.99,2.4,4.63,1.42.41-.24.73-.57.87-1.03.07-.21.11-.43.16-.65.13-.53.22-1.07.28-1.61.11-1.01-.05-2.07-.54-2.97s-1.25-1.52-2.17-1.88c-.82-.31-1.89-.25-2.62.26-.85.59-1.32,1.46-1.42,2.48s.43,1.99,1.28,2.45c.69.38,1.67.19,2.05-.54s.2-1.65-.54-2.05c-.29-.16.24.23.08.08-.23-.22.19.3.07.11-.16-.27.08.34.04.13-.01-.07-.04-.13-.05-.2l.05.4c-.02-.14-.02-.29,0-.43l-.05.4c.01-.07.03-.15.05-.22.04-.16.18-.32-.05.09.04-.07.07-.13.11-.2.16-.26-.17.18-.09.1.05-.04.09-.09.14-.14.16-.16-.37.24-.08.07s-.33.09-.11.04c.08-.02.16-.04.24-.05l-.4.05c.15-.02.3-.01.45,0l-.4-.05c.12.02.24.05.36.09.2.06-.14-.07-.15-.06.04,0,.13.07.17.09.02.01.16.1.16.1-.01.01-.28-.25-.12-.09.09.09.19.18.28.27.15.16-.08-.12-.09-.12.02,0,.1.14.11.16.06.1.12.2.17.31.13.25-.09-.26-.05-.11.02.06.04.12.06.19.04.16.07.31.1.47l-.05-.4c.05.44.04.88-.02,1.31l.05-.4c-.08.58-.22,1.14-.37,1.71l.39-.66c.37-.3.19-.14.09-.09-.06.03-.25.12,0,0,.27-.12-.09,0-.18.01l.4-.05c-.15.01-.29.01-.43,0l.4.05c-.11-.02-.21-.04-.31-.07-.06-.02-.26-.1,0,0s.06.02,0,0c-.03-.02-.28-.14-.29-.18,0,0,.32.28.12.09-.04-.04-.08-.08-.13-.12-.03-.03-.06-.06-.09-.1-.11-.12-.12-.24.06.09-.05-.09-.11-.17-.16-.26-.03-.05-.05-.1-.07-.15.21.36.1.27.07.14-.05-.17-.08-.33-.11-.51l.05.4c-.04-.35-.03-.7.01-1.06l-.05.4c.12-.79.4-1.54.69-2.27.13-.34.03-.85-.15-1.16s-.54-.61-.9-.69c-.38-.09-.81-.07-1.16.15s-.54.51-.69.9h0Z"/>
      </g>
      <path class="cls-6" d="M277.04,136.89c-.33-1.9-2.48-3.12-4.4-2.85s-3.5,1.71-4.46,3.38c-1.05,1.84-1.43,4.2-.41,6.06s3.73,2.75,5.38,1.43"/>
      <path class="cls-5" d="M212.09,104.98c.08.17.03.25-.01-.05.01.07.06.17.09.24.05.15.09.3.12.45.01.06.05.37.02.09s0-.01,0,.05c.01.17.02.34.01.5,0,.08,0,.17-.01.25-.01.13-.1.36.02-.06-.04.15-.05.31-.09.46s-.08.3-.13.45c-.03.08-.06.16-.09.24-.11.29.16-.32.02-.05s-.29.55-.47.81c-.15.21-.09.06.03-.03-.06.04-.12.14-.16.19-.11.13-.23.25-.36.36-.05.05-.11.09-.16.14-.25.22.16-.1.04-.03-.13.08-.25.17-.39.25-.07.04-.15.08-.22.12-.16.08-.26.04.05-.01-.16.03-.33.12-.48.16-.76.2-1.3,1.08-1.05,1.85s1.03,1.27,1.85,1.05c1.73-.47,3.21-1.78,3.95-3.41.81-1.79.89-3.74.02-5.53-.34-.71-1.41-.95-2.05-.54-.73.47-.9,1.29-.54,2.05h0Z"/>
      <path class="cls-5" d="M266.84,86.87c2.32,2.27,6.04,3.11,9.07,1.84.38-.16.68-.32.9-.69.19-.32.27-.8.15-1.16-.22-.69-1.07-1.37-1.85-1.05-.29.12-.59.23-.9.31-.16.04-.33.08-.49.11-.04,0-.2.01-.22.04.04-.04.3-.03.06-.01-.32.02-.63.04-.95.03-.17,0-.34-.02-.5-.03-.2-.02-.03.02.06.01-.09,0-.19-.03-.28-.05-.31-.06-.62-.14-.93-.24-.05-.02-.42-.12-.42-.15,0,.02.27.12.05.02-.08-.04-.17-.08-.25-.12-.28-.14-.56-.31-.82-.49-.04-.02-.17-.09-.18-.13.02.06.2.17.04.03-.14-.12-.28-.25-.42-.38-.56-.55-1.57-.6-2.12,0s-.6,1.53,0,2.12h0Z"/>
      <path class="cls-2" d="M220.11,135.17c.08-.26.17-.52.25-.78.21-.69-.63,1.29-.16.38.25-.49.53-.95.82-1.41.61-.99-.95,1.03-.15.17.19-.2.36-.41.55-.6s.39-.38.59-.57c.17-.15.93-.83.15-.15s-.02.04.2-.09c.23-.15.47-.28.71-.41s.52-.21.73-.36c-1.04.74-.95.38-.37.19s1.17-.31,1.77-.43c.83-.16-.39.02-.57.07.3-.09.72-.08,1.04-.12,3.49-.41,6.9-1,9.54-3.57,1.18-1.15,1.98-2.57,2.84-3.95.06-.1.12-.2.19-.3.26-.38.11-.21-.44.52.13-.05,1.03-.82.12-.22-.44.32-.46.34-.06.09l-.85.34.3-.08c-.65.19-1.3.21-1.95.07,3.02.83,6.66-1.03,7.38-4.19s-.95-6.49-4.19-7.38c-2.46-.68-5.22-.24-7.3,1.26-1.78,1.29-2.98,2.89-4.11,4.76-.18.3-.38.59-.57.89-.26.37-.13.19.39-.53-.36.34-.33.34.1,0,.88-.43,0-.06-.2.09-.91.63,1.24-.34.23-.11-.66.15-1.31.29-1.98.42,2.03-.37-.26,0-.82.08-1.97.25-3.7.56-5.53,1.33s-3.22,1.66-4.73,2.9c-2.64,2.17-4.52,5.26-5.48,8.52-.88,3.01,1.07,6.67,4.19,7.38s6.43-.97,7.38-4.19h0Z"/>
      <path class="cls-2" d="M271.23,113.87c.35-.33.72-.64,1.08-.96.49-.4.36-.32-.37.26.19-.14.39-.28.59-.41.2-.13.4-.25.61-.36.57-.28.42-.22-.46.17.31.03.83-.22,1.16-.26l-1.6.21c.4-.03.79-.03,1.19.02l-1.6-.21c.06.01.82.23.85.21l-.91-.37c.38.24.33.2-.14-.14-.44-.37-.5-.39-.18-.07l-.6-.77c.35.45.83,1.17,1.3,1.63,2.34,2.28,5.89,2.67,8.73,1.07.24-.13.45-.28.67-.44l1.21-.94c.36-.29.33-.27-.09.06-.8.62.03,0,.22-.11.29-.18.58-.35.88-.5.21-.11,1.16-.53.21-.12s0,.02.24-.05c.65-.2,1.31-.34,1.98-.45l-1.6.21c1.02-.13,2.02-.14,3.04-.03l-1.6-.21c.22.03.45.06.67.1,1.63.28,3.14.26,4.62-.6,1.24-.73,2.43-2.16,2.76-3.59.66-2.9-.88-6.82-4.19-7.38-2.93-.49-5.83-.54-8.71.32-1.35.41-2.69.97-3.92,1.67-.44.25-.86.54-1.27.84-.5.37-.98.78-1.48,1.15.76-.56.95-.71.57-.46-.4.25-.16.16.73-.28l1.6-.21-.29.03,1.6.21c.95.17,1.78,1.1,2.32,1.8-.37-.47-.71-.99-1.11-1.43-.63-.7-1.41-1.29-2.23-1.74-1.63-.89-3.61-1.37-5.47-1.22-3.85.32-6.72,2.33-9.5,4.87-2.32,2.13-2.32,6.36,0,8.49,2.48,2.28,6.01,2.27,8.49,0h0Z"/>
      <g>
        <path class="cls-8" d="M179.91,85c-2.58-6.86-1.23-14.56,1-21.53,2.81-8.82,7.46-17.72,15.57-22.18,4.44-2.44,9.52-3.33,14.39-4.73,4.87-1.4,9.71-3.37,14.78-3.3,2.86.04,5.68.73,8.38,1.67,10.85,3.77,20.2,11.7,25.68,21.8,1.46,2.69,3.13,5.89,6.16,6.31"/>
        <path class="cls-8" d="M181.36,84.6c-3.08-8.48-.41-18.14,2.98-26.14,3.1-7.31,7.97-14.1,15.56-17.13,4.24-1.69,8.78-2.51,13.14-3.85s9.13-3.04,13.96-2.65c4.27.35,8.54,2.04,12.31,4,3.5,1.81,6.76,4.07,9.68,6.71,3.3,2.99,6.17,6.44,8.46,10.27,1.99,3.31,3.71,7.93,8.02,8.68,1.89.33,2.7-2.56.8-2.89s-3.02-1.77-3.97-3.33c-1.03-1.68-1.9-3.46-2.96-5.12-2.26-3.53-4.99-6.77-8.08-9.59-6.2-5.67-14.33-10.35-22.74-11.54-5-.71-9.77.55-14.51,2.03-4.59,1.43-9.35,2.39-13.87,4.01-8.24,2.97-13.93,9.35-17.61,17.14-4.25,9.02-7.62,20.44-4.07,30.21.65,1.8,3.55,1.02,2.89-.8h0Z"/>
      </g>
      <g>
        <path class="cls-8" d="M168.19,92.39c-4.75,6.85-7.95,2.67-22.71,16.89-5.26,5.06-6.07,12.6-5.97,15.57.21,6.26,4.37,9.2,3.64,7.97-3.28-5.54,6.42-23.25,12.12-26.22s12.35-3.34,18.72-4.22c8.69-1.21,17.65-3.73,23.91-9.87,2.37-2.33,4.27-5.1,6.62-7.45,2.42-2.43,5.28-4.38,8.11-6.31,5.59-3.81,11.31-7.68,17.8-9.59,10.54-3.1,21.81-.72,32.79-.79,14.57-.1,28.52-5.21,42.39-9.7,4.43-1.43,13.47-13.18,7.18-11.71-4.5,1.05-5.61-1.46-20.66,5.94-15.05,7.4-7.44,3.4-26,3.84-18.55.44-10.84.39-24.74.04-11.2-.29-22.36,4.25-30.78,11.65-4.34,3.81-8.25,8.59-13.8,10.2-2.16.63-4.49.74-6.47,1.81s-.42,4.41-2.36,5.56c-8.21,4.87-17.91,3.65-19.81,6.39Z"/>
        <path class="cls-8" d="M166.9,91.64c-2.15,3.07-5.13,4.09-8.48,5.87-2.72,1.44-5.24,3.2-7.66,5.12-3.51,2.78-7.28,5.82-9.56,9.74-3.24,5.57-4.75,13.82-1.13,19.56.55.87,1.25,1.87,2.17,2.39,1.24.71,2.83-.24,2.44-1.73-.24-.91-.64-1.39-.68-2.41-.04-1.22.16-2.41.45-3.59.77-3.14,2.11-6.13,3.67-8.96s3.19-5.36,5.32-7.61c2.45-2.58,5.78-3.65,9.19-4.43,4.78-1.09,9.7-1.36,14.53-2.2,9.13-1.58,17.79-4.99,23.96-12.15,1.62-1.89,3.15-3.87,4.95-5.59s3.93-3.27,6.03-4.72c4.13-2.84,8.28-5.72,12.77-7.95s9.65-3.54,14.85-3.82c5.2-.28,10.39.15,15.58.45s10.57.38,15.86-.26,10.42-1.76,15.52-3.16,10.23-3.09,15.31-4.75c1.82-.6,3.83-1.02,5.51-1.98,1.17-.67,2.22-1.57,3.2-2.49,1.98-1.87,3.94-4.13,5.09-6.63.86-1.87,1.09-4.61-1.58-4.96-.88-.12-2.15.24-2.74.32.02,0-.6.05-.85.07-.32.02-.65.03-.97.04-1.76.05-3.49.22-5.21.62-7.08,1.66-13.32,5.65-19.95,8.47-.79.34-1.6.65-2.44.86-.16.04-.33.07-.49.11-.42.09.06,0-.19.03-.34.03-.68.05-1.03.04-1.86-.03-3.71-.39-5.57-.53-7.01-.52-14.08.02-21.1.14-3.91.07-7.82-.15-11.73-.25-9.44-.25-18.72,2.54-26.62,7.69-3.84,2.51-7.08,5.63-10.43,8.72-1.64,1.51-3.34,2.97-5.28,4.08-2.05,1.18-4.21,1.62-6.5,2.13-1.93.43-4.27,1.01-5.06,3.04-.48,1.22.02,3.23-1.2,3.96-3.77,2.26-8.26,3.06-12.52,3.8-2.54.44-5.77.68-7.44,2.91-1.16,1.54,1.44,3.04,2.59,1.51-.09.12.09-.07.09-.07.15-.11.31-.2.47-.27.44-.21.93-.34,1.4-.47,1.32-.34,2.67-.55,4.01-.78,3.44-.59,6.85-1.3,10.08-2.66,1.45-.61,3.42-1.29,4.33-2.66.75-1.14.63-2.46.87-3.73.28-1.48,2.79-1.6,4.01-1.85,1.87-.38,3.65-.86,5.36-1.71,3.24-1.6,5.92-4.15,8.51-6.61,2.74-2.6,5.55-5.06,8.75-7.09,6.49-4.12,14.04-6.7,21.75-6.95,4.07-.13,8.16.22,12.23.27s7.74-.14,11.6-.24c5.42-.13,10.7-.03,16.08.52,3.09.32,5.68-.75,8.45-2.03,5.6-2.59,11.04-5.75,17.04-7.33,2.58-.68,4.96-.48,7.72-.9.28-.04.55-.1.82-.15.16-.03.43-.09.51-.1.2-.03.23-.02.22,0,.01-.02-.05-.03-.08-.06-.06-.06-.39-.46-.24-.27-.14-.19,0-.06-.02,0,.03-.13-.07.28-.1.37-.57,1.8-2.04,3.56-3.34,4.99s-2.93,3.11-4.68,3.83-3.85,1.25-5.72,1.87c-2.02.66-4.04,1.32-6.06,1.96-8.28,2.61-16.74,4.94-25.42,5.64s-17.24-.7-25.88-.58c-4.18.06-8.41.5-12.43,1.71-3.85,1.16-7.48,2.99-10.91,5.07s-7,4.48-10.35,6.91-6.15,5.29-8.84,8.5c-2.49,2.97-5.19,5.51-8.59,7.42s-6.81,3.05-10.44,3.93c-7.58,1.84-15.68,1.58-23.04,4.32-2.47.92-4.53,2.06-6.34,3.98s-3.19,3.9-4.51,6.02c-2.71,4.39-5.19,9.46-5.74,14.65-.1.96-.1,1.92.06,2.87.07.41.16.8.3,1.19.08.22.17.45.28.66.39.73-.15.03.07-.62l.69-.9c.09-.07,1.27-.18,1.24-.08,0,.02-.07-.14.05.04-.13-.19-.37-.35-.53-.54-.52-.61-.94-1.35-1.27-2.08-.79-1.76-1.03-3.68-.94-5.59.19-4.22,1.59-8.68,4.34-11.93,1.85-2.2,4.17-4.11,6.38-5.94,1.64-1.36,3.35-2.64,5.14-3.79,2.21-1.42,4.57-2.49,6.9-3.68s4.19-2.87,5.7-5.04c1.11-1.59-1.49-3.09-2.59-1.51Z"/>
      </g>
      <path class="cls-1" d="M194.66,81.36c5.14-.94,8.97-4.65,12.57-8.17,1.85-1.8,3.7-3.65,5.85-5.09,1.62-1.09,3.36-2.03,5.07-2.96,3.82-2.08,7.6-3.85,11.78-5.09,3.81-1.13,7.68-1.84,11.64-2.05,6.05-.32,12.14.11,18.19.44,1.93.11,1.92-2.89,0-3-9.67-.54-19.49-1.29-28.96,1.24-4.15,1.11-8.02,2.64-11.82,4.61-4.02,2.08-7.92,4.24-11.29,7.3-4.16,3.79-7.98,8.8-13.83,9.86-1.9.35-1.09,3.24.8,2.89h0Z"/>
      <path class="cls-1" d="M193.66,70.75c-2.02-8.69-.46-17.94,4.24-25.52,1.02-1.65-1.57-3.15-2.59-1.51-5.12,8.26-6.74,18.37-4.54,27.83.44,1.88,3.33,1.08,2.89-.8h0Z"/>
      <path class="cls-1" d="M244.55,48.02c.11-3.77-3.9-6.23-6.55-8.21-3.13-2.34-6.43-4.45-9.86-6.32-1.69-.93-3.21,1.66-1.51,2.59,3.09,1.69,6.08,3.57,8.93,5.64,1.33.97,2.66,1.97,3.91,3.04.98.84,2.12,1.86,2.08,3.26-.06,1.93,2.94,1.93,3,0h0Z"/>
      <path class="cls-1" d="M197.14,61.52c-.5.69-.82,1.54-.84,2.39-.03,1.05.49,2,1.35,2.59,1.32.92,3.21.63,4.53-.12,1.39-.79,2.37-2.25,2.39-3.87s-.98-3.24-2.57-3.82-3.64.18-4.32,1.71c-.17.38-.27.74-.15,1.16.1.35.36.73.69.9.35.18.77.28,1.16.15.35-.11.74-.34.9-.69.03-.08.07-.16.12-.23.17-.27-.07.11-.09.1,0,0,.16-.17.18-.18.18-.18-.34.21-.08.06.06-.04.13-.08.19-.11.3-.15-.2.06-.09.04.16-.04.31-.09.47-.11l-.4.05c.2-.02.39-.02.58,0l-.4-.05c.11.02.21.04.32.07.05.02.1.04.15.05.16.05-.35-.18-.15-.06.05.03.1.05.14.08.12.08.14.17-.11-.09.08.08.17.16.25.24.15.14-.1-.14-.1-.14.03.02.1.14.12.17.05.09.1.18.15.28.08.16-.13-.36-.06-.13.02.06.04.11.05.17.04.12.06.25.08.38l-.05-.4c.03.26.03.51,0,.77l.05-.4c-.03.16-.06.32-.11.48-.06.17-.15.18.04-.08-.04.06-.07.14-.1.2-.05.09-.11.17-.16.26-.14.22.23-.27.05-.07-.11.12-.22.24-.35.35-.26.22.27-.17.03-.02-.06.04-.13.09-.19.13-.14.09-.29.16-.44.24-.11.05-.05.02.18-.08-.05.02-.1.04-.14.05-.07.03-.15.05-.22.07-.17.05-.34.08-.51.11l.4-.05c-.25.03-.49.03-.73,0l.4.05c-.16-.02-.3-.06-.46-.1-.11-.04-.05-.01.19.09-.04-.02-.08-.04-.13-.06-.06-.03-.12-.08-.18-.11.29.15.22.18.09.05-.19-.18.17.31.06.07-.03-.04-.05-.09-.07-.14l.09.22s-.06-.24-.07-.3l.05.4c-.02-.18-.02-.36,0-.54l-.05.4c.02-.12.04-.24.08-.35.02-.05.03-.1.05-.15.05-.13.15-.21-.04.09.13-.21.23-.43.38-.63.22-.29.24-.82.15-1.16s-.36-.73-.69-.9c-.35-.18-.77-.28-1.16-.15s-.65.36-.9.69h0Z"/>
      <path class="cls-1" d="M235.2,45.76c-1.64,1.1-3.1,2.68-3.79,4.56-.39,1.07-.18,2.35.71,3.11.73.63,1.63.85,2.57.93.79.06,1.6-.04,2.38-.17.89-.15,1.72-.49,2.42-1.06.75-.61,1.18-1.53,1.23-2.49.05-1.02-.44-2.02-1.13-2.75-.83-.89-2.01-1.32-3.21-1.35s-2.44.38-3.56.89c-.72.32-.94,1.42-.54,2.05.48.74,1.28.88,2.05.54.08-.03.37-.22.05-.03.06-.03.15-.06.21-.08.18-.07.36-.13.54-.18s.36-.1.55-.14c.04,0,.21-.03.22-.04-.22.03-.24.03-.07.01h.11c.18-.02.37-.02.55-.01.04,0,.36.08.13,0-.24-.07.1.03.13.03.07.02.14.04.21.06l.08.03c.15.06.11.04-.12-.05.06.08.29.16.38.22.26.16-.24-.24-.03-.02.04.04.09.08.13.12.05.05.1.11.15.16.14.14-.2-.32-.05-.06.06.1.13.29.21.37-.16-.17-.1-.27-.06-.12.02.09.04.2.07.28.07.17,0-.4-.02-.11,0,.05,0,.11,0,.17.01.3.1-.35,0-.07-.01.04-.04.12-.05.16.03-.28.13-.24.04-.09-.03.06-.07.11-.1.17-.11.2.07-.1.09-.12-.06.03-.14.14-.19.19-.12.12-.19.05.09-.06-.04.02-.09.06-.13.09-.11.07-.25.11-.35.19.25-.19.25-.09.09-.04-.07.02-.13.05-.2.07-.15.05-.3.09-.45.12-.13.03-.25.05-.38.07-.32.06.38-.04.06,0-.06,0-.11.01-.17.02-.29.03-.57.05-.86.05-.12,0-.24,0-.36,0-.16,0-.56-.11-.09,0-.13-.03-.26-.04-.39-.08-.05-.01-.1-.03-.15-.04-.05-.02-.1-.03-.14-.05.23.1.29.13.19.08-.08-.06-.19-.12-.28-.16l.2.15s-.07-.06-.1-.1c.02.01.21.33.11.14-.03-.05-.13-.26-.02,0,.14.31.01-.03,0-.03l.03.19c0-.14,0-.14-.02-.01-.02.13-.02.12,0-.01.02-.07.04-.14.06-.21.03-.1,0-.22-.03.05.01-.09.1-.2.14-.29.1-.18.2-.36.31-.54.1-.16.21-.32.32-.47.06-.09.22-.24-.02.02.07-.07.13-.16.19-.24.24-.29.51-.56.78-.82.14-.13.3-.31.47-.4-.28.15-.14.1-.06.05.11-.08.22-.16.34-.23.65-.43,1-1.34.54-2.05-.42-.65-1.35-1-2.05-.54h0Z"/>
      <path class="cls-1" d="M248.61,46.99c-.86,1.06-1.57,2.29-1.56,3.69.01,1.3.74,2.64,1.92,3.24.69.35,1.48.47,2.23.26.64-.19,1.23-.59,1.64-1.11.95-1.2,1.35-2.76.71-4.2-.32-.71-1-1.23-1.74-1.44-.88-.26-1.81-.03-2.47.59-.57.54-.58,1.59,0,2.12.61.56,1.51.57,2.12,0,.03-.03.06-.05.09-.08l-.3.23c.06-.04.12-.08.19-.11l-.36.15c.07-.03.14-.05.21-.06l-.4.05c.12-.01.23-.01.34,0l-.4-.05c.12.02.23.05.34.1l-.36-.15c.11.05.21.11.3.18l-.3-.23c.08.06.14.13.21.21l-.23-.3c.07.09.12.19.17.3l-.15-.36c.05.14.09.28.11.43l-.05-.4c.02.18.02.35,0,.53l.05-.4c-.04.26-.1.5-.2.74l.15-.36c-.1.24-.23.47-.38.68l.23-.3c-.13.17-.27.31-.44.44l.3-.23c-.11.08-.23.15-.35.21l.36-.15c-.13.05-.26.09-.39.11l.4-.05c-.13.02-.26.02-.39,0l.4.05c-.15-.02-.29-.06-.43-.12l.36.15c-.14-.07-.27-.14-.39-.24l.3.23c-.14-.11-.26-.24-.38-.38l.23.3c-.12-.16-.23-.34-.31-.53l.15.36c-.07-.17-.11-.34-.14-.52l.05.4c-.03-.23-.02-.46,0-.69l-.05.4c.05-.31.13-.61.25-.9l-.15.36c.18-.42.42-.8.69-1.16l-.23.3c.05-.06.1-.12.15-.19.26-.32.44-.63.44-1.06,0-.37-.16-.81-.44-1.06s-.66-.46-1.06-.44c-.37.02-.81.14-1.06.44h0Z"/>
      <path class="cls-1" d="M184.37,68.85c-1.18,1.2-2.29,2.57-2.41,4.32s1.14,3.27,2.75,3.82,3.38-.19,4.28-1.62c.39-.62.61-1.4.61-2.13,0-.9-.34-1.7-.91-2.38-1.16-1.37-3.3-1.69-4.84-.82-.68.39-.97,1.38-.54,2.05s1.32.95,2.05.54c.05-.03.11-.05.16-.08.15-.1-.38.13-.13.06.09-.02.18-.05.27-.07.24-.06-.2.04-.19.02.01-.02.15-.01.18-.01.08,0,.49.04.19,0s.08.02.15.04.43.16.16.04.07.05.14.09c.04.02.08.05.12.08.23.14-.27-.25-.08-.06.07.07.15.16.22.23.13.12-.18-.29-.11-.14.03.05.07.1.1.15.02.04.04.09.07.13-.18-.22-.11-.3-.07-.16.02.06.04.11.05.17.02.06.06.34.02.05s0,.09,0,.16c0,.05,0,.1,0,.14,0,.24.02-.2.03-.18.03.04-.06.27-.08.32-.01.04-.03.14-.06.17l.09-.22s-.04.09-.06.13c-.05.09-.1.17-.15.25-.14.23.21-.23.08-.1-.03.03-.06.07-.1.11-.07.08-.16.14-.24.22.26-.27.23-.17.13-.11-.06.04-.12.07-.19.11-.23.14.31-.1.13-.05-.05.01-.09.03-.14.05-.06.02-.12.03-.18.04-.14.03-.13-.06.18-.02-.1-.01-.22,0-.33,0-.07,0-.25-.03.02,0,.29.04.01,0-.05-.02-.17-.04-.4-.2-.02.02-.1-.06-.2-.1-.3-.15-.04-.03-.08-.05-.12-.08-.14-.09-.1-.17.1.08-.07-.09-.18-.17-.26-.26-.17-.17.1.14.1.13-.03-.02-.06-.09-.08-.12-.03-.05-.06-.11-.09-.16-.08-.13-.02-.22.05.13-.02-.09-.06-.19-.09-.28-.08-.26.02.3,0,.11,0-.07-.01-.15-.01-.22s0-.14,0-.22c0-.15-.07.39,0,.06.03-.14.07-.28.12-.42.08-.21.11-.04-.03.07.05-.04.09-.18.12-.24.07-.13.15-.26.23-.39.07-.1.38-.48.09-.15.1-.12.2-.24.3-.36.22-.26.46-.5.7-.74.55-.56.6-1.57,0-2.12s-1.53-.6-2.12,0h0Z"/>
      <g>
        <path class="cls-3" d="M196.06,82.87c-6.64-3.37-12.51-8.22-17.08-14.1-.54-.69-1.13-1.45-1.99-1.64-.91-.2-1.82.31-2.55.87-5.06,3.88-6.47,11.76-3.07,17.15.56.89,1.27,1.75,2.24,2.19.82.37,1.75.41,2.65.44,3.91.11,7.83.03,11.74-.22"/>
        <path class="cls-8" d="M196.82,81.58c-4.31-2.21-8.29-5-11.79-8.35-1.69-1.62-3.27-3.36-4.73-5.19s-3.33-3.15-5.76-1.87c-3.42,1.79-5.66,5.93-6.27,9.62-.65,3.91.07,8.34,2.75,11.4,1.9,2.17,4.54,2.1,7.2,2.13,3.26.04,6.53-.05,9.78-.26,1.92-.12,1.93-3.12,0-3-2.36.15-4.72.24-7.09.26-1.14.01-2.28,0-3.43-.01-.99-.02-2.18.1-3.12-.27-1.57-.63-2.46-2.79-2.9-4.31s-.55-3.14-.37-4.72c.35-3.02,1.94-6.4,4.6-8.05,1.03-.64,1.45-.09,2.11.73s1.28,1.61,1.96,2.38c1.36,1.56,2.82,3.03,4.36,4.41,3.38,3.03,7.15,5.62,11.19,7.69,1.71.88,3.23-1.71,1.51-2.59h0Z"/>
      </g>
      <path class="cls-4" d="M180.14,120.65c.17,4.65.94,9.27,2.39,13.69.68,2.08,1.38,4.41,2.96,6,1.43,1.44,3.32,2.32,4.77,3.76s2.67,3.19,3.54,5.08,1.3,3.96,2.12,5.88c1.74,4.08,5.43,6.1,9.08,8.26,6.93,4.09,14.11,7.96,20.28,13.19,3.02,2.56,5.8,5.44,8.02,8.74,2.45,3.64,4.19,7.67,5.53,11.83,1.5,4.68,2.84,9.63,3.6,14.48.14.92.29,2.33-.67,2.88-.05.03-.37.14-.38.16h-.18c.08.09.16.19.25.28.09-.32-.05-.56.18-.92.42-.65,1.1-.79,1.74-.34.75.53.94,1.45.85,2.3l.74-1.3c-4.04,2.7-6.54,6.92-9.79,10.41-1.31,1.41.8,3.54,2.12,2.12,1.78-1.91,3.31-4.02,5-6.01.76-.89,1.55-1.76,2.42-2.55s2.32-1.41,2.51-2.68c.32-2.19-1.16-4.6-3.24-5.33s-4.22.33-5.15,2.25c-.99,2.05-.14,4.7,2.4,4.76s4.12-2.23,4.28-4.5c.09-1.28-.22-2.58-.49-3.83-.32-1.48-.65-2.96-.99-4.43-.64-2.74-1.33-5.47-2.17-8.15-1.65-5.23-3.89-10.32-7.21-14.72-3.07-4.07-6.84-7.47-10.92-10.5s-8.5-5.66-12.9-8.23c-2.23-1.31-4.47-2.6-6.68-3.94-2.46-1.49-4.54-3.04-5.63-5.8s-1.74-5.59-3.37-8.12-3.74-4.49-6.2-6.16c-1.47-1-2.21-2.1-2.83-3.75s-1.11-3.18-1.53-4.81c-.85-3.29-1.32-6.64-1.45-10.03-.07-1.92-3.07-1.93-3,0h0Z"/>
      <g>
        <path class="cls-11" d="M171.78,5.99c19.3,18.59,37.92,40.33,40.79,66.97.96,8.91-.3,19.11-7.33,24.66-4.68,3.69-10.95,4.53-16.89,4.93-8.52.58-17.56.44-24.91-3.92-12.64-7.49-13.52-19.67-11.69-34.24,1.79-14.28,7.31-22.52,12.52-35.94,1.85-4.76,7.05-22.92,7.52-22.46Z"/>
        <path class="cls-7" d="M167.54,10.23c6.54,6.3,12.88,12.83,18.64,19.86.69.84,1.37,1.69,2.05,2.55.93,1.18-.46-.62.19.24.41.54.82,1.08,1.23,1.63,1.33,1.79,2.61,3.62,3.85,5.48,2.44,3.68,4.66,7.5,6.6,11.46.47.95.91,1.92,1.34,2.89.11.24.21.49.32.73.33.74-.44-1.09-.14-.34.22.55.45,1.1.67,1.66.82,2.1,1.54,4.23,2.17,6.39s1.12,4.24,1.53,6.4c.19.99.35,1.98.5,2.97.16,1.06-.05-.26-.05-.39.01.26.07.54.1.8.07.61.13,1.22.18,1.84.16,2.01.2,4.03.08,6.04-.03.49-.06.98-.11,1.46-.02.24-.05.49-.08.73-.08.8.2-1.3.07-.51-.17,1.01-.35,2.02-.6,3.01-.23.92-.51,1.83-.85,2.72-.08.22-.18.44-.26.66.03-.1.63-1.34.18-.47-.24.47-.46.94-.72,1.39-.23.4-.47.8-.73,1.18-.13.19-.27.38-.39.57-.42.63.8-.96.3-.39-.66.76-1.35,1.44-2.07,2.13-.69.65.22-.17.34-.24-.22.11-.45.33-.66.47-.44.3-.9.58-1.37.84-.2.11-1.25.81-1.43.72.12.06,1.17-.45.32-.14-.38.14-.75.28-1.14.41-.96.32-1.95.57-2.94.79-.53.12-1.07.22-1.61.31-.27.05-.54.08-.81.13-.77.13,1.31-.15.17-.02-4.64.53-9.37.79-14.03.52-.56-.03-1.12-.07-1.69-.13-.28-.03-.56-.05-.84-.08-.23-.03-1.16-.14-.25-.02s-.57-.1-.86-.15c-.68-.12-1.36-.26-2.04-.42-1.08-.26-2.14-.57-3.18-.94-.26-.09-.52-.19-.78-.29-.64-.24-.37.13.29.13-.44,0-1.29-.62-1.68-.82-.91-.49-1.78-1.03-2.63-1.61-.17-.11-1.54-1.11-.68-.48.75.55.11.08-.07-.07-.22-.18-.43-.37-.65-.55-.66-.58-1.28-1.2-1.87-1.85-.27-.3-.52-.7-.83-.97.05.04.9,1.24.36.47-.15-.21-.3-.42-.45-.64-.46-.68-.89-1.39-1.27-2.11-.19-.36-.36-.73-.54-1.1-.11-.23-.4-.91,0,.02.42.99.05.09-.04-.14-.62-1.65-1.06-3.37-1.36-5.11-.09-.53-.12-1.92-.02,0-.02-.43-.1-.87-.14-1.3-.08-.89-.13-1.77-.15-2.66-.05-1.98.01-3.96.15-5.94.07-.97.15-1.95.25-2.92.05-.5.11-.99.16-1.49.03-.25.06-.5.09-.75.12-1.05-.14.87-.01.07.36-2.36.8-4.71,1.4-7.02.55-2.13,1.21-4.23,1.96-6.3.35-.98.72-1.95,1.11-2.91.19-.48.39-.96.59-1.44.1-.23.31-1.03.07-.18-.25.92.06-.15.16-.36,3.08-7.17,6.43-14.21,8.82-21.65,1.69-5.28,3.17-10.65,5.07-15.86.29-.8.81-1.45-.2.4.05-.09.08-.19.13-.28.02-.03.04-.07.06-.1-.47.72-1.2,1.62-2.06,2.05l-3.03.82h.02c-1.01-.27-2.02-.55-3.03-.82h.01c2.72,1.57,6.69.74,8.21-2.14s.76-6.54-2.15-8.21c-3.14-1.8-6.84-.44-8.51,2.59-.6,1.1-1.01,2.44-1.42,3.64-.96,2.82-1.83,5.67-2.72,8.52s-1.82,5.88-2.8,8.79c-.4,1.21-.84,2.4-1.31,3.59-.25.63-.51,1.27-.77,1.9-.11.27-.23.55-.34.82-.42,1.02,0-.09.09-.22-.67,1.01-1.03,2.39-1.52,3.5-4.07,9.23-8.12,18.31-9.5,28.4-1.16,8.52-1.98,17.87,1.23,26.07,1.67,4.26,4.06,8.14,7.49,11.23,4,3.61,8.78,6.24,13.99,7.64s10.54,1.67,15.82,1.49,10.67-.51,15.68-2.03c5.57-1.69,10.19-4.88,13.55-9.63,2.89-4.08,4.14-9.03,4.76-13.92s.21-9.48-.48-14.21-1.85-9.27-3.44-13.71c-6.71-18.78-19.59-34.51-33.5-48.49-1.68-1.69-3.38-3.35-5.09-5-2.26-2.18-6.27-2.42-8.49,0s-2.41,6.16,0,8.49Z"/>
      </g>
    </g>
  </g>
</svg>